<svg version="1.2" xmlns="http://www.w3.org/2000/svg" viewBox="0 0 229 314" width="229" height="314"><style>.a{fill:none;stroke:#fff;stroke-miterlimit:10;stroke-width:9}.b{fill:#a3acd3}.c{fill:#8399be}.d{fill:#2d3c77}.e{fill:#fff}.f{fill:#fbeb53}</style><path class="a" d="m157.1 218.3h-85.4c-30.7 0-55.6-24.9-55.6-55.6l10-101.7c4.9-30.5 24.9-55.6 55.6-55.6h65.4c30.7 0 52.3 25.5 55.6 55.6l10 101.7c0 30.7-24.9 55.6-55.6 55.6z"/><path class="b" d="m166.8 280h-104.8c-19 0-34.4-15.4-34.4-34.4v-12.6c0-19 15.4-34.4 34.4-34.4h104.8c19 0 34.4 15.4 34.4 34.4v12.6c0 19-15.4 34.4-34.4 34.4z"/><path class="c" d="m204 269h-179.2c-13.7 0-24.8-11.1-24.8-24.8v-65.8c0-13.7 11.1-24.8 24.8-24.8h179.2c13.7 0 24.8 11.1 24.8 24.8v65.8c0 13.7-11.1 24.8-24.8 24.8z"/><path class="b" d="m184.2 252h-87.6c-19 0-34.4-15.4-34.4-34.4v-12.6c0-19 15.4-34.4 34.4-34.4h87.6c19 0 34.4 15.4 34.4 34.4v12.6c0 19-15.4 34.4-34.4 34.4z"/><path class="d" d="m128.4 215.3h-9.1v-15.4h9.1z"/><path class="d" d="m199.4 215.3h-9.1v-15.4h9.1z"/><path class="e" d="m127 203.2c0 1.2-0.9 2.1-2 2.1-1.2 0-2.1-0.9-2.1-2.1 0-1.1 0.9-2.1 2.1-2.1 1.1 0 2 1 2 2.1z"/><path class="e" d="m198 203.2c0 1.2-0.9 2.1-2 2.1-1.2 0-2.1-0.9-2.1-2.1 0-1.1 0.9-2.1 2.1-2.1 1.1 0 2 1 2 2.1z"/><path class="f" d="m167.1 289.5c0 2-21.9 3.6-48.8 3.6-27 0-48.9-1.6-48.9-3.6 0-2 21.9-3.6 48.9-3.6 26.9 0 48.8 1.6 48.8 3.6z"/><path class="f" d="m156 300.5c0 1.6-16.9 2.8-37.7 2.8-20.9 0-37.8-1.2-37.8-2.8 0-1.5 16.9-2.8 37.8-2.8 20.8 0 37.7 1.3 37.7 2.8z"/><path class="f" d="m136.8 311.5c0 1.4-8.3 2.5-18.5 2.5-10.2 0-18.5-1.1-18.5-2.5 0-1.3 8.3-2.4 18.5-2.4 10.2 0 18.5 1.1 18.5 2.4z"/><path class="d" d="m150.2 210.6c0 0-0.2 15.5 11.8 15.5 12.5 0 12.5-15.5 12.5-15.5z"/><path class="f" d="m136.7 20.1c3.2-3.4 4.1-2.8 2 1.4l-22 42.9c-2.1 4.2 0 7.9 4.6 8.2l30.3 2.6c4.6 0.4 5.8 3.4 2.5 6.8l-62 64.4c-3.2 3.3-4.1 2.7-2-1.5l22-42.9c2.1-4.1 0-7.8-4.6-8.2l-30.3-2.6c-4.6-0.3-5.8-3.4-2.5-6.8z"/><path class="b" d="m19.9 250.9h-6.8v-29.6h6.8z"/><path class="b" d="m30.9 250.9h-6.8v-29.6h6.8z"/><path class="b" d="m41.9 250.9h-6.8v-29.6h6.8z"/></svg>