<?xml version="1.0" encoding="UTF-8" standalone="no"?>
<svg
   version="1.2"
   viewBox="0 0 229 314"
   width="229"
   height="314"
   id="svg36"
   sodipodi:docname="ai-robot.svg"
   inkscape:version="1.2.2 (732a01da63, 2022-12-09)"
   xmlns:inkscape="http://www.inkscape.org/namespaces/inkscape"
   xmlns:sodipodi="http://sodipodi.sourceforge.net/DTD/sodipodi-0.dtd"
   xmlns="http://www.w3.org/2000/svg"
   xmlns:svg="http://www.w3.org/2000/svg">
   <style>
      .circle {
         transform-box: fill-box;
         transform-origin:center;
         transform:translateY(10%);
      }
      .circle.first {animation: hover 0.7s linear infinite alternate;}

      .circle.second {animation: hover 0.7s 0.1s linear infinite alternate;}

      .circle.third {animation: hover 0.7s 0.2s linear infinite alternate;}

      @keyframes hover {to {transform:translateY(-100%)}}

      #lightening-shadow {
         opacity:0;
         animation: fade 1.5s linear infinite alternate;
      }
      @keyframes fade {to {opacity:1;}}
   </style>
  <defs
     id="defs40">
    <filter
       inkscape:collect="always"
       style="color-interpolation-filters:sRGB"
       id="filter1010"
       x="-0.38241821"
       y="-0.24343527"
       width="1.7648364"
       height="1.4868705">
      <feGaussianBlur
         inkscape:collect="always"
         stdDeviation="13.248635"
         id="feGaussianBlur1012" />
    </filter>
  </defs>
  <sodipodi:namedview
     id="namedview38"
     pagecolor="#ffffff"
     bordercolor="#000000"
     borderopacity="0.25"
     inkscape:showpageshadow="2"
     inkscape:pageopacity="0.0"
     inkscape:pagecheckerboard="0"
     inkscape:deskcolor="#d1d1d1"
     showgrid="false"
     inkscape:zoom="0.75159236"
     inkscape:cx="-5.9872881"
     inkscape:cy="-76.504237"
     inkscape:window-width="1280"
     inkscape:window-height="945"
     inkscape:window-x="-9"
     inkscape:window-y="-9"
     inkscape:window-maximized="1"
     inkscape:current-layer="svg36" />
  <style
     id="style2">.a{fill:none;stroke:#fff;stroke-miterlimit:10;stroke-width:9}.b{fill:#a3acd3}.c{fill:#8399be}.d{fill:#2d3c77}.e{fill:#fff}.f{fill:#fbeb53}</style>
  <path
     class="a"
     d="m157.1 218.3h-85.4c-30.7 0-55.6-24.9-55.6-55.6l10-101.7c4.9-30.5 24.9-55.6 55.6-55.6h65.4c30.7 0 52.3 25.5 55.6 55.6l10 101.7c0 30.7-24.9 55.6-55.6 55.6z"
     id="path4" />
  <path
     class="b"
     d="m166.8 280h-104.8c-19 0-34.4-15.4-34.4-34.4v-12.6c0-19 15.4-34.4 34.4-34.4h104.8c19 0 34.4 15.4 34.4 34.4v12.6c0 19-15.4 34.4-34.4 34.4z"
     id="path6" />
  <path
     class="c"
     d="m204 269h-179.2c-13.7 0-24.8-11.1-24.8-24.8v-65.8c0-13.7 11.1-24.8 24.8-24.8h179.2c13.7 0 24.8 11.1 24.8 24.8v65.8c0 13.7-11.1 24.8-24.8 24.8z"
     id="path8" />
  <path
     class="b"
     d="m184.2 252h-87.6c-19 0-34.4-15.4-34.4-34.4v-12.6c0-19 15.4-34.4 34.4-34.4h87.6c19 0 34.4 15.4 34.4 34.4v12.6c0 19-15.4 34.4-34.4 34.4z"
     id="path10" />
  <path
     class="d"
     d="m128.4 215.3h-9.1v-15.4h9.1z"
     id="path12" />
  <path
     class="d"
     d="m199.4 215.3h-9.1v-15.4h9.1z"
     id="path14" />
  <path
     class="e"
     d="m127 203.2c0 1.2-0.9 2.1-2 2.1-1.2 0-2.1-0.9-2.1-2.1 0-1.1 0.9-2.1 2.1-2.1 1.1 0 2 1 2 2.1z"
     id="path16" />
  <path
     class="e"
     d="m198 203.2c0 1.2-0.9 2.1-2 2.1-1.2 0-2.1-0.9-2.1-2.1 0-1.1 0.9-2.1 2.1-2.1 1.1 0 2 1 2 2.1z"
     id="path18" />
  <path
     class="f circle third"
     d="m167.1 289.5c0 2-21.9 3.6-48.8 3.6-27 0-48.9-1.6-48.9-3.6 0-2 21.9-3.6 48.9-3.6 26.9 0 48.8 1.6 48.8 3.6z"
     id="third-circle" />
  <path
     class="f circle second"
     d="m156 300.5c0 1.6-16.9 2.8-37.7 2.8-20.9 0-37.8-1.2-37.8-2.8 0-1.5 16.9-2.8 37.8-2.8 20.8 0 37.7 1.3 37.7 2.8z"
     id="second-circle" />
  <path
     class="f circle first"
     d="m136.8 311.5c0 1.4-8.3 2.5-18.5 2.5-10.2 0-18.5-1.1-18.5-2.5 0-1.3 8.3-2.4 18.5-2.4 10.2 0 18.5 1.1 18.5 2.4z"
     id="first-circle"
     inkscape:label="first-circle" />
  <path
     class="d"
     d="m150.2 210.6c0 0-0.2 15.5 11.8 15.5 12.5 0 12.5-15.5 12.5-15.5z"
     id="path26" />
  <path
     class="f"
     d="m 136.54352,20.194879 c 3.2,-3.4 4.1,-2.8 2,1.4 l -22,42.9 c -2.1,4.2 0,7.900001 4.6,8.2 l 30.3,2.6 c 4.6,0.4 5.8,3.4 2.5,6.8 L 91.943517,146.49488 c -3.2,3.3 -4.1,2.7 -2,-1.5 l 22.000003,-42.9 c 2.1,-4.099997 0,-7.799998 -4.60001,-8.199997 l -30.299989,-2.6 c -4.6,-0.3 -5.8,-3.4 -2.5,-6.800003 z"
     id="lightening-shadow"
     style="display:inline;mix-blend-mode:normal;fill:#ffff00;filter:url(#filter1010)" />
  <path
     class="f"
     d="m 136.54352,20.19488 c 3.2,-3.4 4.1,-2.8 2,1.4 l -22,42.9 c -2.1,4.2 0,7.9 4.6,8.2 l 30.3,2.6 c 4.6,0.4 5.8,3.4 2.5,6.8 l -61.999997,64.4 c -3.2,3.3 -4.1,2.7 -2,-1.5 l 21.999997,-42.9 c 2.1,-4.1 0,-7.8 -4.6,-8.2 l -30.299997,-2.6 c -4.6,-0.3 -5.8,-3.4 -2.5,-6.8 z"
     id="lightening"
     inkscape:label="lightening" />
  <path
     class="b"
     d="m19.9 250.9h-6.8v-29.6h6.8z"
     id="path30" />
  <path
     class="b"
     d="m30.9 250.9h-6.8v-29.6h6.8z"
     id="path32" />
  <path
     class="b"
     d="m41.9 250.9h-6.8v-29.6h6.8z"
     id="path34" />
</svg>
