<?xml version="1.0" encoding="UTF-8" standalone="no"?>
<svg
   version="1.2"
   viewBox="0 0 954 55"
   width="954"
   height="55"
   id="svg8"
   sodipodi:docname="american-bar.svg"
   inkscape:version="1.2.2 (732a01da63, 2022-12-09)"
   xmlns:inkscape="http://www.inkscape.org/namespaces/inkscape"
   xmlns:sodipodi="http://sodipodi.sourceforge.net/DTD/sodipodi-0.dtd"
   xmlns="http://www.w3.org/2000/svg"
   xmlns:svg="http://www.w3.org/2000/svg">
  <defs
     id="defs12" />
  <sodipodi:namedview
     id="namedview10"
     pagecolor="#ffffff"
     bordercolor="#000000"
     borderopacity="0.25"
     inkscape:showpageshadow="2"
     inkscape:pageopacity="0.0"
     inkscape:pagecheckerboard="0"
     inkscape:deskcolor="#d1d1d1"
     showgrid="false"
     inkscape:zoom="0.62054507"
     inkscape:cx="510.03547"
     inkscape:cy="-81.380068"
     inkscape:window-width="1280"
     inkscape:window-height="945"
     inkscape:window-x="-9"
     inkscape:window-y="-9"
     inkscape:window-maximized="1"
     inkscape:current-layer="svg8" />
  <style
     id="style2">.a{fill:#145e85}.b{fill:#706e6e}</style>
  <path
     fill-rule="evenodd"
     class="a"
     d="m399 30.2c1.5 2.3 2.3 5.1 2.3 8 0 2.3-0.3 4.5-1.4 6.5-0.9 1.8-2.3 3.5-4 4.6q-3 1.7-6 2.6c-2 0.6-4.3 0.8-6.6 0.8h-24.6v-50.8h24c2.3 0 4.3 0 6.6 0.6 1.7 0.3 3.7 0.8 5.2 2 1.4 1.1 2.5 2.5 3.4 4 0.8 2 1.1 4 1.1 6 0 2.2-0.5 4.2-1.7 6.2q-2.1 3-5.1 4.3c2.8 0.6 5.4 2.3 6.8 5.2zm-28.8-8h11.4c1.7 0 3.4-0.6 4.9-1.5 1.4-1.1 2.2-2.8 2-4.5 0-0.9 0-2-0.6-2.9q-0.4-0.8-1.7-1.7-1.3-0.4-2.6-0.9c-0.9-0.2-2-0.2-2.9-0.2h-10.5zm20.8 15.1c0-2.3-0.5-4.3-2.3-5.7-1.7-1.2-4-1.7-6-1.7h-12.2v14h12c1.1 0 2 0 3.1-0.3 0.9-0.3 1.7-0.6 2.6-1.2 0.5-0.5 1.4-1.1 1.7-2 0.6-1.1 0.8-2.2 1.1-3.1zm42-35.7l18.9 50.8h-11.7l-3.8-11.4h-18.8l-4 11.4h-11.1l19.1-50.8zm0.3 31.1l-6.3-18.5-6.6 18.5zm66.6 20.6h-11.2c-0.5-2-1.1-4-1.1-6 0-2.3-0.3-4.3-0.6-6.3 0-2.3-0.8-4.3-2.3-6-1.7-1.4-3.7-2.3-6-2h-11.1v19.7h-11.1v-50.8h27.4c2.3 0 4.3 0.3 6.3 1.1 1.7 0.6 3.1 1.7 4.5 2.9 1.2 1.4 2.3 2.8 2.9 4.6 0.8 1.7 1.1 3.4 1.1 5.4 0.3 2.8-0.3 5.7-1.7 8-1.4 2.3-3.7 4-6.3 4.8 1.2 0.3 2.6 0.9 3.5 1.7 0.8 0.9 1.7 1.8 2.2 2.9 0.6 1.1 0.9 2.3 1.2 3.4 0.3 1.2 0.6 2.3 0.6 3.7 0 0.9 0 1.8 0 2.9 0 1.1 0.2 2.3 0.2 3.4 0 0.9 0.3 2 0.6 3.2 0.3 1.1 0.6 2 0.9 3.4zm-12.3-35.7c0-2-0.6-4-2-5.4-1.7-1.5-4-2-6-1.7h-12.3v14.2h12.3q3.4 0.5 6-1.7c1.4-1.4 2-3.7 2-5.4z"
     id="path4"
     style="fill:#fcec52;fill-opacity:1" />
  <path
     fill-rule="evenodd"
     class="b"
     d="m25.7 1.6l20 50.9h-5.1l-6.3-15.8h-23.2l-6 15.8h-5.1l20.3-50.9zm7.1 30.9l-9.7-26-10.3 26zm60.9-30.9h7.1v50.9h-4.8v-44h-0.3l-17.5 44h-4.5l-16.9-44h-0.3v44h-4.8v-50.9h7.1l16.9 44.6zm20 46.8h30.5v4h-35.4v-50.8h35.1v4.3h-30.2v18.2h28.2v4h-28.2zm76.5 1.7c0 0.9 0.6 1.8 1.2 2.6h-5.5c-0.3-0.6-0.5-1.1-0.5-1.7 0-0.6-0.3-1.1-0.3-2-0.3-0.9-0.3-2.3-0.3-2.3v-2c-0.3-2-0.3-3.7-0.6-5.4-0.3-1.7-0.8-3.4-1.4-4.9-0.6-1.4-1.7-2.5-2.9-3.4-1.7-0.8-3.4-1.4-5.4-1.1h-18.3v22.5h-4.8v-50.5h23.4q3 0 6 0.8c1.7 0.3 3.4 1.2 4.8 2.3 1.5 0.9 2.6 2.3 3.5 4 0.8 2 1.1 4 1.1 6 0 2.9-0.8 5.7-2.6 8.3-1.7 2.6-4.5 4-7.4 4.6 1.4 0.3 2.9 0.8 4 1.4 0.9 0.9 2 1.4 2.6 2.6 0.6 1.1 1.1 2.2 1.4 3.4 0.3 1.4 0.6 2.8 0.6 4.3 0 0.8 0 2 0 3.1 0 1.2 0.3 2.6 0.3 3.7 0 1.2 0.3 2.3 1.1 3.7zm-8.6-27.4c0.9-0.8 1.8-1.7 2.3-2.8q0.9-2.2 0.9-4.3c0.3-2.9-0.6-5.4-2.6-7.4-2.3-1.8-5.1-2.9-8.3-2.6h-18v20h18c1.5 0 2.9 0 4.3-0.6 1.2-0.3 2.3-1.1 3.4-2.3zm17.2-21.1h4.8v50.8h-4.8zm53.4 31.7h4.8c-0.2 3.2-1.1 6-2.2 8.6-0.9 2.3-2.3 4.6-4.3 6.3-2 2-4 3.4-6.6 4.3-2.6 0.8-5.1 1.4-8 1.4-3.7 0-7.1-0.9-10.6-2.3-2.8-1.4-5.4-3.4-7.4-6-2-2.3-3.7-5.1-4.6-8.3-2-6.5-2-13.4 0-20 1.2-3.1 2.6-6 4.6-8.5 2-2.6 4.6-4.6 7.4-6 5.8-2.6 12-2.9 17.8-1.2 2.2 0.6 4.2 1.7 6.2 3.2 1.8 1.4 3.5 3.1 4.6 5.1 1.2 2.3 2 4.6 2.3 7.2h-4.9c-0.2-2-1.1-3.8-2-5.2-0.8-1.7-2-2.8-3.4-4-1.4-0.8-2.8-1.7-4.6-2.3-1.7-0.5-3.7-0.8-5.4-0.8-2.8 0-6 0.5-8.6 2-2.2 1.1-4.2 2.8-6 4.8-1.7 2-2.8 4.6-3.4 7.2q-2.1 8.1 0 16.2c0.6 2.6 1.7 4.9 3.4 7.2q2.6 3.4 6 5.1c2.6 1.5 5.5 2 8.6 2 2 0.3 4.3-0.3 6.3-1.1 1.7-0.9 3.4-2 4.9-3.4q2.1-2.2 3.4-5.2c0.8-2 1.4-4.3 1.7-6.3zm32.3-31.7l20 50.9h-5.2l-6.3-15.7h-23.1l-6 15.7h-5.1l20.2-50.9zm7.2 30.9l-9.7-26-10.3 26zm52.8 12.3v-43.2h4.9v51.2h-5.4l-29.7-42.9h-0.3v42.9h-4.9v-50.9h5.4l29.7 42.9zm188.6-43.2l20 50.9h-5.2l-6.3-15.7h-23.1l-6 15.7h-5.1l20.5-50.9zm7.2 30.9l-9.8-26-10.2 26zm53.9 2.3c0.9 1.7 1.2 3.7 1.2 5.4 0 0.8-0.3 1.4-0.3 2.3-0.3 0.8-0.6 2-0.9 2.8-0.5 1.2-1.1 2.3-1.9 3.2-0.9 1.1-2 2-3.5 2.8-1.7 0.9-3.4 1.5-5.4 2q-3.9 0.9-7.7 0.9c-2.9 0-5.4-0.6-8.3-1.2-2.3-0.5-4.6-1.7-6.6-3.1-2-1.4-3.4-3.1-4.3-5.4-0.8-2.6-1.4-5.2-1.1-8h4.9c-0.3 2.3 0.2 4.5 1.1 6.5 0.6 1.8 2 3.2 3.4 4.3 1.7 1.2 3.5 2 5.5 2.3 2.2 0.3 4.2 0.6 6.5 0.6 1.5 0 2.9-0.3 4.3-0.6q2.2-0.4 4.3-1.7c1.4-0.9 2.6-1.7 3.4-3.1 1.2-1.5 1.5-3.2 1.5-4.9 0.2-1.4-0.3-2.6-0.9-3.7-0.9-0.9-1.7-2-2.6-2.6q-1.7-0.8-3.4-1.7c-1.1-0.6-2.6-0.9-3.7-1.1l-11.4-2.9c-1.5-0.3-2.9-0.8-4.3-1.4-1.5-0.6-2.6-1.4-3.7-2.3q-1.8-1.3-2.6-3.4-0.9-2.6-0.9-5.2c0-1.4 0-2.8 0.6-4.3 0.3-1.7 1.4-3.1 2.6-4.5 1.4-1.7 3.4-2.9 5.4-3.7 2.9-1.2 5.7-1.5 8.9-1.5 2.2 0 4.8 0.6 7.1 1.2 2.3 0.5 4.3 1.4 6 2.8 3.7 2.9 5.7 7.2 5.7 11.7h-4.8c-0.3-1.7-0.6-3.4-1.5-5.1-0.5-1.4-1.7-2.9-2.8-3.7-1.2-1.2-2.9-1.7-4.3-2.3q-2.6-0.9-5.2-0.9c-1.7 0-3.1 0.3-4.8 0.6-1.4 0.3-2.9 0.9-4 1.7-1.2 0.6-2 1.7-2.9 2.9-0.8 1.4-1.1 3.1-1.1 4.8 0 0.9 0.3 2 0.6 2.9 0.2 0.9 0.8 1.7 1.7 2.3 0.8 0.6 1.7 1.1 2.5 1.4 0.9 0.3 1.8 0.6 2.9 0.9l12.3 2.8c1.7 0.3 3.4 1.2 5.1 1.7q2.6 0.9 4.3 2.6c1.2 1.1 2.3 2.9 3.1 4.9zm45.2-0.6c0.8 1.7 1.1 3.7 1.1 5.4 0 0.9-0.3 1.4-0.3 2.3-0.2 0.9-0.5 2-0.8 2.9-0.6 1.1-1.2 2.2-2 3.1-0.9 1.1-2 2-3.4 2.9-1.8 0.8-3.5 1.4-5.5 2q-3.8 0.8-7.7 0.8c-2.8 0-5.4-0.6-8.3-1.1-2.3-0.6-4.5-1.7-6.5-3.2-2-1.4-3.5-3.1-4.3-5.4-0.9-2.6-1.5-5.1-1.2-8h4.9c-0.3 2.3 0.3 4.6 1.1 6.6 0.6 1.7 2 3.1 3.5 4.3 1.7 1.1 3.4 2 5.4 2.2 2.3 0.3 4.3 0.6 6.6 0.6 1.4 0 2.8-0.3 4.2-0.6q2.2-0.4 4.3-1.7c1.5-0.8 2.6-1.7 3.5-3.1 1.1-1.4 1.4-3.2 1.4-4.9 0.3-1.4-0.3-2.5-0.9-3.7-0.8-0.8-1.7-2-2.5-2.6q-1.8-0.8-3.5-1.7c-1.1-0.5-2.5-0.8-3.7-1.1l-11.4-2.9c-1.4-0.2-2.9-0.8-4.3-1.4-1.4-0.6-2.6-1.4-3.7-2.3q-1.7-1.3-2.6-3.4-0.8-2.6-0.8-5.1c0-1.5 0-2.9 0.5-4.3 0.3-1.7 1.5-3.2 2.6-4.6 1.4-1.4 3.1-2.3 5.1-3.1 2.9-1.2 5.8-1.5 8.9-1.5 2.3 0 4.9 0.6 7.1 1.2 2.3 0.5 4.3 1.4 6 2.8 3.8 2.9 5.8 7.2 5.8 11.7h-4.9c-0.3-1.7-0.6-3.4-1.4-5.1-0.6-1.4-1.7-2.9-2.9-3.7-1.1-1.2-2.8-1.7-4.3-2.3q-2.5-0.9-5.1-0.9c-1.7 0-3.2 0.3-4.9 0.6-1.4 0.3-2.8 0.9-4 1.7-1.1 0.6-2 1.7-2.8 2.9-0.9 1.4-1.2 3.1-1.2 4.8 0 0.9 0.3 2 0.6 2.9 0.3 0.9 0.9 1.7 1.7 2.3 0.9 0.6 1.7 1.1 2.6 1.4 0.8 0.3 1.7 0.6 2.8 0.9l12.3 2.8c1.7 0.3 3.5 1.2 5.2 1.7q2.5 0.9 4.3 2.6c1.1 1.1 2.2 2.3 3.4 4.3zm52-16.9c2 6.6 2 13.5 0 20-1.2 2.9-2.6 5.7-4.6 8.3-2 2.6-4.6 4.6-7.4 6-6.6 2.9-14.3 2.9-20.9 0-2.8-1.4-5.4-3.4-7.4-6-2-2.3-3.7-5.1-4.6-8.3-2-6.5-2-13.4 0-20 1.2-3.1 2.6-6 4.6-8.5 2-2.6 4.6-4.6 7.4-6 6.6-2.9 14.3-2.9 20.9 0 2.8 1.4 5.4 3.4 7.4 6 2 2.3 3.4 5.1 4.6 8.5zm-4.6 1.8c-0.6-2.6-2-4.9-3.4-7.2q-2.6-3.4-6-5.1c-2.6-1.5-5.7-2-8.6-2-2.9 0-6 0.5-8.6 2-2.5 1.1-4.5 3.1-6 5.1-1.7 2-2.8 4.6-3.4 7.2q-2.1 8.1 0 16.2c0.6 2.6 1.7 4.9 3.4 7.2q2.6 3.4 6 5.1c2.6 1.4 5.5 2 8.6 2 2.9 0 6-0.6 8.6-2 2.5-1.1 4.5-3.1 6-5.1 1.7-2 2.8-4.6 3.4-7.2 1.4-5.4 1.4-11.1 0-16.2zm51.4 14.2h4.9c-0.3 3.2-1.2 6-2.3 8.6-0.9 2.3-2.3 4.6-4.3 6.3-2 1.7-4.3 3.1-6.6 4-2.5 0.8-5.1 1.4-8 1.4-3.7 0-7.1-0.8-10.5-2.3-2.9-1.4-5.5-3.4-7.5-6-2-2.3-3.7-5.1-4.5-8.3-2-6.5-2-13.4 0-19.9 1.1-3.2 2.5-6 4.5-8.6 2-2.6 4.6-4.6 7.5-6 5.7-2.6 12-2.9 17.7-1.2 2.3 0.6 4.3 1.8 6.3 3.2 1.7 1.4 3.4 3.1 4.5 5.1 1.2 2.3 2 4.6 2.3 7.2h-4.8c-0.3-1.7-1.2-3.5-2-5.2-0.9-1.7-2-2.8-3.5-4-1.4-0.8-2.8-1.7-4.5-2.3-1.8-0.5-3.8-0.8-5.5-0.8-2.8 0-6 0.6-8.5 2-2.6 1.1-4.6 3.1-6 5.1-1.8 2-2.9 4.6-3.5 7.2q-2.1 8.1 0 16.2c0.6 2.6 2 4.9 3.5 7.2q2.5 3.4 6 5.1c2.5 1.5 5.4 2 8.5 2 2 0.3 4.3-0.3 6.3-1.1 1.7-0.9 3.4-2 4.9-3.4q2.1-2.2 3.4-5.2c0.9-2 1.4-4.3 1.7-6.3zm12.3-31.7h4.8v50.9h-4.8zm36 0l20 50.8h-5.2l-6.3-15.7h-23.1l-6 15.7h-5.1l20.3-50.8zm6.8 30.8l-9.7-26-10.3 26zm7.4-30.8h40.3v4.3h-17.7v46.5h-4.9v-46.5h-17.7zm45.2 0h4.8v50.8h-4.8zm59.1 15.7c2 6.6 2 13.4 0 20-1.1 2.9-2.6 5.7-4.6 8.3-2 2.6-4.5 4.6-7.4 6-6.6 2.8-14.3 2.8-20.9 0-2.8-1.4-5.4-3.4-7.4-6-2-2.3-3.4-5.2-4.3-8.3-2-6.6-2-13.4 0-20 1.2-3.1 2.6-6 4.6-8.6 2-2.5 4.6-4.5 7.4-6 6.6-2.8 14.3-2.8 20.9 0 2.8 1.5 5.4 3.5 7.4 6q3 3.5 4.3 8.6zm-4.3 1.7c-0.6-2.5-2-4.8-3.4-7.1q-2.6-3.4-6-5.2c-2.6-1.4-5.7-2-8.6-2-2.8 0-6 0.6-8.6 2-2.5 1.2-4.5 3.2-6 5.2-1.7 2-2.8 4.6-3.4 7.1q-2.1 8.2 0 16.3c0.6 2.6 1.7 5.1 3.4 7.1q2.6 3.5 6 5.2c2.6 1.4 5.5 2 8.6 2 2.9 0 6-0.6 8.6-2 2.6-1.2 4.6-3.2 6-5.2 1.7-2 2.8-4.5 3.4-7.1 1.4-5.4 1.4-11.1 0-16.3zm53.4-17.4v50.8h-5.4l-29.7-42.8h-0.3v42.8h-4.9v-50.8h5.5l29.7 42.8h0.3v-42.8z"
     id="path6"
     style="fill:#fcec52;fill-opacity:1" />
</svg>
