<?xml version="1.0" encoding="UTF-8" standalone="no"?>
<svg
   version="1.2"
   viewBox="0 0 225 234"
   width="225"
   height="234"
   id="svg54"
   sodipodi:docname="better-bot-1.svg.2023_10_13_14_00_58.0.svg"
   inkscape:version="1.2.2 (732a01da63, 2022-12-09)"
   xmlns:inkscape="http://www.inkscape.org/namespaces/inkscape"
   xmlns:sodipodi="http://sodipodi.sourceforge.net/DTD/sodipodi-0.dtd"
   xmlns="http://www.w3.org/2000/svg"
   xmlns:svg="http://www.w3.org/2000/svg">
  <defs
     id="defs58" />
  <sodipodi:namedview
     id="namedview56"
     pagecolor="#ffffff"
     bordercolor="#000000"
     borderopacity="0.25"
     inkscape:showpageshadow="2"
     inkscape:pageopacity="0.0"
     inkscape:pagecheckerboard="0"
     inkscape:deskcolor="#d1d1d1"
     showgrid="false"
     inkscape:zoom="1.008547"
     inkscape:cx="17.351695"
     inkscape:cy="132.36865"
     inkscape:window-width="1280"
     inkscape:window-height="945"
     inkscape:window-x="-9"
     inkscape:window-y="-9"
     inkscape:window-maximized="1"
     inkscape:current-layer="svg54" />
  <style
     id="style2">tspan{white-space:pre}.a{fill:none;stroke:#fff;stroke-miterlimit:10;stroke-width:9}.b{fill:#a3acd3}.c{fill:none;stroke:#8399be;stroke-miterlimit:10;stroke-width:3}.d{fill:#8399be}.e{fill:#2d3c77}.f{fill:#fff}.g{fill:#fbeb53}.h{font-size: 70px;fill: #fbeb53;font-weight: 800;font-family: &quot;Manrope-ExtraBold&quot;, &quot;Manrope&quot;}</style>
  <g
     id="g1003"
     transform="translate(-0.31302593,0.1000005)">
    <path
       class="a"
       d="M 117,162.5 H 53.8 c -22.7,0 -41.1,-18.4 -41.1,-41.1 L 20.1,46.2 C 23.8,23.7 38.5,5.1 61.2,5.1 h 48.4 c 22.7,0 38.6,18.9 41.1,41.1 l 7.4,75.2 c 0,22.7 -18.4,41.1 -41.1,41.1 z"
       id="path4" />
    <path
       class="b"
       d="M 119.5,208.1 H 51.3 c -16.6,0 -30.1,-13.5 -30.1,-30.1 0,-16.6 13.5,-30.1 30.1,-30.1 h 68.2 c 16.6,0 30.1,13.5 30.1,30.1 0,16.6 -13.5,30.1 -30.1,30.1 z"
       id="path6" />
    <path
       class="b"
       d="m 157.9,154.6 c 0,0 24.7,20.3 30.7,2.7 5.3,-15.2 9,-29.1 9.3,-30.2 0,0 3.3,-18.8 12.7,-17.1 12.4,2.3 16.2,6.2 13.1,18.5 -4.7,19.4 -11.9,37.1 -20.1,49.6 -8.9,13.9 -35.1,9.6 -52.6,7.3"
       id="path8" />
    <path
       class="c"
       d="m 175.2,163.9 -1,16.8"
       id="path10" />
    <path
       class="c"
       d="m 184.6,187.5 -1,-12.6"
       id="path12" />
    <path
       class="c"
       d="m 185.3,162.5 7.4,8"
       id="path14" />
    <path
       class="c"
       d="m 208.6,169.7 -10.4,-5.8"
       id="path16" />
    <path
       class="c"
       d="m 190.9,150.5 11.5,5.2"
       id="path18" />
    <path
       class="c"
       d="m 216.4,152.2 -16.4,-7"
       id="path20" />
    <path
       class="d"
       d="M 145.1,199.9 H 25.7 C 12,199.9 0.9,188.8 0.9,175.1 v -35.7 c 0,-13.7 11.1,-24.8 24.8,-24.8 h 119.4 c 13.7,0 24.8,11.1 24.8,24.8 v 35.7 c 0,13.7 -11.1,24.8 -24.8,24.8 z"
       id="path22" />
    <path
       class="b"
       d="M 132.4,187.4 H 76.9 c -16.6,0 -30.1,-13.5 -30.1,-30.1 0,-16.6 13.5,-30.1 30.1,-30.1 h 55.5 c 16.6,0 30,13.5 30,30.1 0,16.6 -13.4,30.1 -30,30.1 z"
       id="path24" />
    <path
       class="e"
       d="m 95.7,160.3 h -6.6 v -11.4 h 6.6 z"
       id="path26" />
    <path
       class="e"
       d="m 148.2,160.3 h -6.7 v -11.4 h 6.7 z"
       id="path28" />
    <path
       class="f"
       d="m 94.8,151.3 c 0,0.9 -0.7,1.5 -1.6,1.5 -0.8,0 -1.5,-0.6 -1.5,-1.5 0,-0.8 0.7,-1.5 1.5,-1.5 0.9,0 1.6,0.7 1.6,1.5 z"
       id="path30" />
    <path
       class="f"
       d="m 147.2,151.3 c 0,0.9 -0.7,1.5 -1.5,1.5 -0.8,0 -1.5,-0.6 -1.5,-1.5 0,-0.8 0.7,-1.5 1.5,-1.5 0.8,0 1.5,0.7 1.5,1.5 z"
       id="path32" />
    <path
       class="g"
       d="m 124.4,215.1 c 0,1.5 -16.2,2.7 -36.1,2.7 -20,0 -36.1,-1.2 -36.1,-2.7 0,-1.5 16.1,-2.7 36.1,-2.7 19.9,0 36.1,1.2 36.1,2.7 z"
       id="path34" />
    <path
       class="g"
       d="m 116.2,223.2 c 0,1.2 -12.5,2.1 -27.9,2.1 -15.4,0 -27.9,-0.9 -27.9,-2.1 0,-1.1 12.5,-2 27.9,-2 15.4,0 27.9,0.9 27.9,2 z"
       id="path36" />
    <path
       class="g"
       d="m 101.9,231.4 c 0,0.9 -6.1,1.8 -13.6,1.8 -7.6,0 -13.7,-0.9 -13.7,-1.8 0,-1 6.1,-1.8 13.7,-1.8 7.5,0 13.6,0.8 13.6,1.8 z"
       id="path38" />
    <path
       class="e"
       d="m 111.9,156.8 c 0,0 -0.1,11.4 8.7,11.4 9.3,0 9.2,-11.4 9.2,-11.4 z"
       id="path40" />
    <path
       class="b"
       d="m 15.6,186.6 h -5 v -21.9 h 5 z"
       id="path42" />
    <path
       class="b"
       d="m 23.7,186.6 h -5 v -21.9 h 5 z"
       id="path44" />
    <path
       class="b"
       d="m 31.8,186.6 h -5 v -21.9 h 5 z"
       id="path46" />
    <text
       id="text50"
       x="42.635593"
       y="90.228813"><tspan
         x="42.635593"
         y="90.228813"
         class="h"
         id="tspan48">1L
</tspan></text>
    <path
       class="b"
       d="m 196.4,141.6 -10.2,-7.2 c -2.4,-1.7 -3,-5 -1.4,-7.4 1.7,-2.5 5.1,-3.1 7.5,-1.4 l 10.3,7.2 c 2.4,1.7 3,5 1.3,7.4 -1.7,2.5 -5,3.1 -7.5,1.4 z"
       id="path52" />
  </g>
</svg>
