<?xml version="1.0" encoding="UTF-8" standalone="no"?>
<svg
   version="1.2"
   viewBox="0 0 225 234"
   width="225"
   height="234"
   id="svg908"
   sodipodi:docname="better-bot-4.svg.2023_10_13_14_00_58.3.svg"
   inkscape:version="1.2.2 (732a01da63, 2022-12-09)"
   xmlns:inkscape="http://www.inkscape.org/namespaces/inkscape"
   xmlns:sodipodi="http://sodipodi.sourceforge.net/DTD/sodipodi-0.dtd"
   xmlns="http://www.w3.org/2000/svg"
   xmlns:svg="http://www.w3.org/2000/svg">
  <defs
     id="defs912" />
  <sodipodi:namedview
     id="namedview910"
     pagecolor="#ffffff"
     bordercolor="#000000"
     borderopacity="0.25"
     inkscape:showpageshadow="2"
     inkscape:pageopacity="0.0"
     inkscape:pagecheckerboard="0"
     inkscape:deskcolor="#d1d1d1"
     showgrid="false"
     inkscape:zoom="1.008547"
     inkscape:cx="-11.402542"
     inkscape:cy="117.49576"
     inkscape:window-width="1280"
     inkscape:window-height="945"
     inkscape:window-x="-9"
     inkscape:window-y="-9"
     inkscape:window-maximized="1"
     inkscape:current-layer="svg908" />
  <style
     id="style848">.a{fill:none;stroke:#fff;stroke-miterlimit:10;stroke-width:9}.b{fill:#a3acd3}.c{fill:none;stroke:#8399be;stroke-miterlimit:10;stroke-width:3}.d{fill:#8399be}.e{fill:#2d3c77}.f{fill:#fff}.g{fill:#fbeb53}</style>
  <g
     id="g1077"
     transform="translate(3.9850903,0.1000005)">
    <path
       class="a"
       d="m 100,162.5 h 63.2 c 22.7,0 41.1,-18.4 41.1,-41.1 L 196.9,46.2 C 193.2,23.7 178.5,5.1 155.8,5.1 H 107.4 C 84.7,5.1 68.8,24 66.3,46.2 l -7.4,75.2 c 0,22.7 18.4,41.1 41.1,41.1 z"
       id="path850" />
    <path
       class="b"
       d="m 97.5,208.1 h 68.2 c 16.6,0 30.1,-13.5 30.1,-30.1 0,-16.6 -13.5,-30.1 -30.1,-30.1 H 97.5 c -16.6,0 -30.1,13.5 -30.1,30.1 0,16.6 13.5,30.1 30.1,30.1 z"
       id="path852" />
    <path
       class="b"
       d="m 56.7,143.7 c 0,0 -29.5,12.4 -30.2,-6.1 -0.6,-16.2 -0.2,-30.6 -0.2,-31.7 0,0 2.2,-19 -7.2,-20 -12.6,-1.3 -17.3,1.3 -17.9,14 -1,19.9 0.8,38.9 5,53.3 4.6,15.9 31,19.2 48.3,22"
       id="path854" />
    <path
       class="c"
       d="m 37.5,147.9 5.6,15.9"
       id="path856" />
    <path
       class="c"
       d="m 21.7,167.6 4.7,-11.8"
       id="path858" />
    <path
       class="c"
       d="M 28.2,143.4 18.8,149"
       id="path860" />
    <path
       class="c"
       d="m 3.9,143.7 11.6,-2.6"
       id="path862" />
    <path
       class="c"
       d="m 26.3,130.3 -12.5,1.8"
       id="path864" />
    <path
       class="c"
       d="m 1.4,124.6 17.7,-2"
       id="path866" />
    <path
       class="d"
       d="m 71.9,199.9 h 119.4 c 13.7,0 24.8,-11.1 24.8,-24.8 v -35.7 c 0,-13.7 -11.1,-24.8 -24.8,-24.8 H 71.9 c -13.7,0 -24.8,11.1 -24.8,24.8 v 35.7 c 0,13.7 11.1,24.8 24.8,24.8 z"
       id="path868" />
    <path
       class="b"
       d="m 84.6,187.4 h 55.5 c 16.6,0 30.1,-13.5 30.1,-30.1 0,-16.6 -13.5,-30.1 -30.1,-30.1 H 84.6 c -16.6,0 -30,13.5 -30,30.1 0,16.6 13.4,30.1 30,30.1 z"
       id="path870" />
    <path
       class="e"
       d="m 121.3,160.3 h 6.6 v -11.4 h -6.6 z"
       id="path872" />
    <path
       class="e"
       d="m 68.8,160.3 h 6.7 v -11.4 h -6.7 z"
       id="path874" />
    <path
       class="f"
       d="m 122.2,151.3 c 0,0.9 0.7,1.5 1.6,1.5 0.8,0 1.5,-0.6 1.5,-1.5 0,-0.8 -0.7,-1.5 -1.5,-1.5 -0.9,0 -1.6,0.7 -1.6,1.5 z"
       id="path876" />
    <path
       class="f"
       d="m 69.8,151.3 c 0,0.9 0.7,1.5 1.5,1.5 0.9,0 1.5,-0.6 1.5,-1.5 0,-0.8 -0.6,-1.5 -1.5,-1.5 -0.8,0 -1.5,0.7 -1.5,1.5 z"
       id="path878" />
    <path
       class="g"
       d="m 92.6,215.1 c 0,1.5 16.2,2.7 36.1,2.7 20,0 36.1,-1.2 36.1,-2.7 0,-1.5 -16.1,-2.7 -36.1,-2.7 -19.9,0 -36.1,1.2 -36.1,2.7 z"
       id="path880" />
    <path
       class="g"
       d="m 100.8,223.2 c 0,1.2 12.5,2.1 27.9,2.1 15.4,0 27.9,-0.9 27.9,-2.1 0,-1.1 -12.5,-2 -27.9,-2 -15.4,0 -27.9,0.9 -27.9,2 z"
       id="path882" />
    <path
       class="g"
       d="m 115.1,231.4 c 0,0.9 6.1,1.8 13.6,1.8 7.6,0 13.7,-0.9 13.7,-1.8 0,-1 -6.1,-1.8 -13.7,-1.8 -7.5,0 -13.6,0.8 -13.6,1.8 z"
       id="path884" />
    <path
       class="e"
       d="m 99.6,159.6 c 0,0 0.1,8.6 -6.5,8.6 -6.9,0 -6.9,-8.6 -6.9,-8.6 z"
       id="path886" />
    <path
       class="b"
       d="m 201.4,186.6 h 5 v -21.9 h -5 z"
       id="path888" />
    <path
       class="b"
       d="m 193.3,186.6 h 5 v -21.9 h -5 z"
       id="path890" />
    <path
       class="b"
       d="m 185.2,186.6 h 5 v -21.9 h -5 z"
       id="path892" />
    <path
       class="b"
       d="m 23.6,120.2 11.8,-3.9 c 2.8,-0.9 4.4,-4 3.4,-6.8 -0.9,-2.8 -3.9,-4.3 -6.7,-3.4 L 20.2,110 c -2.8,0.9 -4.3,4 -3.4,6.8 0.9,2.8 3.9,4.3 6.8,3.4 z"
       id="path894" />
    <path
       fill-rule="evenodd"
       class="g"
       d="m 157,91.5 c -1.8,-1.5 -3.4,-3 -5.1,-4.4 -0.2,-0.2 -0.4,-0.3 -0.6,-0.4 -0.4,-0.5 -0.8,-0.4 -1.1,0.2 -2.5,3.7 -5.6,6.9 -8.8,9.9 -0.1,0.1 -0.2,0.2 -0.4,0.4 -1.2,-1.6 -2.3,-3.1 -3.6,-4.7 3.3,-2.7 6.4,-5.5 8.7,-9.4 -1,-0.4 -1.8,-0.9 -2.7,-1.2 -0.2,-0.1 -0.6,0.1 -0.7,0.3 -0.2,0.4 -0.4,0.9 -0.6,1.4 -1.6,-0.7 -3.1,-1.4 -4.6,-2.2 2.1,-6.3 4,-12.5 4.9,-19.3 -1.3,0 -2.5,0 -3.7,0 -0.9,0.1 -1.2,-0.3 -1.1,-1.2 q 0.1,-1.9 0,-3.8 c -0.1,-0.8 0.2,-1 1,-1 1.3,0 2.6,0 4,0 0.6,0 0.9,-0.2 1,-0.9 q 0.5,-4.7 1.1,-9.3 c 0,-0.3 0,-0.6 0.1,-1 1.7,0.3 3.3,0.6 5,1 0.1,0 0.3,0.6 0.2,0.9 q -0.5,4.1 -1.1,8.2 c 0,0.3 -0.1,0.6 -0.1,1 0.4,0.1 0.7,0.1 1,0.1 q 3.4,0 6.7,0 c 0.5,0 0.9,0 0.8,0.7 -0.3,7 -0.8,13.9 -2.7,20.7 q -0.4,1.4 -1,2.8 c -0.2,0.6 -0.1,0.9 0.4,1.2 1.8,1.5 3.7,3 5.5,4.5 0.4,0.2 0.7,0.4 0.4,1 -1,1.5 -1.9,2.9 -2.9,4.5 z m -5.1,-29.4 c -0.7,0 -1.2,0 -1.7,0 -2.4,0 -2.3,0 -2.8,2.5 -0.7,3.6 -1.5,7.1 -2.2,10.7 -0.1,0.4 -0.1,1 0.1,1.1 1.1,0.6 2.2,1.1 3.4,1.7 2,-5.1 2.9,-10.4 3.2,-16 z"
       id="path896" />
    <path
       class="g"
       d="m 175.7,53 c -1,0 -1.7,0 -2.4,0 -4.3,0 -8.6,0 -12.8,0 -0.8,0 -1,-0.2 -1,-1 0,-1.6 0,-3.2 0,-4.9 0.5,0 0.8,0 1.1,0 7.1,0 14.1,0 21.1,0 0.9,0 1.3,0.2 1.2,1.2 q -0.1,0.7 0,1.3 c 0.3,2.6 -0.4,4.8 -2,6.7 -2,2.5 -4.1,5 -6.1,7.5 -0.3,0.4 -0.5,0.9 -0.6,1.5 -0.1,0.7 0.1,1.4 0,2.2 -0.1,0.9 0.2,1.2 1.1,1.2 3,0 5.9,0 8.8,0 0.9,0 1.1,0.3 1.1,1.2 q -0.1,1.9 0,3.7 c 0,0.8 -0.3,1 -0.9,1 -3.1,0 -6.1,0 -9.1,0 -0.8,0 -1,0.2 -1,1.1 q 0,7.1 0,14.2 0,0.5 0,1 c -0.1,4.2 -1.9,6.1 -5.8,6.1 -1.5,0 -3,0 -4.5,0.1 -0.6,0 -0.9,-0.2 -1.1,-0.9 -0.4,-1.8 -1,-3.6 -1.5,-5.6 0.4,0 0.6,0 0.9,0.1 1.3,0.1 2.5,0.3 3.8,0.3 1.9,0.1 2.7,-0.8 2.8,-2.9 q 0,-4.6 0,-9.1 c 0,-1.1 -0.1,-2.2 0,-3.3 0,-0.9 -0.2,-1.1 -1,-1.1 -3,0 -6,-0.1 -9,0 -0.8,0 -1.1,-0.3 -1.1,-1.2 q 0.1,-1.8 0,-3.6 c 0,-0.8 0.2,-1.1 1,-1.1 3,0 6,0 9,0 0.8,0 1.1,-0.2 1.1,-1.2 q -0.1,-2.3 0,-4.7 c 0,-0.5 0.3,-1.1 0.6,-1.6 1.9,-2.4 3.9,-4.9 5.8,-7.3 0.1,-0.2 0.2,-0.5 0.5,-0.9 z"
       id="path898" />
    <path
       class="g"
       d="m 118.9,61.2 c -2.3,0 -4.4,0 -6.5,0.1 -0.2,0 -0.4,0.3 -0.4,0.5 -0.1,0.3 -0.1,0.6 -0.1,0.9 q 0,15.2 0,30.3 c 0,0.9 0,1.7 -0.2,2.4 -0.3,1.6 -1.3,2.4 -2.7,2.5 -2,0 -4,0 -6,0 -0.2,0 -0.6,-0.3 -0.7,-0.5 -0.4,-1.7 -0.8,-3.4 -1.2,-5.2 1.2,0 2.4,0 3.5,0 1.7,0 1.7,0 1.7,-1.9 q 0,-13.9 0,-27.8 c 0,-1 -0.2,-1.4 -1.2,-1.3 -1.2,0.1 -2.6,-0.4 -3.6,0.2 -0.9,0.5 -1.4,2.1 -2.1,3.1 -1.3,2 -2.7,4 -4.1,6.1 -1.4,-1.3 -2.6,-2.4 -3.8,-3.6 0.5,-0.7 1.1,-1.5 1.5,-2.2 3.2,-4.7 5,-10 6.3,-15.5 0.4,-1.9 0.4,-1.9 2.3,-1.7 1,0.2 2,0.3 3,0.6 1.1,0.3 1.2,1 0.4,1.9 -0.3,0.4 -0.6,0.9 -0.8,1.4 -0.5,1.3 -0.8,2.6 -1.3,4.1 0.5,0 0.9,0 1.3,0 q 7,0 14.1,0 c 1.1,0 2.2,0.2 2.5,-1.6 1.1,0.8 2.1,1.5 3.1,2.2 q 0.9,0.7 1.8,1.4 c 0.4,0.3 0.5,0.5 0.2,1 -0.6,1 -1.1,2 -1.5,3 -1,2.7 -2,5.4 -3.1,8.2 -1.7,-0.6 -3.4,-1.2 -5.2,-1.8 0.9,-2.3 1.8,-4.4 2.8,-6.8 z"
       id="path900" />
    <path
       class="g"
       d="m 90.4,98.1 c -1.9,0 -3.7,0 -5.6,0 q 0,-13 0,-26.1 -0.1,0 -0.1,0 c -1.1,1.9 -2.1,3.7 -3.2,5.7 -1.3,-1.7 -2.4,-3.1 -3.4,-4.5 -0.1,-0.2 0.1,-0.7 0.2,-0.9 2.3,-3.2 4.2,-6.7 5.7,-10.4 1.9,-4.4 3.2,-9.1 4,-13.9 0.1,-0.4 0.2,-0.7 0.3,-1.2 0.9,0.3 1.7,0.6 2.5,0.9 0.7,0.2 1.5,0.5 2.1,0.8 1.1,0.5 1.2,1.1 0.5,2 q -0.2,0.3 -0.3,0.5 c -0.9,3.5 -1.8,6.9 -2.8,10.5 0.7,0.5 0.9,1.2 0.2,2.2 -0.2,0.2 -0.1,0.8 -0.1,1.2 q 0,16 0,32 0,0.6 0,1.2 z"
       id="path902" />
    <path
       class="g"
       d="m 98.1,69.8 c 1.6,0.4 3,0.7 4.4,1.1 1.4,0.4 1.6,1.2 0.6,2.3 -0.2,0.3 -0.3,0.7 -0.4,1 -0.9,5.1 -2.1,10.1 -4.2,14.8 -1,2.1 -1,2.1 -3,1.1 -0.8,-0.4 -1.7,-0.9 -2.6,-1.4 2.9,-6 4.2,-12.3 5.2,-18.9 z"
       id="path904" />
    <path
       class="g"
       d="m 126.1,87.7 c -1.8,0.6 -3.4,1.1 -5,1.6 -0.7,0.2 -0.7,-0.3 -0.8,-0.7 q -2.2,-7.3 -4.5,-14.7 0,-0.2 -0.1,-0.3 c -0.2,-0.8 -0.9,-1.9 -0.6,-2.4 0.3,-0.6 1.4,-0.7 2.1,-1 0.7,-0.3 1.5,-0.6 2.3,-0.9 2.6,6 4.9,12 6.6,18.4 z"
       id="path906" />
  </g>
</svg>
