<?xml version="1.0" encoding="UTF-8" standalone="no"?>
<svg
   version="1.2"
   viewBox="0 0 225 234"
   width="225"
   height="234"
   id="svg725"
   sodipodi:docname="better-bot-3.svg.2023_10_13_14_00_58.2.svg"
   inkscape:version="1.2.2 (732a01da63, 2022-12-09)"
   xmlns:inkscape="http://www.inkscape.org/namespaces/inkscape"
   xmlns:sodipodi="http://sodipodi.sourceforge.net/DTD/sodipodi-0.dtd"
   xmlns="http://www.w3.org/2000/svg"
   xmlns:svg="http://www.w3.org/2000/svg">
  <defs
     id="defs729" />
  <sodipodi:namedview
     id="namedview727"
     pagecolor="#ffffff"
     bordercolor="#000000"
     borderopacity="0.25"
     inkscape:showpageshadow="2"
     inkscape:pageopacity="0.0"
     inkscape:pagecheckerboard="0"
     inkscape:deskcolor="#d1d1d1"
     showgrid="false"
     inkscape:zoom="1.008547"
     inkscape:cx="-11.402542"
     inkscape:cy="117.49576"
     inkscape:window-width="1280"
     inkscape:window-height="945"
     inkscape:window-x="-9"
     inkscape:window-y="-9"
     inkscape:window-maximized="1"
     inkscape:current-layer="svg725" />
  <style
     id="style659">.a{fill:none;stroke:#fff;stroke-miterlimit:10;stroke-width:9}.b{fill:#a3acd3}.c{fill:#8399be}.d{fill:#2d3c77}.e{fill:#fff}.f{fill:#fbeb53}</style>
  <g
     id="g793"
     transform="translate(27.8,0.10000052)">
    <path
       class="a"
       d="M 116.3,162.5 H 53.1 C 30.4,162.5 12,144.1 12,121.4 L 19.4,46.2 C 23.1,23.7 37.8,5.1 60.5,5.1 h 48.4 c 22.7,0 38.6,18.9 41.1,41.1 l 7.4,75.2 c 0,22.7 -18.4,41.1 -41.1,41.1 z"
       id="path661" />
    <path
       class="b"
       d="M 118.8,208.1 H 50.6 C 34,208.1 20.5,194.6 20.5,178 20.5,161.4 34,147.9 50.6,147.9 h 68.2 c 16.6,0 30.1,13.5 30.1,30.1 0,16.6 -13.5,30.1 -30.1,30.1 z"
       id="path663" />
    <path
       class="c"
       d="M 144.4,199.9 H 25 C 11.3,199.9 0.2,188.8 0.2,175.1 v -35.7 c 0,-13.7 11.1,-24.8 24.8,-24.8 h 119.4 c 13.7,0 24.8,11.1 24.8,24.8 v 35.7 c 0,13.7 -11.1,24.8 -24.8,24.8 z"
       id="path665" />
    <path
       class="b"
       d="M 125.6,187.4 H 70.2 c -16.6,0 -30.1,-13.5 -30.1,-30.1 0,-16.6 13.5,-30.1 30.1,-30.1 h 55.4 c 16.7,0 30.1,13.5 30.1,30.1 0,16.6 -13.4,30.1 -30.1,30.1 z"
       id="path667" />
    <path
       class="d"
       d="M 84,148.3 H 77.3 V 136.9 H 84 Z"
       id="path669" />
    <path
       class="d"
       d="m 136.5,148.3 h -6.7 v -11.4 h 6.7 z"
       id="path671" />
    <path
       class="e"
       d="m 83,139.3 c 0,0.9 -0.6,1.5 -1.5,1.5 -0.8,0 -1.5,-0.6 -1.5,-1.5 0,-0.8 0.7,-1.5 1.5,-1.5 0.9,0 1.5,0.7 1.5,1.5 z"
       id="path673" />
    <path
       class="e"
       d="m 135.5,139.3 c 0,0.9 -0.7,1.5 -1.5,1.5 -0.9,0 -1.6,-0.6 -1.6,-1.5 0,-0.8 0.7,-1.5 1.6,-1.5 0.8,0 1.5,0.7 1.5,1.5 z"
       id="path675" />
    <path
       class="f"
       d="m 123.6,215.1 c 0,1.5 -16.1,2.7 -36,2.7 -20,0 -36.1,-1.2 -36.1,-2.7 0,-1.5 16.1,-2.7 36.1,-2.7 19.9,0 36,1.2 36,2.7 z"
       id="path677" />
    <path
       class="f"
       d="m 115.4,223.2 c 0,1.2 -12.4,2.1 -27.8,2.1 -15.4,0 -27.9,-0.9 -27.9,-2.1 0,-1.1 12.5,-2 27.9,-2 15.4,0 27.8,0.9 27.8,2 z"
       id="path679" />
    <path
       class="f"
       d="m 101.2,231.4 c 0,0.9 -6.1,1.8 -13.6,1.8 -7.6,0 -13.7,-0.9 -13.7,-1.8 0,-1 6.1,-1.8 13.7,-1.8 7.5,0 13.6,0.8 13.6,1.8 z"
       id="path681" />
    <path
       class="b"
       d="m 10.9,186.6 h -5 v -21.9 h 5 z"
       id="path683" />
    <path
       class="b"
       d="m 19,186.6 h -5 v -21.9 h 5 z"
       id="path685" />
    <path
       class="b"
       d="m 27.1,186.6 h -5 v -21.9 h 5 z"
       id="path687" />
    <path
       class="d"
       d="m 113.9,155.5 c 0,3.1 -2.5,5.5 -5.5,5.5 -3.1,0 -5.5,-2.4 -5.5,-5.5 0,-3 2.4,-5.5 5.5,-5.5 3,0 5.5,2.5 5.5,5.5 z"
       id="path689" />
    <path
       class="f"
       d="m 63.2,44.1 c 0,1.3 -1.1,2.5 -2.5,2.5 -1.4,0 -2.5,-1.2 -2.5,-2.5 0,-1.4 1.1,-2.5 2.5,-2.5 1.4,0 2.5,1.1 2.5,2.5 z"
       id="path691" />
    <path
       class="f"
       d="m 69.2,52.1 c 0,1.3 -1.1,2.5 -2.5,2.5 -1.4,0 -2.5,-1.2 -2.5,-2.5 0,-1.4 1.1,-2.5 2.5,-2.5 1.4,0 2.5,1.1 2.5,2.5 z"
       id="path693" />
    <path
       class="f"
       d="m 79.2,73.1 c 0,1.3 -1.1,2.5 -2.5,2.5 -1.4,0 -2.5,-1.2 -2.5,-2.5 0,-1.4 1.1,-2.5 2.5,-2.5 1.4,0 2.5,1.1 2.5,2.5 z"
       id="path695" />
    <path
       class="f"
       d="m 78.2,82.1 c 0,1.3 -1.1,2.5 -2.5,2.5 -1.4,0 -2.5,-1.2 -2.5,-2.5 0,-1.4 1.1,-2.5 2.5,-2.5 1.4,0 2.5,1.1 2.5,2.5 z"
       id="path697" />
    <path
       class="f"
       d="m 133,80.8 c -0.2,1.3 -1.6,2.2 -2.9,1.9 -1.4,-0.3 -2.2,-1.6 -1.9,-2.9 0.3,-1.4 1.6,-2.2 2.9,-2 1.4,0.3 2.2,1.6 1.9,3 z"
       id="path699" />
    <path
       class="f"
       d="m 130.2,89.4 c -0.3,1.3 -1.6,2.2 -3,1.9 -1.3,-0.3 -2.2,-1.6 -1.9,-2.9 0.3,-1.4 1.6,-2.2 3,-2 1.3,0.3 2.2,1.6 1.9,3 z"
       id="path701" />
    <path
       class="f"
       d="m 90.3,98.5 c -0.2,1.3 -1.5,2.3 -2.9,2.1 -1.3,-0.2 -2.3,-1.4 -2.1,-2.8 0.2,-1.4 1.5,-2.3 2.8,-2.1 1.4,0.2 2.3,1.4 2.2,2.8 z"
       id="path703" />
    <path
       class="f"
       d="m 101.2,100 c -0.2,1.4 -1.5,2.3 -2.9,2.1 C 97,101.9 96,100.7 96.2,99.3 96.4,98 97.7,97 99,97.2 c 1.4,0.2 2.3,1.5 2.2,2.8 z"
       id="path705" />
    <path
       class="f"
       d="m 113,101.7 c -0.2,1.3 -1.4,2.3 -2.8,2.1 -1.3,-0.2 -2.3,-1.5 -2.1,-2.8 0.2,-1.4 1.5,-2.3 2.8,-2.1 1.4,0.2 2.3,1.4 2.1,2.8 z"
       id="path707" />
    <path
       class="f"
       d="m 95.3,64.8 c -0.3,1.4 -1.7,2.2 -3,1.9 -1.4,-0.4 -2.2,-1.7 -1.8,-3 0.3,-1.4 1.6,-2.2 3,-1.9 1.3,0.4 2.1,1.7 1.8,3 z"
       id="path709" />
    <path
       class="f"
       d="m 109.8,66.3 c -0.4,1.3 -1.7,2.2 -3,1.8 -1.4,-0.3 -2.2,-1.6 -1.9,-3 0.4,-1.3 1.7,-2.1 3,-1.8 1.4,0.3 2.2,1.7 1.9,3 z"
       id="path711" />
    <path
       class="f"
       d="m 124.3,67.8 c -0.4,1.3 -1.7,2.1 -3.1,1.8 -1.3,-0.3 -2.1,-1.7 -1.8,-3 0.4,-1.3 1.7,-2.2 3,-1.8 1.4,0.3 2.2,1.6 1.9,3 z"
       id="path713" />
    <path
       class="e"
       d="m 74.3,67.4 c 2.2,-2.8 6.2,-3.3 9,-1.2 -2.8,-2.1 -3.4,-6.2 -1.2,-9 -2.2,2.8 -6.2,3.4 -9,1.2 2.8,2.2 3.4,6.2 1.2,9 z"
       id="path715" />
    <path
       class="e"
       d="m 71.9,99.9 c 2.1,-2.9 6.1,-3.4 9,-1.3 -2.9,-2.1 -3.4,-6.2 -1.3,-9 -2.1,2.8 -6.1,3.4 -9,1.3 2.9,2.1 3.4,6.1 1.3,9 z"
       id="path717" />
    <path
       class="e"
       d="m 118,107.7 c 2.2,-2.8 6.2,-3.4 9,-1.2 -2.8,-2.2 -3.3,-6.2 -1.2,-9 -2.1,2.8 -6.2,3.4 -9,1.2 2.8,2.2 3.4,6.2 1.2,9 z"
       id="path719" />
    <path
       class="e"
       d="m 130.5,73.2 c 2.2,-2.8 6.2,-3.4 9,-1.2 -2.8,-2.2 -3.4,-6.2 -1.2,-9.1 -2.2,2.9 -6.2,3.4 -9,1.3 2.8,2.1 3.4,6.2 1.2,9 z"
       id="path721" />
    <path
       class="e"
       d="m 43.4,38.2 c 3.7,-4.8 10.7,-5.8 15.5,-2.1 -4.8,-3.7 -5.8,-10.6 -2.1,-15.5 -3.7,4.9 -10.6,5.9 -15.5,2.2 4.9,3.7 5.8,10.6 2.1,15.4 z"
       id="path723" />
  </g>
</svg>
