<svg version="1.2" xmlns="http://www.w3.org/2000/svg" viewBox="0 0 170 234" width="170" height="234"><style>.a{fill:none;stroke:#fff;stroke-miterlimit:10;stroke-width:9}.b{fill:#a3acd3}.c{fill:#8399be}.d{fill:#2d3c77}.e{fill:#fff}.f{fill:#fbeb53}</style><path class="a" d="m116.3 162.5h-63.2c-22.7 0-41.1-18.4-41.1-41.1l7.4-75.2c3.7-22.5 18.4-41.1 41.1-41.1h48.4c22.7 0 38.6 18.9 41.1 41.1l7.4 75.2c0 22.7-18.4 41.1-41.1 41.1z"/><path class="b" d="m118.8 208.1h-68.2c-16.6 0-30.1-13.5-30.1-30.1 0-16.6 13.5-30.1 30.1-30.1h68.2c16.6 0 30.1 13.5 30.1 30.1 0 16.6-13.5 30.1-30.1 30.1z"/><path class="c" d="m144.4 199.9h-119.4c-13.7 0-24.8-11.1-24.8-24.8v-35.7c0-13.7 11.1-24.8 24.8-24.8h119.4c13.7 0 24.8 11.1 24.8 24.8v35.7c0 13.7-11.1 24.8-24.8 24.8z"/><path class="b" d="m125.6 187.4h-55.4c-16.6 0-30.1-13.5-30.1-30.1 0-16.6 13.5-30.1 30.1-30.1h55.4c16.7 0 30.1 13.5 30.1 30.1 0 16.6-13.4 30.1-30.1 30.1z"/><path class="d" d="m84 148.3h-6.7v-11.4h6.7z"/><path class="d" d="m136.5 148.3h-6.7v-11.4h6.7z"/><path class="e" d="m83 139.3c0 0.9-0.6 1.5-1.5 1.5-0.8 0-1.5-0.6-1.5-1.5 0-0.8 0.7-1.5 1.5-1.5 0.9 0 1.5 0.7 1.5 1.5z"/><path class="e" d="m135.5 139.3c0 0.9-0.7 1.5-1.5 1.5-0.9 0-1.6-0.6-1.6-1.5 0-0.8 0.7-1.5 1.6-1.5 0.8 0 1.5 0.7 1.5 1.5z"/><path class="f" d="m123.6 215.1c0 1.5-16.1 2.7-36 2.7-20 0-36.1-1.2-36.1-2.7 0-1.5 16.1-2.7 36.1-2.7 19.9 0 36 1.2 36 2.7z"/><path class="f" d="m115.4 223.2c0 1.2-12.4 2.1-27.8 2.1-15.4 0-27.9-0.9-27.9-2.1 0-1.1 12.5-2 27.9-2 15.4 0 27.8 0.9 27.8 2z"/><path class="f" d="m101.2 231.4c0 0.9-6.1 1.8-13.6 1.8-7.6 0-13.7-0.9-13.7-1.8 0-1 6.1-1.8 13.7-1.8 7.5 0 13.6 0.8 13.6 1.8z"/><path class="b" d="m10.9 186.6h-5v-21.9h5z"/><path class="b" d="m19 186.6h-5v-21.9h5z"/><path class="b" d="m27.1 186.6h-5v-21.9h5z"/><path class="d" d="m113.9 155.5c0 3.1-2.5 5.5-5.5 5.5-3.1 0-5.5-2.4-5.5-5.5 0-3 2.4-5.5 5.5-5.5 3 0 5.5 2.5 5.5 5.5z"/><path class="f" d="m63.2 44.1c0 1.3-1.1 2.5-2.5 2.5-1.4 0-2.5-1.2-2.5-2.5 0-1.4 1.1-2.5 2.5-2.5 1.4 0 2.5 1.1 2.5 2.5z"/><path class="f" d="m69.2 52.1c0 1.3-1.1 2.5-2.5 2.5-1.4 0-2.5-1.2-2.5-2.5 0-1.4 1.1-2.5 2.5-2.5 1.4 0 2.5 1.1 2.5 2.5z"/><path class="f" d="m79.2 73.1c0 1.3-1.1 2.5-2.5 2.5-1.4 0-2.5-1.2-2.5-2.5 0-1.4 1.1-2.5 2.5-2.5 1.4 0 2.5 1.1 2.5 2.5z"/><path class="f" d="m78.2 82.1c0 1.3-1.1 2.5-2.5 2.5-1.4 0-2.5-1.2-2.5-2.5 0-1.4 1.1-2.5 2.5-2.5 1.4 0 2.5 1.1 2.5 2.5z"/><path class="f" d="m133 80.8c-0.2 1.3-1.6 2.2-2.9 1.9-1.4-0.3-2.2-1.6-1.9-2.9 0.3-1.4 1.6-2.2 2.9-2 1.4 0.3 2.2 1.6 1.9 3z"/><path class="f" d="m130.2 89.4c-0.3 1.3-1.6 2.2-3 1.9-1.3-0.3-2.2-1.6-1.9-2.9 0.3-1.4 1.6-2.2 3-2 1.3 0.3 2.2 1.6 1.9 3z"/><path class="f" d="m90.3 98.5c-0.2 1.3-1.5 2.3-2.9 2.1-1.3-0.2-2.3-1.4-2.1-2.8 0.2-1.4 1.5-2.3 2.8-2.1 1.4 0.2 2.3 1.4 2.2 2.8z"/><path class="f" d="m101.2 100c-0.2 1.4-1.5 2.3-2.9 2.1-1.3-0.2-2.3-1.4-2.1-2.8 0.2-1.3 1.5-2.3 2.8-2.1 1.4 0.2 2.3 1.5 2.2 2.8z"/><path class="f" d="m113 101.7c-0.2 1.3-1.4 2.3-2.8 2.1-1.3-0.2-2.3-1.5-2.1-2.8 0.2-1.4 1.5-2.3 2.8-2.1 1.4 0.2 2.3 1.4 2.1 2.8z"/><path class="f" d="m95.3 64.8c-0.3 1.4-1.7 2.2-3 1.9-1.4-0.4-2.2-1.7-1.8-3 0.3-1.4 1.6-2.2 3-1.9 1.3 0.4 2.1 1.7 1.8 3z"/><path class="f" d="m109.8 66.3c-0.4 1.3-1.7 2.2-3 1.8-1.4-0.3-2.2-1.6-1.9-3 0.4-1.3 1.7-2.1 3-1.8 1.4 0.3 2.2 1.7 1.9 3z"/><path class="f" d="m124.3 67.8c-0.4 1.3-1.7 2.1-3.1 1.8-1.3-0.3-2.1-1.7-1.8-3 0.4-1.3 1.7-2.2 3-1.8 1.4 0.3 2.2 1.6 1.9 3z"/><path class="e" d="m74.3 67.4c2.2-2.8 6.2-3.3 9-1.2-2.8-2.1-3.4-6.2-1.2-9-2.2 2.8-6.2 3.4-9 1.2 2.8 2.2 3.4 6.2 1.2 9z"/><path class="e" d="m71.9 99.9c2.1-2.9 6.1-3.4 9-1.3-2.9-2.1-3.4-6.2-1.3-9-2.1 2.8-6.1 3.4-9 1.3 2.9 2.1 3.4 6.1 1.3 9z"/><path class="e" d="m118 107.7c2.2-2.8 6.2-3.4 9-1.2-2.8-2.2-3.3-6.2-1.2-9-2.1 2.8-6.2 3.4-9 1.2 2.8 2.2 3.4 6.2 1.2 9z"/><path class="e" d="m130.5 73.2c2.2-2.8 6.2-3.4 9-1.2-2.8-2.2-3.4-6.2-1.2-9.1-2.2 2.9-6.2 3.4-9 1.3 2.8 2.1 3.4 6.2 1.2 9z"/><path class="e" d="m43.4 38.2c3.7-4.8 10.7-5.8 15.5-2.1-4.8-3.7-5.8-10.6-2.1-15.5-3.7 4.9-10.6 5.9-15.5 2.2 4.9 3.7 5.8 10.6 2.1 15.4z"/></svg>