<svg version="1.2" xmlns="http://www.w3.org/2000/svg" viewBox="0 0 217 234" width="217" height="234"><style>.a{fill:none;stroke:#fff;stroke-miterlimit:10;stroke-width:9}.b{fill:#a3acd3}.c{fill:none;stroke:#8399be;stroke-miterlimit:10;stroke-width:3}.d{fill:#8399be}.e{fill:#2d3c77}.f{fill:#fff}.g{fill:#fbeb53}</style><path class="a" d="m100 162.5h63.2c22.7 0 41.1-18.4 41.1-41.1l-7.4-75.2c-3.7-22.5-18.4-41.1-41.1-41.1h-48.4c-22.7 0-38.6 18.9-41.1 41.1l-7.4 75.2c0 22.7 18.4 41.1 41.1 41.1z"/><path class="b" d="m97.5 208.1h68.2c16.6 0 30.1-13.5 30.1-30.1 0-16.6-13.5-30.1-30.1-30.1h-68.2c-16.6 0-30.1 13.5-30.1 30.1 0 16.6 13.5 30.1 30.1 30.1z"/><path class="b" d="m56.7 143.7c0 0-29.5 12.4-30.2-6.1-0.6-16.2-0.2-30.6-0.2-31.7 0 0 2.2-19-7.2-20-12.6-1.3-17.3 1.3-17.9 14-1 19.9 0.8 38.9 5 53.3 4.6 15.9 31 19.2 48.3 22"/><path class="c" d="m37.5 147.9l5.6 15.9"/><path class="c" d="m21.7 167.6l4.7-11.8"/><path class="c" d="m28.2 143.4l-9.4 5.6"/><path class="c" d="m3.9 143.7l11.6-2.6"/><path class="c" d="m26.3 130.3l-12.5 1.8"/><path class="c" d="m1.4 124.6l17.7-2"/><path class="d" d="m71.9 199.9h119.4c13.7 0 24.8-11.1 24.8-24.8v-35.7c0-13.7-11.1-24.8-24.8-24.8h-119.4c-13.7 0-24.8 11.1-24.8 24.8v35.7c0 13.7 11.1 24.8 24.8 24.8z"/><path class="b" d="m84.6 187.4h55.5c16.6 0 30.1-13.5 30.1-30.1 0-16.6-13.5-30.1-30.1-30.1h-55.5c-16.6 0-30 13.5-30 30.1 0 16.6 13.4 30.1 30 30.1z"/><path class="e" d="m121.3 160.3h6.6v-11.4h-6.6z"/><path class="e" d="m68.8 160.3h6.7v-11.4h-6.7z"/><path class="f" d="m122.2 151.3c0 0.9 0.7 1.5 1.6 1.5 0.8 0 1.5-0.6 1.5-1.5 0-0.8-0.7-1.5-1.5-1.5-0.9 0-1.6 0.7-1.6 1.5z"/><path class="f" d="m69.8 151.3c0 0.9 0.7 1.5 1.5 1.5 0.9 0 1.5-0.6 1.5-1.5 0-0.8-0.6-1.5-1.5-1.5-0.8 0-1.5 0.7-1.5 1.5z"/><path class="g" d="m92.6 215.1c0 1.5 16.2 2.7 36.1 2.7 20 0 36.1-1.2 36.1-2.7 0-1.5-16.1-2.7-36.1-2.7-19.9 0-36.1 1.2-36.1 2.7z"/><path class="g" d="m100.8 223.2c0 1.2 12.5 2.1 27.9 2.1 15.4 0 27.9-0.9 27.9-2.1 0-1.1-12.5-2-27.9-2-15.4 0-27.9 0.9-27.9 2z"/><path class="g" d="m115.1 231.4c0 0.9 6.1 1.8 13.6 1.8 7.6 0 13.7-0.9 13.7-1.8 0-1-6.1-1.8-13.7-1.8-7.5 0-13.6 0.8-13.6 1.8z"/><path class="e" d="m99.6 159.6c0 0 0.1 8.6-6.5 8.6-6.9 0-6.9-8.6-6.9-8.6z"/><path class="b" d="m201.4 186.6h5v-21.9h-5z"/><path class="b" d="m193.3 186.6h5v-21.9h-5z"/><path class="b" d="m185.2 186.6h5v-21.9h-5z"/><path class="b" d="m23.6 120.2l11.8-3.9c2.8-0.9 4.4-4 3.4-6.8-0.9-2.8-3.9-4.3-6.7-3.4l-11.9 3.9c-2.8 0.9-4.3 4-3.4 6.8 0.9 2.8 3.9 4.3 6.8 3.4z"/><path fill-rule="evenodd" class="g" d="m157 91.5c-1.8-1.5-3.4-3-5.1-4.4-0.2-0.2-0.4-0.3-0.6-0.4-0.4-0.5-0.8-0.4-1.1 0.2-2.5 3.7-5.6 6.9-8.8 9.9-0.1 0.1-0.2 0.2-0.4 0.4-1.2-1.6-2.3-3.1-3.6-4.7 3.3-2.7 6.4-5.5 8.7-9.4-1-0.4-1.8-0.9-2.7-1.2-0.2-0.1-0.6 0.1-0.7 0.3-0.2 0.4-0.4 0.9-0.6 1.4-1.6-0.7-3.1-1.4-4.6-2.2 2.1-6.3 4-12.5 4.9-19.3-1.3 0-2.5 0-3.7 0-0.9 0.1-1.2-0.3-1.1-1.2q0.1-1.9 0-3.8c-0.1-0.8 0.2-1 1-1 1.3 0 2.6 0 4 0 0.6 0 0.9-0.2 1-0.9q0.5-4.7 1.1-9.3c0-0.3 0-0.6 0.1-1 1.7 0.3 3.3 0.6 5 1 0.1 0 0.3 0.6 0.2 0.9q-0.5 4.1-1.1 8.2c0 0.3-0.1 0.6-0.1 1 0.4 0.1 0.7 0.1 1 0.1q3.4 0 6.7 0c0.5 0 0.9 0 0.8 0.7-0.3 7-0.8 13.9-2.7 20.7q-0.4 1.4-1 2.8c-0.2 0.6-0.1 0.9 0.4 1.2 1.8 1.5 3.7 3 5.5 4.5 0.4 0.2 0.7 0.4 0.4 1-1 1.5-1.9 2.9-2.9 4.5zm-5.1-29.4c-0.7 0-1.2 0-1.7 0-2.4 0-2.3 0-2.8 2.5-0.7 3.6-1.5 7.1-2.2 10.7-0.1 0.4-0.1 1 0.1 1.1 1.1 0.6 2.2 1.1 3.4 1.7 2-5.1 2.9-10.4 3.2-16z"/><path class="g" d="m175.7 53c-1 0-1.7 0-2.4 0-4.3 0-8.6 0-12.8 0-0.8 0-1-0.2-1-1 0-1.6 0-3.2 0-4.9 0.5 0 0.8 0 1.1 0 7.1 0 14.1 0 21.1 0 0.9 0 1.3 0.2 1.2 1.2q-0.1 0.7 0 1.3c0.3 2.6-0.4 4.8-2 6.7-2 2.5-4.1 5-6.1 7.5-0.3 0.4-0.5 0.9-0.6 1.5-0.1 0.7 0.1 1.4 0 2.2-0.1 0.9 0.2 1.2 1.1 1.2 3 0 5.9 0 8.8 0 0.9 0 1.1 0.3 1.1 1.2q-0.1 1.9 0 3.7c0 0.8-0.3 1-0.9 1-3.1 0-6.1 0-9.1 0-0.8 0-1 0.2-1 1.1q0 7.1 0 14.2 0 0.5 0 1c-0.1 4.2-1.9 6.1-5.8 6.1-1.5 0-3 0-4.5 0.1-0.6 0-0.9-0.2-1.1-0.9-0.4-1.8-1-3.6-1.5-5.6 0.4 0 0.6 0 0.9 0.1 1.3 0.1 2.5 0.3 3.8 0.3 1.9 0.1 2.7-0.8 2.8-2.9q0-4.6 0-9.1c0-1.1-0.1-2.2 0-3.3 0-0.9-0.2-1.1-1-1.1-3 0-6-0.1-9 0-0.8 0-1.1-0.3-1.1-1.2q0.1-1.8 0-3.6c0-0.8 0.2-1.1 1-1.1 3 0 6 0 9 0 0.8 0 1.1-0.2 1.1-1.2q-0.1-2.3 0-4.7c0-0.5 0.3-1.1 0.6-1.6 1.9-2.4 3.9-4.9 5.8-7.3 0.1-0.2 0.2-0.5 0.5-0.9z"/><path class="g" d="m118.9 61.2c-2.3 0-4.4 0-6.5 0.1-0.2 0-0.4 0.3-0.4 0.5-0.1 0.3-0.1 0.6-0.1 0.9q0 15.2 0 30.3c0 0.9 0 1.7-0.2 2.4-0.3 1.6-1.3 2.4-2.7 2.5-2 0-4 0-6 0-0.2 0-0.6-0.3-0.7-0.5-0.4-1.7-0.8-3.4-1.2-5.2 1.2 0 2.4 0 3.5 0 1.7 0 1.7 0 1.7-1.9q0-13.9 0-27.8c0-1-0.2-1.4-1.2-1.3-1.2 0.1-2.6-0.4-3.6 0.2-0.9 0.5-1.4 2.1-2.1 3.1-1.3 2-2.7 4-4.1 6.1-1.4-1.3-2.6-2.4-3.8-3.6 0.5-0.7 1.1-1.5 1.5-2.2 3.2-4.7 5-10 6.3-15.5 0.4-1.9 0.4-1.9 2.3-1.7 1 0.2 2 0.3 3 0.6 1.1 0.3 1.2 1 0.4 1.9-0.3 0.4-0.6 0.9-0.8 1.4-0.5 1.3-0.8 2.6-1.3 4.1 0.5 0 0.9 0 1.3 0q7 0 14.1 0c1.1 0 2.2 0.2 2.5-1.6 1.1 0.8 2.1 1.5 3.1 2.2q0.9 0.7 1.8 1.4c0.4 0.3 0.5 0.5 0.2 1-0.6 1-1.1 2-1.5 3-1 2.7-2 5.4-3.1 8.2-1.7-0.6-3.4-1.2-5.2-1.8 0.9-2.3 1.8-4.4 2.8-6.8z"/><path class="g" d="m90.4 98.1c-1.9 0-3.7 0-5.6 0q0-13 0-26.1-0.1 0-0.1 0c-1.1 1.9-2.1 3.7-3.2 5.7-1.3-1.7-2.4-3.1-3.4-4.5-0.1-0.2 0.1-0.7 0.2-0.9 2.3-3.2 4.2-6.7 5.7-10.4 1.9-4.4 3.2-9.1 4-13.9 0.1-0.4 0.2-0.7 0.3-1.2 0.9 0.3 1.7 0.6 2.5 0.9 0.7 0.2 1.5 0.5 2.1 0.8 1.1 0.5 1.2 1.1 0.5 2q-0.2 0.3-0.3 0.5c-0.9 3.5-1.8 6.9-2.8 10.5 0.7 0.5 0.9 1.2 0.2 2.2-0.2 0.2-0.1 0.8-0.1 1.2q0 16 0 32 0 0.6 0 1.2z"/><path class="g" d="m98.1 69.8c1.6 0.4 3 0.7 4.4 1.1 1.4 0.4 1.6 1.2 0.6 2.3-0.2 0.3-0.3 0.7-0.4 1-0.9 5.1-2.1 10.1-4.2 14.8-1 2.1-1 2.1-3 1.1-0.8-0.4-1.7-0.9-2.6-1.4 2.9-6 4.2-12.3 5.2-18.9z"/><path class="g" d="m126.1 87.7c-1.8 0.6-3.4 1.1-5 1.6-0.7 0.2-0.7-0.3-0.8-0.7q-2.2-7.3-4.5-14.7 0-0.2-0.1-0.3c-0.2-0.8-0.9-1.9-0.6-2.4 0.3-0.6 1.4-0.7 2.1-1 0.7-0.3 1.5-0.6 2.3-0.9 2.6 6 4.9 12 6.6 18.4z"/></svg>