<?xml version="1.0" encoding="UTF-8" standalone="no"?>
<svg
   version="1.2"
   viewBox="0 0 225 234"
   width="225"
   height="234"
   id="svg505"
   sodipodi:docname="better-bot-2.svg.2023_10_13_14_00_58.1.svg"
   inkscape:version="1.2.2 (732a01da63, 2022-12-09)"
   xmlns:inkscape="http://www.inkscape.org/namespaces/inkscape"
   xmlns:sodipodi="http://sodipodi.sourceforge.net/DTD/sodipodi-0.dtd"
   xmlns="http://www.w3.org/2000/svg"
   xmlns:svg="http://www.w3.org/2000/svg">
  <defs
     id="defs509" />
  <sodipodi:namedview
     id="namedview507"
     pagecolor="#ffffff"
     bordercolor="#000000"
     borderopacity="0.25"
     inkscape:showpageshadow="2"
     inkscape:pageopacity="0.0"
     inkscape:pagecheckerboard="0"
     inkscape:deskcolor="#d1d1d1"
     showgrid="false"
     inkscape:zoom="1.008547"
     inkscape:cx="0.49576272"
     inkscape:cy="141.29237"
     inkscape:window-width="1280"
     inkscape:window-height="945"
     inkscape:window-x="-9"
     inkscape:window-y="-9"
     inkscape:window-maximized="1"
     inkscape:current-layer="svg505" />
  <style
     id="style453">tspan{white-space:pre}.a{fill:none;stroke:#fff;stroke-miterlimit:10;stroke-width:9}.b{fill:#a3acd3}.c{fill:#8399be}.d{fill:#2d3c77}.e{fill:#fff}.f{fill:#fbeb53}.g{font-size: 70px;fill: #fbeb53;font-weight: 800;font-family: &quot;Manrope-ExtraBold&quot;, &quot;Manrope&quot;}.h{fill:none;stroke:#fff;stroke-miterlimit:10;stroke-width:5}.i{fill:none;stroke:#2d3c77;stroke-linecap:round;stroke-miterlimit:10;stroke-width:2}</style>
  <g
     id="g933"
     transform="translate(18.282525,0.1000005)">
    <path
       class="a"
       d="m 72.2,162.5 h 63.2 c 22.7,0 41.1,-18.4 41.1,-41.1 L 169.1,46.2 C 165.4,23.7 150.7,5.1 128,5.1 H 79.6 C 56.9,5.1 41,24 38.5,46.2 l -7.4,75.2 c 0,22.7 18.4,41.1 41.1,41.1 z"
       id="path455" />
    <path
       class="b"
       d="m 69.7,208.1 h 68.2 c 16.6,0 30.1,-13.5 30.1,-30.1 0,-16.6 -13.5,-30.1 -30.1,-30.1 H 69.7 c -16.6,0 -30.1,13.5 -30.1,30.1 0,16.6 13.5,30.1 30.1,30.1 z"
       id="path457" />
    <path
       class="c"
       d="m 44.1,199.9 h 119.4 c 13.7,0 24.8,-11.1 24.8,-24.8 v -35.7 c 0,-13.7 -11.1,-24.8 -24.8,-24.8 H 44.1 c -13.7,0 -24.8,11.1 -24.8,24.8 v 35.7 c 0,13.7 11.1,24.8 24.8,24.8 z"
       id="path459" />
    <path
       class="c"
       d="m 19.3,163.3 -14.7,16 -1.5,11.6 10.7,2.2 15.6,-3.8 z"
       id="path461" />
    <path
       class="b"
       d="m 56.8,187.4 h 55.5 c 16.6,0 30.1,-13.5 30.1,-30.1 0,-16.6 -13.5,-30.1 -30.1,-30.1 H 56.8 c -16.6,0 -30,13.5 -30,30.1 0,16.6 13.4,30.1 30,30.1 z"
       id="path463" />
    <path
       class="d"
       d="m 93.5,160.3 h 6.7 v -11.4 h -6.7 z"
       id="path465" />
    <path
       class="d"
       d="m 41,160.3 h 6.7 V 148.9 H 41 Z"
       id="path467" />
    <path
       class="e"
       d="m 94.5,154.3 c 0,0.9 0.6,1.5 1.5,1.5 0.8,0 1.5,-0.6 1.5,-1.5 0,-0.8 -0.7,-1.5 -1.5,-1.5 -0.9,0 -1.5,0.7 -1.5,1.5 z"
       id="path469" />
    <path
       class="e"
       d="m 42,154.3 c 0,0.9 0.7,1.5 1.5,1.5 0.9,0 1.5,-0.6 1.5,-1.5 0,-0.8 -0.6,-1.5 -1.5,-1.5 -0.8,0 -1.5,0.7 -1.5,1.5 z"
       id="path471" />
    <path
       class="f"
       d="m 64.8,215.1 c 0,1.5 16.2,2.7 36.1,2.7 20,0 36.1,-1.2 36.1,-2.7 0,-1.5 -16.1,-2.7 -36.1,-2.7 -19.9,0 -36.1,1.2 -36.1,2.7 z"
       id="path473" />
    <path
       class="f"
       d="m 73.1,223.2 c 0,1.2 12.4,2.1 27.8,2.1 15.4,0 27.9,-0.9 27.9,-2.1 0,-1.1 -12.5,-2 -27.9,-2 -15.4,0 -27.8,0.9 -27.8,2 z"
       id="path475" />
    <path
       class="f"
       d="m 87.3,231.4 c 0,0.9 6.1,1.8 13.6,1.8 7.6,0 13.7,-0.9 13.7,-1.8 0,-1 -6.1,-1.8 -13.7,-1.8 -7.5,0 -13.6,0.8 -13.6,1.8 z"
       id="path477" />
    <path
       class="b"
       d="m 173.6,186.6 h 5 v -21.9 h -5 z"
       id="path479" />
    <path
       class="b"
       d="m 165.5,186.6 h 5 v -21.9 h -5 z"
       id="path481" />
    <path
       class="b"
       d="m 157.4,186.6 h 5 v -21.9 h -5 z"
       id="path483" />
    <text
       id="text487"
       x="54.923046"
       y="91.220345"><tspan
         x="54.923046"
         y="91.220345"
         class="g"
         id="tspan485">3L
</tspan></text>
    <path
       class="b"
       d="M 114.6,153.3 H 38.2 v -9.1 h 76.4 z"
       id="path489" />
    <path
       class="e"
       d="M 62.9,208.1 H 36.4 c -3.1,0 -5.5,-2.5 -5.5,-5.5 V 176 c 0,-3.1 2.4,-5.5 5.5,-5.5 h 26.5 c 3.1,0 5.6,2.4 5.6,5.5 v 26.6 c 0,3 -2.5,5.5 -5.6,5.5 z"
       id="path491" />
    <path
       class="h"
       d="m 43.2,190.1 c 0,6.6 -5.4,12 -12.1,12 -6.7,0 -12.1,-5.4 -12.1,-12 0,-6.7 5.4,-12.1 12.1,-12.1 6.7,0 12.1,5.4 12.1,12.1 z"
       id="path493" />
    <path
       class="b"
       d="M 29.3,186.8 C 29,177.4 9.9,178.2 9.9,178.2 c -0.4,0 -1.8,0 -4.1,-0.1 -3.5,3.1 -5.3,7.4 -5.6,12.5 -0.2,3.9 -0.1,9.6 2.7,12.6 q 5.6,0.4 11.3,0.6 c 12.7,0.2 15.6,-4.3 15.1,-17 z"
       id="path495" />
    <path
       class="c"
       d="m 39,159.6 c 0,0 -0.1,5.7 5.2,5.7 5.5,0 5.5,-5.7 5.5,-5.7 z"
       id="path497" />
    <path
       class="c"
       d="m 91.5,159.6 c 0,0 -0.1,5.7 5.2,5.7 5.6,0 5.5,-5.7 5.5,-5.7 z"
       id="path499" />
    <path
       class="i"
       d="m 65.2,162.8 c 0,0 6.3,6.7 12.9,-0.5"
       id="path501" />
    <path
       class="d"
       d="m 63.1,174.8 c 0,1 -6.3,1.8 -14,1.8 -7.6,0 -13.9,-0.8 -13.9,-1.8 0,-1.1 6.3,-1.9 13.9,-1.9 7.7,0 14,0.8 14,1.9 z"
       id="path503" />
  </g>
</svg>
