<?xml version="1.0" encoding="UTF-8" standalone="no"?>
<svg
   version="1.2"
   viewBox="0 0 225 234"
   width="225"
   height="234"
   id="svg54"
   sodipodi:docname="better-bot-1.svg"
   inkscape:version="1.2.2 (732a01da63, 2022-12-09)"
   xmlns:inkscape="http://www.inkscape.org/namespaces/inkscape"
   xmlns:sodipodi="http://sodipodi.sourceforge.net/DTD/sodipodi-0.dtd"
   xmlns="http://www.w3.org/2000/svg"
   xmlns:svg="http://www.w3.org/2000/svg">
  <defs
     id="defs58" />
  <sodipodi:namedview
     id="namedview56"
     pagecolor="#ffffff"
     bordercolor="#000000"
     borderopacity="0.25"
     inkscape:showpageshadow="2"
     inkscape:pageopacity="0.0"
     inkscape:pagecheckerboard="0"
     inkscape:deskcolor="#d1d1d1"
     showgrid="false"
     inkscape:zoom="1.008547"
     inkscape:cx="11.402542"
     inkscape:cy="117.49576"
     inkscape:window-width="1280"
     inkscape:window-height="945"
     inkscape:window-x="-9"
     inkscape:window-y="-9"
     inkscape:window-maximized="1"
     inkscape:current-layer="svg54" />
  <style
     id="style2">tspan{white-space:pre}.a{fill:none;stroke:#fff;stroke-miterlimit:10;stroke-width:9}.b{fill:#a3acd3}.c{fill:none;stroke:#8399be;stroke-miterlimit:10;stroke-width:3}.d{fill:#8399be}.e{fill:#2d3c77}.f{fill:#fff}.g{fill:#fbeb53}.h{font-size: 70px;fill: #fbeb53;font-weight: 800;font-family: &quot;Manrope-ExtraBold&quot;, &quot;Manrope&quot;}</style>
  <path
     class="a"
     d="m117 162.5h-63.2c-22.7 0-41.1-18.4-41.1-41.1l7.4-75.2c3.7-22.5 18.4-41.1 41.1-41.1h48.4c22.7 0 38.6 18.9 41.1 41.1l7.4 75.2c0 22.7-18.4 41.1-41.1 41.1z"
     id="path4" />
  <path
     class="b"
     d="m119.5 208.1h-68.2c-16.6 0-30.1-13.5-30.1-30.1 0-16.6 13.5-30.1 30.1-30.1h68.2c16.6 0 30.1 13.5 30.1 30.1 0 16.6-13.5 30.1-30.1 30.1z"
     id="path6" />
  <path
     class="b"
     d="m157.9 154.6c0 0 24.7 20.3 30.7 2.7 5.3-15.2 9-29.1 9.3-30.2 0 0 3.3-18.8 12.7-17.1 12.4 2.3 16.2 6.2 13.1 18.5-4.7 19.4-11.9 37.1-20.1 49.6-8.9 13.9-35.1 9.6-52.6 7.3"
     id="path8" />
  <path
     class="c"
     d="m175.2 163.9l-1 16.8"
     id="path10" />
  <path
     class="c"
     d="m184.6 187.5l-1-12.6"
     id="path12" />
  <path
     class="c"
     d="m185.3 162.5l7.4 8"
     id="path14" />
  <path
     class="c"
     d="m208.6 169.7l-10.4-5.8"
     id="path16" />
  <path
     class="c"
     d="m190.9 150.5l11.5 5.2"
     id="path18" />
  <path
     class="c"
     d="m216.4 152.2l-16.4-7"
     id="path20" />
  <path
     class="d"
     d="m145.1 199.9h-119.4c-13.7 0-24.8-11.1-24.8-24.8v-35.7c0-13.7 11.1-24.8 24.8-24.8h119.4c13.7 0 24.8 11.1 24.8 24.8v35.7c0 13.7-11.1 24.8-24.8 24.8z"
     id="path22" />
  <path
     class="b"
     d="m132.4 187.4h-55.5c-16.6 0-30.1-13.5-30.1-30.1 0-16.6 13.5-30.1 30.1-30.1h55.5c16.6 0 30 13.5 30 30.1 0 16.6-13.4 30.1-30 30.1z"
     id="path24" />
  <path
     class="e"
     d="m95.7 160.3h-6.6v-11.4h6.6z"
     id="path26" />
  <path
     class="e"
     d="m148.2 160.3h-6.7v-11.4h6.7z"
     id="path28" />
  <path
     class="f"
     d="m94.8 151.3c0 0.9-0.7 1.5-1.6 1.5-0.8 0-1.5-0.6-1.5-1.5 0-0.8 0.7-1.5 1.5-1.5 0.9 0 1.6 0.7 1.6 1.5z"
     id="path30" />
  <path
     class="f"
     d="m147.2 151.3c0 0.9-0.7 1.5-1.5 1.5-0.8 0-1.5-0.6-1.5-1.5 0-0.8 0.7-1.5 1.5-1.5 0.8 0 1.5 0.7 1.5 1.5z"
     id="path32" />
  <path
     class="g"
     d="m124.4 215.1c0 1.5-16.2 2.7-36.1 2.7-20 0-36.1-1.2-36.1-2.7 0-1.5 16.1-2.7 36.1-2.7 19.9 0 36.1 1.2 36.1 2.7z"
     id="path34" />
  <path
     class="g"
     d="m116.2 223.2c0 1.2-12.5 2.1-27.9 2.1-15.4 0-27.9-0.9-27.9-2.1 0-1.1 12.5-2 27.9-2 15.4 0 27.9 0.9 27.9 2z"
     id="path36" />
  <path
     class="g"
     d="m101.9 231.4c0 0.9-6.1 1.8-13.6 1.8-7.6 0-13.7-0.9-13.7-1.8 0-1 6.1-1.8 13.7-1.8 7.5 0 13.6 0.8 13.6 1.8z"
     id="path38" />
  <path
     class="e"
     d="m111.9 156.8c0 0-0.1 11.4 8.7 11.4 9.3 0 9.2-11.4 9.2-11.4z"
     id="path40" />
  <path
     class="b"
     d="m15.6 186.6h-5v-21.9h5z"
     id="path42" />
  <path
     class="b"
     d="m23.7 186.6h-5v-21.9h5z"
     id="path44" />
  <path
     class="b"
     d="m31.8 186.6h-5v-21.9h5z"
     id="path46" />
  <text
     id="text50"
     x="42.635593"
     y="90.228813"><tspan
       x="42.635593"
       y="90.228813"
       class="h"
       id="tspan48">1L
</tspan></text>
  <path
     class="b"
     d="m196.4 141.6l-10.2-7.2c-2.4-1.7-3-5-1.4-7.4 1.7-2.5 5.1-3.1 7.5-1.4l10.3 7.2c2.4 1.7 3 5 1.3 7.4-1.7 2.5-5 3.1-7.5 1.4z"
     id="path52" />
</svg>
