<svg version="1.2" xmlns="http://www.w3.org/2000/svg" viewBox="0 0 1651 430" width="1651" height="430"><style>.a{fill:#6b86b2}.b{fill:#a3acd3}.c{fill:#fff}</style><path class="a" d="m187.4 18.2c11.3 0 20.4 7.9 20.4 17.6 0 9.7-9.1 17.5-20.4 17.5-11.3 0-20.4-7.8-20.4-17.5 0-9.7 9.1-17.6 20.4-17.6zm-20-18.1c11.3 0 20.4 7.9 20.4 17.6 0 9.7-9.1 17.6-20.4 17.6-11.3 0-20.4-7.9-20.4-17.6 0-9.7 9.1-17.6 20.4-17.6zm-21 0.9c11.3 0 20.4 7.9 20.4 17.6 0 9.7-9.1 17.5-20.4 17.5-11.3 0-20.4-7.8-20.4-17.5 0-9.7 9.1-17.6 20.4-17.6zm72 16.3c11.3 0 20.4 7.9 20.4 17.6 0 9.7-9.1 17.6-20.4 17.6-11.3 0-20.4-7.9-20.4-17.6 0-9.7 9.1-17.6 20.4-17.6zm20 18.1c11.3 0 20.4 7.9 20.4 17.6 0 9.7-9.1 17.5-20.4 17.5-11.3 0-20.4-7.8-20.4-17.5 0-9.7 9.1-17.6 20.4-17.6zm33-0.9c11.3 0 20.4 7.9 20.4 17.6 0 9.7-9.1 17.6-20.4 17.6-11.3 0-20.4-7.9-20.4-17.6 0-9.7 9.1-17.6 20.4-17.6zm202 99.8c11.3 0 20.4 7.9 20.4 17.6 0 9.7-9.1 17.5-20.4 17.5-11.3 0-20.4-7.8-20.4-17.5 0-9.7 9.1-17.6 20.4-17.6zm29 0c11.3 0 20.4 7.9 20.4 17.6 0 9.7-9.1 17.5-20.4 17.5-11.3 0-20.4-7.8-20.4-17.5 0-9.7 9.1-17.6 20.4-17.6zm27 15.5c11.3 0 20.4 7.8 20.4 17.5 0 9.7-9.1 17.6-20.4 17.6-11.3 0-20.4-7.9-20.4-17.6 0-9.7 9.1-17.5 20.4-17.5zm32 0c11.3 0 20.4 7.8 20.4 17.5 0 9.7-9.1 17.6-20.4 17.6-11.3 0-20.4-7.9-20.4-17.6 0-9.7 9.1-17.5 20.4-17.5zm24 8.6c11.3 0 20.4 7.8 20.4 17.5 0 9.7-9.1 17.6-20.4 17.6-11.3 0-20.4-7.9-20.4-17.6 0-9.7 9.1-17.5 20.4-17.5zm27-6.9c11.3 0 20.4 7.9 20.4 17.6 0 9.7-9.1 17.5-20.4 17.5-11.3 0-20.4-7.8-20.4-17.5 0-9.7 9.1-17.6 20.4-17.6zm27-6.9c11.3 0 20.4 7.9 20.4 17.6 0 9.7-9.1 17.5-20.4 17.5-11.3 0-20.4-7.8-20.4-17.5 0-9.7 9.1-17.6 20.4-17.6zm0 22.4c11.3 0 20.4 7.8 20.4 17.5 0 9.7-9.1 17.6-20.4 17.6-11.3 0-20.4-7.9-20.4-17.6 0-9.7 9.1-17.5 20.4-17.5zm20 8.6c11.3 0 20.4 7.8 20.4 17.5 0 9.7-9.1 17.6-20.4 17.6-11.3 0-20.4-7.9-20.4-17.6 0-9.7 9.1-17.5 20.4-17.5zm7 26.6c11.3 0 20.4 7.9 20.4 17.6 0 9.7-9.1 17.6-20.4 17.6-11.3 0-20.4-7.9-20.4-17.6 0-9.7 9.1-17.6 20.4-17.6zm16-9.4c11.3 0 20.4 7.8 20.4 17.5 0 9.7-9.1 17.6-20.4 17.6-11.3 0-20.4-7.9-20.4-17.6 0-9.7 9.1-17.5 20.4-17.5zm17-6c11.3 0 20.4 7.8 20.4 17.5 0 9.7-9.1 17.6-20.4 17.6-11.3 0-20.4-7.9-20.4-17.6 0-9.7 9.1-17.5 20.4-17.5zm19 15.4c11.3 0 20.4 7.9 20.4 17.6 0 9.7-9.1 17.6-20.4 17.6-11.3 0-20.4-7.9-20.4-17.6 0-9.7 9.1-17.6 20.4-17.6zm14-6c11.3 0 20.4 7.9 20.4 17.6 0 9.7-9.1 17.5-20.4 17.5-11.3 0-20.4-7.8-20.4-17.5 0-9.7 9.1-17.6 20.4-17.6zm21-8.6c11.3 0 20.4 7.9 20.4 17.6 0 9.7-9.1 17.5-20.4 17.5-11.3 0-20.4-7.8-20.4-17.5 0-9.7 9.1-17.6 20.4-17.6zm15-6.9c11.3 0 20.4 7.9 20.4 17.6 0 9.7-9.1 17.6-20.4 17.6-11.3 0-20.4-7.9-20.4-17.6 0-9.7 9.1-17.6 20.4-17.6zm26 21.5c11.3 0 20.4 7.9 20.4 17.6 0 9.7-9.1 17.6-20.4 17.6-11.3 0-20.4-7.9-20.4-17.6 0-9.7 9.1-17.6 20.4-17.6zm13-9.4c11.3 0 20.4 7.8 20.4 17.5 0 9.7-9.1 17.6-20.4 17.6-11.3 0-20.4-7.9-20.4-17.6 0-9.7 9.1-17.5 20.4-17.5zm7 23.2c11.3 0 20.4 7.9 20.4 17.6 0 9.7-9.1 17.5-20.4 17.5-11.3 0-20.4-7.8-20.4-17.5 0-9.7 9.1-17.6 20.4-17.6zm26-6c11.3 0 20.4 7.8 20.4 17.5 0 9.7-9.1 17.6-20.4 17.6-11.3 0-20.4-7.9-20.4-17.6 0-9.7 9.1-17.5 20.4-17.5zm-581-148.8c11.3 0 20.4 7.9 20.4 17.6 0 9.7-9.1 17.5-20.4 17.5-11.3 0-20.4-7.8-20.4-17.5 0-9.7 9.1-17.6 20.4-17.6zm30 2.6c11.3 0 20.4 7.8 20.4 17.5 0 9.7-9.1 17.6-20.4 17.6-11.3 0-20.4-7.9-20.4-17.6 0-9.7 9.1-17.5 20.4-17.5zm20 20.6c11.3 0 20.4 7.9 20.4 17.6 0 9.7-9.1 17.5-20.4 17.5-11.3 0-20.4-7.8-20.4-17.5 0-9.7 9.1-17.6 20.4-17.6zm25 20.7c11.3 0 20.4 7.8 20.4 17.5 0 9.7-9.1 17.6-20.4 17.6-11.3 0-20.4-7.9-20.4-17.6 0-9.7 9.1-17.5 20.4-17.5zm0-20.7c11.3 0 20.4 7.9 20.4 17.6 0 9.7-9.1 17.5-20.4 17.5-11.3 0-20.4-7.8-20.4-17.5 0-9.7 9.1-17.6 20.4-17.6zm26 37.9c11.3 0 20.4 7.8 20.4 17.5 0 9.7-9.1 17.6-20.4 17.6-11.3 0-20.4-7.9-20.4-17.6 0-9.7 9.1-17.5 20.4-17.5zm0-20.7c11.3 0 20.4 7.9 20.4 17.6 0 9.7-9.1 17.5-20.4 17.5-11.3 0-20.4-7.8-20.4-17.5 0-9.7 9.1-17.6 20.4-17.6zm30 12.9c11.3 0 20.4 7.9 20.4 17.6 0 9.7-9.1 17.5-20.4 17.5-11.3 0-20.4-7.8-20.4-17.5 0-9.7 9.1-17.6 20.4-17.6zm31 8.6c11.3 0 20.4 7.9 20.4 17.6 0 9.7-9.1 17.5-20.4 17.5-11.3 0-20.4-7.8-20.4-17.5 0-9.7 9.1-17.6 20.4-17.6zm0-20.6c11.3 0 20.4 7.8 20.4 17.5 0 9.7-9.1 17.6-20.4 17.6-11.3 0-20.4-7.9-20.4-17.6 0-9.7 9.1-17.5 20.4-17.5zm30 12.9c11.3 0 20.4 7.8 20.4 17.5 0 9.7-9.1 17.6-20.4 17.6-11.3 0-20.4-7.9-20.4-17.6 0-9.7 9.1-17.5 20.4-17.5z"/><path class="b" d="m137 9.5c28.2 0 51 19.6 51 43.8 0 24.2-22.8 43.9-51 43.9-28.2 0-51-19.7-51-43.9 0-24.2 22.8-43.8 51-43.8zm68 25.8c28.2 0 51 19.6 51 43.8 0 24.2-22.8 43.9-51 43.9-28.2 0-51-19.7-51-43.9 0-24.2 22.8-43.8 51-43.8zm64 53.3c28.2 0 51 19.6 51 43.8 0 24.3-22.8 43.9-51 43.9-28.2 0-51-19.6-51-43.9 0-24.2 22.8-43.8 51-43.8zm71 29.2c28.2 0 51 19.7 51 43.9 0 24.2-22.8 43.8-51 43.8-28.2 0-51-19.6-51-43.8 0-24.2 22.8-43.9 51-43.9zm78 5.2c28.2 0 51 19.6 51 43.8 0 24.3-22.8 43.9-51 43.9-28.2 0-51-19.6-51-43.9 0-24.2 22.8-43.8 51-43.8zm58 26.6c28.2 0 51 19.7 51 43.9 0 24.2-22.8 43.9-51 43.9-28.2 0-51-19.7-51-43.9 0-24.2 22.8-43.9 51-43.9zm72 17.2c28.2 0 51 19.7 51 43.9 0 24.2-22.8 43.9-51 43.9-28.2 0-51-19.7-51-43.9 0-24.2 22.8-43.9 51-43.9zm67 12.9c28.2 0 51 19.7 51 43.9 0 24.2-22.8 43.9-51 43.9-28.2 0-51-19.7-51-43.9 0-24.2 22.8-43.9 51-43.9zm73 36.2c28.2 0 51 19.6 51 43.8 0 24.2-22.8 43.9-51 43.9-28.2 0-51-19.7-51-43.9 0-24.2 22.8-43.8 51-43.8zm71-10.4c28.2 0 51 19.7 51 43.9 0 24.2-22.8 43.9-51 43.9-28.2 0-51-19.7-51-43.9 0-24.2 22.8-43.9 51-43.9zm83 18.1c28.2 0 51 19.6 51 43.9 0 24.2-22.8 43.8-51 43.8-28.2 0-51-19.6-51-43.8 0-24.3 22.8-43.9 51-43.9z"/><path class="c" d="m137 35.3c57.4 0 104 40 104 89.4 0 49.4-46.6 89.4-104 89.4-57.4 0-104-40-104-89.4 0-49.4 46.6-89.4 104-89.4zm134 98.9c57.4 0 104 40 104 89.4 0 49.4-46.6 89.4-104 89.4-57.4 0-104-40-104-89.4 0-49.4 46.6-89.4 104-89.4zm147 27.5c57.4 0 104 40 104 89.4 0 49.4-46.6 89.5-104 89.5-57.4 0-104-40.1-104-89.5 0-49.4 46.6-89.4 104-89.4zm139 52.4c57.4 0 104 40.1 104 89.5 0 49.4-46.6 89.4-104 89.4-57.4 0-104-40-104-89.4 0-49.4 46.6-89.5 104-89.5zm146 23.3c57.4 0 104 40 104 89.4 0 49.4-46.6 89.4-104 89.4-57.4 0-104-40-104-89.4 0-49.4 46.6-89.4 104-89.4zm140 13.7c57.4 0 104 40.1 104 89.5 0 49.4-46.6 89.4-104 89.4-57.4 0-104-40-104-89.4 0-49.4 46.6-89.5 104-89.5z"/><path class="a" d="m1496.6 18.1c-11.3 0-20.4 7.8-20.4 17.5 0 9.7 9.1 17.6 20.4 17.6 11.3 0 20.4-7.9 20.4-17.6 0-9.7-9.1-17.5-20.4-17.5zm20-18.1c-11.3 0-20.4 7.9-20.4 17.6 0 9.7 9.1 17.5 20.4 17.5 11.3 0 20.4-7.8 20.4-17.5 0-9.7-9.1-17.6-20.4-17.6zm21 0.9c-11.3 0-20.4 7.8-20.4 17.5 0 9.7 9.1 17.6 20.4 17.6 11.3 0 20.4-7.9 20.4-17.6 0-9.7-9.1-17.5-20.4-17.5zm-72 16.3c-11.3 0-20.4 7.9-20.4 17.6 0 9.7 9.1 17.5 20.4 17.5 11.3 0 20.4-7.8 20.4-17.5 0-9.7-9.1-17.6-20.4-17.6zm-20 18.1c-11.3 0-20.4 7.8-20.4 17.5 0 9.7 9.1 17.6 20.4 17.6 11.3 0 20.4-7.9 20.4-17.6 0-9.7-9.1-17.5-20.4-17.5zm-33-0.9c-11.3 0-20.4 7.9-20.4 17.6 0 9.7 9.1 17.5 20.4 17.5 11.3 0 20.4-7.8 20.4-17.5 0-9.7-9.1-17.6-20.4-17.6zm-202 99.8c-11.3 0-20.4 7.9-20.4 17.6 0 9.7 9.1 17.5 20.4 17.5 11.3 0 20.4-7.8 20.4-17.5 0-9.7-9.1-17.6-20.4-17.6zm-29 0c-11.3 0-20.4 7.9-20.4 17.6 0 9.7 9.1 17.5 20.4 17.5 11.3 0 20.4-7.8 20.4-17.5 0-9.7-9.1-17.6-20.4-17.6zm-27 15.5c-11.3 0-20.4 7.9-20.4 17.6 0 9.7 9.1 17.5 20.4 17.5 11.3 0 20.4-7.8 20.4-17.5 0-9.7-9.1-17.6-20.4-17.6zm-32 0c-11.3 0-20.4 7.9-20.4 17.6 0 9.7 9.1 17.5 20.4 17.5 11.3 0 20.4-7.8 20.4-17.5 0-9.7-9.1-17.6-20.4-17.6zm-24 8.6c-11.3 0-20.4 7.9-20.4 17.6 0 9.7 9.1 17.5 20.4 17.5 11.3 0 20.4-7.8 20.4-17.5 0-9.7-9.1-17.6-20.4-17.6zm-27-6.9c-11.3 0-20.4 7.9-20.4 17.6 0 9.7 9.1 17.5 20.4 17.5 11.3 0 20.4-7.8 20.4-17.5 0-9.7-9.1-17.6-20.4-17.6zm-27-6.9c-11.3 0-20.4 7.9-20.4 17.6 0 9.7 9.1 17.6 20.4 17.6 11.3 0 20.4-7.9 20.4-17.6 0-9.7-9.1-17.6-20.4-17.6zm0 22.4c-11.3 0-20.4 7.9-20.4 17.6 0 9.7 9.1 17.5 20.4 17.5 11.3 0 20.4-7.8 20.4-17.5 0-9.7-9.1-17.6-20.4-17.6zm-20 8.6c-11.3 0-20.4 7.9-20.4 17.6 0 9.7 9.1 17.5 20.4 17.5 11.3 0 20.4-7.8 20.4-17.5 0-9.7-9.1-17.6-20.4-17.6zm-7 26.7c-11.3 0-20.4 7.8-20.4 17.5 0 9.7 9.1 17.6 20.4 17.6 11.3 0 20.4-7.9 20.4-17.6 0-9.7-9.1-17.5-20.4-17.5zm-16-9.5c-11.3 0-20.4 7.9-20.4 17.6 0 9.7 9.1 17.5 20.4 17.5 11.3 0 20.4-7.8 20.4-17.5 0-9.7-9.1-17.6-20.4-17.6zm-17-6c-11.3 0-20.4 7.8-20.4 17.5 0 9.8 9.1 17.6 20.4 17.6 11.3 0 20.4-7.8 20.4-17.6 0-9.7-9.1-17.5-20.4-17.5zm-19 15.5c-11.3 0-20.4 7.8-20.4 17.5 0 9.7 9.1 17.6 20.4 17.6 11.3 0 20.4-7.9 20.4-17.6 0-9.7-9.1-17.5-20.4-17.5zm-14-6.1c-11.3 0-20.4 7.9-20.4 17.6 0 9.7 9.1 17.6 20.4 17.6 11.3 0 20.4-7.9 20.4-17.6 0-9.7-9.1-17.6-20.4-17.6zm-21-8.6c-11.3 0-20.4 7.9-20.4 17.6 0 9.7 9.1 17.6 20.4 17.6 11.3 0 20.4-7.9 20.4-17.6 0-9.7-9.1-17.6-20.4-17.6zm-15-6.8c-11.3 0-20.4 7.8-20.4 17.5 0 9.7 9.1 17.6 20.4 17.6 11.3 0 20.4-7.9 20.4-17.6 0-9.7-9.1-17.5-20.4-17.5zm-26 21.5c-11.3 0-20.4 7.8-20.4 17.5 0 9.7 9.1 17.6 20.4 17.6 11.3 0 20.4-7.9 20.4-17.6 0-9.7-9.1-17.5-20.4-17.5zm-13-9.5c-11.3 0-20.4 7.9-20.4 17.6 0 9.7 9.1 17.5 20.4 17.5 11.3 0 20.4-7.8 20.4-17.5 0-9.7-9.1-17.6-20.4-17.6zm-7 23.2c-11.3 0-20.4 7.9-20.4 17.6 0 9.7 9.1 17.6 20.4 17.6 11.3 0 20.4-7.9 20.4-17.6 0-9.7-9.1-17.6-20.4-17.6zm-26-6c-11.3 0-20.4 7.9-20.4 17.6 0 9.7 9.1 17.5 20.4 17.5 11.3 0 20.4-7.8 20.4-17.5 0-9.7-9.1-17.6-20.4-17.6zm581-148.8c-11.3 0-20.4 7.9-20.4 17.6 0 9.7 9.1 17.5 20.4 17.5 11.3 0 20.4-7.8 20.4-17.5 0-9.7-9.1-17.6-20.4-17.6zm-30 2.6c-11.3 0-20.4 7.8-20.4 17.5 0 9.7 9.1 17.6 20.4 17.6 11.3 0 20.4-7.9 20.4-17.6 0-9.7-9.1-17.5-20.4-17.5zm-20 20.6c-11.3 0-20.4 7.9-20.4 17.6 0 9.7 9.1 17.5 20.4 17.5 11.3 0 20.4-7.8 20.4-17.5 0-9.7-9.1-17.6-20.4-17.6zm-25 20.7c-11.3 0-20.4 7.8-20.4 17.5 0 9.7 9.1 17.6 20.4 17.6 11.3 0 20.4-7.9 20.4-17.6 0-9.7-9.1-17.5-20.4-17.5zm0-20.7c-11.3 0-20.4 7.9-20.4 17.6 0 9.7 9.1 17.5 20.4 17.5 11.3 0 20.4-7.8 20.4-17.5 0-9.7-9.1-17.6-20.4-17.6zm-26 37.9c-11.3 0-20.4 7.8-20.4 17.5 0 9.7 9.1 17.6 20.4 17.6 11.3 0 20.4-7.9 20.4-17.6 0-9.7-9.1-17.5-20.4-17.5zm0-20.7c-11.3 0-20.4 7.9-20.4 17.6 0 9.7 9.1 17.5 20.4 17.5 11.3 0 20.4-7.8 20.4-17.5 0-9.7-9.1-17.6-20.4-17.6zm-30 12.9c-11.3 0-20.4 7.9-20.4 17.6 0 9.7 9.1 17.6 20.4 17.6 11.3 0 20.4-7.9 20.4-17.6 0-9.7-9.1-17.6-20.4-17.6zm-31 8.6c-11.3 0-20.4 7.9-20.4 17.6 0 9.7 9.1 17.6 20.4 17.6 11.3 0 20.4-7.9 20.4-17.6 0-9.7-9.1-17.6-20.4-17.6zm0-20.6c-11.3 0-20.4 7.8-20.4 17.5 0 9.7 9.1 17.6 20.4 17.6 11.3 0 20.4-7.9 20.4-17.6 0-9.7-9.1-17.5-20.4-17.5zm-30 12.9c-11.3 0-20.4 7.8-20.4 17.5 0 9.7 9.1 17.6 20.4 17.6 11.3 0 20.4-7.9 20.4-17.6 0-9.7-9.1-17.5-20.4-17.5z"/><path class="b" d="m1547 9.3c-28.2 0-51 19.7-51 43.9 0 24.2 22.8 43.9 51 43.9 28.2 0 51-19.7 51-43.9 0-24.2-22.8-43.9-51-43.9zm-68 25.8c-28.2 0-51 19.7-51 43.9 0 24.2 22.8 43.9 51 43.9 28.2 0 51-19.7 51-43.9 0-24.2-22.8-43.9-51-43.9zm-64 53.4c-28.2 0-51 19.6-51 43.8 0 24.3 22.8 43.9 51 43.9 28.2 0 51-19.6 51-43.9 0-24.2-22.8-43.8-51-43.8zm-71 29.2c-28.2 0-51 19.7-51 43.9 0 24.2 22.8 43.9 51 43.9 28.2 0 51-19.7 51-43.9 0-24.2-22.8-43.9-51-43.9zm-78 5.2c-28.2 0-51 19.6-51 43.9 0 24.2 22.8 43.8 51 43.8 28.2 0 51-19.6 51-43.8 0-24.3-22.8-43.9-51-43.9zm-58 26.7c-28.2 0-51 19.6-51 43.8 0 24.3 22.8 43.9 51 43.9 28.2 0 51-19.6 51-43.9 0-24.2-22.8-43.8-51-43.8zm-72 17.2c-28.2 0-51 19.6-51 43.8 0 24.3 22.8 43.9 51 43.9 28.2 0 51-19.6 51-43.9 0-24.2-22.8-43.8-51-43.8zm-67 12.9c-28.2 0-51 19.6-51 43.8 0 24.3 22.8 43.9 51 43.9 28.2 0 51-19.6 51-43.9 0-24.2-22.8-43.8-51-43.8zm-73 36.1c-28.2 0-51 19.6-51 43.9 0 24.2 22.8 43.8 51 43.8 28.2 0 51-19.6 51-43.8 0-24.3-22.8-43.9-51-43.9zm-71-10.3c-28.2 0-51 19.6-51 43.8 0 24.3 22.8 43.9 51 43.9 28.2 0 51-19.6 51-43.9 0-24.2-22.8-43.8-51-43.8zm-83 18c-28.2 0-51 19.7-51 43.9 0 24.2 22.8 43.9 51 43.9 28.2 0 51-19.7 51-43.9 0-24.2-22.8-43.9-51-43.9z"/><path class="c" d="m1547 35.1c-57.4 0-104 40.1-104 89.5 0 49.4 46.6 89.5 104 89.5 57.4 0 104-40.1 104-89.5 0-49.4-46.6-89.5-104-89.5zm-134 99c-57.4 0-104 40-104 89.4 0 49.4 46.6 89.5 104 89.5 57.4 0 104-40.1 104-89.5 0-49.4-46.6-89.4-104-89.4zm-147 27.5c-57.4 0-104 40.1-104 89.5 0 49.4 46.6 89.4 104 89.4 57.4 0 104-40 104-89.4 0-49.4-46.6-89.5-104-89.5zm-139 52.5c-57.4 0-104 40-104 89.4 0 49.5 46.6 89.5 104 89.5 57.4 0 104-40 104-89.5 0-49.4-46.6-89.4-104-89.4zm-146 23.2c-57.4 0-104 40.1-104 89.5 0 49.4 46.6 89.4 104 89.4 57.4 0 104-40 104-89.4 0-49.4-46.6-89.5-104-89.5zm-140 13.8c-57.4 0-104 40-104 89.4 0 49.4 46.6 89.5 104 89.5 57.4 0 104-40.1 104-89.5 0-49.4-46.6-89.4-104-89.4z"/><path class="c" d="m1460 186.6h156v135.9h-156z"/><path class="c" d="m1144 263.6h156v135.9h-156z"/><path class="c" d="m0 193.5h256v125.6h-256z"/></svg>