<?xml version="1.0" encoding="UTF-8" standalone="no"?>
<svg
   version="1.2"
   viewBox="0 0 1618 421"
   width="1618"
   height="421"
   id="svg18"
   sodipodi:docname="clouds-front.svg"
   inkscape:version="1.2.2 (732a01da63, 2022-12-09)"
   xmlns:inkscape="http://www.inkscape.org/namespaces/inkscape"
   xmlns:sodipodi="http://sodipodi.sourceforge.net/DTD/sodipodi-0.dtd"
   xmlns="http://www.w3.org/2000/svg"
   xmlns:svg="http://www.w3.org/2000/svg">
  <defs
     id="defs22" />
  <sodipodi:namedview
     id="namedview20"
     pagecolor="#ffffff"
     bordercolor="#000000"
     borderopacity="0.25"
     inkscape:showpageshadow="2"
     inkscape:pageopacity="0.0"
     inkscape:pagecheckerboard="0"
     inkscape:deskcolor="#d1d1d1"
     showgrid="false"
     inkscape:zoom="0.3963829"
     inkscape:cx="362.02369"
     inkscape:cy="601.69093"
     inkscape:window-width="1280"
     inkscape:window-height="945"
     inkscape:window-x="-9"
     inkscape:window-y="-9"
     inkscape:window-maximized="1"
     inkscape:current-layer="svg18" />
  <style
     id="style2">.a{fill:#a3acd3}.b{fill:#fff}</style>
  <g
     id="g417">
    <g
       id="g497">
      <g
         id="g438"
         transform="translate(-33,-0.3)">
        <g
           id="g421">
          <path
             class="a"
             d="m 137,0.5 c 28.2,0 51,19.6 51,43.8 0,24.2 -22.8,43.9 -51,43.9 C 108.8,88.2 86,68.5 86,44.3 86,20.1 108.8,0.5 137,0.5 Z m 68,25.8 c 28.2,0 51,19.6 51,43.8 0,24.2 -22.8,43.9 -51,43.9 -28.2,0 -51,-19.7 -51,-43.9 0,-24.2 22.8,-43.8 51,-43.8 z m 64,53.3 c 28.2,0 51,19.6 51,43.8 0,24.3 -22.8,43.9 -51,43.9 -28.2,0 -51,-19.6 -51,-43.9 0,-24.2 22.8,-43.8 51,-43.8 z m 71,29.2 c 28.2,0 51,19.7 51,43.9 0,24.2 -22.8,43.8 -51,43.8 -28.2,0 -51,-19.6 -51,-43.8 0,-24.2 22.8,-43.9 51,-43.9 z m 78,5.2 c 28.2,0 51,19.6 51,43.8 0,24.3 -22.8,43.9 -51,43.9 -28.2,0 -51,-19.6 -51,-43.9 0,-24.2 22.8,-43.8 51,-43.8 z m 58,26.6 c 28.2,0 51,19.7 51,43.9 0,24.2 -22.8,43.9 -51,43.9 -28.2,0 -51,-19.7 -51,-43.9 0,-24.2 22.8,-43.9 51,-43.9 z m 72,17.2 c 28.2,0 51,19.7 51,43.9 0,24.2 -22.8,43.9 -51,43.9 -28.2,0 -51,-19.7 -51,-43.9 0,-24.2 22.8,-43.9 51,-43.9 z m 67,12.9 c 28.2,0 51,19.7 51,43.9 0,24.2 -22.8,43.9 -51,43.9 -28.2,0 -51,-19.7 -51,-43.9 0,-24.2 22.8,-43.9 51,-43.9 z m 73,36.2 c 28.2,0 51,19.6 51,43.8 0,24.2 -22.8,43.9 -51,43.9 -28.2,0 -51,-19.7 -51,-43.9 0,-24.2 22.8,-43.8 51,-43.8 z m 71,-10.4 c 28.2,0 51,19.7 51,43.9 0,24.2 -22.8,43.9 -51,43.9 -28.2,0 -51,-19.7 -51,-43.9 0,-24.2 22.8,-43.9 51,-43.9 z m 83,18.1 c 28.2,0 51,19.6 51,43.9 0,24.2 -22.8,43.8 -51,43.8 -28.2,0 -51,-19.6 -51,-43.8 0,-24.3 22.8,-43.9 51,-43.9 z"
             id="path4" />
          <path
             class="b"
             d="m 137,26.3 c 57.4,0 104,40 104,89.4 0,49.4 -46.6,89.4 -104,89.4 -57.4,0 -104,-40 -104,-89.4 0,-49.4 46.6,-89.4 104,-89.4 z m 134,98.9 c 57.4,0 104,40 104,89.4 0,49.4 -46.6,89.4 -104,89.4 -57.4,0 -104,-40 -104,-89.4 0,-49.4 46.6,-89.4 104,-89.4 z m 147,27.5 c 57.4,0 104,40 104,89.4 0,49.4 -46.6,89.5 -104,89.5 -57.4,0 -104,-40.1 -104,-89.5 0,-49.4 46.6,-89.4 104,-89.4 z m 139,52.4 c 57.4,0 104,40.1 104,89.5 0,49.4 -46.6,89.4 -104,89.4 -57.4,0 -104,-40 -104,-89.4 0,-49.4 46.6,-89.5 104,-89.5 z m 146,23.3 c 57.4,0 104,40 104,89.4 0,49.4 -46.6,89.4 -104,89.4 -57.4,0 -104,-40 -104,-89.4 0,-49.4 46.6,-89.4 104,-89.4 z m 140,13.7 c 57.4,0 104,40.1 104,89.5 0,49.4 -46.6,89.4 -104,89.4 -57.4,0 -104,-40 -104,-89.4 0,-49.4 46.6,-89.5 104,-89.5 z"
             id="path6" />
          <path
             class="a"
             d="m 1547,0.3 c -28.2,0 -51,19.7 -51,43.9 0,24.2 22.8,43.9 51,43.9 28.2,0 51,-19.7 51,-43.9 0,-24.2 -22.8,-43.9 -51,-43.9 z m -68,25.8 c -28.2,0 -51,19.7 -51,43.9 0,24.2 22.8,43.9 51,43.9 28.2,0 51,-19.7 51,-43.9 0,-24.2 -22.8,-43.9 -51,-43.9 z m -64,53.4 c -28.2,0 -51,19.6 -51,43.8 0,24.3 22.8,43.9 51,43.9 28.2,0 51,-19.6 51,-43.9 0,-24.2 -22.8,-43.8 -51,-43.8 z m -71,29.2 c -28.2,0 -51,19.7 -51,43.9 0,24.2 22.8,43.9 51,43.9 28.2,0 51,-19.7 51,-43.9 0,-24.2 -22.8,-43.9 -51,-43.9 z m -78,5.2 c -28.2,0 -51,19.6 -51,43.9 0,24.2 22.8,43.8 51,43.8 28.2,0 51,-19.6 51,-43.8 0,-24.3 -22.8,-43.9 -51,-43.9 z m -58,26.7 c -28.2,0 -51,19.6 -51,43.8 0,24.3 22.8,43.9 51,43.9 28.2,0 51,-19.6 51,-43.9 0,-24.2 -22.8,-43.8 -51,-43.8 z m -72,17.2 c -28.2,0 -51,19.6 -51,43.8 0,24.3 22.8,43.9 51,43.9 28.2,0 51,-19.6 51,-43.9 0,-24.2 -22.8,-43.8 -51,-43.8 z m -67,12.9 c -28.2,0 -51,19.6 -51,43.8 0,24.3 22.8,43.9 51,43.9 28.2,0 51,-19.6 51,-43.9 0,-24.2 -22.8,-43.8 -51,-43.8 z m -73,36.1 c -28.2,0 -51,19.6 -51,43.9 0,24.2 22.8,43.8 51,43.8 28.2,0 51,-19.6 51,-43.8 0,-24.3 -22.8,-43.9 -51,-43.9 z m -71,-10.3 c -28.2,0 -51,19.6 -51,43.8 0,24.3 22.8,43.9 51,43.9 28.2,0 51,-19.6 51,-43.9 0,-24.2 -22.8,-43.8 -51,-43.8 z m -83,18 c -28.2,0 -51,19.7 -51,43.9 0,24.2 22.8,43.9 51,43.9 28.2,0 51,-19.7 51,-43.9 0,-24.2 -22.8,-43.9 -51,-43.9 z"
             id="path8" />
          <path
             class="b"
             d="m 1547,26.1 c -57.4,0 -104,40.1 -104,89.5 0,49.4 46.6,89.5 104,89.5 57.4,0 104,-40.1 104,-89.5 0,-49.4 -46.6,-89.5 -104,-89.5 z m -134,99 c -57.4,0 -104,40 -104,89.4 0,49.4 46.6,89.5 104,89.5 57.4,0 104,-40.1 104,-89.5 0,-49.4 -46.6,-89.4 -104,-89.4 z m -147,27.5 c -57.4,0 -104,40.1 -104,89.5 0,49.4 46.6,89.4 104,89.4 57.4,0 104,-40 104,-89.4 0,-49.4 -46.6,-89.5 -104,-89.5 z m -139,52.5 c -57.4,0 -104,40 -104,89.4 0,49.5 46.6,89.5 104,89.5 57.4,0 104,-40 104,-89.5 0,-49.4 -46.6,-89.4 -104,-89.4 z m -146,23.2 c -57.4,0 -104,40.1 -104,89.5 0,49.4 46.6,89.4 104,89.4 57.4,0 104,-40 104,-89.4 0,-49.4 -46.6,-89.5 -104,-89.5 z m -140,13.8 c -57.4,0 -104,40 -104,89.4 0,49.4 46.6,89.5 104,89.5 57.4,0 104,-40.1 104,-89.5 0,-49.4 -46.6,-89.4 -104,-89.4 z"
             id="path10" />
        </g>
      </g>
      <g
         id="g485" />
    </g>
    <path
       style="fill:#ffffff;stroke:#ffffff;stroke-width:0;stroke-linejoin:round;stroke-dashoffset:4707.14;paint-order:markers fill stroke"
       d="m 0,112.89589 148.21527,91.45197 295.79984,119.83363 317.87446,68.11595 282.55503,-30.27375 291.385,-83.25284 146.3231,-87.03705 135.843,-75.11145 V 421.27873 H -0.07883791 Z"
       id="path352" />
  </g>
</svg>
