<svg version="1.2" xmlns="http://www.w3.org/2000/svg" viewBox="0 0 914 421" width="914" height="421"><style>.a{fill:#a3acd3}.b{fill:#fff}</style><path class="a" d="m810 0.3c-28.2 0-51 19.7-51 43.9 0 24.2 22.8 43.9 51 43.9 28.2 0 51-19.7 51-43.9 0-24.2-22.8-43.9-51-43.9zm-68 25.8c-28.2 0-51 19.7-51 43.9 0 24.2 22.8 43.9 51 43.9 28.2 0 51-19.7 51-43.9 0-24.2-22.8-43.9-51-43.9zm-64 53.4c-28.2 0-51 19.6-51 43.8 0 24.3 22.8 43.9 51 43.9 28.2 0 51-19.6 51-43.9 0-24.2-22.8-43.8-51-43.8zm-71 29.2c-28.2 0-51 19.7-51 43.9 0 24.2 22.8 43.9 51 43.9 28.2 0 51-19.7 51-43.9 0-24.2-22.8-43.9-51-43.9zm-78 5.2c-28.2 0-51 19.6-51 43.9 0 24.2 22.8 43.8 51 43.8 28.2 0 51-19.6 51-43.8 0-24.3-22.8-43.9-51-43.9zm-58 26.7c-28.2 0-51 19.6-51 43.8 0 24.3 22.8 43.9 51 43.9 28.2 0 51-19.6 51-43.9 0-24.2-22.8-43.8-51-43.8zm-72 17.2c-28.2 0-51 19.6-51 43.8 0 24.3 22.8 43.9 51 43.9 28.2 0 51-19.6 51-43.9 0-24.2-22.8-43.8-51-43.8zm-67 12.9c-28.2 0-51 19.6-51 43.8 0 24.3 22.8 43.9 51 43.9 28.2 0 51-19.6 51-43.9 0-24.2-22.8-43.8-51-43.8zm-73 36.1c-28.2 0-51 19.6-51 43.9 0 24.2 22.8 43.8 51 43.8 28.2 0 51-19.6 51-43.8 0-24.3-22.8-43.9-51-43.9zm-71-10.3c-28.2 0-51 19.6-51 43.8 0 24.3 22.8 43.9 51 43.9 28.2 0 51-19.6 51-43.9 0-24.2-22.8-43.8-51-43.8zm-83 18c-28.2 0-51 19.7-51 43.9 0 24.2 22.8 43.9 51 43.9 28.2 0 51-19.7 51-43.9 0-24.2-22.8-43.9-51-43.9z"/><path class="b" d="m810 26.1c-57.4 0-104 40.1-104 89.5 0 49.4 46.6 89.5 104 89.5 57.4 0 104-40.1 104-89.5 0-49.4-46.6-89.5-104-89.5zm-134 99c-57.4 0-104 40-104 89.4 0 49.4 46.6 89.5 104 89.5 57.4 0 104-40.1 104-89.5 0-49.4-46.6-89.4-104-89.4zm-147 27.5c-57.4 0-104 40.1-104 89.5 0 49.4 46.6 89.4 104 89.4 57.4 0 104-40 104-89.4 0-49.4-46.6-89.5-104-89.5zm-139 52.5c-57.4 0-104 40-104 89.4 0 49.5 46.6 89.5 104 89.5 57.4 0 104-40 104-89.5 0-49.4-46.6-89.4-104-89.4zm-146 23.2c-57.4 0-104 40.1-104 89.5 0 49.4 46.6 89.4 104 89.4 57.4 0 104-40 104-89.4 0-49.4-46.6-89.5-104-89.5zm-140 13.8c-57.4 0-104 40-104 89.4 0 49.4 46.6 89.5 104 89.5 57.4 0 104-40.1 104-89.5 0-49.4-46.6-89.4-104-89.4z"/></svg>