<?xml version="1.0" encoding="UTF-8" standalone="no"?>
<svg
   version="1.2"
   viewBox="0 0 1432 251"
   width="1432"
   height="251"
   id="svg12"
   sodipodi:docname="clouds-behind.svg"
   inkscape:version="1.2.2 (732a01da63, 2022-12-09)"
   xmlns:inkscape="http://www.inkscape.org/namespaces/inkscape"
   xmlns:sodipodi="http://sodipodi.sourceforge.net/DTD/sodipodi-0.dtd"
   xmlns="http://www.w3.org/2000/svg"
   xmlns:svg="http://www.w3.org/2000/svg">
  <defs
     id="defs16" />
  <sodipodi:namedview
     id="namedview14"
     pagecolor="#ffffff"
     bordercolor="#000000"
     borderopacity="0.25"
     inkscape:showpageshadow="2"
     inkscape:pageopacity="0.0"
     inkscape:pagecheckerboard="0"
     inkscape:deskcolor="#d1d1d1"
     showgrid="false"
     inkscape:zoom="0.5"
     inkscape:cx="591"
     inkscape:cy="242"
     inkscape:window-width="1280"
     inkscape:window-height="945"
     inkscape:window-x="-9"
     inkscape:window-y="-9"
     inkscape:window-maximized="1"
     inkscape:current-layer="svg12" />
  <style
     id="style2">.a{fill:#6b86b2}.b{fill:#a3acd3}.c{fill:#fff}</style>
  <g
     id="g407"
     transform="translate(-93)">
    <path
       class="a"
       d="m 154.4,18.2 c 11.3,0 20.4,7.9 20.4,17.6 0,9.7 -9.1,17.5 -20.4,17.5 -11.3,0 -20.4,-7.8 -20.4,-17.5 0,-9.7 9.1,-17.6 20.4,-17.6 z m -20,-18.1 c 11.3,0 20.4,7.9 20.4,17.6 0,9.7 -9.1,17.6 -20.4,17.6 C 123.1,35.3 114,27.4 114,17.7 114,8 123.1,0.1 134.4,0.1 Z m -21,0.9 c 11.3,0 20.4,7.9 20.4,17.6 0,9.7 -9.1,17.5 -20.4,17.5 C 102.1,36.1 93,28.3 93,18.6 93,8.9 102.1,1 113.4,1 Z m 72,16.3 c 11.3,0 20.4,7.9 20.4,17.6 0,9.7 -9.1,17.6 -20.4,17.6 -11.3,0 -20.4,-7.9 -20.4,-17.6 0,-9.7 9.1,-17.6 20.4,-17.6 z m 20,18.1 c 11.3,0 20.4,7.9 20.4,17.6 0,9.7 -9.1,17.5 -20.4,17.5 -11.3,0 -20.4,-7.8 -20.4,-17.5 0,-9.7 9.1,-17.6 20.4,-17.6 z m 33,-0.9 c 11.3,0 20.4,7.9 20.4,17.6 0,9.7 -9.1,17.6 -20.4,17.6 -11.3,0 -20.4,-7.9 -20.4,-17.6 0,-9.7 9.1,-17.6 20.4,-17.6 z m 202,99.8 c 11.3,0 20.4,7.9 20.4,17.6 0,9.7 -9.1,17.5 -20.4,17.5 -11.3,0 -20.4,-7.8 -20.4,-17.5 0,-9.7 9.1,-17.6 20.4,-17.6 z m 29,0 c 11.3,0 20.4,7.9 20.4,17.6 0,9.7 -9.1,17.5 -20.4,17.5 -11.3,0 -20.4,-7.8 -20.4,-17.5 0,-9.7 9.1,-17.6 20.4,-17.6 z m 27,15.5 c 11.3,0 20.4,7.8 20.4,17.5 0,9.7 -9.1,17.6 -20.4,17.6 -11.3,0 -20.4,-7.9 -20.4,-17.6 0,-9.7 9.1,-17.5 20.4,-17.5 z m 32,0 c 11.3,0 20.4,7.8 20.4,17.5 0,9.7 -9.1,17.6 -20.4,17.6 -11.3,0 -20.4,-7.9 -20.4,-17.6 0,-9.7 9.1,-17.5 20.4,-17.5 z m 24,8.6 c 11.3,0 20.4,7.8 20.4,17.5 0,9.7 -9.1,17.6 -20.4,17.6 -11.3,0 -20.4,-7.9 -20.4,-17.6 0,-9.7 9.1,-17.5 20.4,-17.5 z m 27,-6.9 c 11.3,0 20.4,7.9 20.4,17.6 0,9.7 -9.1,17.5 -20.4,17.5 -11.3,0 -20.4,-7.8 -20.4,-17.5 0,-9.7 9.1,-17.6 20.4,-17.6 z m 27,-6.9 c 11.3,0 20.4,7.9 20.4,17.6 0,9.7 -9.1,17.5 -20.4,17.5 -11.3,0 -20.4,-7.8 -20.4,-17.5 0,-9.7 9.1,-17.6 20.4,-17.6 z m 0,22.4 c 11.3,0 20.4,7.8 20.4,17.5 0,9.7 -9.1,17.6 -20.4,17.6 -11.3,0 -20.4,-7.9 -20.4,-17.6 0,-9.7 9.1,-17.5 20.4,-17.5 z m 20,8.6 c 11.3,0 20.4,7.8 20.4,17.5 0,9.7 -9.1,17.6 -20.4,17.6 -11.3,0 -20.4,-7.9 -20.4,-17.6 0,-9.7 9.1,-17.5 20.4,-17.5 z m 7,26.6 c 11.3,0 20.4,7.9 20.4,17.6 0,9.7 -9.1,17.6 -20.4,17.6 -11.3,0 -20.4,-7.9 -20.4,-17.6 0,-9.7 9.1,-17.6 20.4,-17.6 z m 16,-9.4 c 11.3,0 20.4,7.8 20.4,17.5 0,9.7 -9.1,17.6 -20.4,17.6 -11.3,0 -20.4,-7.9 -20.4,-17.6 0,-9.7 9.1,-17.5 20.4,-17.5 z m 17,-6 c 11.3,0 20.4,7.8 20.4,17.5 0,9.7 -9.1,17.6 -20.4,17.6 -11.3,0 -20.4,-7.9 -20.4,-17.6 0,-9.7 9.1,-17.5 20.4,-17.5 z m 19,15.4 c 11.3,0 20.4,7.9 20.4,17.6 0,9.7 -9.1,17.6 -20.4,17.6 -11.3,0 -20.4,-7.9 -20.4,-17.6 0,-9.7 9.1,-17.6 20.4,-17.6 z m 14,-6 c 11.3,0 20.4,7.9 20.4,17.6 0,9.7 -9.1,17.5 -20.4,17.5 -11.3,0 -20.4,-7.8 -20.4,-17.5 0,-9.7 9.1,-17.6 20.4,-17.6 z m 21,-8.6 c 11.3,0 20.4,7.9 20.4,17.6 0,9.7 -9.1,17.5 -20.4,17.5 -11.3,0 -20.4,-7.8 -20.4,-17.5 0,-9.7 9.1,-17.6 20.4,-17.6 z m 15,-6.9 c 11.3,0 20.4,7.9 20.4,17.6 0,9.7 -9.1,17.6 -20.4,17.6 -11.3,0 -20.4,-7.9 -20.4,-17.6 0,-9.7 9.1,-17.6 20.4,-17.6 z m 26,21.5 c 11.3,0 20.4,7.9 20.4,17.6 0,9.7 -9.1,17.6 -20.4,17.6 -11.3,0 -20.4,-7.9 -20.4,-17.6 0,-9.7 9.1,-17.6 20.4,-17.6 z m 13,-9.4 c 11.3,0 20.4,7.8 20.4,17.5 0,9.7 -9.1,17.6 -20.4,17.6 -11.3,0 -20.4,-7.9 -20.4,-17.6 0,-9.7 9.1,-17.5 20.4,-17.5 z m 7,23.2 c 11.3,0 20.4,7.9 20.4,17.6 0,9.7 -9.1,17.5 -20.4,17.5 -11.3,0 -20.4,-7.8 -20.4,-17.5 0,-9.7 9.1,-17.6 20.4,-17.6 z m 26,-6 c 11.3,0 20.4,7.8 20.4,17.5 0,9.7 -9.1,17.6 -20.4,17.6 -11.3,0 -20.4,-7.9 -20.4,-17.6 0,-9.7 9.1,-17.5 20.4,-17.5 z M 226.4,61.2 c 11.3,0 20.4,7.9 20.4,17.6 0,9.7 -9.1,17.5 -20.4,17.5 -11.3,0 -20.4,-7.8 -20.4,-17.5 0,-9.7 9.1,-17.6 20.4,-17.6 z m 30,2.6 c 11.3,0 20.4,7.8 20.4,17.5 0,9.7 -9.1,17.6 -20.4,17.6 -11.3,0 -20.4,-7.9 -20.4,-17.6 0,-9.7 9.1,-17.5 20.4,-17.5 z m 20,20.6 c 11.3,0 20.4,7.9 20.4,17.6 0,9.7 -9.1,17.5 -20.4,17.5 -11.3,0 -20.4,-7.8 -20.4,-17.5 0,-9.7 9.1,-17.6 20.4,-17.6 z m 25,20.7 c 11.3,0 20.4,7.8 20.4,17.5 0,9.7 -9.1,17.6 -20.4,17.6 -11.3,0 -20.4,-7.9 -20.4,-17.6 0,-9.7 9.1,-17.5 20.4,-17.5 z m 0,-20.7 c 11.3,0 20.4,7.9 20.4,17.6 0,9.7 -9.1,17.5 -20.4,17.5 -11.3,0 -20.4,-7.8 -20.4,-17.5 0,-9.7 9.1,-17.6 20.4,-17.6 z m 26,37.9 c 11.3,0 20.4,7.8 20.4,17.5 0,9.7 -9.1,17.6 -20.4,17.6 -11.3,0 -20.4,-7.9 -20.4,-17.6 0,-9.7 9.1,-17.5 20.4,-17.5 z m 0,-20.7 c 11.3,0 20.4,7.9 20.4,17.6 0,9.7 -9.1,17.5 -20.4,17.5 -11.3,0 -20.4,-7.8 -20.4,-17.5 0,-9.7 9.1,-17.6 20.4,-17.6 z m 30,12.9 c 11.3,0 20.4,7.9 20.4,17.6 0,9.7 -9.1,17.5 -20.4,17.5 -11.3,0 -20.4,-7.8 -20.4,-17.5 0,-9.7 9.1,-17.6 20.4,-17.6 z m 31,8.6 c 11.3,0 20.4,7.9 20.4,17.6 0,9.7 -9.1,17.5 -20.4,17.5 -11.3,0 -20.4,-7.8 -20.4,-17.5 0,-9.7 9.1,-17.6 20.4,-17.6 z m 0,-20.6 c 11.3,0 20.4,7.8 20.4,17.5 0,9.7 -9.1,17.6 -20.4,17.6 -11.3,0 -20.4,-7.9 -20.4,-17.6 0,-9.7 9.1,-17.5 20.4,-17.5 z m 30,12.9 c 11.3,0 20.4,7.8 20.4,17.5 0,9.7 -9.1,17.6 -20.4,17.6 -11.3,0 -20.4,-7.9 -20.4,-17.6 0,-9.7 9.1,-17.5 20.4,-17.5 z"
       id="path4" />
    <path
       class="a"
       d="m 1463.6,18.1 c -11.3,0 -20.4,7.8 -20.4,17.5 0,9.7 9.1,17.6 20.4,17.6 11.3,0 20.4,-7.9 20.4,-17.6 0,-9.7 -9.1,-17.5 -20.4,-17.5 z m 20,-18.1 c -11.3,0 -20.4,7.9 -20.4,17.6 0,9.7 9.1,17.5 20.4,17.5 11.3,0 20.4,-7.8 20.4,-17.5 C 1504,7.9 1494.9,0 1483.6,0 Z m 21,0.9 c -11.3,0 -20.4,7.8 -20.4,17.5 0,9.7 9.1,17.6 20.4,17.6 11.3,0 20.4,-7.9 20.4,-17.6 0,-9.7 -9.1,-17.5 -20.4,-17.5 z m -72,16.3 c -11.3,0 -20.4,7.9 -20.4,17.6 0,9.7 9.1,17.5 20.4,17.5 11.3,0 20.4,-7.8 20.4,-17.5 0,-9.7 -9.1,-17.6 -20.4,-17.6 z m -20,18.1 c -11.3,0 -20.4,7.8 -20.4,17.5 0,9.7 9.1,17.6 20.4,17.6 11.3,0 20.4,-7.9 20.4,-17.6 0,-9.7 -9.1,-17.5 -20.4,-17.5 z m -33,-0.9 c -11.3,0 -20.4,7.9 -20.4,17.6 0,9.7 9.1,17.5 20.4,17.5 11.3,0 20.4,-7.8 20.4,-17.5 0,-9.7 -9.1,-17.6 -20.4,-17.6 z m -202,99.8 c -11.3,0 -20.4,7.9 -20.4,17.6 0,9.7 9.1,17.5 20.4,17.5 11.3,0 20.4,-7.8 20.4,-17.5 0,-9.7 -9.1,-17.6 -20.4,-17.6 z m -29,0 c -11.3,0 -20.4,7.9 -20.4,17.6 0,9.7 9.1,17.5 20.4,17.5 11.3,0 20.4,-7.8 20.4,-17.5 0,-9.7 -9.1,-17.6 -20.4,-17.6 z m -27,15.5 c -11.3,0 -20.4,7.9 -20.4,17.6 0,9.7 9.1,17.5 20.4,17.5 11.3,0 20.4,-7.8 20.4,-17.5 0,-9.7 -9.1,-17.6 -20.4,-17.6 z m -32,0 c -11.3,0 -20.4,7.9 -20.4,17.6 0,9.7 9.1,17.5 20.4,17.5 11.3,0 20.4,-7.8 20.4,-17.5 0,-9.7 -9.1,-17.6 -20.4,-17.6 z m -24,8.6 c -11.3,0 -20.4,7.9 -20.4,17.6 0,9.7 9.1,17.5 20.4,17.5 11.3,0 20.4,-7.8 20.4,-17.5 0,-9.7 -9.1,-17.6 -20.4,-17.6 z m -27,-6.9 c -11.3,0 -20.4,7.9 -20.4,17.6 0,9.7 9.1,17.5 20.4,17.5 11.3,0 20.4,-7.8 20.4,-17.5 0,-9.7 -9.1,-17.6 -20.4,-17.6 z m -27,-6.9 c -11.3,0 -20.4,7.9 -20.4,17.6 0,9.7 9.1,17.6 20.4,17.6 11.3,0 20.4,-7.9 20.4,-17.6 0,-9.7 -9.1,-17.6 -20.4,-17.6 z m 0,22.4 c -11.3,0 -20.4,7.9 -20.4,17.6 0,9.7 9.1,17.5 20.4,17.5 11.3,0 20.4,-7.8 20.4,-17.5 0,-9.7 -9.1,-17.6 -20.4,-17.6 z m -20,8.6 c -11.3,0 -20.4,7.9 -20.4,17.6 0,9.7 9.1,17.5 20.4,17.5 11.3,0 20.4,-7.8 20.4,-17.5 0,-9.7 -9.1,-17.6 -20.4,-17.6 z m -7,26.7 c -11.3,0 -20.4,7.8 -20.4,17.5 0,9.7 9.1,17.6 20.4,17.6 11.3,0 20.4,-7.9 20.4,-17.6 0,-9.7 -9.1,-17.5 -20.4,-17.5 z m -16,-9.5 c -11.3,0 -20.4,7.9 -20.4,17.6 0,9.7 9.1,17.5 20.4,17.5 11.3,0 20.4,-7.8 20.4,-17.5 0,-9.7 -9.1,-17.6 -20.4,-17.6 z m -17,-6 c -11.3,0 -20.4,7.8 -20.4,17.5 0,9.8 9.1,17.6 20.4,17.6 11.3,0 20.4,-7.8 20.4,-17.6 0,-9.7 -9.1,-17.5 -20.4,-17.5 z m -19,15.5 c -11.3,0 -20.4,7.8 -20.4,17.5 0,9.7 9.1,17.6 20.4,17.6 11.3,0 20.4,-7.9 20.4,-17.6 0,-9.7 -9.1,-17.5 -20.4,-17.5 z m -14,-6.1 c -11.3,0 -20.4,7.9 -20.4,17.6 0,9.7 9.1,17.6 20.4,17.6 11.3,0 20.4,-7.9 20.4,-17.6 0,-9.7 -9.1,-17.6 -20.4,-17.6 z m -21,-8.6 c -11.3,0 -20.4,7.9 -20.4,17.6 0,9.7 9.1,17.6 20.4,17.6 11.3,0 20.4,-7.9 20.4,-17.6 0,-9.7 -9.1,-17.6 -20.4,-17.6 z m -15,-6.8 c -11.3,0 -20.4,7.8 -20.4,17.5 0,9.7 9.1,17.6 20.4,17.6 11.3,0 20.4,-7.9 20.4,-17.6 0,-9.7 -9.1,-17.5 -20.4,-17.5 z m -26,21.5 c -11.3,0 -20.4,7.8 -20.4,17.5 0,9.7 9.1,17.6 20.4,17.6 11.3,0 20.4,-7.9 20.4,-17.6 0,-9.7 -9.1,-17.5 -20.4,-17.5 z m -13,-9.5 c -11.3,0 -20.4,7.9 -20.4,17.6 0,9.7 9.1,17.5 20.4,17.5 11.3,0 20.4,-7.8 20.4,-17.5 0,-9.7 -9.1,-17.6 -20.4,-17.6 z m -7,23.2 c -11.3,0 -20.4,7.9 -20.4,17.6 0,9.7 9.1,17.6 20.4,17.6 11.3,0 20.4,-7.9 20.4,-17.6 0,-9.7 -9.1,-17.6 -20.4,-17.6 z m -26,-6 c -11.3,0 -20.4,7.9 -20.4,17.6 0,9.7 9.1,17.5 20.4,17.5 11.3,0 20.4,-7.8 20.4,-17.5 0,-9.7 -9.1,-17.6 -20.4,-17.6 z m 581,-148.8 c -11.3,0 -20.4,7.9 -20.4,17.6 0,9.7 9.1,17.5 20.4,17.5 11.3,0 20.4,-7.8 20.4,-17.5 0,-9.7 -9.1,-17.6 -20.4,-17.6 z m -30,2.6 c -11.3,0 -20.4,7.8 -20.4,17.5 0,9.7 9.1,17.6 20.4,17.6 11.3,0 20.4,-7.9 20.4,-17.6 0,-9.7 -9.1,-17.5 -20.4,-17.5 z m -20,20.6 c -11.3,0 -20.4,7.9 -20.4,17.6 0,9.7 9.1,17.5 20.4,17.5 11.3,0 20.4,-7.8 20.4,-17.5 0,-9.7 -9.1,-17.6 -20.4,-17.6 z m -25,20.7 c -11.3,0 -20.4,7.8 -20.4,17.5 0,9.7 9.1,17.6 20.4,17.6 11.3,0 20.4,-7.9 20.4,-17.6 0,-9.7 -9.1,-17.5 -20.4,-17.5 z m 0,-20.7 c -11.3,0 -20.4,7.9 -20.4,17.6 0,9.7 9.1,17.5 20.4,17.5 11.3,0 20.4,-7.8 20.4,-17.5 0,-9.7 -9.1,-17.6 -20.4,-17.6 z m -26,37.9 c -11.3,0 -20.4,7.8 -20.4,17.5 0,9.7 9.1,17.6 20.4,17.6 11.3,0 20.4,-7.9 20.4,-17.6 0,-9.7 -9.1,-17.5 -20.4,-17.5 z m 0,-20.7 c -11.3,0 -20.4,7.9 -20.4,17.6 0,9.7 9.1,17.5 20.4,17.5 11.3,0 20.4,-7.8 20.4,-17.5 0,-9.7 -9.1,-17.6 -20.4,-17.6 z m -30,12.9 c -11.3,0 -20.4,7.9 -20.4,17.6 0,9.7 9.1,17.6 20.4,17.6 11.3,0 20.4,-7.9 20.4,-17.6 0,-9.7 -9.1,-17.6 -20.4,-17.6 z m -31,8.6 c -11.3,0 -20.4,7.9 -20.4,17.6 0,9.7 9.1,17.6 20.4,17.6 11.3,0 20.4,-7.9 20.4,-17.6 0,-9.7 -9.1,-17.6 -20.4,-17.6 z m 0,-20.6 c -11.3,0 -20.4,7.8 -20.4,17.5 0,9.7 9.1,17.6 20.4,17.6 11.3,0 20.4,-7.9 20.4,-17.6 0,-9.7 -9.1,-17.5 -20.4,-17.5 z m -30,12.9 c -11.3,0 -20.4,7.8 -20.4,17.5 0,9.7 9.1,17.6 20.4,17.6 11.3,0 20.4,-7.9 20.4,-17.6 0,-9.7 -9.1,-17.5 -20.4,-17.5 z"
       id="path10" />
  </g>
  <path
     style="fill:#6b86b2;stroke:#ffffff;stroke-width:0;stroke-linejoin:round;stroke-dashoffset:4707.14;paint-order:markers fill stroke"
     d="m 0.16104657,20.130821 3.70407113,8.374422 11.7563993,6.925002 13.447389,-2.093605 2.979361,-0.48314 9.743318,2.335175 5.556106,12.964249 30.679372,-1.771512 15.94361,6.441863 22.627047,17.393029 50.40757,29.471522 51.5349,40.905824 110.33693,1.525 95.20128,36.44068 57.84958,4.55508 22.31991,1.59428 22.54767,23.9142 c 0,0 4.32733,25.50847 5.4661,25.73622 1.13877,0.22776 41.90678,-14.80402 41.90678,-14.80402 l 10.02119,15.48729 67.41526,-24.36971 27.10275,36.89619 27.78602,-6.14936 22.54767,0.68326 35.52966,-7.28814 18.44809,-22.09216 13.4375,3.18856 20.27013,9.56568 16.17055,7.74364 10.4767,2.5053 15.48729,-16.17055 10.02118,3.18856 14.57627,11.15996 8.42691,1.13877 14.57627,-28.69704 32.56886,-23.00318 53.97775,-1.36652 20.49791,-6.14937 61.0381,-13.893 30.9746,-14.12077 15.715,-2.27754 61.4937,0.22775 12.5265,8.88242 23.6864,-17.30932 26.6472,-21.63666 26.4195,-22.775419 15.9428,-5.466102 30.0636,-22.319916 25.964,-19.131356 15.4873,-4.099577 32.1133,-12.754237 40.3125,-10.704449 V 251.44068 H 0 Z"
     id="path1269" />
</svg>
