<?xml version="1.0" encoding="UTF-8" standalone="no"?>
<svg
   version="1.0"
   width="1316.000000pt"
   height="444.000000pt"
   viewBox="0 0 1316.000000 444.000000"
   preserveAspectRatio="xMidYMid meet"
   id="svg6"
   sodipodi:docname="Folder-1.svg"
   inkscape:version="1.2.2 (732a01da63, 2022-12-09)"
   xmlns:inkscape="http://www.inkscape.org/namespaces/inkscape"
   xmlns:sodipodi="http://sodipodi.sourceforge.net/DTD/sodipodi-0.dtd"
   xmlns="http://www.w3.org/2000/svg"
   xmlns:svg="http://www.w3.org/2000/svg">
  <defs
     id="defs10" />
  <sodipodi:namedview
     id="namedview8"
     pagecolor="#ffffff"
     bordercolor="#000000"
     borderopacity="0.25"
     inkscape:showpageshadow="2"
     inkscape:pageopacity="0.0"
     inkscape:pagecheckerboard="0"
     inkscape:deskcolor="#d1d1d1"
     inkscape:document-units="pt"
     showgrid="false"
     inkscape:zoom="0.39864865"
     inkscape:cx="706.13559"
     inkscape:cy="297.25424"
     inkscape:window-width="1280"
     inkscape:window-height="945"
     inkscape:window-x="-9"
     inkscape:window-y="-9"
     inkscape:window-maximized="1"
     inkscape:current-layer="svg6" />
  <g
     transform="translate(0.000000,444.000000) scale(0.100000,-0.100000)"
     fill="#000000"
     stroke="none"
     id="g4"
     style="fill:#2d3b77;fill-opacity:1">
    <path
       d="M283 4430 c-98 -20 -195 -99 -241 -198 l-27 -57 0 -1955 0 -1955 27 -57 c34 -73 103 -142 176 -176 l57 -27 6310 0 6310 0 57 27 c73 34 142 103 176 176 l27 57 0 1955 0 1955 -27 57 c-34 73 -103 142 -176 176 l-57 27 -6285 1 c-3457 1 -6304 -2 -6327 -6z m3392 -1159 c3 -11 15 -23 26 -26 10 -4 19 -10 19 -15 0 -5 -9 -11 -19 -15 -11 -3 -23 -15 -26 -26 -4 -10 -10 -19 -15 -19 -5 0 -11 9 -15 19 -3 11 -15 23 -26 26 -10 4 -19 10 -19 15 0 5 9 11 19 15 11 3 23 15 26 26 4 10 10 19 15 19 5 0 11 -9 15 -19z m8420 -2240 c3 -11 15 -23 26 -26 10 -4 19 -10 19 -15 0 -5 -9 -11 -19 -15 -11 -3 -23 -15 -26 -26 -4 -10 -10 -19 -15 -19 -5 0 -11 9 -15 19 -3 11 -15 23 -26 26 -10 4 -19 10 -19 15 0 5 9 11 19 15 11 3 23 15 26 26 4 10 10 19 15 19 5 0 11 -9 15 -19z m-7465 -407 c0 -21 63 -84 84 -84 9 0 16 -4 16 -10 0 -5 -7 -10 -16 -10 -21 0 -84 -63 -84 -84 0 -9 -4 -16 -10 -16 -5 0 -10 7 -10 16 0 21 -63 84 -84 84 -9 0 -16 5 -16 10 0 6 7 10 16 10 21 0 84 63 84 84 0 9 5 16 10 16 6 0 10 -7 10 -16z m7950 -60 c0 -21 63 -84 84 -84 9 0 16 -4 16 -10 0 -5 -7 -10 -16 -10 -21 0 -84 -63 -84 -84 0 -9 -4 -16 -10 -16 -5 0 -10 7 -10 16 0 21 -63 84 -84 84 -9 0 -16 5 -16 10 0 6 7 10 16 10 21 0 84 63 84 84 0 9 5 16 10 16 6 0 10 -7 10 -16z"
       id="path2"
       style="fill:#2d3b77;fill-opacity:1" />
  </g>
</svg>
