<svg version="1.2" xmlns="http://www.w3.org/2000/svg" viewBox="0 0 241 369" width="241" height="369"><style>.a{fill:#4c9feb}.b{fill:#a3acd3}.c{fill:#fff}.d{fill:none;stroke:#2d3c77;stroke-miterlimit:10;stroke-width:7}.e{fill:none;stroke:#2d3c77;stroke-miterlimit:10;stroke-width:7;stroke-dasharray:8.2226505279541,8.2226505279541}.f{fill:none;stroke:#a3acd3;stroke-miterlimit:10;stroke-width:8}.g{fill:none;stroke:#2d3c77;stroke-miterlimit:10;stroke-width:7;stroke-dasharray:8.058693885803219,8.058693885803219}.h{fill:none;stroke:#2d3c77;stroke-miterlimit:10;stroke-width:7;stroke-dasharray:8.06059074401856,8.06059074401856}.i{fill:none;stroke:#2d3c77;stroke-miterlimit:10;stroke-width:7;stroke-dasharray:7.935907363891599,7.935907363891599}</style><path class="a" d="m39 344.4l-14.6-14.5-20.3 35.3z"/><path class="b" d="m0.2 325.1c-0.4 1.3-0.1 2.7 0.9 3.6q0.4 0.4 1 0.7l16.7 7.2 13.6 13.4 7.5 16.6q0.3 0.6 0.7 1.1c1 0.9 2.4 1.2 3.6 0.7 8-2.9 13.4-7.3 15.9-13.3 1.9-4.6 2.1-9.8 0.5-14.6 5.7-3.9 10.6-8.9 14.4-14.7 6.1-10 7.6-21.6 4.3-34.6-0.3-1.3-1.4-2.3-2.7-2.5-25.4-4.3-40.3 7.2-48.8 19.5-4.8-1.4-9.9-1.1-14.5 0.8-5.9 2.7-10.3 8.1-13.1 16.1z"/><path class="c" d="m44.9 323.8c2.9 2.9 7.3 3.7 11.2 2.1 3.8-1.6 6.3-5.4 6.2-9.5 0-4.2-2.5-7.9-6.4-9.4-3.8-1.6-8.2-0.7-11.2 2.3-3.9 4-3.9 10.5 0.2 14.5z"/><path class="d" d="m87 279.5l2.8-2.8"/><path class="e" d="m95.7 270.9l14.8-14.8c0 0 0.8-83.1-71.5-97.7-60.4-12.1-23.6-78.5-9.9-100"/><path class="d" d="m31.4 54.9c1.4-2.1 2.3-3.3 2.3-3.3"/><path class="f" d=""/><path class="d" d="m110.5 256.1c0 0 1.3-0.7 3.6-1.8"/><path class="g" d="m121.4 251c22.6-9.2 73.9-22.3 91.3 36.8 17.7 60.2-20.8 62.7-38.2 61"/><path class="d" d="m170.5 348.3c-2.5-0.4-3.9-0.7-3.9-0.7"/><path class="d" d="m107.3 230.4c0 0 1.4-0.1 3.9-0.4"/><path class="h" d="m119.2 228.8c33.7-5.7 126.6-28.6 117-108.6-9.5-78.5-61.1-75-80.9-70.7"/><path class="d" d="m151.4 50.4c-2.4 0.7-3.8 1.2-3.8 1.2"/><path class="d" d="m74.6 174.5c0 0-0.8-1.3-1.9-3.6"/><path class="i" d="m69.4 163.7c-6.1-15.3-12.9-42.8 11.6-54.2 21.9-10.2 36.1-7.6 43.6-4.3"/><path class="d" d="m128.1 107.1c2.2 1.3 3.2 2.4 3.2 2.4"/><path class="a" d="m164 342.2c0 14.4-11.7 26.1-26.1 26.1-14.5 0-26.1-11.7-26.1-26.1 0-14.4 11.6-26.1 26.1-26.1 14.4 0 26.1 11.7 26.1 26.1z"/><path class="b" d="m181.1 130.3c0 14.4-11.7 26.1-26.1 26.1-14.4 0-26.1-11.7-26.1-26.1 0-14.4 11.7-26.1 26.1-26.1 14.4 0 26.1 11.7 26.1 26.1z"/><path class="b" d="m147.4 65.6c0 14.4-11.6 26.1-26.1 26.1-14.4 0-26.1-11.7-26.1-26.1 0-14.4 11.7-26.1 26.1-26.1 14.5 0 26.1 11.7 26.1 26.1z"/><path class="a" d="m75.1 26.4c0 14.4-11.6 26.1-26 26.1-14.5 0-26.1-11.7-26.1-26.1 0-14.4 11.6-26.1 26.1-26.1 14.4 0 26 11.7 26 26.1z"/><path class="c" d="m46.3 40.6l-14.5-11.8 3.8-4.7 9.8 8 16.2-19.9 4.7 3.8z"/><path class="c" d="m135.1 356.4l-14.5-11.8 3.8-4.7 9.8 8 16.2-19.9 4.7 3.8z"/><path class="c" d="m126 65.6l9.4-9.4c0.2-0.2 0.2-0.6 0-0.8q0 0 0 0l-3.9-3.9c-0.2-0.2-0.5-0.2-0.7 0q0 0 0 0l-9.5 9.5-9.4-9.5c-0.2-0.2-0.6-0.2-0.8 0q0 0 0 0l-3.8 3.9c-0.2 0.2-0.2 0.5 0 0.8q0 0 0 0l9.4 9.4-9.4 9.5c-0.2 0.2-0.2 0.5 0 0.7q0 0 0 0l3.8 3.9c0.2 0.2 0.6 0.2 0.8 0q0 0 0 0l9.4-9.5 9.5 9.5c0.2 0.2 0.5 0.2 0.7 0q0 0 0 0l3.9-3.9c0.2-0.2 0.2-0.5 0-0.7q0 0 0 0z"/><path class="c" d="m159.6 130.3l9.5-9.4c0.2-0.2 0.2-0.6 0-0.8q0 0 0 0l-3.9-3.9c-0.2-0.2-0.6-0.2-0.8 0q0 0 0 0l-9.4 9.5-9.5-9.5c-0.2-0.2-0.5-0.2-0.7 0q0 0 0 0l-3.9 3.9c-0.2 0.2-0.2 0.6 0 0.8q0 0 0 0l9.5 9.4-9.5 9.5c-0.2 0.2-0.2 0.5 0 0.7q0 0 0 0l3.9 3.9c0.2 0.2 0.5 0.2 0.7 0q0 0 0 0l9.5-9.5 9.4 9.5c0.2 0.2 0.6 0.2 0.8 0q0 0 0 0l3.9-3.9c0.2-0.2 0.2-0.5 0-0.7q0 0 0 0z"/></svg>