<svg version="1.2" xmlns="http://www.w3.org/2000/svg" viewBox="0 0 263 271" width="263" height="271"><style>.a{fill:#2d3c77}.b{fill:#8399be}.c{fill:#a3acd3}.d{fill:#4c9feb}.e{fill:#fff}</style><path class="a" d="m105.5 96.9c1.5-8.4-4.1-16.4-12.5-17.9l10.5-7.4c4.7-3.3 7.9-8.4 8.9-14.1 1.6 1.1 3.1 1.9 4.3 2.1 5.9 1 11.5-2.9 12.6-8.8 1.8-10.7-24.6-48.3-35.2-50.1-5.9-1.1-11.5 2.9-12.6 8.8-0.2 1.2 0 2.9 0.5 4.8-5.7-1-11.5 0.3-16.3 3.6l-38.9 27.4c-4.7 3.3-7.9 8.3-8.9 14-1.7-1.1-3.1-1.8-4.4-2-5.9-1.1-11.5 2.9-12.5 8.8-1.9 10.7 24.5 48.2 35.2 50.1 5.9 1 11.5-2.9 12.5-8.8 0.3-1.3 0.1-2.9-0.4-4.8 5.7 1 11.5-0.3 16.2-3.6l10.6-7.4c-1.5 8.4 4.1 16.4 12.5 17.9-0.9 5.4 6.9 14.9 14.8 21.4 13.3 21.7 84.6 137.2 98.5 139.6 8.4 1.5 16.4-4.1 17.8-12.5 2.5-13.8-82.1-120.2-98-140-3.4-9.6-9.8-20.2-15.2-21.1z"/><path class="b" d="m23.3 46.8l40.1 54.1 41.7-29.6-38.2-55.4z"/><path class="b" d="m194.3 111.9l-13.8-9.6c-3.4-2.4-4.2-7-1.8-10.4l13.4-19c2.4-3.4 7-4.2 10.3-1.8l13.8 9.7c3.3 2.3 4.2 7 1.8 10.3l-13.4 19c-2.4 3.4-7 4.2-10.3 1.8z"/><path class="c" d="m183.6 97.2l14 9.2c5.5 3.3 6.9 10.5 4 14.8l-108.6 144.9c-4.1 3.9-10.1 5.7-15.6 2.4-5.5-3.3-5.7-10.1-2.4-15.6l93-153.3c3.3-5.5 10.5-6.9 15.6-2.4zm67.5-90.4c13.4 18.3 1.8 54.1-9.3 66.1-26.1 28-58 1.7-41.8-24.5 8.7-16.8 36.6-20.1 43.1-37.8 2.5-7.1 5.3-7.4 8-3.8zm-61.4 70l24.6 16.9c2.3 0.9 2.6 3.6 0.6 5.6l-3.3 5.5c-0.9 2.3-3.7 2.6-6 1.8l-24.6-16.9c-2-2.1-2.3-4.9-0.3-6.8l2.9-4.3c0.9-2.4 3.7-2.7 6.1-1.8z"/><path class="d" d="m206.8 40c-2.4-3.3 28.6-13.4 34.1-25.1 3.7-7.8 6-14.1 9.3-9.1 3.4 5.1 7.6 13.5 6.9 26.9-0.7 13.3-1.9 92.2 1.2 97.8 3.2 5.7 8.2 18.6 0.7 22.2-7.4 3.6-17.8-1.7-13.3-12.2 4.5-10.4 9.6-71.9 8.2-78.9-1.3-7-4.6-0.5-4.6-0.5l-12.5 11.6 5.4-16.5-4.3 2.2-1.4-13.7-10.2 11.5 2.1-8.2-11.1 6.1 0.5-12.4c0 0-8.6 1.6-11-1.7z"/><path class="e" d="m259.9 145.6c0 1.8-1.5 3.4-3.3 3.4-1.9 0-3.4-1.6-3.4-3.4 0-1.9 1.5-9.5 3.4-9.5 1.8 0 3.3 7.6 3.3 9.5z"/><path class="e" d="m254.6 24.6c0.1 1.8 0.2 22.6-1.7 22.8-1.8 0.1-1.5-20.3-1.6-22.1-0.2-1.9-4.3-15.8-2.4-15.9 1.8-0.2 5.6 13.3 5.7 15.2z"/></svg>