<svg version="1.2" xmlns="http://www.w3.org/2000/svg" viewBox="0 0 164 263" width="164" height="263"><style>.a{fill:#8399be}.b{fill:#fff}.c{fill:#a3acd3}.d{fill:#6b86b2}.e{fill:#2d3b77}.f{fill:#fc3622}.g{fill:#fcec52}.h{fill:none;stroke:#6b86b2;stroke-linecap:round;stroke-linejoin:round;stroke-width:.4}.i{fill:#2d3c77}</style><path class="a" d="m106.5 255.4h-49.7v-33.5h49.7z"/><path class="a" d="m102.9 18.1h-42.5v-17.2h42.5z"/><path class="b" d="m150.8 221.9h-138.3v-203.8h138.3z"/><path class="c" d="m93.1 118.8q0.2 0.1 0.3 0.2-0.1-0.1-0.3-0.2z"/><path class="c" d="m60.5 111.2q0.1-0.2 0.3-0.3-0.2 0.1-0.3 0.3z"/><path class="c" d="m101.8 110q0 0 0 0 0 0 0 0z"/><path class="c" d="m102.2 110.4q0.1 0.1 0.2 0.2-0.1-0.1-0.2-0.2z"/><path class="c" d="m89.8 118q0 0-0.1 0c1.1 0.1 2.2 0.3 3.2 0.7-1-0.4-2-0.7-3.1-0.7z"/><path class="c" d="m102.6 110.9q0.1 0.1 0.2 0.3-0.1-0.2-0.2-0.3z"/><path class="c" d="m61.5 110q0 0 0-0.1 0 0.1 0 0.1z"/><path class="c" d="m60.9 110.7q0.1-0.2 0.2-0.3-0.1 0.1-0.2 0.3z"/><path class="c" d="m68.5 120.1q0 0 0.1-0.1-0.1 0.1-0.1 0.1z"/><path class="c" d="m69.8 119.1q0.3-0.2 0.5-0.3-0.2 0.1-0.5 0.3z"/><path class="c" d="m63.1 116.3c0 0-1.3-2.8 0.7-4.1 1.9-1.2 3.6 0.2 3.8 1.6 0.1 0.9 0.7 1.9 4.4 1.8q0.8-0.1 1.5-0.1 0.4 0 0.7 0c0.8 0.1 1.3 0.7 1.2 1.4 0 0.7-0.6 1.2-1.3 1.2 3.2 0.2 3.5 2.4 1.2 1.8-4.3-1-7.3 0.9-7.5 1q-0.6 0.8-1 1.9c0 0.4-0.2 6.9 6 7.3 4.5 0.3 5.2-1 4.7-1.9-0.1-0.3-0.3-0.6-0.7-0.9 0 0-0.9-0.3-3.1-0.2-2.2 0-2.1-3.5 0.3-3.8 2.4-0.2 3.7 0.2 3.8 0.2 1.2-0.2 1.3-1.7 1.3-2.3 0-0.7 0-8.9 0-9.7 0.1-0.8 0.8-2.4 2.6-2.4v1.1q0 0 0 0v-1.1c1.8 0 2.4 1.6 2.5 2.4 0.1 0.8 0.1 9 0.1 9.7 0 0.6 0.1 2.1 1.3 2.3 0.1 0 1.4-0.4 3.7-0.2 2.4 0.3 2.6 3.8 0.4 3.8-2-0.1-3 0.1-3.1 0.2-0.4 0.2-0.6 0.6-0.8 0.9-0.4 0.9 0.2 2.2 4.8 1.9 5.9-0.4 6-6.5 5.9-7.3q-0.3-1-1-1.9c-0.3-0.2-3.2-2-7.4-1-2.4 0.6-2.1-1.6 1.2-1.8-0.7 0-1.3-0.5-1.4-1.2-0.1-0.7 0.5-1.3 1.2-1.4q0.4 0 0.7 0 0.8 0 1.5 0.1c3.7 0.1 4.4-0.9 4.5-1.8 0.1-1.4 1.9-2.8 3.8-1.6 1.9 1.3 0.6 4.1 0.6 4.1-0.9 2.8 1.7 3 2.4 3.1 0.8-1.2 1.3-2.7 1.3-4.3 0-1.3-0.3-2.6-1-3.7-0.3-0.4-2.8-3.4-6-3-0.8 0.2-1.6 0.4-2.3 0.9-1.6 1.2-1.5 3.3-3.4 3.1-1.1-0.1-0.5-1.9 1.2-3.2-0.6 0.3-1.3 0.2-1.7-0.4-0.4-0.5-0.3-1.2 0.1-1.6-2.4-4.4-7.8-3.3-7.8-3.3q0.1 0 0.1 0 0 0-0.1 0c0.3-2.8 1.9-3.4 2.5-3.5q0.1 0 0.3-0.1l-0.2-1.5-2.6-7.4-1.1 8.2-1.6-8-2.7 8-0.1 0.7c2.4 0.6 2.8 3.6 2.8 3.6 0 0-5.4-1.1-7.8 3.3 0.4 0.5 0.5 1.1 0.1 1.6-0.3 0.6-1 0.7-1.5 0.5 1.6 1.3 2.1 3 1 3.1-1.9 0.2-1.8-1.9-3.4-3.1-0.5-0.4-1.2-0.6-1.9-0.8-3.4-0.7-6.1 2.5-6.4 2.9-0.6 1.1-1 2.4-1 3.7 0 1.6 0.5 3.1 1.4 4.3 0.6-0.1 3.2-0.3 2.3-3.1z"/><path class="c" d="m96.7 107.8q0 0 0 0 0 0 0 0-0.1 0-0.1 0 0 0 0.1 0z"/><path class="c" d="m93.8 119.3q0 0 0.1 0-0.1 0-0.1 0z"/><path class="c" d="m73.5 118c-1.1 0-2.1 0.3-3.1 0.7 1-0.4 2.1-0.6 3.2-0.7q-0.1 0-0.1 0z"/><path class="c" d="m78.5 91.4l1.3-11.4h-0.1l-2.1 19.5 1-8.4z"/><path class="c" d="m67.9 120.8q0.1-0.2 0.3-0.4-0.2 0.2-0.3 0.4z"/><path class="c" d="m95.2 120.5q0.1 0.1 0.2 0.2-0.1-0.1-0.2-0.2z"/><path class="c" d="m69.3 119.4q0.1-0.1 0.3-0.2-0.2 0.1-0.3 0.2z"/><path class="d" d="m67.6 113.8c-0.2-1.4-1.9-2.8-3.8-1.6-2 1.3-0.7 4.1-0.7 4.1 0.9 2.8-1.7 3-2.3 3.1 0.8 1.2 2.1 2.1 3.6 2.6 0.4-1.3 1.1-2.5 2.1-3.5-1.6-0.9-3.1-2.4-2.6-4.7 0.2-0.7 0.8-1.1 1.5-1 0.7 0.2 1.1 0.8 0.9 1.5-0.3 1.4 1.6 2.2 2.4 2.5q1.5-0.9 3.3-1.2c-3.7 0.1-4.3-0.9-4.4-1.8z"/><path class="d" d="m100.2 116.3c0 0 1.3-2.8-0.6-4.1-1.9-1.2-3.7 0.2-3.8 1.6-0.1 0.9-0.8 1.9-4.5 1.8q1.8 0.3 3.3 1.2c0.8-0.3 2.7-1.1 2.4-2.5-0.2-0.7 0.3-1.3 0.9-1.5 0.7-0.1 1.4 0.3 1.5 1 0.5 2.3-1 3.8-2.5 4.7 0.9 1 1.6 2.2 2.1 3.5 1.4-0.5 2.7-1.4 3.6-2.6-0.7-0.1-3.3-0.3-2.4-3.1z"/><path fill-rule="evenodd" class="b" d="m78 77.4c-1.1-1.8-4.3-7.8-4.3-14.6q0-1.7 0.4-3.4h15.1q0.5 1.7 0.5 3.4c0 6.7-3.3 12.8-4.4 14.6zm-1-10.5c0 2.9 2.1 5.3 4.7 5.3 2.5 0 4.6-2.4 4.6-5.3 0-2.9-2.1-5.2-4.6-5.2-2.6 0-4.7 2.3-4.7 5.2z"/><path fill-rule="evenodd" class="e" d="m56.1 146.2c-6.9 0-11.6-0.1-11.6-0.1v-0.3q0 0 0.9-0.1c0.5-0.1 1.3-0.2 2.3-0.3 1-0.2 2.3-0.3 3.7-0.5q1-0.1 2.2-0.2 1.2-0.1 2.5-0.3 1.3-0.1 2.7-0.2 1.5-0.1 3-0.2 1.4-0.1 2.9-0.2-1.5-1-2.7-2.5c-4.9-0.1-10.7-3.1-11.6-11.3-0.9-7.9 4.3-11.2 6.8-12.4q-0.4-1.2-0.4-2.5c0-5.4 4.4-9.8 9.9-9.8q0.7 0 1.4 0.1c1.4-2.7 3.9-4.5 6.9-5l2.2-20.4h-0.6v-0.1c-1.3-0.1-4.9-0.2-8.3 1.5q-0.2 0.1-0.5 0.2l5.5 11.3q0 0 0 0 0 0.1 0 0.2 0 0 0.1 0.1 0 0 0 0.1 0 0.1 0 0.1 0 0.1 0 0.1c0 4.2-3.5 7.7-7.7 7.7-4.2 0-7.7-3.5-7.7-7.7q0 0 0-0.1 0 0 0-0.1 0.1-0.1 0.1-0.1 0-0.1 0-0.1 0-0.1 0.1-0.2 0 0 0 0l6.1-12.3c-1.1-2.7 3-9.5 7.4-12.3-0.4-1.7-0.6-3.6-0.6-5.5 0-9.4 9.3-18.2 9.7-18.6q0 0 0.1 0 0-0.1 0.1-0.1 0 0 0.1-0.1 0 0 0.1 0 0.1-0.1 0.1-0.1 0.1 0 0.1 0 0.1 0 0.2 0 0 0 0.1 0 0 0 0.1 0 0.1 0 0.1 0 0.1 0 0.1 0 0.1 0 0.2 0.1 0 0 0.1 0 0 0.1 0.1 0.1 0 0 0.1 0.1 0 0 0.1 0c0.4 0.4 9.7 9.2 9.7 18.6 0 1.9-0.3 3.8-0.6 5.5 4.3 2.7 8.3 9.2 7.5 12.1l6 12.5q0 0 0 0 0 0.1 0 0.2 0.1 0 0.1 0.1 0 0 0 0.1 0 0.1 0 0.1 0 0.1 0 0.1c0 4.2-3.4 7.7-7.7 7.7-4.2 0-7.7-3.5-7.7-7.7q0 0 0-0.1 0 0 0.1-0.1 0-0.1 0-0.1 0-0.1 0-0.1 0-0.1 0.1-0.2 0 0 0 0l5.6-11.2q-0.3-0.1-0.6-0.3c-3.4-1.7-7-1.6-8.3-1.5l-0.1 0.1h-0.5l2.2 20.4c2.9 0.5 5.4 2.3 6.9 5q0.7-0.1 1.4-0.1c5.4 0 9.8 4.4 9.8 9.8q0 1.3-0.3 2.5c2.4 1.2 7.6 4.5 6.7 12.4-0.9 8.2-6.7 11.2-11.6 11.3q-1.1 1.5-2.7 2.6 1.5 0 3 0.1c1 0.1 1.9 0.1 2.9 0.2q1.4 0.1 2.7 0.3c1.7 0.1 3.3 0.3 4.8 0.4 1.4 0.2 2.6 0.3 3.6 0.5 1 0.1 1.8 0.2 2.4 0.3q0.8 0.1 0.8 0.1v0.3c0 0-4.6 0.1-11.6 0.1-7 0-16.2 0.1-25.5 0.1-9.3 0-18.6-0.1-25.6-0.1zm3.3-31.1c0 1.6 0.5 3.1 1.4 4.3 0.8 1.2 2.1 2.1 3.6 2.6 0.4-1.3 1.1-2.5 2.1-3.5-1.6-0.9-3.1-2.4-2.6-4.7 0.2-0.7 0.8-1.1 1.5-1 0.7 0.2 1.1 0.8 0.9 1.5-0.3 1.4 1.6 2.2 2.4 2.5q1.5-0.9 3.3-1.2 0.8-0.1 1.5-0.1 0.4 0 0.7 0c0.8 0.1 1.3 0.7 1.2 1.4 0 0.7-0.6 1.2-1.3 1.2q0 0-0.1 0-0.2-0.1-0.4-0.1-0.1 0-0.1 0c-1.1 0-2.1 0.3-3.1 0.7q0 0.1-0.1 0.1-0.2 0.1-0.5 0.3-0.1 0-0.2 0.1-0.2 0.1-0.3 0.2-0.4 0.3-0.7 0.6-0.1 0.1-0.1 0.1-0.2 0.2-0.3 0.3-0.2 0.2-0.3 0.4 0 0-0.1 0.1-0.6 0.8-1 1.9-0.4 1.1-0.4 2.3c0 3.2 2.1 6 5.2 6.9 0.6 0.2 1 0.9 0.9 1.6-0.2 0.5-0.7 0.9-1.3 0.9q-0.1 0-0.3-0.1c-3.8-1-6.5-4.3-7-8.1-2.1-0.4-3.9-1.7-5.1-2.9q0 0 0.1 0c-0.6-0.4-2.2-2.6-2.2-2.6q0 0 0 0-0.8 0.5-1.5 1.3-0.1 0.1-0.2 0.1 0 0.1-0.1 0.2c-0.9 1.1-1.7 2.5-2 4.5q-0.1 0.9 0 2c0 0.3 1.1 6.2 6.2 6.5q-0.4-1.5-0.4-2.8c0-0.7 0.6-1.2 1.3-1.2 0.7 0 1.3 0.5 1.3 1.2q0 0.3 0 0.5 0-0.2 0-0.5c0 0 2.9 9.6 12.9 7.6 3.2-0.9 4.8-3.4 5.6-6q0-0.2 0-0.3c0-0.1 1-3.7-0.7-5.9q-1.4-1.7-4.8-1.5c-0.7 0-1.3-0.5-1.3-1.2-0.1-0.7 0.5-1.3 1.1-1.3q4-0.2 6.2 1.7v-14.2c0-0.7 0.6-1.3 1.4-1.3q0 0 0 0 0 0 0 0c0.7 0 1.3 0.6 1.3 1.3v14.2q2.2-1.9 6.2-1.7c0.7 0 1.2 0.6 1.2 1.3-0.1 0.7-0.6 1.2-1.3 1.2q-3.5-0.2-4.9 1.5c-1.7 2.2-0.7 5.8-0.7 5.9q0 0.1 0.1 0.3c0.8 2.6 2.4 5.1 5.5 6 10 2 12.9-7.5 12.9-7.6q0 0 0 0c0-0.7 0.6-1.2 1.3-1.2 0.7 0 1.3 0.5 1.3 1.2q0 1.3-0.4 2.8c4.2-0.3 5.7-4.2 6.1-5.8q0 0 0 0 0 0 0.1-0.2 0-0.4 0.1-0.4 0-0.6 0-1.1c-0.1-1.5-0.4-2.7-0.9-3.7q0-0.1-0.1-0.2 0 0 0 0c-0.7-1.5-1.9-2.5-2.9-3.2h0.1q0 0 0 0c0 0-1.7 2.2-2.2 2.6q0 0 0 0c-1.2 1.2-2.9 2.5-5.1 2.9-0.4 3.8-3.2 7.1-6.9 8.1q-0.2 0.1-0.4 0.1c-0.6 0-1.1-0.4-1.2-0.9-0.2-0.7 0.2-1.4 0.9-1.6 3-0.9 5.1-3.7 5.1-6.9q0-1.2-0.4-2.3-0.3-1-1-1.9-0.1-0.1-0.1-0.2-0.1-0.1-0.2-0.2-0.6-0.7-1.3-1.2-0.1 0-0.1 0-0.2-0.2-0.4-0.3-0.1-0.1-0.3-0.2-0.1 0-0.2-0.1c-1-0.4-2-0.7-3.1-0.7q0 0-0.1 0-0.2 0-0.4 0.1 0 0 0 0c-0.7 0-1.3-0.5-1.4-1.2-0.1-0.7 0.5-1.3 1.2-1.4q0.4 0 0.7 0 0.8 0 1.5 0.1 1.8 0.3 3.3 1.2c0.8-0.3 2.7-1.1 2.4-2.5-0.2-0.7 0.3-1.3 0.9-1.5 0.7-0.1 1.4 0.3 1.5 1 0.5 2.3-1 3.8-2.5 4.7 0.9 1 1.6 2.2 2.1 3.5 1.4-0.5 2.7-1.4 3.6-2.6 0.8-1.2 1.3-2.7 1.3-4.3 0-1.3-0.3-2.6-1-3.7q0.1 0.1 0.1 0.1-0.1-0.2-0.2-0.3-0.1-0.2-0.2-0.3-0.1-0.1-0.2-0.3-0.1-0.1-0.2-0.2-0.2-0.2-0.4-0.4 0 0 0 0c-2.1-2.2-4.8-2.2-5.1-2.2q0 0 0 0-0.1 0-0.1 0c-1.8 0-3.2 0.6-4.2 1.4-0.6 0.3-1.3 0.2-1.7-0.4-0.4-0.5-0.3-1.2 0.1-1.6q0.1-0.1 0.2-0.1 0.8-0.6 1.7-1c-1.3-2-3.5-3.2-5.9-3.2-1.3 0-2.6 0.3-3.7 1q0 0-0.1 0c0.3-2.8 1.9-3.4 2.5-3.5q0.1 0 0.3-0.1l-0.2-1.5-0.7-6.9-1.3-11.9h-3.9l-2.1 19.5v0.1l-0.1 0.7c2.4 0.6 2.8 3.6 2.8 3.6-1.1-0.7-2.4-1-3.7-1-2.5 0-4.7 1.2-6 3.2q0.9 0.4 1.7 1 0.1 0 0.2 0.1c0.4 0.5 0.5 1.1 0.1 1.6-0.3 0.6-1 0.7-1.5 0.5-1.1-0.9-2.6-1.5-4.5-1.5-0.4 0-3 0-5.1 2.1q0 0.1 0 0.1-0.2 0.2-0.4 0.4-0.1 0.1-0.2 0.3-0.1 0.1-0.1 0.2-0.2 0.1-0.3 0.3-0.1 0.1-0.1 0.3 0 0 0-0.1c-0.6 1.1-1 2.4-1 3.7zm16 24.8l-1.1 0.3q0.5-0.2 1.1-0.3zm26.6-7.2q0 0.2 0 0.4 0-0.2 0-0.4zm0.6-37.9h-9.9q0.1 0.6 0.5 1.2c0.6 1.1 1.5 1.9 2.6 2.3q0.6 0.2 1.1 0.2 0.1 0.1 0.2 0.1 0.1 0 0.1 0 0.2 0 0.4 0 0 0 0 0c2.4 0 4.4-1.6 5-3.8zm-4.9-11.4l-4.4 8.8h8.7zm-1-4.1q0-0.1-0.1-0.3c-0.4-1.8-2.5-5.8-5.7-8.1q-0.3 1-0.6 1.9c-0.7 1.9-1.4 3.4-2 4.5 2 0.1 5 0.4 7.9 1.8q0.3 0.2 0.5 0.2zm-21.8-22.4h13.4c-1.8-4.5-5.1-8.2-6.7-9.9-1.5 1.7-4.8 5.4-6.7 9.9zm-4.3 37.9h-9.9c0.6 2.2 2.6 3.8 5 3.8q0 0 0 0 0.2 0 0.4 0 0 0 0.1 0 0.1 0 0.2 0 0.5-0.1 1-0.3c1.2-0.4 2.1-1.2 2.7-2.2q0.4-0.6 0.5-1.3zm-4.8-11.4l-4.5 8.8h8.7zm9.2-6c-0.5-1.1-1.3-2.6-1.9-4.4q-0.4-1-0.7-2c-3.1 2.3-5.3 6.2-5.7 8q0 0.2 0 0.4 0.2-0.1 0.5-0.2c2.9-1.5 5.8-1.8 7.8-1.8zm3.1 0.1h7.2c1.1-1.8 4.4-7.9 4.4-14.6q0-1.7-0.4-3.5h-15.2q-0.4 1.8-0.4 3.5c0 6.7 3.3 12.8 4.4 14.6zm11 62.7l-1.1-0.3q0.5 0.2 1.1 0.3z"/><path class="f" d="m81.7 47c-1.6 1.6-4.9 5.4-6.7 9.8h4c0 0 0.9-5.9 2.7-9.8z"/><path class="f" d="m88.4 56.8c-1.9-4.4-5.2-8.2-6.7-9.8v9.8z"/><path class="f" d="m66.7 79.3q0-0.2 0-0.4 0 0.2 0 0.4z"/><path class="f" d="m73.1 72.9c-3.5 2.5-6.4 6.4-6.4 6.4q0.1 0 0.5-0.2c2.9-1.4 5.8-1.8 7.8-1.8-0.6-1.1-1.3-2.6-1.9-4.4z"/><path class="c" d="m67.5 98.3q-0.6 0.2-1.1 0.2 0.6 0 1.1-0.2z"/><path class="c" d="m68.2 94.8h-7.4c0.5 2.2 2.5 3.8 4.9 3.8q0 0 0 0 0 0 0 0c2.2-1 2.5-3.8 2.5-3.8z"/><path class="c" d="m66.2 98.6q0 0-0.1 0 0.1 0 0.1 0z"/><path class="c" d="m70.1 96q0.4-0.6 0.6-1.2-0.2 0.7-0.6 1.2z"/><path class="c" d="m97.2 98.6q0 0-0.1 0 0.1 0 0.1 0z"/><path class="c" d="m96.9 98.5q-0.5 0-1.1-0.2 0.6 0.2 1.1 0.2z"/><path class="c" d="m92.7 94.8q0.1 0.6 0.5 1.2-0.3-0.5-0.5-1.2z"/><path class="c" d="m97.6 98.6q0 0 0 0 0 0 0 0c2.4 0 4.4-1.6 5-3.8h-7.4c0 0 0.3 2.8 2.4 3.8z"/><path class="f" d="m96.7 79.3q0-0.2 0-0.4 0 0.2 0 0.4z"/><path class="f" d="m90.3 72.9l0.1-0.1c-0.7 1.8-1.5 3.4-2.1 4.5 2 0 5 0.4 7.9 1.8q0.3 0.2 0.5 0.2c0 0-2.9-3.9-6.4-6.4z"/><path fill-rule="evenodd" class="f" d="m79.3 66.9c0-1.5 1.1-2.7 2.4-2.7 1.3 0 2.3 1.2 2.3 2.7 0 1.5-1 2.7-2.3 2.7-1.3 0-2.4-1.2-2.4-2.7zm0.6-0.4c0 0.9 0.5 1.6 1.2 1.6 0.7 0 1.3-0.7 1.3-1.6 0-0.8-0.6-1.5-1.3-1.5-0.7 0-1.2 0.7-1.2 1.5z"/><path fill-rule="evenodd" class="e" d="m77 66.9c0-2.9 2.1-5.2 4.7-5.2 2.5 0 4.6 2.3 4.6 5.2 0 2.9-2.1 5.3-4.6 5.3-2.6 0-4.7-2.4-4.7-5.3zm2.3 0c0 1.5 1.1 2.7 2.4 2.7 1.3 0 2.3-1.2 2.3-2.7 0-1.5-1-2.7-2.3-2.7-1.3 0-2.4 1.2-2.4 2.7z"/><path class="b" d="m81.7 56.8v-9.8c-1.8 3.9-2.7 9.8-2.7 9.8z"/><path class="b" d="m81.1 68.1c0.7 0 1.3-0.7 1.3-1.6 0-0.8-0.6-1.5-1.3-1.5-0.7 0-1.2 0.7-1.2 1.5 0 0.9 0.5 1.6 1.2 1.6z"/><path class="b" d="m73.1 72.9q-0.4-0.9-0.7-2c-3.1 2.3-5.3 6.3-5.7 8q0 0.2 0 0.4c0 0 2.9-3.9 6.4-6.4z"/><path class="b" d="m91 70.9q-0.3 1-0.6 1.9l-0.1 0.1c3.5 2.5 6.4 6.4 6.4 6.4q0-0.2 0-0.4c-0.4-1.7-2.6-5.7-5.7-8z"/><path class="b" d="m80.3 103.9c-1.1-0.7-2.4-1-3.7-1-2.5 0-4.7 1.2-6 3.2q0.9 0.4 1.7 1 0.1 0 0.2 0.1c2.4-4.4 7.8-3.3 7.8-3.3z"/><path class="d" d="m61.3 132.6q0 0.3 0 0.5 0-0.2 0-0.5z"/><path class="d" d="m54.9 122.4q0.1-0.1 0.1-0.2 0 0.1-0.1 0.2z"/><path class="d" d="m56.7 120.8q-0.8 0.5-1.5 1.3 0.6-0.7 1.5-1.3z"/><path class="d" d="m75.4 139.9l-1.1 0.3q0.5-0.2 1.1-0.3z"/><path class="b" d="m90.8 107.2q0.1-0.1 0.2-0.1 0.8-0.6 1.7-1c-1.3-2-3.5-3.2-5.9-3.2-1.3 0-2.6 0.3-3.7 1q0 0-0.1 0c0 0 5.4-1.1 7.8 3.3z"/><path class="d" d="m109.5 124q0.1 0.1 0.1 0.2 0-0.1-0.1-0.2z"/><path class="d" d="m102 132.7q0 0.2 0 0.4 0-0.2 0-0.4z"/><path class="d" d="m109.5 124c-0.7-1.5-1.9-2.5-2.9-3.2h0.1c1.3 1 2.2 2.1 2.8 3.2z"/><path class="d" d="m110.4 129.4q0-0.4 0.1-0.4 0-0.6 0-1.1c0 0.7-0.1 1.2-0.1 1.5z"/><path class="d" d="m89.1 140.2l-1.1-0.3q0.5 0.1 1.1 0.3z"/><path class="c" d="m53 129.6c1.8-6.1 5.4-6.2 5.8-6.2q0 0 0.1 0c-0.6-0.4-2.2-2.6-2.2-2.6q0 0 0 0-0.9 0.6-1.5 1.3-0.1 0.1-0.2 0.1 0 0.1-0.1 0.2c-0.9 1.1-1.7 2.5-2 4.5-0.1 1.6 0.1 2.7 0.1 2.7z"/><path class="c" d="m110.3 129.6q0 0 0 0 0 0 0.1-0.2c0-0.3 0.1-0.8 0.1-1.5-0.1-1.5-0.4-2.7-0.9-3.7q0-0.1-0.1-0.2 0 0 0 0c-0.6-1.1-1.5-2.2-2.8-3.2q0 0 0 0c0 0-1.7 2.2-2.2 2.6q0 0 0 0c0.4 0 4.1 0.1 5.8 6.2z"/><path class="b" d="m63.5 71.9c0-1.5 1.2-2.7 2.7-2.7-1.5 0-2.7-1.2-2.7-2.7 0 1.5-1.2 2.7-2.6 2.7 1.4 0 2.6 1.2 2.6 2.7z"/><path class="b" d="m69 46.3c0-2.5 2-4.6 4.5-4.6-2.5 0-4.5-2-4.5-4.5 0 2.5-2.1 4.5-4.6 4.5 2.5 0 4.6 2.1 4.6 4.6z"/><path class="b" d="m98 60c0-1.8 1.5-3.3 3.3-3.3-1.8 0-3.3-1.5-3.3-3.4 0 1.9-1.5 3.4-3.4 3.4 1.9 0 3.4 1.5 3.4 3.3z"/><path class="b" d="m73.5 87.2q0 0.9 0 1.6c0 0.9 0.1 1.6 0.1 1.6q0 0 0 0.1 0.1 0 0.2-0.1c0 0 0.2-0.6 0.5-1.5q0.2-0.7 0.4-1.5 0.3-0.9 0.5-1.8c0.2-0.6 0.4-1.2 0.5-1.8 0.1-0.5 0.1-1.1 0-1.6q0-0.3-0.1-0.6-0.1-0.3-0.2-0.6c-0.1-0.3-0.2-0.4-0.2-0.4q0 0 0-0.1-0.1 0-0.2 0c0 0-0.1 0.2-0.3 0.4q-0.1 0.2-0.3 0.5-0.2 0.2-0.3 0.6c-0.2 0.4-0.4 0.9-0.5 1.5-0.1 0.6 0 1.2 0 1.9q-0.1 0.9-0.1 1.8z"/><path class="b" d="m89.1 82.6q-0.2-0.2-0.3-0.3c-0.2-0.2-0.3-0.4-0.3-0.4q0 0 0 0c-0.1 0-0.2 0-0.2 0.1 0 0-0.1 0.1-0.2 0.3q-0.1 0.2-0.2 0.5-0.1 0.2-0.2 0.5c-0.1 0.4-0.1 0.9-0.1 1.3 0.1 0.5 0.3 1 0.4 1.5q0.2 0.7 0.4 1.4 0.2 0.7 0.4 1.3c0.2 0.7 0.4 1.2 0.4 1.2q0 0.1 0.1 0.1 0.1 0 0.1-0.1c0 0 0-0.5 0.1-1.3q0.1-0.6 0.1-1.3 0-0.7 0.1-1.5c0-0.5 0.1-1 0-1.5 0-0.5-0.2-0.9-0.3-1.3q-0.2-0.2-0.3-0.5z"/><path class="b" d="m81.9 99.6l1.1-8.2 2.6 7.4-0.7-6.9v0.2l-2.2-7.3-1 6.7-1.2-6.5-1.9 6.1-1 8.4v0.1l2.7-8z"/><path class="g" d="m78.6 91.1l1.9-6.1 1.2 6.5 1-6.7 2.2 7.3v-0.2l-1.3-11.9h-1.9-1.8-0.1l-1.3 11.4z"/><path class="d" d="m90.6 130.1c-4.6 0.3-5.2-1-4.8-1.9 0.2-0.3 0.4-0.7 0.8-0.9 0.1-0.1 1.1-0.3 3.1-0.2 2.2 0 2-3.5-0.4-3.8-2.3-0.2-3.6 0.2-3.7 0.2-1.2-0.2-1.3-1.7-1.3-2.3 0-0.7 0-8.9-0.1-9.7-0.1-0.8-0.7-2.4-2.5-2.4v1.1c0.7 0 1.3 0.6 1.3 1.3v0.9 13.3q2.2-1.9 6.2-1.7c0.7 0 1.2 0.6 1.2 1.3-0.1 0.7-0.6 1.2-1.3 1.2q-3.5-0.2-4.9 1.5c-1.7 2.2-0.7 5.8-0.7 5.9q0 0.1 0.1 0.3c0.8 2.6 2.4 5.1 5.5 6 10 2 12.9-7.5 12.9-7.6q0 0 0 0c0-0.7 0.6-1.2 1.3-1.2 0.7 0 1.3 0.5 1.3 1.2q0 1.3-0.4 2.8c4.2-0.3 5.7-4.2 6.1-5.8-1.7-6.1-5.4-6.2-5.8-6.2-1.2 1.2-2.9 2.5-5.1 2.9-0.4 3.8-3.2 7.1-6.9 8.1q-0.2 0.1-0.4 0.1c-0.6 0-1.1-0.4-1.2-0.9-0.2-0.7 0.2-1.4 0.9-1.6 3-0.9 5.1-3.7 5.1-6.9q0-1.2-0.4-2.3c0.1 0.8 0 6.9-5.9 7.3z"/><path class="d" d="m79.1 111.5c0 0.8 0 9 0 9.7 0 0.6-0.1 2.1-1.3 2.3-0.1 0-1.4-0.4-3.8-0.2-2.4 0.3-2.5 3.8-0.3 3.8 2.2-0.1 3.1 0.2 3.1 0.2 0.4 0.3 0.6 0.6 0.7 0.9 0.5 0.9-0.2 2.2-4.7 1.9-6.2-0.4-6-6.9-6-7.3q-0.4 1.1-0.4 2.3c0 3.2 2.1 6 5.2 6.9 0.6 0.2 1 0.9 0.9 1.6-0.2 0.5-0.7 0.9-1.3 0.9q-0.1 0-0.3-0.1c-3.8-1-6.5-4.3-7-8.1-2.1-0.4-3.9-1.7-5.1-2.9-0.4 0-4 0.1-5.8 6.2 0 0-0.2-1.1-0.1-2.7q-0.1 0.9 0 2c0 0.3 1.1 6.2 6.2 6.5q-0.4-1.5-0.4-2.8c0-0.7 0.6-1.2 1.3-1.2 0.7 0 1.3 0.5 1.3 1.2 0 0 2.9 9.6 12.9 7.6 3.2-0.9 4.8-3.4 5.6-6q0-0.2 0-0.3c0-0.1 1-3.7-0.7-5.9q-1.4-1.7-4.8-1.5c-0.7 0-1.3-0.5-1.3-1.2-0.1-0.7 0.5-1.3 1.1-1.3q4-0.2 6.2 1.7v-13.7-0.5c0-0.7 0.6-1.3 1.4-1.3q0 0 0 0v-1.1c-1.8 0-2.5 1.6-2.6 2.4z"/><path class="b" d="m95.2 94.8h-2.5q0.2 0.7 0.5 1.2c0.6 1.1 1.5 1.9 2.6 2.3q0.6 0.2 1.1 0.2 0.1 0.1 0.2 0.1 0.1 0 0.1 0 0.2 0 0.4 0 0 0 0 0c-2.1-1-2.4-3.8-2.4-3.8z"/><path class="b" d="m68.2 94.8c0 0-0.3 2.8-2.5 3.8q0 0 0 0 0.2 0 0.4 0 0.1 0 0.1 0 0.1 0 0.2-0.1 0.5 0 1.1-0.2c1.1-0.4 2.1-1.2 2.6-2.3q0.4-0.5 0.6-1.2z"/><path class="b" d="m75.3 119.9c2.3 0.6 2-1.6-1.2-1.8q0 0-0.1 0-0.2-0.1-0.4-0.1c-1.1 0.1-2.2 0.3-3.2 0.7q0 0.1-0.1 0.1-0.2 0.1-0.5 0.3-0.1 0-0.2 0.1-0.2 0.1-0.3 0.2-0.4 0.3-0.7 0.6-0.1 0.1-0.1 0.1-0.2 0.2-0.3 0.3-0.2 0.2-0.3 0.4 0 0-0.1 0.1c0.2-0.1 3.2-2 7.5-1z"/><path class="b" d="m88.1 119.9c4.2-1 7.1 0.8 7.4 1q-0.1-0.1-0.1-0.2-0.1-0.1-0.2-0.2-0.6-0.7-1.3-1.2-0.1 0-0.1 0-0.2-0.2-0.4-0.3-0.1-0.1-0.3-0.2-0.1 0-0.2-0.1c-1-0.4-2.1-0.6-3.2-0.7q-0.2 0-0.4 0.1 0 0 0 0c-3.3 0.2-3.6 2.4-1.2 1.8z"/><path class="b" d="m91.2 112.4c1.9 0.2 1.8-1.9 3.4-3.1 0.7-0.5 1.5-0.7 2.3-0.9 3.2-0.4 5.7 2.6 6 3q0.1 0.1 0.1 0.1-0.1-0.2-0.2-0.3-0.1-0.2-0.2-0.3-0.1-0.1-0.2-0.3-0.1-0.1-0.2-0.2-0.2-0.2-0.4-0.4 0 0 0 0c-2.1-2.2-4.8-2.2-5.1-2.2q0 0 0 0-0.1 0-0.1 0c-1.8 0-3.2 0.6-4.2 1.4-1.7 1.3-2.3 3.1-1.2 3.2z"/><path class="b" d="m66.8 108.5c0.7 0.2 1.4 0.4 1.9 0.8 1.6 1.2 1.5 3.3 3.4 3.1 1.1-0.1 0.6-1.8-1-3.1-1.1-0.9-2.6-1.5-4.5-1.5-0.4 0-3 0-5.1 2.1q0 0.1 0 0.1-0.2 0.2-0.4 0.4-0.1 0.1-0.2 0.3-0.1 0.1-0.1 0.2-0.2 0.1-0.3 0.3-0.1 0.1-0.1 0.3 0 0 0-0.1c0.3-0.4 3-3.6 6.4-2.9z"/><path class="e" d="m55.4 152.3v4.5h3.2v-0.9h-1.9v-3.6z"/><path fill-rule="evenodd" class="e" d="m60.8 152.3h1.9l1.3 4.5h-1.4l-0.2-0.8h-1.5l-0.2 0.8h-1.3zm0.3 2.9h1l-0.5-1.8z"/><path class="e" d="m68.7 152.3h-1.6l-0.5 3.2-0.6-3.2h-1.3l1 4.5h1.7l0.5-3.1 0.5 3.1h1.7l1.1-4.5h-1.3l-0.7 3.2z"/><path class="e" d="m76.6 156.1c-0.5 0-0.8-0.2-0.8-0.6h-1.1c0 1 0.6 1.5 1.9 1.5 1.4 0 2-0.5 2-1.5 0-1.8-2.6-1.3-2.6-2 0-0.4 0.2-0.5 0.6-0.5 0.5 0 0.7 0.2 0.7 0.6h1.2c0-1-0.6-1.4-1.9-1.4-1.3 0-1.9 0.4-1.9 1.5 0 1.6 2.6 1.1 2.6 2 0 0.3-0.2 0.4-0.7 0.4z"/><path class="e" d="m82 153.1c0.6 0 0.8 0.2 0.9 0.7h1.3c-0.1-1.1-0.8-1.6-2.2-1.6-1.7 0-2.4 0.7-2.4 2.4 0 1.6 0.7 2.4 2.4 2.4 1.3 0 2-0.5 2.2-1.7h-1.3c-0.1 0.5-0.3 0.7-0.9 0.7-0.7 0-1-0.4-1-1.4 0-1 0.3-1.5 1-1.5z"/><path class="e" d="m89.5 156.8v-4.5h-1.3v1.6h-1.4v-1.6h-1.3v4.5h1.3v-1.9h1.4v1.9z"/><path fill-rule="evenodd" class="e" d="m93.1 152.2c1.7 0 2.4 0.7 2.4 2.4 0 1.6-0.7 2.4-2.4 2.4-1.7 0-2.4-0.8-2.4-2.4 0-1.7 0.7-2.4 2.4-2.4zm0 0.9c-0.7 0-1 0.5-1 1.5 0 1 0.3 1.4 1 1.4 0.7 0 1.1-0.4 1.1-1.4 0-1-0.4-1.5-1.1-1.5z"/><path fill-rule="evenodd" class="e" d="m99 152.2c1.6 0 2.4 0.7 2.4 2.4 0 1.6-0.8 2.4-2.4 2.4-1.7 0-2.4-0.8-2.4-2.4 0-1.7 0.7-2.4 2.4-2.4zm0 0.9c-0.8 0-1.1 0.5-1.1 1.5 0 1 0.3 1.4 1.1 1.4 0.7 0 1-0.4 1-1.4 0-1-0.3-1.5-1-1.5z"/><path class="e" d="m102.6 152.3v4.5h3.1v-0.9h-1.8v-3.6z"/><path fill-rule="evenodd" class="e" d="m135.5 154.6v6.5c0 0.8-0.3 1.5-0.8 2-0.5 0.5-1.2 0.7-1.9 0.7-1.9-0.1-3.2-0.1-4.7-0.2l0.1 20.2c0 0.8 0.1 2.5-0.5 3.2-0.4 0.4-1 0.7-1.7 0.7-0.3 0-0.7-0.1-0.9-0.1-2.9-0.7-4.2-0.7-7.3-1.5-1-0.3-1.9-1-2.2-2.3q0 0 0 0 0 0 0-0.1c-0.1-0.9-1.5-0.5-2-0.3q-0.2 0.1-0.3 0.1 0 0 0 0c-1.6 0.6-3.4 0.8-4.8 0.8q-0.8 0-1.6-0.1c-3.4-0.3-6.1-1.3-8-2.9q0 0 0 0-0.2-0.2-0.4-0.3c-1.3-1.1-2.5-0.5-2.9-0.3-2.2 1.7-5.1 2.6-8.4 2.6h-0.3c-3.9-0.1-7.2-1.3-9.4-3.5v0.1c-0.6-0.6-0.9-0.8-1.6-0.8-0.6 0-1.5 0.8-1.5 0.8v-0.1c-2.2 2.3-5.5 3.8-9.5 4q-0.6 0.1-1.2 0.1c-3.3 0-6.1-1-8.2-2.8q0-0.1-0.1-0.1 0 0 0 0c-1.3-1.1-2.6-0.2-3 0.3q-0.1 0.1-0.1 0.1-0.1 0.1-0.1 0.1c-2.2 2.3-5.5 3.8-9.6 4.3-3.9 0.5-7.8 1.1-11.7 1.9q-0.2 0-0.4 0c-0.7 0-1.3-0.2-1.7-0.6-0.6-0.5-1-1.3-1-2v-30.4c0-1.5 1.2-2.7 2.7-2.7h11.3q0.4 0 0.8 0c3.7 0 6.9 1.2 9 3.3q1.5 1.6 2.1 3.7 0 0 0.1 0 0.1 0.6 0.2 1.1c0.3 1 1.2 2.1 3 1.3q0.6-0.4 1.2-0.7 0 0 0 0c1.9-1 4.1-1.6 6.5-1.6q0.2 0 0.4 0c3.3 0 6.3 1 8.5 2.8q0 0 0 0 0.3 0.2 0.5 0.3c0.4 0.4 1.1 0.8 1.7 0.8 0.8-0.1 1.7-0.7 2.1-1q0.1-0.1 0.2-0.1 0.1-0.1 0.1-0.2v0.1c2.2-1.8 5.2-2.9 8.7-2.9h0.1c3.4 0.1 6.3 1 8.5 2.7 0 0 0.8 0.7 1.7 0.7 0.9 0 1.8-0.8 1.8-0.8 2.6-2 6-2.3 7.9-2.3q0.2 0 0.4 0 0.4 0 0.8 0v-4.6c0-0.7 0.2-1.3 0.7-1.8 0.5-0.5 1.2-0.8 1.9-0.8h17.7 4.5c0.7 0 1.4 0.3 1.8 0.8 0.5 0.5 0.8 1.1 0.8 1.8zm-82.9 19.1c0-1.2-0.3-2.2-0.7-2.9q0-0.1 0-0.1-0.1-0.2-0.3-0.4 0-0.1-0.1-0.2-0.1-0.1-0.2-0.2 0-0.1-0.1-0.2-0.1-0.1-0.2-0.2-0.1-0.1-0.1-0.2-0.2-0.1-0.3-0.3-0.1-0.1-0.2-0.1-0.1-0.1-0.2-0.2 0 0-0.1-0.1-0.1-0.1-0.2-0.1-0.1-0.1-0.2-0.2-0.1 0-0.2-0.1-0.1-0.1-0.1-0.1-0.1 0-0.2-0.1 0 0-0.1 0-0.1-0.1-0.2-0.1 0 0 0-0.1-0.1 0-0.2 0 0 0 0-0.1-0.1 0-0.1 0 0 0 0 0-0.1 0-0.1 0c0 0 2.9-1.5 3-5.6 0.1-5.5-4.8-7.7-9.6-7.5q-5.7 0-11.4 0.1 0 8 0 16 0 2.2 0 4.3 0 0.1 0 0.1 0 5 0 10 5.8-1.1 11.7-2c5.4-0.6 10.5-3.4 10.4-9.4zm22.5-2.5q0-0.2 0-0.4 0 0 0 0 0 0 0-0.1 0 0 0 0 0-0.2 0-0.5 0 0 0 0 0-0.3-0.1-0.5 0 0 0-0.1 0-0.2 0-0.4 0 0 0-0.1-0.1-0.2-0.1-0.4 0 0 0-0.1-0.1-0.2-0.2-0.4 0 0 0-0.1 0-0.2-0.1-0.4 0 0 0 0-0.1-0.2-0.2-0.4 0 0 0-0.1-0.1-0.2-0.1-0.3-0.1-0.1-0.1-0.1-0.1-0.2-0.1-0.3-0.1-0.1-0.1-0.1-0.1-0.2-0.2-0.3 0-0.1 0-0.1-0.1-0.2-0.2-0.3 0-0.1-0.1-0.1-0.1-0.2-0.2-0.3 0 0 0-0.1-0.1-0.1-0.3-0.2 0-0.1 0-0.1-0.1-0.1-0.3-0.3 0 0 0-0.1-0.2-0.1-0.3-0.2 0 0-0.1-0.1-0.1-0.1-0.2-0.2-0.1 0-0.1-0.1-0.1-0.1-0.3-0.2 0 0-0.1 0-0.1-0.1-0.2-0.2-0.1-0.1-0.1-0.1-0.2-0.1-0.3-0.2-0.1 0-0.1 0-0.2-0.1-0.3-0.2-0.1 0-0.1-0.1-0.2 0-0.3-0.1-0.1 0-0.2-0.1-0.1 0-0.3-0.1 0 0-0.1 0-0.1-0.1-0.3-0.2-0.1 0-0.2 0-0.1-0.1-0.2-0.1-0.1 0-0.2-0.1-0.2 0-0.3 0-0.1-0.1-0.2-0.1-0.2 0-0.3-0.1-0.1 0-0.2 0-0.1 0-0.3-0.1-0.1 0-0.2 0-0.1 0-0.3 0-0.1 0-0.2-0.1-0.2 0-0.3 0-0.1 0-0.3 0-0.1 0-0.2 0-0.2 0-0.3 0-0.1 0-0.3 0-0.2-0.1-0.5 0-0.5 0-1 0-0.1 0-0.1 0-0.5 0.1-0.9 0.1-0.1 0-0.1 0-0.5 0.1-0.9 0.2-0.1 0-0.1 0.1-0.4 0.1-0.8 0.2-0.1 0-0.1 0-0.4 0.2-0.8 0.3-0.1 0.1-0.1 0.1-0.4 0.2-0.7 0.4-0.1 0-0.1 0-0.8 0.4-1.4 1 0 0 0 0-0.3 0.3-0.6 0.6-0.1 0-0.1 0-0.3 0.3-0.5 0.7 0 0 0 0-0.3 0.3-0.5 0.7 0 0-0.1 0-0.2 0.4-0.4 0.8 0 0 0 0-0.8 1.7-1 3.7 0 0 0 0 0 0 0 0-0.1 0.7-0.1 1.3c0 6.3 4.2 9.6 10.4 9.2 5.9-0.4 10.3-3.8 10.3-10zm22.2 0.1q0-0.2 0-0.4 0-0.1 0-0.2 0 0 0 0 0-0.5-0.1-1 0 0 0-0.1-0.1-0.4-0.2-0.9 0 0 0-0.1-0.1-0.4-0.2-0.8 0-0.1-0.1-0.1-0.1-0.4-0.3-0.8 0-0.1 0-0.1-0.2-0.4-0.4-0.7 0-0.1-0.1-0.1-0.2-0.4-0.4-0.7 0 0-0.1-0.1-0.2-0.3-0.5-0.6 0 0-0.1 0-0.2-0.3-0.5-0.6-0.1 0-0.1-0.1-0.3-0.2-0.7-0.4 0-0.1-0.1-0.1-0.3-0.2-0.6-0.4-0.1-0.1-0.1-0.1-0.4-0.2-0.8-0.3 0-0.1-0.1-0.1-0.4-0.1-0.8-0.3 0 0-0.1 0-0.4-0.1-0.8-0.2-0.1-0.1-0.1-0.1-0.4-0.1-0.9-0.1 0 0-0.1-0.1-0.5 0-1-0.1 0 0 0 0-0.5 0-1 0-0.3 0-0.6 0-0.1 0-0.2 0-0.1 0-0.3 0-0.1 0-0.2 0-0.2 0.1-0.3 0.1-0.2 0-0.3 0-0.1 0-0.3 0-0.1 0.1-0.2 0.1-0.1 0-0.3 0-0.1 0.1-0.2 0.1-0.1 0-0.3 0-0.1 0.1-0.2 0.1-0.1 0-0.2 0.1-0.2 0-0.3 0-0.1 0.1-0.2 0.1-0.1 0-0.3 0.1-0.1 0-0.2 0.1-0.1 0-0.2 0.1-0.1 0-0.2 0-0.1 0.1-0.3 0.2-0.1 0-0.1 0-0.2 0.1-0.3 0.2-0.1 0-0.1 0-0.2 0.1-0.3 0.2-0.1 0-0.1 0.1-0.2 0-0.3 0.1-0.1 0.1-0.1 0.1-0.2 0.1-0.3 0.2 0 0-0.1 0.1-0.1 0.1-0.3 0.2 0 0 0 0.1-0.2 0.1-0.3 0.2 0 0-0.1 0.1-0.1 0.1-0.2 0.2-0.1 0-0.1 0.1-0.1 0.1-0.2 0.2-0.1 0.1-0.1 0.1-0.1 0.1-0.2 0.3 0 0-0.1 0.1-0.1 0.1-0.2 0.3 0 0 0 0-0.1 0.2-0.2 0.4-0.1 0-0.1 0-0.1 0.2-0.2 0.4 0 0 0 0-0.1 0.2-0.2 0.4 0 0 0 0-0.1 0.2-0.2 0.4 0 0 0 0.1-0.1 0.2-0.1 0.4-0.1 0-0.1 0 0 0.2-0.1 0.4 0 0.1 0 0.1-0.1 0.2-0.1 0.4 0 0 0 0.1-0.1 0.2-0.1 0.4 0 0 0 0-0.1 0.3-0.1 0.5 0 0.1 0 0.1 0 0.2 0 0.5 0 0-0.1 0 0 0.3 0 0.5 0 0 0 0 0 0 0 0.1 0 0 0 0 0 0.2 0 0.3c0 6.3 4.5 9.4 10.4 9.5 5.9 0.1 10.3-3 10.3-9.3zm18.9 4.5c0-1.2-0.3-2.1-0.8-2.9-0.6-0.8-1.3-1.4-2.3-1.9q0 0 0 0-0.2-0.2-0.5-0.3 0 0 0 0 0 0 0 0c-1.6-0.7-3.4-1-4.9-1.5q-0.1-0.1-0.1-0.1-0.2 0-0.3-0.1-0.1 0-0.2-0.1-0.1 0-0.2-0.1-0.2 0-0.3-0.1-0.1 0-0.1 0-0.2-0.1-0.4-0.3-0.1 0-0.1 0-0.1-0.1-0.2-0.2-0.1-0.1-0.1-0.1-0.1-0.1-0.2-0.2 0 0-0.1-0.1-0.1-0.1-0.1-0.2-0.1-0.1-0.1-0.1-0.1-0.2-0.1-0.4c-0.2-0.8 0.6-1.5 2.2-1.5 1.5 0.1 2.2 0.7 2.2 2 2.4 0.1 3.6 0.2 5.9 0.3 0.2-4.6-4.4-6-8.1-6-3.8-0.1-8.5 1.1-8.5 5.7q0 0.3 0 0.6 0 0.1 0.1 0.2 0 0.1 0 0.3 0 0.1 0 0.2 0.1 0.2 0.1 0.3 0 0.1 0.1 0.2 0 0.1 0.1 0.2 0.1 0.2 0.2 0.4 0 0.1 0 0.1 0.1 0.2 0.2 0.3 0 0 0 0.1 0.1 0.1 0.2 0.2 0 0 0 0 0 0 0 0c2.1 2.5 6.7 2.4 8.8 3.9q0 0 0 0 0.1 0.1 0.2 0.2 0 0 0.1 0.1 0.2 0.2 0.4 0.4 0 0.1 0 0.1 0.1 0.1 0.1 0.2 0 0.1 0 0.1 0.1 0.2 0.1 0.3c0.2 1.1-0.6 1.9-2.2 1.8-1.5-0.1-2.2-0.9-2.2-2.4-2.5-0.2-3.8-0.2-6.3-0.3-0.2 4.7 4.5 6.1 8.3 6.5 4 0.3 9.2-0.7 9.1-5.8zm16.7-21.2q-11.1 0-22.2 0c0 2.2 0 3.4 0 5.5v-0.1l7.5 0.4v0.6h-0.1q0 4.8 0 9.7 0 1 0 1.9 0 0.1 0 0.2c0 3.3 0 7.1 0 10.4 3.5 0.6 4.3 0.8 7.4 1.3q0-0.4 0-0.7 0 0 0 0 0-5.1 0-10.3 0-1.4 0-2.8 0-2.4 0-4.9 0-2.4 0-4.7v-0.3l7.4 0.3c0-2.6 0-3.9 0-6.5z"/><path fill-rule="evenodd" class="c" d="m37.8 173.8q-3.8 0.5-7.3 1.2 0-2.1 0-4.3 0-8 0-16 5.7-0.1 11.4-0.1c4.8-0.2 9.7 2 9.6 7.5-0.1 4.1-3 5.6-3 5.6q0 0 0.1 0 0 0 0 0 0 0 0.1 0 0 0.1 0 0.1 0.1 0 0.2 0 0 0.1 0 0.1 0.1 0 0.2 0.1 0.1 0 0.1 0 0.1 0.1 0.2 0.1 0 0 0.1 0.1 0.1 0.1 0.2 0.1 0.1 0.1 0.2 0.2 0.1 0 0.2 0.1 0.1 0.1 0.1 0.1 0.1 0.1 0.2 0.2 0.1 0 0.2 0.1 0.1 0.2 0.3 0.3 0 0.1 0.1 0.2 0.1 0.1 0.2 0.2 0.1 0.1 0.1 0.2 0.1 0.1 0.2 0.2 0.1 0.1 0.1 0.2 0.2 0.2 0.3 0.4 0 0 0 0.1 0.3 0.5 0.4 1.2-0.5 0.1-1 0.1c-0.1-0.3-0.2-0.6-0.4-0.8q-0.1-0.2-0.2-0.4l-0.3-0.4c-0.2-0.3-0.4-0.5-0.7-0.8q-0.3-0.3-0.7-0.6-0.3-0.2-0.7-0.4-0.4-0.2-0.7-0.4c-0.4-0.1-0.8-0.2-1.1-0.3-0.3-0.1-0.4-0.1-0.4-0.1q0 0 0.3 0.3 0.4 0.3 0.9 0.7 0.2 0.2 0.5 0.5 0.3 0.2 0.6 0.5 0.3 0.3 0.5 0.6c0.2 0.2 0.4 0.4 0.6 0.7l0.2 0.3q0.1 0.2 0.3 0.3 0.1 0.2 0.2 0.4-2.8 0.3-5.6 0.6-0.3-1.3-1.6-1.7 0 0 0 0-0.5-0.1-1.1-0.1-0.1 0-0.1 0-0.3 0-0.7 0c-1.3 0.1-2 0.2-3.3 0.3q0 0.4 0 0.8 0 0.9 0 1.7zm5.9-11.1c0-2-0.8-2.8-2.9-2.7-1.2 0-1.8 0-3 0.1 0 2.5 0 3.7 0 6.2 1.2-0.1 1.8-0.1 3-0.2 2-0.1 2.9-1.1 2.9-3.4zm-8.8-6.8c0 0 1.1 0.1 2.8 0.2q0.6 0.1 1.3 0.1 0.7 0.1 1.5 0.2 0.8 0.1 1.6 0.2 0.8 0.1 1.6 0.3 0.8 0.1 1.6 0.3 0.4 0.1 0.8 0.2 0.3 0.2 0.7 0.3 0.3 0.1 0.6 0.3 0.4 0.2 0.6 0.3c0.3 0.1 0.4 0.3 0.6 0.4q0.2 0.2 0.4 0.4 0.4 0.5 0.6 0.9 0.1 0.2 0.2 0.4 0 0.3 0 0.4c0.1 0.3 0.1 0.5 0.1 0.6q0 0.2 0 0.2 0 0 0.1-0.2c0-0.1 0.1-0.3 0.1-0.6q0-0.2 0-0.4 0-0.2-0.1-0.5c0-0.2-0.1-0.4-0.2-0.6 0-0.2-0.2-0.4-0.3-0.6q-0.2-0.2-0.4-0.5c-0.2-0.2-0.3-0.4-0.6-0.5q-0.3-0.3-0.6-0.5c-0.2-0.2-0.5-0.3-0.7-0.4q-0.8-0.4-1.6-0.6-0.8-0.3-1.7-0.4-0.8-0.2-1.7-0.3-0.8-0.1-1.6-0.1c-1.1 0-2.1 0-2.9 0.1-0.9 0-1.6 0.1-2.1 0.2-0.5 0.1-0.7 0.2-0.7 0.2zm1.8 12l4.8-1.1-4.4 0.3-0.1-5.2-0.7 5.6v0.4h0.4z"/><path fill-rule="evenodd" class="c" d="m54.4 171.8q0-0.5 0.1-1.1 0 0 0 0 0 0 0 0 0.2-2 1-3.7 0 0 0 0 0.2-0.4 0.4-0.8 0.1 0 0.1 0 0.2-0.4 0.5-0.7 0 0 0 0 0.2-0.4 0.5-0.7 0 0 0.1 0 0.3-0.3 0.6-0.6 0 0 0 0 0.6-0.6 1.4-1 0 0 0.1 0 0.3-0.2 0.7-0.4 0 0 0.1-0.1 0.4-0.1 0.8-0.3 0 0 0.1 0 0.4-0.1 0.8-0.2 0-0.1 0.1-0.1 0.4-0.1 0.9-0.2 0 0 0.1 0 0.4 0 0.9-0.1 0 0 0.1 0 0.5 0 1 0 0.3-0.1 0.5 0 0.2 0 0.3 0 0.1 0 0.3 0 0.1 0 0.2 0 0.2 0 0.3 0 0.1 0 0.3 0 0.1 0.1 0.2 0.1 0.2 0 0.3 0 0.1 0 0.2 0 0.2 0.1 0.3 0.1 0.1 0 0.2 0 0.1 0.1 0.3 0.1 0.1 0 0.2 0.1 0.1 0 0.3 0 0.1 0.1 0.2 0.1 0.1 0 0.2 0.1 0.1 0 0.2 0 0.2 0.1 0.3 0.2 0.1 0 0.1 0 0.2 0.1 0.3 0.1 0.1 0.1 0.2 0.1 0.1 0.1 0.3 0.1 0 0.1 0.1 0.1 0.1 0.1 0.3 0.2 0 0 0.1 0 0.1 0.1 0.3 0.2 0 0 0.1 0.1 0.1 0.1 0.2 0.2 0.1 0 0.1 0 0.2 0.1 0.3 0.2 0 0.1 0.1 0.1 0.1 0.1 0.2 0.2 0.1 0.1 0.1 0.1 0.1 0.1 0.3 0.2 0 0.1 0 0.1 0.2 0.2 0.3 0.3 0 0 0 0.1 0.2 0.1 0.3 0.2 0 0.1 0 0.1 0.1 0.1 0.2 0.3 0.1 0 0.1 0.1 0.1 0.1 0.2 0.3 0 0 0 0.1 0.1 0.1 0.2 0.3 0 0 0.1 0.1 0 0.1 0.1 0.3 0 0 0.1 0.1 0 0.1 0.1 0.3 0 0.1 0 0.1 0.1 0.2 0.2 0.4 0 0 0 0 0.1 0.2 0.1 0.4 0 0.1 0 0.1 0.1 0.2 0.2 0.4 0 0.1 0 0.1 0 0.2 0.1 0.4 0 0.1 0 0.1 0 0.2 0 0.4 0 0.1 0 0.1 0.1 0.2 0.1 0.5 0 0 0 0 0 0.3 0 0.5 0 0 0 0 0 0.1 0 0.1-3.3 0.1-6.6 0.2 0-0.1 0-0.3-0.1-0.3-0.1-0.5 0-0.1 0-0.2 0-0.2 0-0.3-0.1-0.1-0.1-0.2 0-0.2 0-0.3-0.1-0.1-0.1-0.2 0-0.1 0-0.2-0.1-0.1-0.1-0.2 0-0.1-0.1-0.2 0-0.1-0.1-0.2 0-0.1-0.1-0.1 0-0.1 0-0.2-0.1-0.1-0.2-0.2 0 0-0.1-0.1 0-0.1-0.1-0.1 0-0.1-0.1-0.1-0.1-0.1-0.1-0.2-0.1 0-0.2-0.1 0 0-0.1 0-0.1-0.1-0.2-0.1-0.1-0.1-0.1-0.1-0.1 0-0.2-0.1-0.1 0-0.2 0-0.1-0.1-0.2-0.1-0.1 0-0.2 0-0.1 0-0.1 0-0.2-0.1-0.3-0.1-0.1 0-0.2 0-0.2 0-0.4 0-0.2 0-0.5 0 0 0.1-0.1 0.1-0.2 0-0.3 0-0.1 0-0.2 0-0.1 0.1-0.2 0.1-0.1 0-0.1 0.1-0.1 0-0.2 0-0.1 0.1-0.2 0.1-0.1 0-0.1 0.1-0.1 0-0.2 0.1-0.1 0-0.1 0.1-0.1 0-0.2 0.1 0 0-0.1 0.1-0.1 0-0.1 0.1-0.1 0.1-0.1 0.1c-0.7 0.8-1 2-1 3.7q-3.4 0.2-6.7 0.4zm7-8.2q0 0 0.5 0 0.6 0 1.6 0 0.5 0.1 1 0.1 0.5 0 1.1 0.1 0.6 0.1 1.2 0.2 0.6 0.1 1.2 0.2 0.5 0.2 1.1 0.4 0.5 0.2 1 0.5 0.5 0.3 0.9 0.6 0.4 0.3 0.8 0.6c0.2 0.2 0.4 0.5 0.6 0.6q0.2 0.3 0.4 0.6c0.2 0.3 0.3 0.4 0.3 0.4q0 0-0.1-0.5-0.1-0.3-0.3-0.7c-0.1-0.2-0.2-0.5-0.4-0.8q-0.3-0.4-0.7-0.8-0.4-0.5-0.9-0.8-0.3-0.2-0.6-0.4-0.3-0.2-0.6-0.3-0.6-0.3-1.2-0.5-0.7-0.1-1.4-0.2-0.6-0.1-1.2-0.1c-0.9 0-1.6 0.1-2.3 0.2-0.6 0.1-1.1 0.3-1.5 0.4-0.4 0.1-0.5 0.2-0.5 0.2z"/><path fill-rule="evenodd" class="c" d="m76.6 170.8q0-0.1 0-0.1 0 0 0 0 0-0.2 0-0.5 0.1 0 0.1 0 0-0.3 0-0.5 0 0 0-0.1 0-0.2 0.1-0.5 0 0 0 0 0-0.2 0.1-0.4 0-0.1 0-0.1 0-0.2 0.1-0.4 0 0 0-0.1 0.1-0.2 0.1-0.4 0 0 0.1 0 0-0.2 0.1-0.4 0-0.1 0-0.1 0.1-0.2 0.2-0.4 0 0 0 0 0.1-0.2 0.2-0.4 0 0 0 0 0.1-0.2 0.2-0.4 0 0 0.1 0 0.1-0.2 0.2-0.4 0 0 0 0 0.1-0.2 0.2-0.3 0.1-0.1 0.1-0.1 0.1-0.2 0.2-0.3 0 0 0.1-0.1 0.1-0.1 0.2-0.2 0-0.1 0.1-0.1 0.1-0.1 0.2-0.2 0.1-0.1 0.1-0.1 0.1-0.1 0.3-0.2 0-0.1 0-0.1 0.2-0.1 0.3-0.2 0.1-0.1 0.1-0.1 0.1-0.1 0.3-0.2 0 0 0.1-0.1 0.1-0.1 0.3-0.1 0-0.1 0.1-0.1 0.1-0.1 0.3-0.2 0 0 0.1 0 0.1-0.1 0.3-0.2 0 0 0.1 0 0.2-0.1 0.3-0.2 0.1 0 0.2 0 0.1-0.1 0.2-0.1 0.1-0.1 0.2-0.1 0.2-0.1 0.3-0.1 0.1 0 0.2-0.1 0.1 0 0.3 0 0.1-0.1 0.2-0.1 0.1 0 0.2-0.1 0.2 0 0.3 0 0.1 0 0.2-0.1 0.2 0 0.3 0 0.1 0 0.2-0.1 0.2 0 0.3 0 0.1 0 0.3 0 0.1 0 0.3-0.1 0.1 0 0.2 0 0.2 0 0.3 0 0.1 0 0.2 0 0.3 0 0.6 0 0.5 0 1 0 0 0 0 0 0.5 0.1 1 0.1 0.1 0.1 0.1 0.1 0.5 0 0.9 0.1 0 0 0.1 0.1 0.4 0.1 0.8 0.2 0.1 0 0.1 0 0.4 0.2 0.8 0.3 0.1 0 0.1 0.1 0.4 0.1 0.8 0.3 0 0 0.1 0.1 0.3 0.2 0.6 0.4 0.1 0 0.1 0.1 0.4 0.2 0.7 0.4 0 0.1 0.1 0.1 0.3 0.3 0.5 0.6 0.1 0 0.1 0 0.3 0.3 0.5 0.6 0.1 0.1 0.1 0.1 0.2 0.3 0.4 0.7 0.1 0 0.1 0.1 0.2 0.3 0.4 0.7 0 0 0 0.1 0.2 0.4 0.3 0.8 0.1 0 0.1 0.1 0.1 0.4 0.2 0.8 0 0.1 0 0.1 0.1 0.5 0.2 0.9 0 0.1 0 0.1 0.1 0.5 0.1 1 0 0 0 0 0 0.1 0 0.2 0 0 0 0 0 0.1 0 0.2-3.3-0.2-6.6-0.3 0 0 0 0 0 0 0 0-0.1-0.6-0.1-1.1 0 0 0 0-0.1-0.3-0.1-0.5 0 0 0 0 0-0.2-0.1-0.4 0 0 0-0.1-0.1-0.1-0.1-0.3 0 0-0.1-0.1 0-0.1-0.1-0.3 0 0 0 0-0.1-0.2-0.2-0.3 0 0 0 0-0.1-0.2-0.2-0.3 0 0 0 0-0.1-0.1-0.2-0.2 0-0.1-0.1-0.1-0.1-0.1-0.2-0.1 0-0.1-0.1-0.1-0.1-0.1-0.2-0.1 0-0.1-0.1-0.1-0.1 0-0.2-0.1-0.1 0-0.2 0-0.1-0.1-0.2-0.1-0.1 0-0.2 0-0.1-0.1-0.2-0.1-0.1 0-0.2 0-0.1 0-0.2 0-0.2-0.1-0.4-0.1-0.3 0-0.5 0.1-0.1 0-0.2 0-0.1 0-0.2 0-0.1 0-0.2 0.1-0.1 0-0.2 0-0.1 0-0.2 0.1-0.1 0-0.2 0-0.1 0-0.2 0.1 0 0-0.1 0-0.1 0.1-0.2 0.2 0 0-0.1 0-0.1 0.1-0.2 0.2 0 0-0.1 0.1-0.1 0-0.1 0.1-0.1 0.1-0.1 0.1-0.1 0.1-0.2 0.2 0 0.1 0 0.1-0.1 0.1-0.2 0.2 0 0.1 0 0.1-0.1 0.2-0.1 0.3 0 0 0 0.1-0.1 0.1-0.2 0.3 0 0 0 0.1 0 0.2-0.1 0.4 0 0 0 0 0 0.2 0 0.4 0 0.1 0 0.1-0.1 0.2-0.1 0.5 0 0 0 0 0 0.3 0 0.5 0 0 0 0-0.8 0-1.6 0-2.6 0-5.1 0.1zm8.9-7.8c-0.6 0.1-1.1 0.3-1.5 0.4-0.3 0.1-0.5 0.2-0.5 0.2q0 0 0.5 0 0.6 0 1.6 0 0.5 0.1 1 0.1 0.5 0 1.1 0.1 0.6 0.1 1.2 0.2 0.6 0.1 1.2 0.2 0.5 0.2 1.1 0.4 0.5 0.2 1 0.5 0.5 0.3 0.9 0.6 0.4 0.3 0.8 0.6c0.2 0.2 0.4 0.5 0.6 0.6q0.2 0.3 0.4 0.6c0.2 0.3 0.3 0.4 0.3 0.4q0 0-0.1-0.5-0.1-0.3-0.3-0.7c-0.1-0.2-0.2-0.5-0.4-0.8q-0.3-0.4-0.7-0.8-0.4-0.5-0.9-0.8-0.3-0.2-0.6-0.4-0.3-0.2-0.6-0.3-0.6-0.3-1.2-0.5-0.7-0.1-1.3-0.2-0.7-0.1-1.3-0.1c-0.9 0-1.6 0.1-2.3 0.2z"/><path fill-rule="evenodd" class="c" d="m100.1 171q-0.1-0.1-0.3-0.3 0 0 0 0 0 0 0 0-0.1-0.1-0.2-0.2 0-0.1 0-0.1-0.1-0.1-0.2-0.3 0 0 0-0.1-0.1-0.2-0.2-0.4-0.1-0.1-0.1-0.2-0.1-0.1-0.1-0.2 0-0.1-0.1-0.3 0-0.1 0-0.2 0-0.2 0-0.3-0.1-0.1-0.1-0.2 0-0.3 0-0.6c0-4.6 4.7-5.8 8.5-5.7 3.7 0 8.3 1.4 8.1 6-2.3-0.1-3.5-0.2-5.9-0.3 0-1.3-0.7-1.9-2.2-2-1.6 0-2.4 0.7-2.2 1.5q0 0.2 0.1 0.4 0 0 0.1 0.1 0 0.1 0.1 0.2 0.1 0.1 0.1 0.1 0.1 0.1 0.2 0.2 0 0 0.1 0.1 0.1 0.1 0.2 0.2 0 0 0.1 0 0.2 0.2 0.4 0.3 0 0 0.1 0 0.1 0.1 0.3 0.1 0.1 0.1 0.2 0.1 0.1 0.1 0.2 0.1 0.1 0.1 0.3 0.1 0 0 0.1 0.1c1.5 0.5 3.3 0.8 4.9 1.5q0 0 0 0 0 0 0 0 0.3 0.1 0.5 0.3 0 0 0 0 0.8 0.4 1.5 0.9 0.2 0.3 0.4 0.5-0.6 0-1.2-0.1-0.1 0-0.1-0.1c-0.5-0.3-1.1-0.6-1.8-0.9q-0.5-0.3-1.1-0.5-0.5-0.2-1-0.4-0.6-0.2-1.1-0.3-0.6-0.2-1.1-0.4-0.5-0.2-1-0.4-0.4-0.2-0.8-0.4-0.3-0.2-0.6-0.4-0.3-0.2-0.4-0.4-0.2-0.2-0.3-0.3 0-0.1 0-0.1 0 0 0 0.1 0 0.1 0.1 0.4 0.2 0.2 0.4 0.5 0.2 0.3 0.6 0.6 0.3 0.3 0.8 0.5 0.4 0.3 1 0.5 0.5 0.2 1 0.4 0.6 0.2 1.1 0.4 1.1 0.4 2.2 0.8 0.3 0.1 0.7 0.3-5.8-0.6-12.1-1-0.1-0.1-0.2-0.2zm4-8.1c0 0 0.7 0.1 1.8 0.2q0.4 0 0.8 0 0.5 0.1 1 0.2c0.7 0.1 1.4 0.2 2 0.3q0.6 0.2 1 0.3 0.5 0.2 1 0.4 0.4 0.2 0.8 0.4 0.4 0.3 0.7 0.5 0.3 0.3 0.5 0.5c0.1 0.2 0.2 0.4 0.3 0.5q0.3 0.4 0.3 0.4 0 0 0-0.1-0.1-0.1-0.1-0.4c-0.1-0.1-0.2-0.3-0.3-0.5q-0.1-0.3-0.4-0.7-0.1-0.1-0.3-0.3-0.2-0.2-0.4-0.3-0.3-0.3-0.8-0.6-0.5-0.3-1-0.5-0.5-0.2-1.1-0.3-0.5-0.1-1.1-0.2-0.5-0.1-1-0.1-1.1 0-1.9 0c-1.1 0.1-1.8 0.3-1.8 0.3z"/><path fill-rule="evenodd" class="c" d="m110.7 154.6q11.1 0 22.2 0c0 2.6 0 3.9 0 6.5l-7.4-0.3v0.3q0 2.3 0 4.7 0 2.5 0 4.9 0 1.4 0 2.8 0 0.1 0 0.3-0.3-0.1-0.6-0.1 0-0.6 0-1.1 0-0.9 0-1.8 0-0.8 0-1.7 0-0.8 0-1.7c0-1-0.1-2-0.1-2.9-0.1-1.7-0.3-2.9-0.3-2.9 0 0-0.1 1.2-0.2 2.9-0.1 0.9-0.1 1.9-0.1 2.9q-0.1 0.9-0.1 1.7 0 0.9 0 1.7 0 0.9 0 1.8 0 0.5 0 1-2.5-0.4-5.1-0.7-0.4-0.1-0.9-0.1 0-0.1 0-0.2 0-0.9 0-1.9 0-4.9 0-9.7h0.1v-0.6l-7.5-0.4v0.1c0-2.1 0-3.3 0-5.5zm4 1.4c0 0 0.3 0 0.7 0.1 0.5 0.1 1.2 0.1 2 0.2q0.6 0.1 1.3 0.1 0.7 0 1.5 0.1 0.7 0 1.5 0 0.8 0 1.6 0 0.8 0 1.6 0 0.8 0 1.6 0c1-0.1 1.9-0.1 2.8-0.2 0.8-0.1 1.4-0.1 1.9-0.2 0.5-0.1 0.7-0.1 0.7-0.1 0 0-0.2-0.1-0.7-0.1-0.5-0.1-1.1-0.2-1.9-0.2-0.9-0.1-1.8-0.2-2.8-0.2q-0.8-0.1-1.6-0.1-0.8 0-1.6 0-0.8 0-1.6 0-0.8 0-1.5 0.1-0.8 0-1.5 0.1-0.7 0-1.3 0.1c-0.8 0-1.5 0.1-2 0.2-0.4 0-0.7 0.1-0.7 0.1z"/><path fill-rule="evenodd" class="d" d="m52.6 173.7c0.1 6-5 8.8-10.4 9.4q-5.9 0.9-11.7 2 0-5 0-10 0 0 0-0.1 3.5-0.7 7.3-1.2 0 0 0 0.1c0 1.4 0 2.6 0 4.5 1.3-0.2 2-0.3 3.3-0.4 2.6-0.3 3.7-1.4 3.7-3.7q0-0.2 0-0.4 0-0.1 0-0.2 0-0.1 0-0.1 0-0.2-0.1-0.3 0 0 0-0.1 0-0.2-0.1-0.4 2.8-0.3 5.6-0.6 0.1 0.2 0.2 0.3c0.1 0.3 0.2 0.5 0.3 0.7q0.2 0.4 0.3 0.7c0 0.2 0.1 0.4 0.2 0.6q0 0.2 0.1 0.4 0.1 0.4 0.1 0.4 0.1 0 0.1-0.4 0.1-0.2 0.1-0.5 0-0.3 0-0.6 0-0.2 0-0.4 0-0.2-0.1-0.4c0-0.3-0.1-0.6-0.2-0.9q0 0 0 0 0.5 0 1-0.1 0.1 0.1 0.1 0.1 0.2 0.7 0.2 1.6zm-9.7 4.9l-5.8 0.6v-5l-0.8 5.4-0.1 0.5 0.5-0.1h0.1z"/><path fill-rule="evenodd" class="d" d="m75.1 171.2c0 6.2-4.4 9.6-10.3 10-6.2 0.4-10.4-2.9-10.4-9.2q0 0 0 0 0-0.1 0-0.2 3.3-0.2 6.7-0.4 0 0 0 0 0 0 0 0.1 0 0 0 0.1c0 3.5 1.1 4.9 3.7 4.7 2.6-0.1 3.7-1.6 3.7-5q0-0.1 0-0.2 0-0.1 0-0.1 3.3-0.1 6.6-0.2 0 0 0 0 0 0 0 0 0 0.2 0 0.4zm-9.5 6.1q0 0-0.3-0.1-0.2 0-0.4 0-0.2 0-0.5-0.1-0.3 0-0.6 0-0.3-0.1-0.6-0.2c-0.3 0-0.5-0.1-0.7-0.2-0.2-0.1-0.4-0.2-0.6-0.3l-0.3-0.2-0.1-0.1-0.1-0.1q-0.2-0.1-0.3-0.2-0.1-0.2-0.2-0.3-0.1-0.1-0.2-0.2-0.1-0.2-0.1-0.3-0.2-0.3-0.3-0.5-0.1-0.3-0.2-0.5-0.1-0.2-0.1-0.4-0.1-0.3-0.1-0.3 0 0-0.1 0.3 0 0.2 0 0.5c0 0.1 0 0.3 0.1 0.5q0 0.3 0.2 0.6 0.1 0.4 0.3 0.7 0.1 0.2 0.2 0.3 0.1 0.2 0.3 0.3l0.1 0.2 0.2 0.1 0.3 0.2c0.3 0.2 0.5 0.3 0.8 0.4q0.2 0.1 0.3 0.1 0.2 0.1 0.4 0.1 0.4 0 0.7 0 0.4 0 0.7 0 0.3 0 0.5-0.1 0.2-0.1 0.4-0.1 0.3-0.1 0.3-0.1z"/><path fill-rule="evenodd" class="d" d="m97.3 171.3c0 6.3-4.4 9.4-10.3 9.3-5.9-0.1-10.4-3.2-10.4-9.5q0-0.1 0-0.3 0 0 0 0 2.5-0.1 5.1-0.1 0.8 0 1.6 0 0 0.2 0 0.4c0 3.3 1.1 4.7 3.7 4.8 2.6 0 3.7-1.4 3.7-4.8q0-0.1 0-0.3 3.3 0.1 6.6 0.3 0 0.1 0 0.2zm-9.2 5.6q0 0-0.3-0.1-0.2 0-0.4 0-0.3 0-0.5 0-0.3-0.1-0.6-0.1-0.3-0.1-0.7-0.2c-0.2 0-0.4-0.1-0.6-0.2-0.2 0-0.4-0.2-0.6-0.3l-0.3-0.2-0.1-0.1-0.1-0.1q-0.2-0.1-0.3-0.2-0.1-0.1-0.2-0.3-0.1-0.1-0.2-0.2-0.1-0.1-0.1-0.3-0.2-0.3-0.3-0.5-0.1-0.3-0.2-0.5-0.1-0.2-0.1-0.3-0.1-0.4-0.1-0.4 0 0-0.1 0.4 0 0.1 0 0.4c0 0.1 0 0.3 0.1 0.5q0 0.3 0.1 0.6 0.2 0.4 0.4 0.7 0.1 0.2 0.2 0.3 0.1 0.2 0.3 0.3l0.1 0.2 0.2 0.1 0.3 0.3c0.3 0.1 0.5 0.2 0.8 0.3q0.1 0.1 0.3 0.1 0.2 0.1 0.4 0.1 0.4 0 0.7 0.1 0.4-0.1 0.7-0.1 0.3 0 0.5-0.1 0.2-0.1 0.4-0.1 0.3-0.1 0.3-0.1z"/><path fill-rule="evenodd" class="d" d="m107.1 181.6c-3.8-0.4-8.5-1.8-8.3-6.5 2.5 0.1 3.8 0.1 6.3 0.3 0 1.5 0.7 2.3 2.2 2.4 1.6 0.1 2.4-0.7 2.2-1.8q0-0.1-0.1-0.3 0 0 0-0.1 0-0.1-0.1-0.2 0 0 0-0.1-0.2-0.2-0.4-0.4-0.1-0.1-0.1-0.1-0.1-0.1-0.2-0.2 0 0 0 0c-1.9-1.4-6-1.4-8.3-3.4q6.3 0.4 12.1 1 0.6 0.2 1.1 0.4 0.7 0.4 1.1 0.8 0.1 0.2 0.2 0.3 0.1 0.1 0.1 0.1 0 0-0.1-0.1 0-0.2-0.1-0.4c-0.1-0.3-0.5-0.7-0.9-1q0.6 0.1 1.2 0.1 0.2 0.3 0.4 0.5c0.5 0.8 0.8 1.7 0.8 2.9 0.1 5.1-5.1 6.1-9.1 5.8zm1.1-3q0 0-0.2-0.1-0.2 0-0.3-0.1-0.2 0-0.4-0.1-0.2 0-0.4-0.1-0.2 0-0.4-0.1-0.1 0-0.2-0.1-0.1 0-0.2 0l-0.3-0.1-0.2-0.1q-0.2-0.1-0.4-0.3-0.1-0.1-0.3-0.2-0.2-0.2-0.3-0.3-0.1-0.2-0.2-0.4c-0.2-0.4-0.3-0.7-0.3-0.7q0 0-0.1 0.2 0 0.1 0 0.3 0 0.2 0 0.4 0 0.2 0.1 0.4 0.1 0.3 0.3 0.5 0.1 0.1 0.2 0.2 0.1 0.1 0.2 0.2 0.2 0.2 0.5 0.3l0.3 0.2 0.2 0.1q0.3 0 0.6 0.1 0.2 0 0.5 0 0.2 0 0.4 0 0.2 0 0.4-0.1 0.1 0 0.3 0 0.2-0.1 0.2-0.1z"/><path class="d" d="m125.5 173.8q-0.3-0.1-0.6-0.1 0 0.3 0 0.5c0 1.1-0.1 2.1-0.1 3-0.1 1.7-0.3 2.9-0.3 2.9 0 0-0.1-1.2-0.2-2.9-0.1-0.9-0.1-1.9-0.1-3q0-0.3-0.1-0.6-2.5-0.4-5.1-0.7 0.1 4.9 0.1 9.8 0-4.9-0.1-9.8-0.4-0.1-0.9-0.1c0 3.3 0 7.1 0 10.4 3.5 0.6 4.3 0.8 7.4 1.3q0-0.4 0-0.7c0-3.2 0-6.9 0-10z"/><path class="e" d="m90.6 169.7q0 0 0 0-0.1-0.3-0.1-0.5 0 0 0 0 0-0.2-0.1-0.4 0 0 0-0.1-0.1-0.1-0.1-0.3 0 0-0.1-0.1 0-0.1-0.1-0.3 0 0 0 0-0.1-0.2-0.2-0.3 0 0 0 0-0.1-0.2-0.2-0.3 0 0 0 0-0.1-0.1-0.2-0.2 0-0.1-0.1-0.1-0.1-0.1-0.2-0.1 0-0.1-0.1-0.1-0.1-0.1-0.2-0.1 0-0.1-0.1-0.1-0.1 0-0.2-0.1-0.1 0-0.2 0-0.1-0.1-0.2-0.1-0.1 0-0.2 0-0.1-0.1-0.2-0.1-0.1 0-0.2 0-0.1 0-0.2 0-0.2-0.1-0.4-0.1-0.3 0-0.5 0.1-0.1 0-0.2 0-0.1 0-0.2 0-0.1 0-0.2 0.1-0.1 0-0.2 0-0.1 0-0.2 0.1-0.1 0-0.2 0-0.1 0-0.2 0.1 0 0-0.1 0-0.1 0.1-0.2 0.2 0 0-0.1 0-0.1 0.1-0.2 0.2 0 0-0.1 0.1-0.1 0-0.1 0.1-0.1 0.1-0.1 0.1-0.1 0.1-0.2 0.2 0 0.1 0 0.1-0.1 0.1-0.2 0.2 0 0.1 0 0.1-0.1 0.2-0.1 0.3 0 0 0 0.1-0.1 0.1-0.2 0.3 0 0 0 0.1 0 0.2-0.1 0.4 0 0 0 0 0 0.2 0 0.4 0 0.1 0 0.1-0.1 0.2-0.1 0.5 0 0 0 0 0 0.3 0 0.5 0 0.2 0 0.4c0 3.3 1.1 4.7 3.7 4.8 2.6 0 3.7-1.4 3.7-4.8q0-0.1 0-0.3-0.1-0.6-0.1-1.1z"/><path class="e" d="m68.4 170q0-0.2 0-0.3-0.1-0.1-0.1-0.2 0-0.2 0-0.3-0.1-0.1-0.1-0.2 0-0.1 0-0.2-0.1-0.1-0.1-0.2 0-0.1-0.1-0.2 0-0.1-0.1-0.2 0-0.1-0.1-0.1 0-0.1 0-0.2-0.1-0.1-0.2-0.2 0 0-0.1-0.1 0-0.1-0.1-0.1 0-0.1-0.1-0.1-0.1-0.1-0.1-0.2-0.1 0-0.2-0.1 0 0-0.1 0-0.1-0.1-0.2-0.1-0.1-0.1-0.1-0.1-0.1 0-0.2-0.1-0.1 0-0.2 0-0.1-0.1-0.2-0.1-0.1 0-0.2 0-0.1 0-0.1 0-0.2-0.1-0.3-0.1-0.1 0-0.2 0-0.2 0-0.4 0-0.2 0-0.5 0 0 0.1-0.1 0.1-0.2 0-0.3 0-0.1 0-0.2 0-0.1 0.1-0.2 0.1-0.1 0-0.1 0.1-0.1 0-0.2 0-0.1 0.1-0.2 0.1-0.1 0-0.1 0.1-0.1 0-0.2 0.1-0.1 0-0.1 0.1-0.1 0-0.2 0.1 0 0-0.1 0.1-0.1 0-0.1 0.1-0.1 0.1-0.1 0.1c-0.7 0.8-1 2-1 3.7q0 0 0 0 0 0.1 0 0.2c0 3.5 1.1 4.9 3.7 4.7 2.6-0.1 3.7-1.6 3.7-5q0-0.6-0.1-1.1 0-0.1 0-0.2z"/><path class="e" d="m43 171.1q0 0 0 0-0.5-0.1-1.1-0.1-0.1 0-0.1 0-0.3 0-0.7 0c-1.3 0.1-2 0.2-3.3 0.3q0 0.4 0 0.8c0 2.3 0 3.7 0 6.3 1.3-0.2 2-0.3 3.3-0.4 2.6-0.3 3.7-1.4 3.7-3.7q0-0.2 0-0.4 0-0.1 0-0.2 0-0.1 0-0.1 0-0.2-0.1-0.3 0 0 0-0.1 0-0.2-0.1-0.4-0.3-1.3-1.6-1.7z"/><path class="e" d="m40.8 160c-1.2 0-1.8 0-3 0.1 0 2.5 0 3.7 0 6.2 1.2-0.1 1.8-0.1 3-0.2 2-0.1 2.9-1.1 2.9-3.4 0-2-0.8-2.8-2.9-2.7z"/><path class="b" d="m63.5 163.6q0.5 0.1 1 0.1 0.5 0 1.1 0.1 0.6 0.1 1.2 0.2 0.6 0.1 1.2 0.2 0.5 0.2 1.1 0.4 0.5 0.2 1 0.5 0.5 0.3 0.9 0.6 0.4 0.3 0.8 0.6c0.2 0.2 0.4 0.5 0.6 0.6q0.2 0.3 0.4 0.6c0.2 0.3 0.3 0.4 0.3 0.4q0 0-0.1-0.5-0.1-0.3-0.3-0.7c-0.1-0.2-0.2-0.5-0.4-0.8q-0.3-0.4-0.7-0.8-0.4-0.5-0.9-0.8-0.3-0.2-0.6-0.4-0.3-0.2-0.6-0.3-0.6-0.3-1.2-0.5-0.7-0.1-1.4-0.2-0.6-0.1-1.2-0.1c-0.9 0-1.6 0.1-2.3 0.2-0.6 0.1-1.1 0.3-1.5 0.4-0.4 0.1-0.5 0.2-0.5 0.2q0 0 0.5 0 0.6 0 1.6 0z"/><path class="b" d="m84 163.4c-0.3 0.1-0.5 0.2-0.5 0.2q0 0 0.5 0 0.6 0 1.6 0 0.5 0.1 1 0.1 0.5 0 1.1 0.1 0.6 0.1 1.2 0.2 0.6 0.1 1.2 0.2 0.5 0.2 1.1 0.4 0.5 0.2 1 0.5 0.5 0.3 0.9 0.6 0.4 0.3 0.8 0.6c0.2 0.2 0.4 0.5 0.6 0.6q0.2 0.3 0.4 0.6c0.2 0.3 0.3 0.4 0.3 0.4q0 0-0.1-0.5-0.1-0.3-0.3-0.7c-0.1-0.2-0.2-0.5-0.4-0.8q-0.3-0.4-0.7-0.8-0.4-0.5-0.9-0.8-0.3-0.2-0.6-0.4-0.3-0.2-0.6-0.3-0.6-0.3-1.2-0.5-0.7-0.1-1.3-0.2-0.7-0.1-1.3-0.1c-0.9 0-1.6 0.1-2.3 0.2-0.6 0.1-1.1 0.3-1.5 0.4z"/><path class="b" d="m64.9 177.2q-0.2 0-0.5-0.1-0.3 0-0.6 0-0.3-0.1-0.6-0.2c-0.3 0-0.5-0.1-0.7-0.2-0.2-0.1-0.4-0.2-0.6-0.3l-0.3-0.2-0.1-0.1-0.1-0.1q-0.2-0.1-0.3-0.2-0.1-0.2-0.2-0.3-0.1-0.1-0.2-0.2-0.1-0.2-0.1-0.3-0.2-0.3-0.3-0.5-0.1-0.3-0.2-0.5-0.1-0.2-0.1-0.4-0.1-0.3-0.1-0.3 0 0-0.1 0.3 0 0.2 0 0.5c0 0.1 0 0.3 0.1 0.5q0 0.3 0.2 0.6 0.1 0.4 0.3 0.7 0.1 0.2 0.2 0.3 0.1 0.2 0.3 0.3l0.1 0.2 0.2 0.1 0.3 0.2c0.3 0.2 0.5 0.3 0.8 0.4q0.2 0.1 0.3 0.1 0.2 0.1 0.4 0.1 0.4 0 0.7 0 0.4 0 0.7 0 0.3 0 0.5-0.1 0.2-0.1 0.4-0.1 0.3-0.1 0.3-0.1 0 0-0.3-0.1-0.2 0-0.4 0z"/><path class="b" d="m87.4 176.8q-0.3 0-0.5 0-0.3-0.1-0.6-0.1-0.3-0.1-0.7-0.2c-0.2 0-0.4-0.1-0.6-0.2-0.2 0-0.4-0.2-0.6-0.3l-0.3-0.2-0.1-0.1-0.1-0.1q-0.2-0.1-0.3-0.2-0.1-0.1-0.2-0.3-0.1-0.1-0.2-0.2-0.1-0.1-0.1-0.3-0.2-0.3-0.3-0.5-0.1-0.3-0.2-0.5-0.1-0.2-0.1-0.3-0.1-0.4-0.1-0.4 0 0-0.1 0.4 0 0.1 0 0.4c0 0.1 0 0.3 0.1 0.5q0 0.3 0.1 0.6 0.2 0.4 0.4 0.7 0.1 0.2 0.2 0.3 0.1 0.2 0.3 0.3l0.1 0.2 0.2 0.1 0.3 0.3c0.3 0.1 0.5 0.2 0.8 0.3q0.1 0.1 0.3 0.1 0.2 0.1 0.4 0.1 0.4 0 0.7 0.1 0.4-0.1 0.7-0.1 0.3 0 0.5-0.1 0.2-0.1 0.4-0.1 0.3-0.1 0.3-0.1 0 0-0.3-0.1-0.2 0-0.4 0z"/><path class="b" d="m106.7 163.1q0.5 0.1 1 0.2c0.7 0.1 1.4 0.2 2 0.3q0.6 0.2 1 0.3 0.5 0.2 1 0.4 0.4 0.2 0.8 0.4 0.4 0.3 0.7 0.5 0.3 0.3 0.5 0.5c0.1 0.2 0.2 0.4 0.3 0.5q0.3 0.4 0.3 0.4 0 0 0-0.1-0.1-0.1-0.1-0.4c-0.1-0.1-0.2-0.3-0.3-0.5q-0.1-0.3-0.4-0.7-0.1-0.1-0.3-0.3-0.2-0.2-0.4-0.3-0.3-0.3-0.8-0.6-0.5-0.3-1-0.5-0.5-0.2-1.1-0.3-0.5-0.1-1.1-0.2-0.5-0.1-1-0.1-1.1 0-1.9 0c-1.1 0.1-1.8 0.3-1.8 0.3 0 0 0.7 0.1 1.8 0.2q0.4 0 0.8 0z"/><path class="b" d="m107.7 178.4q-0.2 0-0.4-0.1-0.2 0-0.4-0.1-0.2 0-0.4-0.1-0.1 0-0.2-0.1-0.1 0-0.2 0l-0.3-0.1-0.2-0.1q-0.2-0.1-0.4-0.3-0.1-0.1-0.3-0.2-0.2-0.2-0.3-0.3-0.1-0.2-0.2-0.4c-0.2-0.4-0.3-0.7-0.3-0.7q0 0-0.1 0.2 0 0.1 0 0.3 0 0.2 0 0.4 0 0.2 0.1 0.4 0.1 0.3 0.3 0.5 0.1 0.1 0.2 0.2 0.1 0.1 0.2 0.2 0.2 0.2 0.5 0.3l0.3 0.2 0.2 0.1q0.3 0 0.6 0.1 0.2 0 0.5 0 0.2 0 0.4 0 0.2 0 0.4-0.1 0.1 0 0.3 0 0.2-0.1 0.2-0.1 0 0-0.2-0.1-0.2 0-0.3-0.1z"/><path class="b" d="m111.9 171.3q-0.5-0.3-1.1-0.5-0.5-0.2-1-0.4-0.6-0.2-1.1-0.3-0.6-0.2-1.1-0.4-0.5-0.2-1-0.4-0.4-0.2-0.8-0.4-0.3-0.2-0.6-0.4-0.3-0.2-0.4-0.4-0.2-0.2-0.3-0.3 0-0.1 0-0.1 0 0 0 0.1 0 0.1 0.1 0.4 0.2 0.2 0.4 0.5 0.2 0.3 0.6 0.6 0.3 0.3 0.8 0.5 0.4 0.3 1 0.5 0.5 0.2 1 0.4 0.6 0.2 1.1 0.4 1.1 0.4 2.2 0.8 0.3 0.1 0.7 0.3 0.6 0.2 1.1 0.4 0.7 0.4 1.1 0.8 0.1 0.2 0.2 0.3 0.1 0.1 0.1 0.1 0 0-0.1-0.1 0-0.2-0.1-0.4c-0.1-0.3-0.5-0.7-0.9-1q-0.1 0-0.1-0.1c-0.5-0.3-1.1-0.6-1.8-0.9z"/><path class="b" d="m39 156.2q0.7 0.1 1.5 0.2 0.8 0.1 1.6 0.2 0.8 0.1 1.6 0.3 0.8 0.1 1.6 0.3 0.4 0.1 0.8 0.2 0.3 0.2 0.7 0.3 0.3 0.1 0.6 0.3 0.4 0.2 0.6 0.3c0.3 0.1 0.4 0.3 0.6 0.4q0.2 0.2 0.4 0.4 0.4 0.5 0.6 0.9 0.1 0.2 0.2 0.4 0 0.3 0 0.4c0.1 0.3 0.1 0.5 0.1 0.6q0 0.2 0 0.2 0 0 0.1-0.2c0-0.1 0.1-0.3 0.1-0.6q0-0.2 0-0.4 0-0.2-0.1-0.5c0-0.2-0.1-0.4-0.2-0.6 0-0.2-0.2-0.4-0.3-0.6q-0.2-0.2-0.4-0.5c-0.2-0.2-0.3-0.4-0.6-0.5q-0.3-0.3-0.6-0.5c-0.2-0.2-0.5-0.3-0.7-0.4q-0.8-0.4-1.6-0.6-0.8-0.3-1.7-0.4-0.8-0.2-1.7-0.3-0.8-0.1-1.6-0.1c-1.1 0-2.1 0-2.9 0.1-0.9 0-1.6 0.1-2.1 0.2-0.5 0.1-0.7 0.2-0.7 0.2 0 0 1.1 0.1 2.8 0.2q0.6 0.1 1.3 0.1z"/><path class="b" d="m50.7 170.9l-0.3-0.4c-0.2-0.3-0.4-0.5-0.7-0.8q-0.3-0.3-0.7-0.6-0.3-0.2-0.7-0.4-0.4-0.2-0.7-0.4c-0.4-0.1-0.8-0.2-1.1-0.3-0.3-0.1-0.4-0.1-0.4-0.1q0 0 0.3 0.3 0.4 0.3 0.9 0.7 0.2 0.2 0.5 0.5 0.3 0.2 0.6 0.5 0.3 0.3 0.5 0.6c0.2 0.2 0.4 0.4 0.6 0.7l0.2 0.3q0.1 0.2 0.3 0.3 0.1 0.2 0.2 0.4 0.1 0.2 0.2 0.3c0.1 0.3 0.2 0.5 0.3 0.7q0.2 0.4 0.3 0.7c0 0.2 0.1 0.4 0.2 0.6q0 0.2 0.1 0.4 0.1 0.4 0.1 0.4 0.1 0 0.1-0.4 0.1-0.2 0.1-0.5 0-0.3 0-0.6 0-0.2 0-0.4 0-0.2-0.1-0.4c0-0.3-0.1-0.6-0.2-0.9q0 0 0 0c-0.1-0.3-0.2-0.6-0.4-0.8q-0.1-0.2-0.2-0.4z"/><path class="b" d="m37.1 167.1l-0.1-5.2-0.7 5.6v0.4h0.4l4.8-1.1z"/><path class="b" d="m37.1 174.2l-0.8 5.4-0.1 0.5 0.5-0.1h0.1l6.1-1.4-5.8 0.6z"/><path class="h" d="m119 172.9q0-0.1 0-0.3"/><path class="h" d="m119 172.9q0.1 4.9 0.1 9.8"/><path class="b" d="m117.4 156.3q0.6 0.1 1.3 0.1 0.7 0 1.5 0.1 0.7 0 1.5 0 0.8 0 1.6 0 0.8 0 1.6 0 0.8 0 1.6 0c1-0.1 1.9-0.1 2.8-0.2 0.8-0.1 1.4-0.1 1.9-0.2 0.5-0.1 0.7-0.1 0.7-0.1 0 0-0.2-0.1-0.7-0.1-0.5-0.1-1.1-0.2-1.9-0.2-0.9-0.1-1.8-0.2-2.8-0.2q-0.8-0.1-1.6-0.1-0.8 0-1.6 0-0.8 0-1.6 0-0.8 0-1.5 0.1-0.8 0-1.5 0.1-0.7 0-1.3 0.1c-0.8 0-1.5 0.1-2 0.2-0.4 0-0.7 0.1-0.7 0.1 0 0 0.3 0 0.7 0.1 0.5 0.1 1.2 0.1 2 0.2z"/><path class="b" d="m124.3 177.2c0.1 1.7 0.2 2.9 0.2 2.9 0 0 0.2-1.2 0.3-2.9 0-0.9 0.1-1.9 0.1-3q0-0.2 0-0.5 0-0.6 0-1.1 0-0.9 0-1.8 0-0.8 0-1.7 0-0.8 0-1.7c0-1-0.1-2-0.1-2.9-0.1-1.7-0.3-2.9-0.3-2.9 0 0-0.1 1.2-0.2 2.9-0.1 0.9-0.1 1.9-0.1 2.9q-0.1 0.9-0.1 1.7 0 0.9 0 1.7 0 0.9 0 1.8 0 0.5 0 1 0.1 0.3 0.1 0.6c0 1.1 0 2.1 0.1 3z"/><path fill-rule="evenodd" class="i" d="m163.2 30.1v203.2c0 16.1-13.1 29.2-29.2 29.2h-104.6c-16.2 0-29.2-13.1-29.2-29.2v-203.2c0-16.2 13-29.2 29.2-29.2h104.6c16.1 0 29.2 13 29.2 29.2zm-93.5-19.9c0 1.1 0.9 2.1 2.1 2.1h19.7c1.2 0 2.1-0.9 2.1-2.1 0-1.2-0.9-2.1-2.1-2.1h-19.7c-1.2 0-2.1 0.9-2.1 2.1zm22.8 228.7c0-6-4.8-10.9-10.8-10.9-6 0-10.9 4.9-10.9 10.9 0 6 4.9 10.8 10.9 10.8 6 0 10.8-4.8 10.8-10.8zm53.5-208.8c0-6.7-5.4-12-12-12h-104.6c-6.7 0-12 5.3-12 12v175.6c0 6.6 5.3 12 12 12h104.6c6.6 0 12-5.4 12-12z"/></svg>