<svg version="1.2" xmlns="http://www.w3.org/2000/svg" viewBox="0 0 269 367" width="269" height="367"><style>.a{fill:#4c9feb}.b{fill:#2d3c77}.c{fill:#a3acd3}.d{fill:#8399be}.e{fill:none;stroke:#fff;stroke-linecap:round;stroke-miterlimit:10;stroke-width:9}.f{fill:none;stroke:#fff;stroke-linecap:round;stroke-miterlimit:10;stroke-width:13}</style><path class="a" d="m152.1 326.1c0 0 20.7 16.7 4 39.2-7.6 4.3-16-1.2-11-14 3.7-9.4-3.9-14-5.4-15.2 1.4-2 4.7-6.8 12.4-10z"/><path class="b" d="m138.2 323.7c0 0-25 8.9-16.7 35.6 5.8 6.7 16.9 4.1 15-9.5-1.3-9.6 8.9-12.5 10.6-15.6-0.7-2.3-2.7-5-8.9-10.5z"/><path class="b" d="m140.1 339.4c0 0 23.3-11.6 13.5-37.8-1.9 2.1-12.6 12-12.6 12l-3.7 7.1c0 0-3.8 5.3-5.6 6 0.7 2.4 1.9 7.5 8.4 12.7z"/><path class="a" d="m140.8 314.8c0 0 22.6-12 12.8-38.2-1.9 2.2-12.6 12.1-12.6 12.1l-3.7 7c0 0-3.8 5.3-5.6 6.1 0.7 2.3 2.6 7.9 9.1 13z"/><path class="b" d="m140.8 291.3c0 0 22.6-12 12.8-38.2-1.9 2.1-12.6 12-12.6 12l-3.7 7.1c0 0-3.8 5.3-5.6 6 0.7 2.4 2.6 7.9 9.1 13.1z"/><path class="a" d="m140.8 266.3c0 0 22.6-12 12.8-38.2-1.9 2.2-12.6 12.1-12.6 12.1l-3.7 7c0 0-3.8 5.3-5.6 6.1 0.7 2.3 2.6 7.9 9.1 13z"/><path class="c" d="m136.8 242.5c0 0 22.6-12 12.8-38.2-1.9 2.1-12.6 12-12.6 12l-3.7 7.1c0 0-3.8 5.3-5.6 6 0.7 2.3 2.6 7.9 9.1 13.1z"/><path class="c" d="m136.8 217.5c0 0 22.6-12 12.8-38.2-1.9 2.2-12.6 12.1-12.6 12.1l-3.7 7c0 0-3.8 5.3-5.6 6.1 0.7 2.3 2.6 7.9 9.1 13z"/><path class="a" d="m132.6 327.5c0 0-22.7-12-12.8-38.2 1.9 2.1 12.6 12 12.6 12l3.7 7.1c0 0 3.8 5.3 5.6 6-0.8 2.3-2.6 7.9-9.1 13.1z"/><path class="b" d="m132.6 303.9c0 0-22.7-12-12.8-38.2 1.9 2.1 12.6 12 12.6 12l3.7 7.1c0 0 3.8 5.3 5.6 6-0.8 2.4-2.6 7.9-9.1 13.1z"/><path class="a" d="m132.6 279c0 0-22.7-12-12.8-38.2 1.9 2.1 12.6 12 12.6 12l3.7 7.1c0 0 3.8 5.3 5.6 6-0.8 2.3-2.6 7.9-9.1 13.1z"/><path class="b" d="m132.6 255.1c0 0-22.7-12-12.8-38.2 1.9 2.1 12.6 12 12.6 12l3.7 7.1c0 0 3.8 5.3 5.6 6-0.8 2.4-2.6 7.9-9.1 13.1z"/><path class="c" d="m128.6 230.2c0 0-22.7-12-12.8-38.2 1.9 2.1 12.6 12 12.6 12l3.7 7.1c0 0 3.8 5.3 5.6 6-0.8 2.3-2.6 7.9-9.1 13.1z"/><path fill-rule="evenodd" class="b" d="m33.8 105.5q-0.9 0-1.8-0.3c-6.5-1.6-11.8-6.2-14.8-12.9-2.2-4.6-3-9.8-2.5-14.8-5.7-6.8-8.9-15-8.6-23.2 0.8-19.8 20-32.5 37.7-37.7 24.4-7.2 49.4-6.6 70.6 1.5q0.9 0.4 1.8 0.7c5.5-5.9 13.5-9.8 24.4-11.9 12.5-2.3 25.2-2 36-1.4 9.2 0.5 18.9 1.4 27.8 6 9.3 4.6 15.9 12.2 21.3 20.8 13.7-3.1 28.9 2.1 36.8 13.2 9.6 13.4 6.6 33.4-6.4 42.8-3.3 2.4-8 1.6-10.4-1.7-2.4-3.4-1.7-8.1 1.7-10.5 6.3-4.5 7.7-15.2 2.9-21.9-3.6-5.1-10.4-8-17.1-7.8 4.2 8.9 8.6 19.3 6.8 30.4-1.1 7.2-5.7 14.2-11.8 18.2-5.1 3.4-11 4.5-16.5 3.1-10-2.6-19.2-14.5-16.5-31.3 1.8-11.4 8-21.6 16.8-28.1-3.9-5.9-8.5-10.9-14.3-13.9-6.4-3.2-14.4-3.9-21.9-4.3-10.5-0.6-21.6-0.8-32.4 1.2q-5.4 1-9.3 2.7 7.7-0.3 16.5 1.5c4.4 1 11 2.7 16.6 6.9 7.5 5.5 11.8 14.5 11.8 24.7 0.1 10.7-4.6 20.7-12.6 26.6-7.1 5.4-16.4 7.5-26 6-6.2-1-12.1-3.4-16.9-7q-1.7 0.2-3.4 0.1c-6.2-0.3-12-3.2-16.3-8.2-4.9-5.5-7.3-12.6-6.8-19.6 0.6-8.2 4.8-15.9 11.4-21.5q0.2-0.9 0.5-1.8c-18.1-7-39.7-7.3-60.9-1.1-12.1 3.6-26.4 12-26.9 23.8-0.1 2.1 0.3 4.1 1 6.2 6.1-6.9 15.3-11.8 26.7-14.2 10.8-2.2 19.4-0.8 25.6 4.2 4.9 4 10.4 12 8.9 28-0.3 3-1.1 12.3-8.5 16.9-5.9 3.6-12.4 2.3-16.3 1.6-6.1-1.2-12.6-2.5-19.1-4.6 1.6 1.8 2.3 4.4 1.7 6.9-0.9 3.4-3.9 5.7-7.3 5.7zm185.5-53.4c-4.8 4.2-8.3 10.3-9.3 17-0.9 5.9 1.1 13.3 5.5 14.4q2.1 0.6 4.5-1c2.6-1.7 4.7-4.9 5.2-8 1.1-7-2.2-14.7-5.6-21.9q-0.2-0.3-0.3-0.5zm-187.5 20.8q0.9 0.6 1.7 1.1c8.1 4.9 18.1 6.9 27.8 8.7q4.7 0.9 5.6 0.4c0 0 1-0.7 1.5-5.5 0.4-4.2 0.4-11.8-3.4-14.9-3.2-2.6-9-2.1-13.2-1.2-4.5 0.9-14.9 3.8-20 11.4zm107.3 1.5q1.8 0.6 3.6 0.9c5.6 0.8 10.9-0.3 14.8-3.2 4-3.1 6.6-8.6 6.5-14.5 0-5.5-2.1-10.1-5.7-12.7-2.5-1.9-6-3.3-10.9-4.3q-2.8-0.6-5.5-0.9 2.1 3.6 3.2 7.6c2.5 8.7 0.3 19.2-5.6 26.6q-0.2 0.3-0.4 0.5zm-16.9-31.9q-0.1 1.9-0.1 4c0.1 5.3 1 12.8 4.9 18.9q0.5-0.4 0.8-0.8c2.9-3.7 4.1-9 2.9-13.2-1.1-3.9-3.5-7.2-6.3-9.9q-0.2 0.1-0.4 0.1-0.9 0.4-1.8 0.9z"/><path fill-rule="evenodd" class="a" d="m256.5 74.7c-2.2 4.1-4.6 6.9-7.6 8.8-3.8 2.6-8.1 3.5-11.4 3.9-8 1.1-15.8 0.6-22.9-1.4-2.7 6.8-6.7 13-11.9 18.2-12 12.1-29.6 17.9-46.4 16.1-3.1 4.6-7.3 8.6-12.2 11.6-7.1 4.5-15.4 6.7-23.7 6.7-11.2 0-22.3-4-30.4-11.5-11.1-10.2-15.7-26.4-12.8-40.9-2.5 3.6-5.9 6.7-10.5 8.6-9.4 3.9-21.3 0.7-28.1-7.6-5.9-7.1-8.1-17.5-5.5-27.3 2.4-9.6 9.1-17.9 18.7-23.5 4.4-2.6 9.3-4.5 14.3-5.7q-1.1-1.7-2.5-3.2c1.6-0.1 3.2-0.2 4.9-0.4 3.8-0.3 7.5-0.4 11.2-0.5q0.7 1.4 1.2 2.8c6.3 0.2 12 1.5 16.8 3.7 3.8-4.9 8-9.4 12.7-13.4 3.2-2.8 7.2-5.9 12.3-7.5 4.4-1.4 8.8-1.4 12.6-1.2 10.7 0.5 20.4 2.9 28.6 7q0 0 0 0c3.9 1.8 7.8 1.8 12.1 2 2.4 0.1 4.6 0.7 6.9 1.1q-3.6 2.2-7.1 5.1 1.4 1.3 2.7 2.7c2.7 2.9 4.9 6.3 6.6 9.9 2.6-5.5 7.4-8.7 12.1-9.1 5.9-0.5 11.3 2.7 15.1 8.6-2.4 1.7-4.4 4-6.4 6.1-1.4 1.5-2.8 2.9-3.9 4.6q-0.2-0.4-0.3-0.8c-1.3-2.9-2.7-4.3-3.2-4.5-0.7 0.6-1.5 2.7-1.4 5.2 0.2 4.7 2.2 9.5 5.5 13.5 1.2 4.5 8.5 5.7 9.5 0.3 0.8-3.8 3-7 5.6-9.9 1.3 6.5 1.5 13.2 0.5 19.7 5.4 1.5 11.3 1.9 17.4 1 1.8-0.2 4.1-0.6 5.5-1.6 1-0.7 2.1-2 3.2-4 7.3-13 4.3-31.2-6.8-42.3-7.5-7.3-18.1-11.5-29.1-11.6-3.4-3-8.4-4.8-12.5-6.1-4.4-1.4-9.1-2-13.7-2.2q3.4-1.6 6.9-2.8c20.3-6.7 43.7-1.6 58.2 12.8 15.5 15.3 19.4 40.7 9.2 59zm-186.5-30.4c-10.7 2.3-20.8 9-23.4 19.1-1.4 5.5-0.4 11.2 2.7 14.9 3 3.5 8.3 5.1 12 3.5 5.8-2.3 8.7-10.6 8.9-25.1 0.1-4 0.2-8.3-0.2-12.4zm19.9 0.7c-2-0.6-4-1.1-5.9-1.3 0.4 4.6 0.3 9.1 0.2 13.2v0.1q2.5-6.2 5.7-12zm10.3 52c1.8-2.1 3.1-5.4 3.9-10.4 1.1-6.1 1.3-12.4 0.6-18.6q-0.9-8.5-3.8-13.9c-3.1 6-5.5 12.3-7 18.8 1.5 2.2 1.7 5.2 0.2 7.7q-1.3 2.1-2.1 4.5-0.2 1.8-0.2 3.7c-0.2 5.3 1 9.3 2.9 10.2 1.4 0.7 3.9-0.2 5.5-2zm64.6-27.8c1.1 0.4 2.7 1 3.4 0.9 0.4 0 1.4-0.5 2.7-2.1 5.1-6.1 5.7-17.8-0.6-27-0.3-0.8-0.7-1.5-1.3-2q-0.4-0.3-0.7-0.5-0.1-0.1-0.1-0.2-1.1-1.2-2.3-2.2-0.1 0-0.1 0.1c-0.5-0.9-1.3-1.6-2.4-2-2.9-2.4-6.1-4.4-9.7-5.4q0 0 0 0c-7.1-2.7-14.3-3.6-19.1-3.8-2.6-0.2-5.4-0.2-7.7 0.5-2.7 0.9-5.2 2.9-7.4 4.8-3.8 3.3-7.4 7-10.5 11.1 5.3 6.1 8.5 14.5 9.6 25.1 0.8 7.5 0.6 15-0.6 22.4-0.9 4.9-2.5 12-7.4 17.5-3.9 4.3-9.2 6.7-14.3 6.8q1.4 2 3.2 3.6c9.6 8.9 25.9 10.3 37.2 3.3q2.5-1.6 4.6-3.6 0 0-0.1 0c-1.8-0.8-3.9-1.8-5.9-3.4-4.2-3.5-5.9-8.4-7.1-11.9-5.5-16.1 0.7-22.8 4.9-25.4 3.7-2.3 7.8-2.5 11.6-1.5-3.9-3.4-6.9-8-7.2-14.1-0.3-6.3 3-11.8 4.7-14.7q1.7-3 3.5-5.7c3 0.7 5.9 1.5 8.7 2.7 1.6 0.7 3.4 1.3 5 2q-2.6 3.8-5.1 8.1c-1.4 2.3-2.9 5-2.8 7 0.1 3.4 4.8 6.7 13.3 9.6zm-20.4 20.6c-1.5-1.5-3.1-2.1-3.8-2.1q-0.1 0-0.2 0.1c-0.2 0.3-1 2.8 1.1 8.8 0.7 2.1 1.6 4.7 2.8 5.7 0.5 0.5 1.5 0.9 2.3 1.3q0.8 0.3 1.6 0.6c1-5.3-0.5-10.9-3.8-14.4zm57.4-9.5c-6-3.8-10.8-9-14.1-15-1.2 4.4-3.2 8.3-6.1 11.7-3.5 4.2-7.6 6.6-12 7-3.7 0.4-7-0.7-9.3-1.5-1.4-0.5-3.3-1.1-5.6-2.1 6.4 6.8 9.1 16.6 7.3 26.2h0.2c11.3 0 22.8-4.3 30.6-12.2 3.9-4 6.9-8.8 9-14.1z"/><path class="a" d="m43.1 17q0.5-0.2 1-0.2 0.5-0.1 0.9-0.1c2.2-1 4.7-1.4 7.2-1.9q2.2-0.4 4.5-0.7c3.6-1 7.2-1.8 10.7-2-6.2-4.5-14.1-7.7-22.7-9.1-13.1-2-26.3 0.1-38 2-3.9 0.6-6.5 4.2-5.9 8 0.7 3.8 4.2 6.4 8.1 5.8 11.2-1.8 22.8-3.6 33.7-1.9q0.2 0 0.5 0.1z"/><path class="d" d="m168.8 249.7h-64.1v-57.8h64.1z"/><path class="e" d="m155.6 235.6v-55.3"/><path class="c" d="m183 212.8h-92.5l-60-94.7h212.5z"/><path class="f" d="m169.4 191.3l48.7-76.3"/><path class="d" d="m253 119.8h-232.4v-18.6h232.4z"/><path class="b" d="m56.7 59.6c7.6-5.6 18.7-4.1 26.8 0.9 1.5-4.1 3.2-8.1 4.5-12.2q0.4-1.2 1.2-1.9c-13.4-7.4-29.9-7.4-41.5 1.2-4.2 3.2-7.4 7.1-9.2 11.5-2.9 7.1-2.1 14.6-0.8 21.7 0.7 4.1 1.6 8.2 2.4 12.2 1.8 8.6 3.5 16.6 4.2 24.9 1.2 13.3-0.8 24.3-5.7 32.7-5.4 9.3-15.5 15.1-24.4 14.2-4.1-0.4-7.8 2.6-8.2 6.8-0.4 4.1 2.6 7.8 6.7 8.2q1.6 0.1 3.3 0.1c13.8 0 27.7-8.4 35.5-21.7 6.6-11.2 9.2-25.2 7.8-41.6-0.8-9.2-2.7-18.1-4.5-26.7-0.8-3.9-1.7-7.9-2.4-11.8-0.8-4.5-1.6-9.6 0-13.3 0.8-1.8 2.3-3.6 4.3-5.2z"/><path class="b" d="m100.3 55.1q-0.2-0.2-0.4-0.4 0 0 0 0 0 0.1 0 0.1c-1.2 4.4-3.1 8.6-5.1 12.7q0 0.1-0.1 0.1c-0.3 1.3-0.6 2.5-1.1 3.7 5.8 10.1 6.5 21.9 6 29.9h15.1c0.8-18.6-4.2-34.8-14.4-46.1z"/><path class="a" d="m247.9 77.4c-3.9-5.3-8.8-9.2-13.2-12.2-6.1-4.4-15.6-10.4-26.5-11.7-14.8-1.9-30.2 5.3-38.3 17.8-5.6 8.8-7.4 19.7-5.4 29.9h14.5c-2.4-7.4-1.5-15.9 2.7-22.3 5.1-8 15.3-12.7 24.7-11.5 6.1 0.7 12.3 3.6 20.2 9.2 3.4 2.4 7.3 5.4 9.9 9 6.4 9 5.8 22 4.4 35.6-1.1 12-2.4 25.6-9.4 35.5-2.2 3.2-1.4 7.6 1.8 9.8 1.2 0.8 2.6 1.2 4 1.2 2.2 0 4.4-1 5.7-3 9-12.9 10.6-29.1 11.9-42.2 1.2-12.4 3-31-7-45.1z"/></svg>