<?xml version="1.0" encoding="UTF-8" standalone="no"?>
<!-- Created with Inkscape (http://www.inkscape.org/) -->

<svg
   version="1.1"
   id="svg258"
   width="1921.3333"
   height="477.33334"
   viewBox="0 0 1921.3333 477.33334"
   sodipodi:docname="footer-bg.svg"
   inkscape:version="1.2.2 (732a01da63, 2022-12-09)"
   xmlns:inkscape="http://www.inkscape.org/namespaces/inkscape"
   xmlns:sodipodi="http://sodipodi.sourceforge.net/DTD/sodipodi-0.dtd"
   xmlns="http://www.w3.org/2000/svg"
   xmlns:svg="http://www.w3.org/2000/svg">
  <defs
     id="defs262" />
  <sodipodi:namedview
     id="namedview260"
     pagecolor="#ffffff"
     bordercolor="#000000"
     borderopacity="0.25"
     inkscape:showpageshadow="2"
     inkscape:pageopacity="0.0"
     inkscape:pagecheckerboard="0"
     inkscape:deskcolor="#d1d1d1"
     showgrid="false"
     inkscape:zoom="0.24032308"
     inkscape:cx="1154.6956"
     inkscape:cy="1054.83"
     inkscape:window-width="1280"
     inkscape:window-height="945"
     inkscape:window-x="-9"
     inkscape:window-y="-9"
     inkscape:window-maximized="1"
     inkscape:current-layer="g264" />
  <g
     inkscape:groupmode="layer"
     inkscape:label="Image"
     id="g264">
    <path
       style="fill:#2d3b77;stroke-width:1.33333;fill-opacity:1"
       d="M 0,238.66667 V 0 H 960.66669 1921.3333 V 238.66667 477.33334 H 960.66669 0 Z m 1598.4616,158.66667 4,-4 -3.8975,-3.89744 -3.8975,-3.89743 -3.9061,3.90614 -3.9061,3.90613 3.5728,3.83307 c 1.965,2.1082 3.6766,3.90428 3.8036,3.9913 0.1266,0.0871 2.0308,-1.64177 4.2308,-3.84177 z m 201.3333,-10.66667 4,-4 -3.8975,-3.89744 -3.8974,-3.89742 -3.9062,3.90613 -3.9061,3.90613 3.5728,3.83307 c 1.9651,2.1082 3.6767,3.90428 3.8036,3.99131 0.1267,0.0871 2.0308,-1.64178 4.2308,-3.84178 z M 120,242.71111 c 0,-3.39793 8.6465,-12.04444 12.04444,-12.04444 1.44222,0 2.62222,-0.6 2.62222,-1.33333 C 134.66666,228.6 133.48666,228 132.04444,228 128.6465,228 120,219.3535 120,215.95556 c 0,-1.44222 -0.6,-2.62222 -1.33334,-2.62222 -0.73333,0 -1.33333,1.18 -1.33333,2.62222 0,3.39794 -8.6465,12.04444 -12.04444,12.04444 -1.44223,0 -2.62223,0.6 -2.62223,1.33334 0,0.73333 1.18,1.33333 2.62223,1.33333 3.39794,0 12.04444,8.64651 12.04444,12.04444 0,1.44223 0.6,2.62223 1.33333,2.62223 0.73334,0 1.33334,-1.18 1.33334,-2.62223 z m 1710.6666,-1.33333 c 0,-3.39794 8.6466,-12.04444 12.0444,-12.04444 1.4423,0 2.6223,-0.6 2.6223,-1.33334 0,-0.73333 -1.18,-1.33333 -2.6223,-1.33333 -3.3978,0 -12.0444,-8.64651 -12.0444,-12.04444 0,-1.44223 -0.6,-2.62223 -1.3333,-2.62223 -0.7333,0 -1.3333,1.18 -1.3333,2.62223 0,3.39793 -8.6466,12.04444 -12.0444,12.04444 -1.4423,0 -2.6223,0.6 -2.6223,1.33333 0,0.73334 1.18,1.33334 2.6223,1.33334 3.3978,0 12.0444,8.6465 12.0444,12.04444 0,1.44222 0.6,2.62222 1.3333,2.62222 0.7333,0 1.3333,-1.18 1.3333,-2.62222 z M 409.12819,176 l 4,-4 -3.89742,-3.89744 -3.89744,-3.89742 -3.90614,3.90613 -3.90614,3.90613 3.57281,3.83307 c 1.96504,2.1082 3.67664,3.90428 3.80357,3.99131 0.12694,0.0871 2.03076,-1.64178 4.23076,-3.84178 z M 58.666662,137.37778 c 0,-3.39794 8.64651,-12.04444 12.04445,-12.04444 1.44222,0 2.62222,-0.6 2.62222,-1.33334 0,-0.73333 -1.18,-1.33333 -2.62222,-1.33333 -1.44222,0 -4.74222,-2.12 -7.33334,-4.71111 -2.59111,-2.59111 -4.71111,-5.89111 -4.71111,-7.33334 0,-1.44222 -0.6,-2.62222 -1.33333,-2.62222 -0.73333,0 -1.33333,1.18 -1.33333,2.62222 0,1.44223 -2.12,4.74223 -4.71111,7.33334 -2.59112,2.59111 -5.89112,4.71111 -7.33334,4.71111 -1.44222,0 -2.62222,0.6 -2.62222,1.33333 0,0.73334 1.18,1.33334 2.62222,1.33334 1.44222,0 4.74222,2.12 7.33334,4.71111 2.59111,2.59111 4.71111,5.89111 4.71111,7.33333 0,1.44222 0.6,2.62222 1.33333,2.62222 0.73333,0 1.33333,-1.18 1.33333,-2.62222 z"
       id="path376" />
    <path
       style="opacity:0.678082;fill:#ffffff;stroke:#ffffff;stroke-width:0;stroke-linejoin:round;stroke-dashoffset:4707.14;paint-order:markers fill stroke"
       d="m 405.14331,163.53567 c -2.27886,3.02544 -6.29635,5.4036 -7.61727,8.89878 2.33814,2.80819 4.57432,6.55121 7.60722,8.24941 2.66918,-3.16996 6.80133,-5.72727 8.63156,-9.2479 -2.93087,-2.41938 -5.35059,-6.34593 -8.62151,-7.90029 z"
       id="path459" />
    <path
       style="opacity:0.678082;fill:#ffffff;stroke:#ffffff;stroke-width:0;stroke-linejoin:round;stroke-dashoffset:4707.14;paint-order:markers fill stroke"
       d="m 57.162561,108.1158 c -2.477496,1.11576 -1.949596,4.89426 -4.206594,6.49522 -3.013968,3.85269 -6.946579,6.95479 -11.507795,8.62294 -1.536368,2.6421 3.261236,2.77322 4.692192,3.86898 5.071074,2.69529 8.165756,7.69869 10.29811,12.73903 2.965856,1.08759 2.78797,-3.89152 4.391927,-5.29991 3.112237,-4.31843 7.335506,-7.87333 12.27498,-9.77085 1.319124,-2.56585 -3.241933,-2.47433 -4.505423,-3.76841 -4.70319,-2.98488 -8.09519,-7.48063 -10.326845,-12.43301 -0.293005,-0.28501 -0.691567,-0.49407 -1.110552,-0.45399 z"
       id="path461" />
    <path
       style="opacity:0.678082;fill:#ffffff;stroke:#ffffff;stroke-width:0;stroke-linejoin:round;stroke-dashoffset:4707.14;paint-order:markers fill stroke"
       d="m 118.41965,213.11257 c -2.7059,1.49165 -2.10072,5.79569 -4.64765,7.73795 -2.88994,3.84473 -7.32227,5.75698 -11.48337,7.68479 -0.68146,3.21539 4.47423,2.70117 6.0829,4.45226 3.86822,2.9976 7.93083,6.5625 8.68184,11.57963 1.08233,2.38977 4.04468,0.74045 3.42504,-1.54874 2.39269,-6.03684 7.92858,-10.51035 13.87401,-12.67725 1.73082,-2.48292 -2.86507,-2.79358 -4.16781,-3.7684 -4.75503,-3.16825 -8.73047,-7.66261 -10.71187,-13.01056 -0.27033,-0.28488 -0.64899,-0.49636 -1.05309,-0.44968 z"
       id="path463" />
    <path
       style="opacity:0.678082;fill:#ffffff;stroke:#ffffff;stroke-width:0;stroke-linejoin:round;stroke-dashoffset:4707.14;paint-order:markers fill stroke"
       d="m 1590.3569,388.82187 c -1.0912,1.59698 -3.7925,2.80794 -3.7873,4.80311 2.3454,2.76585 4.6152,5.80899 7.607,7.88022 3.4397,-1.62101 5.794,-5.20762 8.7336,-7.61203 -1.2963,-2.99069 -4.821,-5.07298 -6.9625,-7.71973 -1.9021,-3.19188 -3.8753,1.73713 -5.5908,2.64843 z"
       id="path465" />
    <path
       style="opacity:0.678082;fill:#ffffff;stroke:#ffffff;stroke-width:0;stroke-linejoin:round;stroke-dashoffset:4707.14;paint-order:markers fill stroke"
       d="m 1791.6433,378.43343 c -2.1251,2.09166 -6.1143,4.71076 -1.8237,6.94215 2.2357,1.40903 4.0647,5.87848 6.6371,5.23329 2.4204,-2.86053 6.1377,-5.18085 7.7267,-8.38822 -2.8318,-2.47056 -5.2445,-5.95284 -8.3303,-7.81012 -1.4974,1.05938 -2.803,2.74241 -4.2098,4.0229 z"
       id="path467" />
    <path
       style="opacity:0.678082;fill:#ffffff;stroke:#ffffff;stroke-width:0;stroke-linejoin:round;stroke-dashoffset:4707.14;paint-order:markers fill stroke"
       d="m 1829.1945,211.47984 c -2.2601,0.94319 -1.6075,4.27013 -3.199,5.91651 -2.7568,3.84842 -6.3787,7.98963 -11.2296,8.88189 -2.5152,-0.27969 -2.3516,3.05737 -0.2245,3.454 5.1013,0.60935 8.4948,5.34304 11.578,8.97941 1.6401,1.51601 0.8245,5.31398 3.4154,5.70013 2.3973,-1.69671 1.5407,-5.58181 4.0808,-7.31538 3.0039,-3.23093 6.4776,-6.78379 10.9929,-7.62524 1.9746,-0.81565 1.0528,-3.83603 -1.1032,-3.25896 -5.3641,-1.52119 -9.596,-6.11424 -12.0342,-10.97663 -0.1581,-1.40838 -0.4404,-3.67973 -2.2766,-3.75573 z"
       id="path473" />
  </g>
</svg>
