<?xml version="1.0" encoding="UTF-8" standalone="no"?>
<svg
   version="1.2"
   viewBox="0 0 535 228"
   width="535"
   height="228"
   id="svg12"
   sodipodi:docname="_Group_.svg"
   inkscape:version="1.2.2 (732a01da63, 2022-12-09)"
   xmlns:inkscape="http://www.inkscape.org/namespaces/inkscape"
   xmlns:sodipodi="http://sodipodi.sourceforge.net/DTD/sodipodi-0.dtd"
   xmlns="http://www.w3.org/2000/svg"
   xmlns:svg="http://www.w3.org/2000/svg">
  <defs
     id="defs16" />
  <sodipodi:namedview
     id="namedview14"
     pagecolor="#ffffff"
     bordercolor="#000000"
     borderopacity="0.25"
     inkscape:showpageshadow="2"
     inkscape:pageopacity="0.0"
     inkscape:pagecheckerboard="0"
     inkscape:deskcolor="#d1d1d1"
     showgrid="false"
     inkscape:zoom="1.0350877"
     inkscape:cx="327.99153"
     inkscape:cy="140.5678"
     inkscape:window-width="1280"
     inkscape:window-height="945"
     inkscape:window-x="-9"
     inkscape:window-y="-9"
     inkscape:window-maximized="1"
     inkscape:current-layer="svg12" />
  <style
     id="style2">.a{fill:#080808}</style>
  <path
     fill-rule="evenodd"
     class="a"
     d="m182.4 0.4v63.2h-181.5v-63.2zm-20 39.8v-13.6c1.3-0.1 2.2-0.8 2.2-1.7 0-0.9-1-1.6-2.2-1.8v-5.4c0-0.4-0.3-0.8-0.7-0.8l-1.5 0.3q0.2 0.3 0.2 0.8v28.2c0 0.8-0.6 1.3-1.4 1.3h-14.4q-0.2 0.7-0.6 1.3h17.7c0.4 0 0.7-0.4 0.7-0.8v-4.2c1.3-0.2 2.2-0.9 2.2-1.8 0-0.8-1-1.6-2.2-1.8zm-5.8 4.5q-0.1 0.1-0.4 0.1h-12.8c0.6 0.4 1.1 1.1 1.2 1.9h14.4zm-28.6-1.2c0 0.2 0.1 0.4 0.3 0.4h27.9c0.2 0 0.3-0.2 0.3-0.4v-25.7q-0.1-0.1-0.3-0.2-0.4-0.2-0.8-0.2-0.1 0-0.3-0.1h-0.3c-2.6 0-5.8 0.2-8.1 1.1-2.4 1-4 2.5-4 5.2h-0.9c0-2.8-1.6-4.3-4-5.2-2.4-0.9-5.5-1.1-8.1-1.1h-0.1c-0.2 0-0.3 0.1-0.5 0.1q-0.6 0-1.1 0.4zm0.3 1.3q-0.3 0-0.6-0.2l-2.4 2q0.1 0 0.2 0h13.7c0.1-0.7 0.6-1.4 1.3-1.8h-12.2zm11.4 3.9c-0.3-0.4-0.5-0.8-0.6-1.2h-13.7c-0.8 0-1.4-0.6-1.4-1.4v-28.2q0-0.3 0.1-0.6l-2.3-0.5c-0.4 0-0.8 0.4-0.8 0.8v5.4c-1.2 0.2-2.1 0.9-2.1 1.8 0 0.9 1 1.6 2.1 1.8v13.6c-1.2 0.1-2.1 0.9-2.1 1.7 0 0.9 1 1.7 2.1 1.8v4.2c0 0.5 0.4 0.8 0.8 0.8zm-25.6-6.8c0-0.8-0.9-1.6-2.1-1.7v-13.6c1.2-0.2 2.1-0.9 2.1-1.8 0-0.9-0.9-1.6-2.1-1.8v-5.4c0-0.4-0.3-0.8-0.8-0.8l-1.5 0.3q0.3 0.4 0.3 0.9v28.2c0 0.8-0.7 1.3-1.4 1.3h-14.5q-0.1 0.7-0.5 1.2h17.6c0.5 0 0.8-0.3 0.8-0.8v-4.2c1.2-0.2 2.1-0.9 2.1-1.7zm-7.7 2.7q-0.3 0.1-0.6 0.1h-12.8c0.6 0.4 1.1 1.1 1.2 1.9h14.5zm-14.1-0.8h13.5c0.2 0 0.4-0.1 0.4-0.3v-25.7l-0.1-0.1c0 0-0.2-0.1-0.3-0.2q-0.4-0.2-0.8-0.2l-3.2-0.1c-2 0-4.5 0.2-6.3 1-1.9 0.8-3.2 2-3.2 4.5zm-14.7-26.1v25.7c0 0.2 0.2 0.3 0.4 0.3h13.5v-21.1c0-2.4-1.3-3.7-3.1-4.5-1.9-0.8-4.3-0.9-6.3-0.9h-3.3q-0.3 0.1-0.7 0.2c-0.2 0.1-0.4 0.2-0.5 0.3zm0.4 26.9q-0.4 0-0.7-0.2l-2.4 2.1q0.1 0 0.2 0h13.7c0.1-0.8 0.6-1.5 1.2-1.9h-12zm11.2 4q-0.4-0.6-0.5-1.2h-13.7c-0.8 0-1.4-0.6-1.4-1.4v-28.2q0-0.4 0.1-0.7l-2.3-0.4c-0.4 0-0.7 0.3-0.7 0.8v5.4c-1.3 0.1-2.2 0.9-2.2 1.7 0 0.9 1 1.6 2.2 1.8v13.6c-1.3 0.2-2.2 0.9-2.2 1.8 0 0.9 1 1.6 2.2 1.7v4.3c0 0.4 0.3 0.8 0.7 0.8zm-27.6-8.6v-13.6c1.2-0.2 2.1-0.9 2.1-1.8 0-0.8-0.9-1.5-2.1-1.7v-5.4c0-0.5-0.3-0.8-0.8-0.8l-1.5 0.3q0.3 0.3 0.3 0.8v28.2c0 0.8-0.7 1.4-1.4 1.4h-14.5q-0.1 0.6-0.5 1.2h17.6c0.5 0 0.8-0.4 0.8-0.8v-4.2c1.2-0.2 2.1-0.9 2.1-1.8 0-0.9-0.9-1.6-2.1-1.8zm-5.7 4.5q-0.2 0.1-0.5 0.1h-12.8c0.6 0.4 1.1 1.1 1.2 1.9h14.5zm-14-0.8h13.5c0.2 0 0.3-0.1 0.3-0.3v-25.8q-0.2-0.1-0.4-0.2c-0.3-0.2-0.7-0.2-0.7-0.2l-3.3-0.1c-2 0-4.4 0.2-6.3 0.9-1.8 0.8-3.1 2.1-3.1 4.5zm-14.7-0.3c0 0.2 0.1 0.3 0.3 0.3h13.6v-21.2c0-2.4-1.3-3.6-3.1-4.4-1.9-0.8-4.3-1-6.3-1l-3.2 0.1q-0.4 0-0.7 0.1c-0.3 0.1-0.6 0.3-0.6 0.3zm0.3 1.3c-0.2 0-0.5-0.1-0.7-0.2l-2.4 2q0.1 0.1 0.3 0.1h13.8c0.1-0.8 0.5-1.5 1.2-1.9zm11.4 3.9q-0.4-0.5-0.5-1.2h-13.8c-0.7 0-1.4-0.5-1.4-1.3v-28.2q0-0.4 0.2-0.7l-2.4-0.4c-0.4 0-0.7 0.3-0.7 0.7v5.4c-1.2 0.2-2.2 0.9-2.2 1.8 0 0.9 1 1.6 2.2 1.8v13.6c-1.2 0.1-2.2 0.9-2.2 1.8 0 0.8 1 1.6 2.2 1.7v4.2c0 0.5 0.3 0.8 0.7 0.8zm-14.8-3l2.3-1.9q-0.1-0.1-0.1-0.3v-25.8c0-0.1 0-0.2 0.1-0.3h-1.7c-0.3 0-0.6 0.4-0.6 0.6zm17.8 3c0.6-0.3 1-0.9 1-1.7 0-1-0.8-1.9-1.8-1.9-1 0-1.9 0.9-1.9 1.9 0 0.7 0.4 1.4 1.1 1.7zm14.7-31.3q0 0.1 0.1 0.4v25.7q0 0.3-0.1 0.5l2.3 2v-28.1c0-0.2-0.3-0.5-0.6-0.5h-1.7zm18 28.3l2.3-1.9q-0.1-0.2-0.1-0.4v-25.8q0-0.2 0.1-0.3h-1.7c-0.3 0-0.6 0.4-0.6 0.6zm17.7 2.9c0.6-0.3 1-0.9 1-1.7 0-1-0.8-1.8-1.8-1.8-1.1 0-1.9 0.8-1.9 1.8 0 0.8 0.5 1.4 1.1 1.7zm16.3-31.2h-1.7c0.1 0.1 0.1 0.2 0.2 0.3v25.8q-0.1 0.2-0.2 0.5l2.3 1.9v-28c0-0.2-0.2-0.6-0.6-0.6zm16.3 0.4v27.9l2.3-1.9q0-0.2 0-0.4v-25.8q0-0.2 0.1-0.4l-1.7 0.1c-0.4 0.1-0.6 0.3-0.6 0.6zm17.7 30.8c0.6-0.3 1.1-0.9 1.1-1.7 0-1-0.9-1.8-1.9-1.8-1 0-1.8 0.8-1.8 1.8 0 0.8 0.4 1.4 1 1.7zm14.7-31.3q0.1 0.2 0.2 0.4v25.8c0 0.2-0.1 0.4-0.2 0.6l2.3 1.9v-28.1c0-0.3-0.3-0.6-0.6-0.6h-1.7zm-108.4 19.6c1.3 0 2.7-0.4 3.5-3.3h0.4l-0.5 3.9h-8v-0.5c0.7-0.1 1.2-0.1 1.2-1.3v-9c0-1.3-0.6-1.3-1.2-1.3v-0.5h7.8v3.7h-0.3c-0.3-2.6-1.3-3.1-3.1-3.1-0.7 0-1 0.1-1 0.9v4.3c1.3 0 2-0.4 2.2-2.8h0.4v6.3h-0.4c-0.1-2.3-0.8-2.8-2.2-2.8v4.5c0 0.8 0.3 1 1.2 1zm99.9-0.3c-0.3 0-0.4 0.3-0.4 0.6h-0.4v-4.7h0.4c0.2 1.9 1 4 2.8 4 1.7 0 1.7-1.8 1.7-2.1 0-1.3-0.6-1.7-1.5-2.3l-0.9-0.6c-2.3-1.5-2.3-3.1-2.3-4 0-1.2 0.4-3.7 3-3.7 1 0 1.7 0.6 2.1 0.6 0.3 0 0.3-0.3 0.4-0.6h0.4v4h-0.4c-0.2-1.3-1-3.4-2.6-3.4-0.7 0-1.5 0.6-1.5 1.7 0 1 0.3 1.5 1.4 2.2l2 1.4c0.5 0.4 1.5 1.4 1.5 3.5 0 1.6-0.9 3.9-3.4 3.9-1.3 0-1.9-0.6-2.3-0.6zm-118.7-10.2c-0.4-1.1-0.6-1.2-1.2-1.3v-0.5h4.7v0.5c-0.9 0.1-1.2 0.1-1.2 0.8 0 0.3 0.3 1.1 0.4 1.6l1.8 5.9 1.7-6.1c0.1-0.5 0.3-1 0.3-1.3 0-0.8-0.4-0.8-1.2-0.9v-0.5h2.9v0.5c-0.8 0.1-0.9 0.5-1.2 1.5l-3.1 11h-0.4l-3.5-11.2zm54.3 10.8h-4.6v-0.5c0.9-0.1 1.2-0.2 1.2-1.7v-8.3c0-1.6-0.4-1.6-1.2-1.7v-0.5h4.4c0.9 0 3.8 0.2 3.8 3.3 0 2.3-1.4 2.9-2.1 3.2l2.7 5.4c0.2 0.3 0.4 0.3 0.5 0.3v0.5h-2.7l-2.8-5.9h-0.4v3.7c0 1.5 0.3 1.5 1.2 1.7zm-1.2-6.5c1.8 0.1 2.5-0.4 2.5-2.8 0-1.9-0.6-2.7-1.7-2.7-0.7 0-0.8 0.2-0.8 0.8zm48.8-5.7c-1 0.1-2.4 0.2-2.6 3.2h-0.5l0.1-3.8h8.1l0.1 3.8h-0.4c-0.3-3-1.7-3.1-2.6-3.1v9.8c0 1.6 0.3 1.6 1.3 1.7v0.6h-4.9v-0.5c1-0.1 1.4-0.2 1.4-1.7zm8.2 12h-2.7v-0.5c0.7-0.1 0.9-0.7 1.3-2.2l3-10.2h0.4l3 9.8c0.6 2 0.8 2.7 1.5 2.6v0.5h-4.4v-0.4c0.8-0.1 1.1-0.1 1.1-0.7 0-0.6-0.5-1.9-0.6-2.6h-3.1c-0.4 1.4-0.6 2.2-0.6 2.5 0 0.7 0.7 0.8 1.1 0.8zm-0.3-4.3h2.6l-1.3-4.6zm-43.3-8.2h4.8v0.5c-0.6 0.1-1.3 0.1-1.3 1.3v9.1c0 1.2 0.6 1.2 1.3 1.3v0.5h-4.8v-0.5c0.8-0.1 1.3-0.2 1.3-1.3v-9.1c0-1.2-0.7-1.2-1.3-1.3zm85.8 44.8v2.9c-0.1 107.8-89.2 154.2-89.5 154.3l-1.3 0.8-1.4-0.8c-0.3-0.1-89.3-46.5-89.4-154.3v-2.9h57.3c-1.1 1.7-1.9 3.7-2.2 5.8-1 5.9 1.8 12.1 12.6 12.7 0.2 8.8 2.3 12.4 13.5 12.6-1 9.4 3.9 12.4 9.2 12.4 5.3 0 10.2-3 9.2-12.4 11.2-0.2 13.4-3.8 13.5-12.6 10.8-0.6 13.7-6.8 12.7-12.7-0.4-2.1-1.1-4.1-2.3-5.9zm-132.5 98.9c-1.3 0.7-5.6 0.8-4.8 3.3 0.6 1.1 1.4 3.5 2.6 2.4 1.2-1 3.2-3.7 4-3.9 0.7-0.1 0.6 1.1 0.3 1.5-0.5 0.5-1.8 2.4-2.6 3.4-1 1.1-1.3 3.1 0.4 3.9 1.7 0.8 3.5-0.2 3.5-1.1-0.1-1.4 0.8-5.4 1.5-5.4 0.6 0 0.6 1.1 0.5 2.2 0.3 2.3-1.3 4.2-1.1 5.4 0.2 1.2 0.4 2.3 2.5 2.4 2.1 0 2.3-1.3 2.5-2.4 0.2-1.2-1.4-3.1-1.1-5.4-0.1-1.1-0.1-2.2 0.5-2.2 0.8 0 1.6 4 1.5 5.4 0 0.9 1.7 1.9 3.5 1.1 1.7-0.8 1.4-2.8 0.4-3.9-0.8-1-2.1-2.9-2.6-3.4-0.3-0.4-0.4-1.6 0.3-1.5 0.9 0.2 2.9 2.9 4.1 3.9 1.2 1.1 1.9-1.3 2.5-2.4 0.9-2.5-3.4-2.6-4.7-3.3-2.2-1.2-3.8-4.4-4.2-6.7-0.5-2.9-1.1-4.2-2.6-4.1-1.6 0.1-2.1 1.2-2.7 4.1-0.4 2.3-2 5.5-4.2 6.7zm19.6-31.6c1-7.1-4.7-11.3-12.9-11.3 0.9-9.9-5.3-12.8-12.8-12.2 1-9.9-4.1-13.2-12.9-12.8 1.1-11.6-6.7-13-12.8-12.6 0.9-8.7-5.2-12.2-9.4-12.7h-1.9q-0.1 0-0.1 0c0.6 39.9 13.9 70.9 29.9 93.9 7.2-1.4 8.3-7 7.8-12 9.8 1.1 13.7-6 12.3-12.6 3.8 1.3 11.8-0.6 12.8-7.7zm-0.8 46.3c-7.9-2.7-13.9 1.7-13.9 8.2 16.5 17.2 32.1 26.8 36.7 29.4 4.6-2.7 20.5-12.4 37.3-29.9-0.4-6.3-6.2-10.3-13.8-7.7 2.1-11.5-6.7-14.7-13.4-12.8 0.8-7.5-3.7-12.4-9.8-12.4-6.1 0-10.6 4.9-9.8 12.4-6.6-1.9-15.5 1.3-13.3 12.8zm56.8-10.6q-0.1 0-0.1 0 0 0 0 0zm-0.1 0c0.6 0.1 0.6 1.1 0.5 2.2 0.3 2.3-1.3 4.2-1.1 5.4 0.2 1.2 0.5 2.3 2.5 2.4 2.1 0 2.3-1.3 2.5-2.4 0.2-1.2-1.4-3.1-1.1-5.4 0-1.1-0.1-2.2 0.5-2.2 0.8 0 1.6 4 1.6 5.4-0.1 0.9 1.7 1.9 3.4 1.1 1.7-0.8 1.4-2.8 0.5-4-0.8-0.9-2.2-2.8-2.7-3.3-0.3-0.5-0.4-1.6 0.4-1.5 0.8 0.2 2.8 2.9 3.9 3.9 1.2 1.1 2-1.3 2.6-2.4 0.9-2.5-3.4-2.6-4.7-3.3-2.2-1.2-3.8-4.5-4.2-6.7-0.6-2.9-1.2-4.2-2.7-4.1-1.5 0.1-2.1 1.2-2.6 4.1-0.4 2.2-2.1 5.5-4.2 6.7-1.3 0.7-5.6 0.8-4.7 3.3 0.6 1.1 1.3 3.5 2.5 2.4 1.3-1 3.3-3.7 4.1-3.9 0.7-0.1 0.6 1 0.3 1.5-0.4 0.5-1.8 2.4-2.6 3.3-1 1.1-1.3 3.2 0.4 4 1.8 0.8 3.5-0.2 3.5-1.1-0.1-1.4 0.7-5.3 1.4-5.4zm2-46.9c-8.2 0-13.9 4.2-13 11.3 1 7 9.1 8.9 12.8 7.6-1.4 6.7 2.5 13.8 12.3 12.6-0.5 4.8 0.6 10.2 7.2 11.8 16-22.9 29.3-53.7 29.9-93.6h-1.4c-4.2 0.4-10.3 4-9.4 12.6-6.1-0.3-13.9 1-12.7 12.6-8.9-0.3-14 2.9-13 12.9-7.4-0.6-13.7 2.2-12.7 12.2zm5.3 35.5c-1.4-0.2-0.7 1.3-0.5 2.5 0.1 1.3 0.4 1.4 1.8-0.4 1.3-1.7 0.2-1.9-1.3-2.1zm-12.2-63.8c-1.3 0.7-5.6 0.8-4.7 3.3 0.6 1.2 1.3 3.5 2.5 2.5 1.2-1.1 3.3-3.8 4-4 0.8-0.1 0.7 1.1 0.4 1.5-0.4 0.6-1.8 2.5-2.6 3.4-1 1.1-1.3 3.2 0.4 4 1.8 0.8 3.5-0.3 3.5-1.2-0.1-1.3 0.7-5.3 1.5-5.3 0.6 0 0.6 1 0.5 2.1 0.3 2.4-1.3 4.2-1.1 5.4 0.2 1.2 0.4 2.4 2.5 2.4 2 0.1 2.3-1.1 2.5-2.4 0.2-1.2-1.4-3-1.1-5.4-0.1-1.1-0.1-2.1 0.5-2.1 0.8 0 1.6 4 1.5 5.3 0 1 1.7 2.1 3.5 1.2 1.7-0.9 1.4-2.9 0.4-4.1-0.8-0.9-2.1-2.8-2.6-3.3-0.3-0.4-0.4-1.6 0.3-1.5 0.8 0.2 2.8 2.9 4 4 1.2 1 2-1.3 2.6-2.5 0.8-2.5-3.4-2.6-4.8-3.3-2.1-1.2-3.8-4.4-4.1-6.7-0.6-2.9-1.2-4.2-2.7-4.1-1.5 0.1-2.2 1.2-2.7 4.1-0.3 2.3-2 5.5-4.1 6.7zm1.5-7.4c-1.4 0.1-2.5 0.3-1.2 2.1 1.3 1.8 1.6 1.6 1.8 0.4 0.1-1.2 0.8-2.7-0.6-2.5zm11.9 2.3c1.3-1.8 0.2-2-1.2-2.2-1.4-0.1-0.7 1.3-0.6 2.5 0.2 1.3 0.5 1.4 1.8-0.3zm-11.9 68.8c-1.4 0.1-2.5 0.3-1.2 2.1 1.3 1.8 1.7 1.7 1.8 0.4 0.1-1.3 0.8-2.7-0.6-2.5zm-36.9-28.3c-1.3 0.7-5.6 0.9-4.7 3.4 0.6 1.2 1.4 3.5 2.5 2.4 1.2-1 3.2-3.8 4-3.9 0.8-0.1 0.7 1.1 0.3 1.5-0.4 0.5-1.8 2.5-2.5 3.4-1 1.1-1.3 3.1 0.4 3.9 1.7 0.8 3.5-0.2 3.4-1.1 0-1.4 0.8-5.4 1.5-5.4 0.6 0 0.6 1 0.6 2.1 0.2 2.4-1.3 4.3-1.1 5.5 0.1 1.2 0.4 2.3 2.5 2.3 2 0.1 2.3-1.1 2.4-2.3 0.2-1.2-1.3-3.2-1.1-5.5 0-1.1 0-2.1 0.6-2.1 0.7 0 1.6 4 1.5 5.4 0 0.9 1.7 1.9 3.5 1.1 1.7-0.8 1.4-2.8 0.4-3.9-0.8-1-2.2-2.9-2.6-3.4-0.3-0.4-0.4-1.6 0.3-1.5 0.8 0.2 2.8 2.9 4 3.9 1.2 1.1 2-1.2 2.6-2.4 0.8-2.5-3.5-2.7-4.8-3.4-2.1-1.1-3.8-4.3-4.2-6.6-0.5-2.9-1.1-4.3-2.6-4.2-1.5 0.1-2.1 1.3-2.7 4.2-0.3 2.2-2 5.5-4.1 6.6zm1.7-7.4c-1.5 0.2-2.6 0.4-1.3 2.2 1.2 1.8 1.6 1.6 1.7 0.4 0.1-1.3 0.8-2.7-0.6-2.6zm10.6 0.2c-1.4-0.2-0.7 1.3-0.6 2.5 0.2 1.3 0.5 1.4 1.8-0.4 1.3-1.7 0.2-2-1.3-2.1zm-35.2 35.6c-1.4-0.2-0.7 1.3-0.6 2.5 0.2 1.3 0.5 1.4 1.9-0.4 1.3-1.7 0.2-1.9-1.3-2.1zm-10.7-0.1c-1.4 0.1-2.6 0.3-1.2 2.1 1.3 1.8 1.6 1.7 1.8 0.4 0.1-1.3 0.8-2.7-0.6-2.5zm6.2-70.6c-0.5-2.9-1.1-4.1-2.6-4.1-1.5 0.1-2.2 1.2-2.7 4.1-0.4 2.3-2 5.6-4.1 6.7-1.3 0.7-5.7 0.8-4.8 3.3 0.6 1.2 1.4 3.5 2.6 2.5 1.2-1.1 3.2-3.8 3.9-4 0.8-0.1 0.7 1.1 0.4 1.5-0.5 0.6-1.8 2.5-2.6 3.4-1 1.1-1.3 3.2 0.4 4 1.8 0.8 3.6-0.2 3.5-1.1-0.1-1.4 0.8-5.4 1.5-5.4 0.7 0 0.7 1 0.6 2.2 0.3 2.3-1.3 4.2-1.1 5.4 0.2 1.2 0.4 2.3 2.5 2.3 2 0.1 2.3-1.1 2.5-2.3 0.2-1.3-1.4-3.1-1.1-5.4-0.1-1.2 0-2.2 0.5-2.2 0.8 0 1.6 4 1.6 5.4-0.1 0.9 1.7 1.9 3.4 1.1 1.7-0.8 1.4-2.8 0.5-4-0.9-0.9-2.2-2.9-2.6-3.4-0.4-0.4-0.5-1.6 0.3-1.5 0.8 0.2 2.8 2.9 3.9 4 1.2 1 2-1.3 2.6-2.5 0.9-2.5-3.4-2.6-4.8-3.3-2.1-1.1-3.7-4.3-4.1-6.7zm2.3 2c0.1 1.3 0.5 1.4 1.8-0.4 1.3-1.7 0.2-2-1.3-2.1-1.3-0.2-0.7 1.3-0.5 2.5zm-10.1-2.7c-1.5 0.2-2.7 0.4-1.3 2.2 1.3 1.8 1.6 1.6 1.8 0.4 0.1-1.3 0.9-2.7-0.5-2.6zm226 22.7c0 8.2-5.6 13.8-18.1 13.8h-23.3v-51h22.7c10.8 0 16.6 4.9 16.6 13.3 0 6-3.5 10.1-8.9 11.5 7.1 1.5 11 6.3 11 12.4zm-27.4-16h5.5c3.6 0 5.9-1.3 5.9-4.8 0-3.5-2.3-4.9-5.9-4.9h-5.5zm0 18.1h7.4c3.5 0 5.5-1.5 5.5-4.5 0-2.9-2-4.5-5.5-4.5h-7.4zm55.1 4.2c-1.1 5.3-5.2 8.5-12 8.5-7.3 0-12.4-4.5-12.4-13.9v-27.2h14v24.2c0 4 1.1 6.4 4.3 6.4 3.7 0 5.9-3.3 5.9-9.8v-20.8h13.9v40h-12.5zm28.1-6.3c0.5 3 3.2 5.1 6.3 5 2.5 0 4.2-0.9 4.2-2.6 0-1.8-1.5-2.5-4.3-3.2l-5.4-1.1c-7.3-1.5-11.1-5.3-11.1-11.8 0-9.7 8.3-13.5 17.2-13.5 9.7 0 15.5 4 16.8 11.4l-12.7 1.9c-0.4-2.3-1.8-3.6-4.5-3.6-2 0-3.4 1-3.4 2.6 0 1.5 1.2 2.3 3.2 2.6l5.4 1c8.8 1.5 12.5 6.2 12.5 13 0 9.4-8.2 13-18.1 13-9 0-15.1-3.2-17.3-10.3zm35.3-43.6c4.2 0 7.7 2.9 7.7 7.4 0 4.5-3.5 7.3-7.7 7.3-4.1 0-7.7-2.8-7.7-7.3 0-4.5 3.6-7.4 7.7-7.4zm7 17.3v40h-13.9v-40zm20 7.7c2-6 6.7-8.6 12.7-8.6 6.1 0 11.7 3.6 11.7 12.8v28.1h-13.9v-22.8c0-4-1.2-6.5-4.8-6.5-3 0-5.6 1.8-5.6 7.9v21.4h-14v-40h12.6zm54.4 17.8l11.6 3.7c-2.3 8.6-9.3 11.8-17.3 11.8-11.9 0-20.5-7.5-20.5-20.6 0-13.5 7.6-21.4 20.2-21.4 11.9 0 17.9 7.7 17.9 18.7l-0.1 5.1h-24.5c0.2 4.9 2.7 7.6 6.8 7.6 2.9 0 5-1.3 5.9-4.8zm-1.4-9.9c0-3.5-1.1-6.5-5.1-6.5-3.4 0-5.5 2.8-5.9 6.5z"
     id="path4"
     style="fill:#fcec52;fill-opacity:1" />
  <path
     class="a"
     d="m472.9 112.4c0.6 3 3.3 5.1 6.3 5 2.6 0 4.3-0.9 4.3-2.6 0-1.8-1.5-2.5-4.3-3.2l-5.4-1.1c-7.3-1.5-11.1-5.3-11.1-11.8 0-9.7 8.3-13.5 17.2-13.5 9.7 0 15.5 3.9 16.8 11.4l-12.7 1.9c-0.4-2.3-1.8-3.6-4.5-3.6-2 0-3.4 1-3.4 2.6 0 1.5 1.1 2.3 3.2 2.6l5.4 1c8.8 1.5 12.5 6.2 12.5 13 0 9.4-8.2 13-18.1 13-9 0-15.1-3.2-17.3-10.3z"
     id="path6"
     style="fill:#fcec52;fill-opacity:1" />
  <path
     fill-rule="evenodd"
     class="a"
     d="m510 112.4c0.6 3 3.2 5.1 6.3 5 2.5 0 4.2-0.9 4.2-2.6 0-1.8-1.4-2.5-4.3-3.2l-5.4-1.1c-7.2-1.5-11-5.3-11-11.8 0-9.7 8.3-13.5 17.2-13.5 9.6 0 15.4 4 16.8 11.4l-12.8 1.9c-0.4-2.3-1.8-3.6-4.5-3.6-1.9 0-3.3 1-3.3 2.6 0 1.5 1.1 2.3 3.2 2.6l5.3 1c8.9 1.5 12.6 6.2 12.6 13 0 9.4-8.2 13-18.1 13-9.1 0-15.1-3.2-17.3-10.3zm-247.1 75.4c-1.6-1.4-2.2-3.3-2.8-5.7l-1.6-6.3c-0.8-3.6-2.3-4.3-5.6-4.3h-4.4v16.3h-14.1v-50.9h21.8c11.4 0 19.3 4.4 19.3 16 0 8-5.2 12-10.8 13 4.6 0.9 7 3 8.2 7.4l2.4 8.7c0.6 2.4 1.3 4.1 3.1 5.8zm-14.4-27.7h5.5c4.9 0 7.1-2 7.1-5.7 0-3.6-2.2-5.6-7.1-5.6h-5.5zm55.4 13.3q0 0 0 0.1l-0.1-0.1zm11.5 3.7c-2.3 8.5-9.3 11.8-17.3 11.8-11.8 0-20.5-7.5-20.5-20.6 0-13.5 7.6-21.4 20.2-21.4 11.9 0 17.9 7.7 17.9 18.7l-0.1 5.1h-24.4c0.2 4.9 2.7 7.6 6.8 7.6 3 0 4.9-1.3 5.9-4.8zm-13-13.6c0-3.5-1.1-6.5-5.1-6.5-3.4 0-5.5 2.8-5.9 6.5zm12.2-15.6h14.8l4.6 16.1 2.6 9.8h0.2c0 0 0.8-4.1 2.7-9.8l5.1-16.1h13.6l-14.5 40h-15.1zm53.5-17.3c4.2 0 7.7 2.8 7.7 7.3 0 4.5-3.5 7.4-7.7 7.4-4.1 0-7.7-2.9-7.7-7.4 0-4.5 3.6-7.3 7.7-7.3zm7 17.3v39.9h-13.9v-39.9zm30.6 25.5q0 0 0 0h-0.1zm11.6 3.6c-2.4 8.6-9.4 11.9-17.3 11.9-11.9 0-20.6-7.5-20.6-20.6 0-13.5 7.7-21.4 20.3-21.4 11.8 0 17.9 7.6 17.9 18.7l-0.2 5h-24.4c0.3 5 2.7 7.6 6.9 7.6 2.8 0 4.9-1.2 5.8-4.8zm-12.9-13.5c0-3.5-1.1-6.5-5.1-6.5-3.4 0-5.5 2.7-5.9 6.5zm50.7-15.7l2.8 13.9 2.3 12.6h0.2l2.5-12.4 3.2-14.1h13.6l-10.8 40h-15.6l-2.4-11.7-2.2-12.8h-0.2l-2.1 12.8-2.5 11.7h-15.5l-11-40h14.1l3.2 14.1 2.5 12.4h0.2l2.3-12.5 2.9-13.9zm-135.7-96.7c0 2 0.5 2.9 2 2.9 0.8 0 1.7-0.3 2.5-0.7v9.8c-1.9 1.4-3.8 1.9-7 1.9-5.3 0-8.3-2.4-9.8-6.3-2.4 4.2-5.8 6.5-11.6 6.5-7.4 0-11.9-4.3-11.9-11.2 0-8.5 6.1-12.8 18.1-12.8h4.1v-2.7c0-2.6-0.9-4.4-3.4-4.4-2.4 0-3.5 1.4-3.7 4.7l-13.3-2.1c0.7-8.2 7.2-13.4 17.5-13.4 11.4 0 16.4 5.1 16.4 13.8zm-13.5-2.9h-1.8c-5 0-6.7 1.6-6.7 4.2 0 1.9 1.3 3.4 3.7 3.4 2.3 0 4.8-1.2 4.8-5zm47.6-8.2c-1.7-0.6-2.6-1-4.9-1-3.3 0-7.3 1.3-7.3 8.4v16.9h-13.9v-40h11.9l1.4 9.8c1.2-6.6 6.8-9.8 13.6-9.8z"
     id="path8"
     style="fill:#fcec52;fill-opacity:1" />
  <path
     fill-rule="evenodd"
     class="a"
     d="m355.4 24.4h14.7l4.6 16.1 2.6 9.7h0.2c0 0 0.9-4 2.7-9.7l5.2-16.1h13.5l-14.5 40h-15zm77.2 26.8c0 1.9 0.6 2.9 2 2.9 0.9-0.1 1.7-0.3 2.5-0.8v9.9c-1.9 1.4-3.7 1.9-6.9 1.9-5.4 0-8.3-2.4-9.9-6.3-2.3 4.1-5.8 6.5-11.6 6.5-7.3 0-11.9-4.4-11.9-11.2 0-8.6 6.1-12.9 18.2-12.9h4v-2.7c0-2.6-0.8-4.4-3.4-4.4-2.4 0-3.5 1.5-3.7 4.8l-13.3-2.1c0.8-8.2 7.2-13.4 17.5-13.4 11.4 0 16.4 5 16.4 13.7zm-13.5-2.8h-1.8c-5 0-6.7 1.5-6.7 4.2 0 1.9 1.2 3.3 3.7 3.3 2.3 0 4.8-1.1 4.8-4.9zm47.5-8.2c-1.6-0.6-2.5-1.1-4.8-1.1-3.3 0-7.3 1.3-7.3 8.4v16.9h-13.8v-40h11.9l1.4 9.9c1.1-6.7 6.7-9.9 13.6-9.9zm30.4-29.2h14v53.5h-12.7l-1.3-7c-1.4 5.4-6.2 8-12.2 8-9.4 0-16.1-7.3-16.1-20.3 0-13.4 6.4-21.7 17.7-21.7 5.1 0 9.2 2.3 10.6 6.1zm0 30.7c0-5.1-2.5-7.9-6.5-7.9-4.1 0-7.6 3-7.6 11 0 6.6 2.8 10 7.4 10 3.5 0 6.8-2.6 6.8-8.1zm-262.7 22.9v-51h14.2v18.9h17.5v-18.9h14.2v51h-14.2v-19.8h-17.5v19.8z"
     id="path10"
     style="fill:#fcec52;fill-opacity:1" />
</svg>
