<svg version="1.2" xmlns="http://www.w3.org/2000/svg" viewBox="0 0 46 37" width="46" height="37"><style>.a{fill:#a3acd3}</style><filter id="f0"><feFlood flood-color="#6c87b3" flood-opacity="1" /><feBlend mode="normal" in2="SourceGraphic"/><feComposite in2="SourceAlpha" operator="in" /></filter><g filter="url(#f0)"><path class="a" d="m28.5 36.6q16.9-8.6 16.9-23.9 0-5-3.2-8.6-3.1-3.6-7.5-3.6-3.9 0-6.5 2.8-2.6 2.7-2.6 6.7 0 3.8 2.6 6.6 2.7 2.9 6.8 3.4c4.6 6.8-6.5 16.6-6.5 16.6zm-25 0q16.9-8.6 16.9-23.9 0-5-3.2-8.6-3.1-3.6-7.5-3.6-3.9 0-6.5 2.8-2.6 2.7-2.6 6.7 0 3.8 2.6 6.6 2.7 2.9 6.8 3.4c4.6 6.8-6.5 16.6-6.5 16.6z"/></g></svg>