<?xml version="1.0" encoding="UTF-8" standalone="no"?>
<svg
   version="1.2"
   viewBox="0 0 1053 178"
   width="1053"
   height="178"
   id="svg42"
   sodipodi:docname="natinoal-jurist-review.svg"
   inkscape:version="1.2.2 (732a01da63, 2022-12-09)"
   xmlns:inkscape="http://www.inkscape.org/namespaces/inkscape"
   xmlns:sodipodi="http://sodipodi.sourceforge.net/DTD/sodipodi-0.dtd"
   xmlns="http://www.w3.org/2000/svg"
   xmlns:svg="http://www.w3.org/2000/svg">
  <defs
     id="defs46" />
  <sodipodi:namedview
     id="namedview44"
     pagecolor="#ffffff"
     bordercolor="#000000"
     borderopacity="0.25"
     inkscape:showpageshadow="2"
     inkscape:pageopacity="0.0"
     inkscape:pagecheckerboard="0"
     inkscape:deskcolor="#d1d1d1"
     showgrid="false"
     inkscape:zoom="1.1244065"
     inkscape:cx="434.45144"
     inkscape:cy="89.38049"
     inkscape:window-width="1280"
     inkscape:window-height="945"
     inkscape:window-x="-9"
     inkscape:window-y="-9"
     inkscape:window-maximized="1"
     inkscape:current-layer="svg42" />
  <style
     id="style2" />
  <path
     d="m22.8 72.9c0 34.2 0 68.5 0 103-7.7 0-15 0-22.6 0 0-53.1 0-106 0-159.1 8.1 0 16.1-0.2 24.1 0.1 1.1 0.1 2.5 2 3 3.4 7.2 17.8 14.4 35.6 21.5 53.5q8.1 20.3 16.3 40.6c0.3 0.9 0.8 1.8 1.9 2.6 0-33.2 0-66.4 0-99.9 7.7 0 15.1 0 22.6 0 0 53 0 105.7 0 158.9-6 0-11.9 0.1-17.9 0-7.5-0.1-6.1 1.3-9-6-12.6-31.3-25.2-62.7-37.8-94q-0.7-1.7-1.4-3.3-0.3 0.1-0.7 0.2z"
     id="path4"
     style="fill:#fcec52;fill-opacity:1" />
  <path
     fill-rule="evenodd"
     d="m184 176c-6.2 0-12.3 0.1-18.5-0.1-0.8 0-2-1.2-2.3-2.1-0.6-1.7-0.7-3.6-1.1-5.5-0.4 0.1-0.7 0.1-0.9 0.2-12.4 10.8-26.5 10.3-41 6-7.5-2.3-11.9-8.1-14-15.6-2-7.5-2.3-15-0.9-22.6 2.9-15.4 13-23.5 27.6-26.2 7.5-1.5 15.3-1.5 23-2.1 1.8-0.1 3.6 0 6.4 0-0.5-5.7-0.7-11.2-1.6-16.6-0.6-3.8-3.6-6.2-7.3-6.6-4.6-0.5-9.4-0.5-14.1 0-5 0.7-7.7 4.4-8.8 9.2-0.4 1.9-0.6 3.8-0.9 6.1-6.3 0-12.7 0.1-19-0.1-0.6 0-1.7-1.4-1.6-2.2 0.7-17.5 6.7-28.9 25.3-32.8 10.1-2.1 20-1.9 29.9 1 12 3.6 18.5 12.4 18.6 25 0.1 14.5 0.1 29 0.2 43.5 0.2 13.7 0.6 27.3 1 41.5zm-31.3-50.5q0-0.2 0-0.3c-3.7 0.2-7.4 0.2-11 0.9-13.9 2.4-17.8 15.3-13.8 26.1 0.8 2.3 3.4 4.5 5.7 5.7 9.7 4.7 21.8-0.2 26-10.1 2.3-5.7 2.7-11.6 2.6-17.6 0-4.7 0-4.7-4.6-4.7q-2.4 0-4.9 0z"
     id="path6"
     style="fill:#fcec52;fill-opacity:1" />
  <path
     fill-rule="evenodd"
     d="m536 108c-0.3-5.3-0.5-10.1-1-14.9-0.5-4.7-3.3-7.9-8-8.4-4.4-0.4-8.9-0.4-13.2 0-5.3 0.6-8.7 4.7-9.6 10.6-0.2 1.5-0.4 3.1-0.6 4.6-7.1 0-13.9 0-21.1 0 0.6-4.5 1-8.8 1.9-13 2.2-10.3 8.4-17.3 18.5-20.4 11.6-3.6 23.4-4.1 35.2-0.5 12 3.7 18.6 12.7 18.7 25.3q0.1 31.9 0.2 63.9c0 6.8 0 13.7 0 20.8-5.4 0-11.5 0.1-17.5-0.1-0.9 0-2-1.5-2.4-2.6-0.6-1.6-0.7-3.4-1-5.4-0.8 0.6-1.5 1.1-2 1.6-4.5 4-9.9 6.7-15.8 6.9-6.6 0.4-13.2 0.4-19.7-0.7-10.6-1.6-16.7-8.5-19-18.9-1.7-7.4-1.6-14.9 0.1-22.3 2.5-10.9 9.1-18.2 19.5-22.2 9.5-3.7 19.5-4.4 29.7-4.3 2.2 0 4.4 0 7.1 0zm-9.3 17c-2.1 0.1-4.6 0.2-7 0.4-11.6 1.2-17.7 6.4-19.1 16.2-1.4 9.6 2.2 15.6 10.4 17.6 9.3 2.2 19.7-2.8 22.6-12.1 1.8-5.4 2-11.4 2.5-17.2 0.4-4.3 0.1-4.4-4.1-4.6-1.7-0.1-3.3-0.2-5.3-0.3z"
     id="path8"
     style="fill:#fcec52;fill-opacity:1" />
  <path
     fill-rule="evenodd"
     d="m377.6 121c0.2 10.7-1.2 21.1-4.5 31.3-5 15.3-15.9 23.4-31.6 24.8-5.7 0.5-11.6 0.2-17.2-0.8-13.5-2.5-22.4-10.9-26.3-24-6-19.9-6.4-40-1.2-60.1 4.9-18.5 18.2-28.2 37.7-28.5 8-0.1 15.8 1 22.9 4.9 10.8 5.8 15.4 15.7 17.5 27 1.6 8.3 2.4 16.9 3.5 25.3q-0.4 0-0.8 0.1zm-21.2-1.1c-0.9-7.1-1.5-15.3-3.1-23.2-1.4-7.6-6.5-11.5-14.2-12.2-2.3-0.2-4.6-0.2-6.8 0.1-7.2 0.7-12.2 4.9-13.9 12-3.8 16-3.7 32.1-0.2 48.2 1.5 6.6 5.5 10.6 12.2 11.9 13.2 2.6 21.6-3 23.6-16.2 1-6.5 1.5-13.1 2.4-20.6z"
     id="path10"
     style="fill:#fcec52;fill-opacity:1" />
  <path
     d="m412.7 175.8c-7.5 0-14.6 0-21.9 0 0-36.6 0-73 0-109.7 7 0 13.9 0 21.1 0 0 3.5 0 7 0 11 10.2-12.1 23.9-16.1 38.1-11.6 9.6 3 14.3 9.9 15.7 19.4 0.4 2.4 0.6 4.9 0.6 7.4 0.1 27.2 0.1 54.3 0.1 81.5 0 0.6-0.1 1.2-0.1 2-7.3 0-14.5 0-22.1 0q0-1.5 0-3.2 0-35.2-0.1-70.4 0-0.6 0-1.2c-0.1-9.3-3.5-14.1-10.7-15.1-10-1.4-17.4 2.9-19.7 11.6-0.6 2.4-0.9 4.9-0.9 7.3-0.1 22.5-0.1 44.9-0.1 67.3 0 1.2 0 2.3 0 3.7z"
     id="path12"
     style="fill:#fcec52;fill-opacity:1" />
  <path
     d="m775.4 66.1c7.5 0 14.7 0 22 0 0 36.6 0 73.1 0 109.8-6.8 0-13.6 0-20.6 0-0.3-2.9-0.6-5.8-0.8-8.7-0.3 0-0.6-0.1-0.7 0-8.2 11.4-29.4 12-39 7.6-10-4.5-14.5-12.6-14.5-23.1-0.2-28.1-0.1-56.2-0.2-84.3 0-0.3 0.1-0.6 0.2-1.2 7.2 0 14.4 0 22.1 0q0 1.6 0 3.3 0 34.1 0.1 68.2c0 2.8 0.4 5.6 0.3 8.3-0.1 6.9 3.9 12.3 13.3 12.6 11.4 0.4 17.8-5.8 17.8-17.2q0-35.8 0-71.7c0-1.1 0-2.2 0-3.6z"
     id="path14"
     style="fill:#fcec52;fill-opacity:1" />
  <path
     d="m915.1 142.3c7.3 0 14.3 0 21.6 0 0.2 2.3 0.4 4.6 0.5 7 0.2 4.3 2 6.8 6.2 8.2 6.5 2 13.2 2.2 19.8 0.5 4.2-1.2 6.9-3.8 7.6-8.3 0.7-4.7 0.5-9.2-3.9-11.8-5.6-3.3-11.4-6-17.3-8.8-5.5-2.6-11.3-4.8-16.8-7.5-17.5-8.6-19.5-29.4-13.2-42 3.4-6.9 9.3-11 16.6-13.3 12.3-4 24.7-3.6 36.9 0.6 9.7 3.4 15.2 10.2 16.2 20.5 0.4 4 0.5 8 0.7 12.3-7.1 0-14 0-21.3 0 0-1.9 0.1-3.7 0-5.5-0.3-6.2-3.3-9.8-9.3-10.3-4.6-0.4-9.3-0.2-13.9 0.3-3.5 0.3-5.9 2.6-6.9 6.1-1.1 4.3-0.9 8.4 2.7 11.4 2.4 2 5.2 3.6 8 5 8.6 3.9 17.4 7.4 25.9 11.5 8.3 3.9 15.2 9.6 16.6 19.3 0.7 5.6 1 11.6 0 17.1-2.3 11.9-10.5 18.6-22 21.5-11.9 2.9-23.8 2.3-35.4-0.8-10.8-2.9-17.6-9.5-18.4-21.2-0.3-3.8-0.6-7.6-0.9-11.8z"
     id="path16"
     style="fill:#fcec52;fill-opacity:1" />
  <path
     d="m645 175.6c0-7.5 0-14.4 0-21.5 4.9 0.3 9.6 0.6 14.2 0.8q1.3 0.1 2.5 0.1c13.2-0.1 19.2-6.1 19.2-19.3q0.1-57.3 0.1-114.6c0-1.2 0-2.4 0-3.9 8 0 15.8 0 23.9 0 0 1.2 0 2.3 0 3.5 0 40 0.1 80 0 120.1 0 4.2-0.5 8.4-1.4 12.5-3 13.2-11.3 20.5-25.6 22.7-3.5 0.6-7.2 1-10.7 0.9-7.3-0.2-14.6-0.8-22.2-1.3z"
     id="path18"
     style="fill:#fcec52;fill-opacity:1" />
  <path
     d="m203.5 45.3c7.4 0 14.4 0 21.7 0 0 6.8 0 13.5 0 20.5 7.2 0 14.1 0 21.2 0 0 6.8 0 13.1 0 19.7-6.9 0-13.7 0-20.9 0 0 1.2 0 2.2 0 3.2q0 29.2 0 58.4c0 6.9 2.8 9.7 9.8 9.6 3.3 0 6.7-0.3 10.5-0.5 0 6.2 0 12.3-0.1 18.3 0 0.5-1 1.3-1.6 1.3-7.8 0.3-15.7 1.4-23.3 0.4-11.8-1.5-17.8-9.7-17.8-22.2 0-21.3 0-42.6 0-63.9 0-1.3 0-2.6 0-4.2-4 0-7.8 0-11.8 0 0-6.8 0-13.3 0-20.1 2.8 0 5.6-0.2 8.3 0 2.5 0.3 3.3-0.8 3.3-3.1 0.1-5.7 0.4-11.5 0.7-17.4z"
     id="path20"
     style="fill:#fcec52;fill-opacity:1" />
  <path
     d="m1052.5 85.6c-6.8 0-13.6 0-20.6 0-0.1 1.1-0.2 2-0.2 2.9q-0.2 28.1-0.3 56.2c0 10.3 3 13 13.4 11.9 2.1-0.3 4.3-0.4 6.8-0.6 0 6.2 0 12.3-0.1 18.3 0 0.6-0.9 1.5-1.4 1.5-7.9 0.3-15.9 1.3-23.6 0.3-11.2-1.5-17-8.9-17.5-20.5-0.3-6.6-0.1-13.2-0.1-19.8q0-23.2 0-46.3c0-1.1 0-2.2 0-3.6-4 0-7.8 0-11.8 0 0-6.8 0-13.3 0-20.1 2.7 0 5.4-0.3 8 0 2.8 0.4 3.8-0.8 3.8-3.4 0-5.6 0-11.2 0-17.1 7.8 0 14.9 0 22.2 0 0 6.9 0 13.7 0 20.7 7.3 0 14.2 0 21.4 0 0 6.6 0 13 0 19.6z"
     id="path22"
     style="fill:#fcec52;fill-opacity:1" />
  <path
     d="m595.5 176c-6.9 0-13.4 0.1-19.9-0.1-0.8 0-2-1.2-2.3-2.1-0.5-1.5-0.4-3.2-0.4-4.9-0.1-49.7 0-99.4-0.1-149.1 0-3 0.8-3.9 3.8-3.7 5.1 0.2 10.3 0.1 15.4 0 2.2-0.1 3.1 0.7 3.1 3 0 5.9 0.4 11.7 0.4 17.6q0 67.6 0 135.2c0 1.3 0 2.5 0 4.1z"
     id="path24"
     style="fill:#fcec52;fill-opacity:1" />
  <path
     d="m813.7 66.1c7.2 0 14.2 0 21.6 0q0 5.4 0 10.8 0.3 0.1 0.6 0.2 1.5-2 3-4c4.3-5.7 10-8.9 17.1-9.1 4-0.1 8 0.4 12 0.8 0.8 0.1 2.1 1.3 2.1 2 0.1 6.9 0.1 13.8 0.1 20.9-4.5-0.4-8.7-1-12.9-1.2-12.3-0.6-19 5-20.8 17.3-0.4 2.7-0.6 5.5-0.6 8.2 0 20.1 0 40.2 0 60.2 0 1.1 0 2.3 0 3.5-7.5 0-14.8 0-22.2 0 0-36.5 0-72.9 0-109.6z"
     id="path26"
     style="fill:#fcec52;fill-opacity:1" />
  <path
     d="m257.6 66.1c7.5 0 14.8 0 22.4 0 0 36.6 0 73.1 0 109.9-6.7 0-13.3 0.1-19.8-0.1-0.9 0-2.2-1.4-2.4-2.4-0.5-1.8-0.4-3.7-0.4-5.5q-0.1-48.8 0-97.6c0-1.4 0.1-2.8 0.2-4.3z"
     id="path28"
     style="fill:#fcec52;fill-opacity:1" />
  <path
     d="m902.5 176c-6.7 0-13.2 0.1-19.7-0.1-0.9 0-2-1.3-2.5-2.3-0.5-1-0.4-2.4-0.4-3.6q0-50.5 0-101c0-0.9 0.1-1.8 0.1-2.9 7.6 0 14.9 0 22.5 0 0 36.6 0 73.1 0 109.9z"
     id="path30"
     style="fill:#fcec52;fill-opacity:1" />
  <path
     d="m130.1 0c2.8 0 5.5 0 8.3 0q0 8.8 0 17.1c2.6-0.6 4.9-1.5 7.2-1.6 3.6-0.1 6.4 1.8 6.5 5.2 0.3 10.3 0.1 20.5 0.1 30.9-2.5 0-5.1 0-8.1 0-0.2-1.5-0.4-3-0.4-4.5 0-6.7 0-13.3 0-20 0-1.6 0.4-3.6-2.2-3.6-2.4-0.1-2.7 1.7-2.7 3.6-0.1 6.9-0.1 13.8-0.1 20.6 0 1.2 0 2.5 0 3.9-3 0-5.7 0-8.6 0 0-17.2 0-34.2 0-51.6z"
     id="path32"
     style="fill:#fcec52;fill-opacity:1" />
  <path
     fill-rule="evenodd"
     d="m178.8 37c-5.5 0-10.2 0-15.3 0 0.9 3-1.3 6.8 2.9 7.9 3.2 0.8 3.2-2.3 3.8-4.6 2.4 0 4.9 0 7.5 0 0.8 2.9 0.1 5.7-1.7 8-3.4 4.4-8.2 4.5-13.2 3.5-4-0.8-6-3.5-6.9-7.4-1.5-7.2-1.5-14.5 0.4-21.7 1.3-4.8 4.6-7.2 10-7.3 5.9-0.1 9.9 2.2 10.9 7 1 4.7 1.1 9.5 1.6 14.6zm-9.1-6.9c0.4-5.1-0.5-7.1-2.8-7.2-2.5-0.2-3.4 1.7-3.1 7.2q3 0 5.9 0z"
     id="path34"
     style="fill:#fcec52;fill-opacity:1" />
  <path
     d="m280.4 56.7c-7.8 0-15.4 0-23.1 0 0-7.9 0-15.5 0-23.5 7.7 0 15.3 0 23.1 0 0 7.8 0 15.5 0 23.5z"
     id="path36"
     style="fill:#fcec52;fill-opacity:1" />
  <path
     d="m903 56.7c-0.8 0.1-1.4 0.2-2 0.2-7 0-13.9 0-21.1 0 0-8 0-15.7 0-23.7 7.6 0 15.3 0 23.1 0 0 7.8 0 15.5 0 23.5z"
     id="path38"
     style="fill:#fcec52;fill-opacity:1" />
  <path
     d="m127.1 45c0.8 7.1 0.2 7.6-6.8 6.9-4.3-0.4-6.5-2.7-6.6-7 0-6.8 0-13.6 0-20.5-1.1-0.4-2-0.7-3-1.1 0-2.2 0-4.5 0-7q1.3-0.3 2.8-0.7c0.3-2 0.5-4 0.7-6.1 2.9 0 5.5 0 8.3 0 0.1 2.1 0.2 4.1 0.4 6.2 1.6 0.2 3 0.3 4.6 0.4 0 2.5 0 4.8 0 7.4-1.5 0.1-3 0.3-4.8 0.5 0 6.2-0.1 12.2 0.2 18.2 0.1 1.1 2.2 2.1 3.5 3.1q0.3-0.1 0.7-0.3z"
     id="path40"
     style="fill:#fcec52;fill-opacity:1" />
</svg>
