<?xml version="1.0" encoding="UTF-8" standalone="no"?>
<svg
   version="1.2"
   viewBox="0 0 838 132"
   width="838"
   height="132"
   id="svg12"
   sodipodi:docname="new-england-review.svg"
   inkscape:version="1.2.2 (732a01da63, 2022-12-09)"
   xmlns:inkscape="http://www.inkscape.org/namespaces/inkscape"
   xmlns:sodipodi="http://sodipodi.sourceforge.net/DTD/sodipodi-0.dtd"
   xmlns="http://www.w3.org/2000/svg"
   xmlns:svg="http://www.w3.org/2000/svg">
  <defs
     id="defs16" />
  <sodipodi:namedview
     id="namedview14"
     pagecolor="#ffffff"
     bordercolor="#000000"
     borderopacity="0.25"
     inkscape:showpageshadow="2"
     inkscape:pageopacity="0.0"
     inkscape:pagecheckerboard="0"
     inkscape:deskcolor="#d1d1d1"
     showgrid="false"
     inkscape:zoom="0.49953128"
     inkscape:cx="560.52546"
     inkscape:cy="33.030964"
     inkscape:window-width="1280"
     inkscape:window-height="945"
     inkscape:window-x="-9"
     inkscape:window-y="-9"
     inkscape:window-maximized="1"
     inkscape:current-layer="svg12" />
  <style
     id="style2">.a{fill:#ee412a}.b{fill:#050505}</style>
  <path
     fill-rule="evenodd"
     class="a"
     d="m56.4 40.9v-4.8c0.2-0.4 0-0.8-0.4-0.8-0.2 0-0.4-0.2-0.4-0.4 0-0.2 0-0.4 0.4-0.4h1.2c0.4 0 0.6 0.4 0.6 0.8v5.6c0 0.4 0 0.8 0.4 1 0.4 0.2 0.6 0 0.6 0.4 0 0.2 0 0.2-0.4 0.2h-2.6c-0.2 0-0.4 0-0.4-0.2 0-0.2 0.2-0.2 0.6-0.4 0.4-0.2 0.4-0.4 0.4-1zm9.6 0v-4.8c0.2-0.4 0-0.8-0.4-0.8-0.2 0-0.4-0.2-0.4-0.4 0-0.2 0-0.4 0.4-0.4h1.4c0.4 0 0.6 0.4 0.6 0.8v5.6c0 0.4 0 0.8 0.4 1 0.4 0.2 0.6 0 0.6 0.4 0 0.2 0 0.2-0.4 0.2h-2.6c-0.2 0-0.4 0-0.4-0.2 0-0.2 0.2-0.2 0.6-0.4 0.4-0.2 0.4-0.4 0.2-1zm27-0.2c1.7 1.3-1.9 5.2-3.2 6.4q0 0 0 0c-3.8 2.4-7.4 5-10.8 8-3.8 3.2-7.6 6.6-11.4 10q0.9 0.3 1.8 1.2c0.4 0.4 0.6 0.8 0.8 1.2 1.2-0.8 2-1.6 1.2-1.8 0 0 8.2-4.4 4.4-3.8 0 0 12.6-7.6 8-7 0 0 1.6-1.3 3.1-2.6-0.9 0.9-1.7 1.6-1.7 1.6 2.4 0.8-7.6 7-7.6 7 1 1-5 4.4-5 4.4 0.6 0.4-0.6 1.4-2.6 2.6 0 0.6 0.2 1.2 0.2 1.8 1.2 1.2 2.2 2.2 3.4 3.4 1.4 0 2.6 0.4 3.4 1.4 1 1.2 1.8 2.6 2 4.2l3.6 3.6c1 0.2 2 0.6 2.6 1.4q0.9 1.2 1.2 2.4 1.5 1.5 3 3l1.8 1.8c0.8 0.8 0.8 1.6 0.4 2-0.4 0.2-1.2 0.4-2-0.4l-8-7c-1.2-0.2-2.6-0.6-3.6-1.2-1.2-1-2-2.2-2.2-3.8-1.2-1.2-2.6-2.4-4-3.6-1.2 0.2-2.4-0.2-3.4-0.8-0.8-0.8-1.4-2-1.4-3.4l-2-1.8c-2.2 1-4 1.8-4 1.8 0 1.2-3.6 0.4-5.6 3.8-1.8 3.4-4 6.8-6.4 10-3.2 1.6-6 3.4-8.8 5.6-1.2 1.2-1.4 0.8-0.8-0.2 6.8-10.6 13.6-16 14.8-16.6 0.8-0.2 1.4-1 1.6-1.8 0.6-1 1.4-2 2.2-3l1.6-1.8c-1.6-0.2-2.8-0.8-4-1.8q-2.1-2.7-1.8-6l-0.8-0.8c-1.2-1.2-2.4-2.2-3.8-3.2-3-0.2-4.4 0-6.4-1.4-1.2-1-2-2.4-2-4-0.2-0.2-0.4-0.6-0.6-0.8-0.4-1.2-1-2.2-1.6-3-0.4-0.4-0.8-0.6-1.2-1-0.6-0.8-0.8-1.8-0.8-2.8v-0.4c0.2-0.4 0.2-0.6 0.2-1-0.2-0.6 0-1.4 0.6-2 0.4-0.6 1-0.8 1.6-0.6h0.4c0.6 0 1-0.2 1.4-0.4 0.4-0.4 1.2-0.2 1.6 0.2 0.6 0.4 0.8 1.2 0.6 1.8 0 0.4 0.4 1 1.2 1.6l2.2 2.2h0.2c0.6 0.2 1.2 0 1.6-0.4 0.6-0.4 1.2-0.6 2-0.8 1.4-0.2 2.6 0.2 3.8 0.8 1.6 0.8 2.2 1.8 2 2.6 0 0.4-0.2 0.6-0.8 0.6-0.4 0-0.6 0.2-1 0.4-0.6 0.4-1.4 0.4-2 0.2q-1.5-0.6-3-0.6l3.6 3.6c1.8-0.2 3.6 0.4 5 1.6 1.2 1.4 1.6 3.2 1.4 5 1.6 1.6 3.2 3.2 5 5 12.2-13.2 20.4-18.8 22.6-20 3.6-2 5.8-3.2 6.2-2.6zm-3.2 6.4c0.2 0.1 0.2 0.3 0.2 0.6q-0.2-0.2-0.6-0.2c0 0 0.2-0.1 0.4-0.4zm-25.8 44.6c0 1.2-0.6 2.6-1.6 3.6-0.6 0.6-1.2 1-2 1.2-0.4 0-0.6-0.2-0.6-0.4 0-0.4 0.4-0.4 0.8-0.8q0.9-0.6 1.2-1.8c0-0.2 0-0.4-0.4-0.4-0.2 0-0.6 0-0.8 0-0.8 0-1.6-0.6-1.8-1.6q0-0.3 0-0.6c0-1.4 1.2-2.8 2.8-2.8 1.6 0 2.6 1.2 2.4 3.6zm-1.4-0.8c0-1.6-0.4-2-1-2-0.4 0-1 0.6-1 1.8 0 1.2 0.2 1.8 1 1.8 0.6 0 1-0.4 1-1.6zm-2-52.4c0.2 0 0.2-0.2 0-0.4-0.2-0.4-0.4-0.8-0.4-1.4 0-1 1-1.8 2-1.8 1.4 0 2.2 0.8 2.2 1.8 0 0.6-0.2 1-0.6 1.4-0.2 0-0.2 0.4 0 0.4 0.6 0.4 1 1 1 1.8 0 1.2-1 2.4-2.4 2.4h-0.6c-1.4 0-2.4-1-2.4-2.4q0-1.2 1.2-1.8zm0.6-1.8c0 0.8 0.4 1.2 0.8 1.2 0.4 0 0.8-0.2 0.8-1.2 0-0.8-0.4-1.2-0.8-1.2-0.4 0-0.6 0.4-0.8 1.2zm-0.4 3.6c0 1.4 0.6 1.8 1.2 1.8q1.2 0 1.2-1.8c0-1.2-0.6-1.8-1.2-1.8-0.6 0-1 0.4-1.2 1.8zm23.4 27.2c0.2 0 0.2-0.2 0-0.4-0.2-0.4-0.4-0.8-0.4-1.4 0-0.2 0-0.2 0-0.2 0-1.2 1-1.8 2-1.8 1.4 0 2.2 0.8 2.2 1.8 0 0.6-0.2 1-0.6 1.4-0.2 0-0.2 0.4 0 0.4 0.6 0.4 1 1 1 1.8 0 1.2-1 2.4-2.4 2.4h-0.6c-1.4 0-2.4-1-2.4-2.4 0-0.8 0.4-1.4 1.2-1.6zm4.6-18c0 0 0.9-1 1.2-1.8 0.2 0.3 0 1-0.6 1.7q-0.1-0.1-0.6 0.1zm-1.9 2.8c0.9-0.9 1.9-2 2.5-2.9 0.3 0.3-1 1.6-2.5 2.9zm-2.5 16.8c0 1.4 0.6 1.8 1.2 1.8 0.6 0 1.2-0.6 1.2-1.8 0-1.2-0.6-1.8-1.2-1.8-0.6 0-1 0.4-1.2 1.8zm13.8 2.6h-0.6c-1.4 0-2.4-1.2-2.4-2.4 0-0.8 0.4-1.6 1-2 0 0 0.2-0.2 0-0.4-0.4-0.4-0.6-0.8-0.6-1.4 0-0.2 0-0.2 0-0.2 0-1.2 1-1.8 2-1.8 1.6 0 2.2 0.8 2.2 1.8 0 0.6-0.2 1-0.6 1.4-0.2 0-0.2 0.2 0 0.4 0.6 0.4 1 1 1 1.8 0 1.4-1 2.6-2 2.8zm-1.4-6.4c0 0.8 0.4 1.2 0.8 1.2 0.4 0 0.8-0.2 0.8-1.2 0-1-0.4-1.2-0.8-1.2-0.4 0-0.6 0.4-0.8 1.2zm2.2 3.6c0-1.2-0.6-1.8-1.2-1.8-0.6 0-1.2 0.4-1.2 1.8 0 1.4 0.4 1.8 1 1.8 0.6 0 1.2-0.4 1.4-1.8zm-59 0.4c0 1.2-1 2.4-2.4 2.4-0.2 0-0.6 0-0.6 0-1.4 0-2.4-1-2.4-2.4 0-0.8 0.4-1.6 1-2 0.2 0 0.2-0.2 0-0.4-0.4-0.4-0.6-0.8-0.6-1.4 0-0.2 0-0.2 0-0.2 0-1.2 1-1.8 2-1.8 1.6 0 2.2 0.8 2.2 1.8 0 0.6-0.2 1-0.6 1.4-0.2 0-0.2 0.2 0 0.4 0.6 0.4 1 1.2 1.4 2.2zm-3.8-4c0 0.8 0.4 1.2 0.8 1.2 0.4 0 0.8-0.2 0.8-1.2 0-0.8-0.4-1.2-0.8-1.2-0.4 0-0.8 0.4-0.8 1.2zm2 3.6c0-1.2-0.6-1.8-1.2-1.8-0.6 0-1.2 0.4-1.2 1.8 0 1.4 0.6 1.8 1.2 1.8 0.6 0 1-0.4 1.2-1.8zm38.4 24.8v0.2c0 1.2-1 2.4-2.4 2.4-0.2 0-0.6 0-0.6 0-1.4 0-2.4-1-2.4-2.4 0-0.8 0.4-1.6 1-2 0.2 0 0.2-0.2 0-0.4-0.2-0.4-0.4-0.8-0.4-1.4 0-1 1-1.8 2-1.8 1.6 0 2.2 0.8 2.2 1.8 0 0.6-0.2 1-0.6 1.4-0.2 0-0.2 0.4 0 0.4q0.9 0.6 1.2 1.8zm-3.6-3.6c0 0.8 0.4 1.2 0.8 1.2 0.4 0 0.8-0.2 0.8-1.2 0-1-0.4-1.2-0.8-1.2-0.4 0-0.8 0.4-0.8 1.2zm2.2 3.6c0-1.2-0.6-1.8-1.2-1.8-0.6 0-1.2 0.4-1.2 1.8 0 1.4 0.4 1.8 1 1.8 0.6 0 1-0.6 1.4-1.8zm4.8-24v-4.8c0.2-0.4 0-0.8-0.4-0.8-0.2 0-0.4-0.2-0.4-0.4 0-0.2 0-0.4 0.4-0.4h1.4c0.4 0 0.6 0.4 0.6 0.8v5.6c0 0.4 0 0.8 0.4 1 0.4 0.2 0.6 0 0.6 0.4 0 0.2 0 0.2-0.4 0.2h-2.6c-0.2 0-0.4 0-0.4-0.2 0-0.2 0.2-0.2 0.6-0.4 0.2 0 0.4-0.4 0.2-1zm11 1h1.4c0.6 0 0.8 0 0.8-0.2 0-0.2 0.2-0.4 0.4-0.4 0.2 0 0.4 0 0.4 0.4 0 0.4 0 0.8-0.2 1.2-0.2 0.2-0.4 0.2-0.6 0.2h-3.8c-0.4 0-0.8 0-0.8-0.4 0-0.4 0-0.6 0.8-1.4 0.8-0.8 2-1.8 2.4-2.2 0.4-0.4 0.6-1 0.6-1.6 0-0.8-0.2-1.6-1-1.6-0.4 0-0.6 0.2-0.8 0.6-0.2 0.2 0 0.4 0 0.6 0 0.2-0.2 0.6-0.6 0.6-0.6 0-0.8-0.6-0.8-1.2 0-0.8 0.6-1.8 2.2-1.8 1.2 0 2.4 0.8 2.6 2.2 0 0.6-0.2 1.4-0.8 2-0.6 0.8-3 2.2-2.2 3zm-47.6-2.8c0.4-0.4 0.6-1 0.6-1.6 0-0.8-0.2-1.6-1-1.6-0.4 0-0.6 0.2-0.8 0.6-0.2 0.2 0 0.4 0 0.6 0 0.2-0.2 0.6-0.6 0.6-0.6 0-0.8-0.6-0.8-1.2 0-0.8 0.6-1.8 2.2-1.8 1.2 0 2.4 0.8 2.6 2.2 0 0.6-0.2 1.4-0.8 2-0.8 0.8-3 2.4-2.4 2.6h1.4c0.6 0 0.6 0 0.8-0.2 0-0.2 0.2-0.4 0.4-0.4 0.2 0 0.4 0 0.4 0.4 0 0.4 0 0.8-0.2 1.2-0.2 0.2-0.4 0.2-0.6 0.2h-3.8c-0.4 0-0.8 0-0.8-0.4-0.2-0.4-0.2-0.6 0.6-1.4 0.8-0.6 2.2-1.6 2.8-1.8zm23.6 27.4h1.4c0.6 0 0.8 0 0.8-0.2 0-0.2 0.2-0.4 0.4-0.4 0.2 0 0.4 0 0.4 0.4 0 0.4 0 0.8-0.2 1.2-0.2 0.2-0.4 0.2-0.6 0.2h-3.8c-0.4 0-0.8 0-0.8-0.4 0-0.4 0-0.6 0.8-1.4 0.8-0.8 2-1.8 2.4-2.2 0.4-0.4 0.6-1 0.6-1.6 0-0.8-0.2-1.6-1-1.6-0.4 0-0.6 0.2-0.8 0.6-0.2 0.2 0 0.4 0 0.6 0 0.2-0.2 0.6-0.6 0.6-0.6 0-0.8-0.6-0.8-1.2 0-0.8 0.6-1.8 2.2-1.8 1.2 0 2.4 0.8 2.6 2.2 0 0.6-0.2 1.4-0.8 2-0.6 0.8-2.8 2.2-2.2 3zm6-56.2c0.4-0.4 0.6-1 0.6-1.6 0-0.8-0.2-1.6-1-1.6-0.4 0-0.6 0.2-0.8 0.6-0.2 0.2 0 0.4 0 0.6 0 0.2-0.2 0.6-0.6 0.6-0.6 0-0.8-0.6-0.8-1.2 0-0.8 0.6-1.8 2.2-1.8 1.2 0 2.4 1 2.6 2.2 0 0.6-0.2 1.4-0.8 2-0.8 0.8-3 2.4-2.4 2.6h1.2c0.6 0 0.8 0 0.8-0.2 0-0.2 0.2-0.4 0.4-0.4 0.2 0 0.4 0 0.4 0.4 0 0.4 0 0.8-0.2 1.2-0.2 0.2-0.4 0.2-0.6 0.2h-3.6c-0.4 0-0.8 0-0.8-0.4 0-0.4 0-0.6 0.8-1.4 0.8-0.8 2-1.8 2.6-1.8zm-39.2 32.2c0 0.2-0.2 0.2-0.4 0.2h-2.6c-0.2 0-0.4 0-0.4-0.2 0-0.2 0.2-0.2 0.6-0.4 0.4-0.2 0.4-0.6 0.4-1v-4.8c0.2-0.4 0-0.8-0.4-0.8-0.2 0-0.4-0.2-0.4-0.4 0-0.2 0-0.4 0.4-0.4h1.4c0.4 0 0.6 0.4 0.6 0.8v5.6c0 0.4 0 0.8 0.4 1 0.2 0 0.4 0 0.4 0.4zm24.6 24.6c0 0.2 0 0.2-0.4 0.2h-2.8c-0.2 0-0.4 0-0.4-0.2 0-0.2 0.2-0.2 0.6-0.4 0.4-0.2 0.4-0.6 0.4-1v-4.8c0.2-0.4 0-0.8-0.4-0.8-0.2 0-0.4-0.2-0.4-0.4 0-0.2 0-0.4 0.4-0.4h1.4c0.4 0 0.6 0.4 0.6 0.8v5.6c0 0.4 0 0.8 0.4 1 0.4 0 0.6 0 0.6 0.4zm-11.4-26.6c0.4 0 0.6 0.4 0.4 0.8-0.2 0.6 0.2 0.8 0.6 0.8 0.6 0 1.2-0.6 1.2-1.6 0-1-0.4-1.8-1.4-2-0.2 0-0.6 0-0.6-0.2 0-0.4 0.4-0.2 0.8-0.4 0.4-0.2 0.6-1 0.6-1.6 0-1-0.4-1.4-0.8-1.4-0.4 0-0.6 0-0.6 0.4 0 0.4 0 0.8 0 1-0.2 0.2-0.4 0.4-0.6 0.4-0.4 0-0.6-0.4-0.6-0.8 0-0.6 0.6-1.4 2-1.4 1.2-0.2 2.2 0.6 2.4 1.6q0.3 1.2-0.6 1.8c-0.2 0.2-0.2 0.4 0 0.4 0.8 0.4 1.4 1.4 1.2 2.2-0.2 1.4-1.2 2.2-2.8 2.2-1.4 0-2.2-0.4-2.2-1.4 0-0.4 0.4-0.8 0.8-0.8zm5.6 9.4c-2.8 2.2-5.2 5-7 8 1-0.4 2-1 3-1.4 1.4-2 2.8-4.2 4-6.6zm34.6 8.6l-0.2-0.2c0 0.2 0 0.2 0.2 0.2zm0 0c-0.2 1 0.2 1.8 0.8 2.6l2.4 2.2c0.6 0.6 1 0.6 1.2 0.4 0.2-0.4 0-0.8-0.2-1l-1.8-1.8zm0 0q0 0 0 0 0 0 0 0zm-7.2-7.4c0 1.6 0.6 3 1.6 4.2l3.6 3.4c-0.2-0.4-0.2-0.6-0.2-1 0-0.8-0.4-1.4-0.8-2l-0.6-0.6-0.2-0.2c-0.2-0.2-0.2-0.4-0.4-0.6zm-0.6 2.6c-0.4 0-0.6 0.4-0.6 0.4 0 0 0.2 0.2 0.6 0.2 0.4 0 0.6 0 0.6-0.2 0-0.2-0.2-0.2-0.6-0.4zm-1.2-1.2c0 0.2 0.2 0.4 0.6 0.4 0.2 0 0.6-0.2 0.6-0.4 0-0.2-0.2-0.4-0.6-0.4-0.4 0-0.8 0.2-0.6 0.4zm-22.4-26.4c0 0.2 0.4 0.2 1 0 0.8-0.2 0.8-0.4 0.8-0.6 0-0.2-0.4-0.2-1 0-0.6 0.2-0.8 0.6-0.8 0.6zm0 5c0.8 0.4 1.6 0.2 1.8 0 0.2-0.2-0.2-0.4-0.8-0.6-0.4 0-0.4-0.6 0-0.6 0.4 0 0.8 0 1-0.4 0.2-0.4 0.2-0.8-0.2-0.6-0.4 0.2-0.8 0.2-0.8-0.2-0.2-0.4 0-0.8 0.4-0.8 0.4-0.2 0.6-0.2 0.6-0.4 0.2-0.2-0.4-0.6-1-0.6-0.6 0-0.8 0.4-1 1 0 0.6 0 1-0.2 1.4-0.2 0.8-0.2 1.8 0.2 1.8zm-6.6-12.2c0.4 0.2 0.6 0.4 0.8 0.2 0.2-0.2 0.2-0.4 0-0.4 0-0.2 0-0.2 0-0.2 0-0.2 0-0.4 0.2-0.4 0.4 0 0.8 0 1 0.2 0.2 0.2 0.6 0.2 0.8 0.2 0.2-0.2 0.4-0.2 0.6-0.4 0.2-0.2 0.6-0.2 0.8 0 0.4 0.2 0.8 0.4 1 0.2 0.4-0.4-0.2-1-0.8-1.4-1-0.6-2.4-0.8-3.6-0.4-0.4 0.2-0.8 0.6-1 1-0.2 0.4 0 1 0.2 1.4zm-1.4-0.6c0 0.2 0 0.2 0 0.2 0 0.2 0.2 0.2 0.4 0.2 0.2 0 0-0.4 0-0.6 0-0.2-0.2-0.2-0.4-0.2-0.2 0 0 0.4 0 0.4zm-1.4-0.4c0.2 0.2 0.2 0.4 0.2 0.6 0 0.4 0.2 0.6 0.4 0.4 0.2-0.2 0.2-0.8 0-1 0-0.4-0.4-0.4-0.6-0.4-0.2 0-0.2 0.2 0 0.4zm-1.4-0.4c-0.2 0.2-0.2 0.4 0.2 0.6 0.2 0.2 0.4 0.6 0.4 0.8v0.2c0 0.2 0.2 0.2 0.4 0 0-0.2-0.2-0.8-0.4-1.2-0.2-0.2-0.4-0.4-0.6-0.4zm0 2c-0.2-0.2-0.2-0.4-0.2-0.8-0.2-0.2-0.4-0.4-0.8-0.4-0.4 0-0.6 0.2-0.8 0.4-0.6 0.4-1.2 1.4-0.2 1.6 0.2 0 0.6 0 0.8 0.2 0 0.2 0.2 0.2 0.4 0.2 0.2 0 0.4 0 0.4-0.2 0.2-0.2 0.2-0.6 0.4-1zm-3.8 1.4c0.2-1 0.6-2 1.4-2.6 0.6-0.6 1.6-1 2.4-1.2-1.2-1.2-1.6-1.6-1.6-1.6q-1.2-0.9-1.2-1.8c0.2-0.6 0.2-1.2-0.2-1.6-0.2-0.2-0.6-0.4-1-0.2-0.6 0.4-0.8 0.2-1.4 0.2h-0.4c-0.4 0-1 0-1.2 0.4-0.4 0.2-0.2 1.2-0.2 1.6 0 0.4 0 0.8-0.2 1.2 0 0.8 0.4 1.4 0.8 2 0.4 0.2 0.6 0.4 1 0.6 0.8 0.8 1.6 1.8 1.8 3zm1 0.8c0.6 0 1 0 1.4 0 0.4 0 0.4 0 0.4-0.2 0.2-0.2-0.2-0.4-0.6-0.6q-0.6-0.3-1.2 0c-0.4 0.2-0.4 0.8 0 0.8zm0.4 2c0.2 0 0.4-0.2 0.6-0.4 0.2-0.2 0.4-0.4 0.6-0.4 0.2 0 0.4 0 0.6-0.2 0-0.2 0-0.4-0.2-0.6-0.2 0-0.6 0-0.8 0-0.6 0-1 0.4-1.2 0.8-0.2 0.2-0.2 0.6 0.4 0.8zm0.8 1c0.2-0.2 0.4-0.4 0.8-0.6 0.2 0 0-0.2 0-0.4 0-0.2-0.4 0-0.8 0.2-0.2 0.2-0.6 0.4-0.6 0.8 0 0.2 0 0.4 0.2 0.4 0 0 0.4 0 0.4-0.4zm1.2 0.2c0 0-0.2-0.2-0.4-0.2-0.2 0-0.2 0.2-0.4 0.4 0 0.2 0 0.6 0.2 0.6 0.2 0 0.2 0 0.2 0 0 0 0.2 0 0.2-0.2 0-0.2 0-0.4 0.2-0.6zm0.6 0.6c0.2 0 0.2 0 0-0.2 0-0.2-0.2 0-0.4 0.2-0.2 0.2-0.2 0.6 0 0.8h0.2c0 0 0.2 0 0.2-0.2 0-0.2 0-0.2 0-0.6zm8.8-0.2q-3-3-6-6-1.5 0.3-2.4 1.2c-0.2 0.2-0.4 0.6-0.4 1 0.6-0.4 1.2-0.4 1.8-0.2 0.8 0.2 1.4 0.8 1.8 1.4 0.4 0.6 1 1.6 0.8 1.8-0.4 0.4-0.6 0.2-1-0.4-0.2-0.6-1-1.4-1.6-1.4-0.8 0-1.4 0.2-1.8 0.8q0.3 1.2 1.2 1.8c0.6 0.4 1.2 0.6 1.8 1 0.6 0.4 1.4 1 2 1.4 0.6 0.6 1.4 0 1.4-0.4 0-0.4 0.4-0.6 0.8-0.2 0.4 0.4 0.8 1 0.8 1.6 0 0.8 0.4 1.4 1 2 0.6-3.8 0-4.8-0.2-5.4zm1.2-0.8q0.3-0.6 0-0.6c-0.2-0.2-0.4 0-0.6 0.4-0.2 0.2-0.2 0.6 0 0.6 0.2 0.2 0.4 0 0.6-0.4zm1.6 10.8c0.4-0.4 0.4-0.8 0.4-1.2 0-0.4 0-1 0-1.4 0-0.6-0.6-0.6-0.8-0.4-0.2 0.2-0.4 0.2-0.6 0.2-0.2 0-0.4-0.4-0.6-0.2-0.4 0.6 0.4 1.2 0.8 1.4 0.4 0 0.2 0.4-0.2 0.4-0.4 0-0.6 0-0.8 0.2-0.2 0.4 0 1 0.4 1.2 0.6 0.4 1.2 0.2 1.4-0.2zm1.2 1c-0.2-0.2-0.6-0.6-0.8-0.4 0 0 0 0.2 0 0.4 0.2 0.2-0.2 0.4-0.6 0.6-0.4 0-0.2 0.6 0.4 0.8 0.4 0.2 1 0.2 1.2-0.2 0.2-0.4 0.2-0.8-0.2-1.2zm8.2 1.4l-7-7c0 0.6-0.2 1.2-0.2 2-0.4 1.4 0 2.6 1 3.6 2.4 2.2 5 4.4 7.4 6.6 0.2-0.4 0.2-0.6 0.2-1 0.4-1.4-0.2-3-1.4-4.2zm-1.4 3.8l-1.6-1.4c-1 1-1.8 1.6-2 2-0.2 0.4-0.4 1.4 3.6-0.6zm-4.8-3c0.2-0.2 0-0.4-0.4-0.6-0.2-0.2-0.6-0.2-0.6 0-0.2 0.2 0 0.4 0.4 0.6 0.2 0 0.6 0 0.6 0zm9.6 6.2c0.2 0 0.6-0.2 0.6-0.4 0-0.2-0.2-0.4-0.6-0.4-0.2 0-0.6 0.2-0.6 0.4 0 0.2 0.4 0.4 0.6 0.4zm1 1.2c0-0.2-0.2-0.4-0.6-0.4-0.4 0-0.6 0.2-0.6 0.4 0 0 0.2 0.2 0.6 0.2 0.4 0 0.6 0 0.6-0.2zm0.4-3c0 1 0 2.2 0.4 3.2l5 4.4v-0.6c0-1.8-0.8-3.4-2-4.4l-3.4-3.2zm13.8-6.4c0 0.8 0.4 1.2 0.8 1.2 0.4 0 0.8-0.2 0.8-1.2 0-1-0.4-1.2-0.8-1.2-0.4 0-0.6 0.4-0.8 1.2zm8-23.4c-0.4-0.4-5.6 1.8-14.4 9.6-4.6 4-9 8.4-12.8 13h0.6c1.6-1.4 10.4-10.2 14.8-13.6 4.6-3.6 12.2-8.8 11.8-9zm-51.8 0.6c0.8 0.8 1 1.2 0.6 1.6-0.4 0.4-0.8 0.2-1.2-0.2-0.4-0.4-0.6-0.8-0.6-1 0-0.2-0.2-0.4-0.4-0.6 0-0.2-0.2-0.4 0-0.6 0.4-0.4 1-0.2 1.6 0.8zm0.4 4.4c-0.2 0.2-0.8 0-1.6-0.8-0.6-0.8-0.8-1.6-0.4-1.8 0.4-0.2 0.6 0.2 0.8 0.6 0.2 0.4 0.6 0.8 1 1 0.4 0.4 0.4 0.8 0.2 1z"
     id="path4"
     style="fill:#fcec52;fill-opacity:1" />
  <path
     class="a"
     d="m51.4 45.3c0.2 0 0.4 0.2 0.4 0.4 0 0.2-0.2 0.4-0.4 0.4-0.2 0-0.4-0.2-0.4-0.4 0-0.2 0.2-0.4 0.4-0.4z"
     id="path6"
     style="fill:#fcec52;fill-opacity:1" />
  <path
     fill-rule="evenodd"
     class="a"
     d="m130.8 65.7v0.4c0 35.8-29.6 65.4-65.4 65.4-35.8 0-65.4-29.6-65.4-65.4 0-35.8 29.2-65.2 65-65.4 35.8-0.2 65.6 29 65.8 65zm-2.8 0c-0.2-34.2-28.4-62.2-62.6-62.2-34.4 0-62.6 28.2-62.6 62.6 0 34.4 28.2 62.6 62.6 62.6 16.8 0 32.8-6.6 44.6-18.6 11.6-11.8 18.2-27.8 18-44.4zm-2.2-7.6c0.4 2.8 0.6 5.4 0.6 8 0 33.4-27.6 61-61 61-33.4 0-61-27.6-61-61 0-33.4 27.6-61 61-61 2.6 0 5.4 0.2 8 0.6 27.2 3.6 48.8 25.2 52.4 52.4zm-1 12.8c0.2-1.6 0.2-3.2 0.2-4.8 0-32.6-26.8-59.6-59.6-59.6-32.6 0-59.6 26.8-59.6 59.6 0 32.6 26.8 59.6 59.6 59.6 1.8 0 3.4 0 5-0.2 29-2.4 52.2-25.6 54.4-54.6zm-19.8-28.2l6.4-3.4c0.4-0.2 0.6-0.4 1-0.8l0.4-0.6h0.2c0.4-0.2 0.6 0 0.6 0.2l2.8 5.2c0.2 0.2 0 0.4-0.2 0.6l-1.2 0.6c-0.4 0.2-0.6 0.2-0.8 0q-0.3-0.3 0-0.6c0.2-0.6 0.2-1.2 0-1.6-0.2-0.6-0.8-1.6-1.2-1.4-0.6 0.2-2.4 1.4-2.6 1.4-0.2 0.2-0.2 0.2-0.2 0.4v0.2c0.2 0.4 0.4 0.8 0.6 0.8 0.2 0 0.6-0.2 0.8 0.2 0 0.4-0.2 0.6-0.6 0.8l-1.4 0.8c-0.2 0.2-0.6 0.2-0.8 0-0.2-0.4 0.2-0.6 0.2-0.8 0.2-0.2 0-0.6-0.2-1 0-0.2-0.2-0.2-0.4-0.2l-2.8 1.4h-0.2c-0.2 0.2-0.2 0.6 0 0.8l0.4 0.8c0.4 0.6 0.6 1 1 1 0.6 0.2 1.4-0.2 1.6 0.2 0 0.2 0 0.4-0.4 0.6 0 0-1.6 0.6-2 0.8-0.4 0.2-0.6 0-0.8-0.4l-2.4-4.8v-0.2c-0.2-0.4 0-0.6 0.2-0.6 0.4 0 0.6 0 0.8 0 0.4 0 0.8-0.2 1.2-0.4zm-80.2 43.2l-6.8 2.6c-0.4 0-0.8 0.4-1.2 0.6l-0.4 0.6h-0.2c-0.2 0-0.4-0.2-0.4-0.4l-2-5c-0.2-0.2 0-0.6 0.2-0.6l1.2-0.6q0.6-0.3 0.6 0c0 0.2 0 0.4-0.2 0.6-0.2 0.6-0.4 1-0.2 1.6 0.2 0.4 0.6 1.2 1 1 0.4-0.2 2.6-1 2.6-1 0.4-0.2 0.2-0.4 0.2-0.6-0.2-0.4-0.4-1-0.6-1-0.2-0.2-0.6 0-0.8-0.4-0.2-0.2 0.2-0.4 0.6-0.6l1.4-0.6c0.2-0.2 0.6-0.2 0.8 0 0 0.4-0.4 0.6-0.4 0.8-0.2 0.2 0 0.8 0.2 1.2 0 0 0.2 0.2 0.4 0.2l2.4-1q0.6-0.3 1.2-0.6l0.4-0.6c0.2-0.2 0.4 0 0.6 0.2l0.8 2v0.2c0 0.2-0.2 0.4-0.4 0.4h-0.8c-0.6 0-1 0.2-0.2 1zm95.6-16l-0.2 2.4c0 0.4-0.2 0.6-0.6 0.4l-0.6-0.4c-0.4-0.2-0.8-0.4-1.2-0.4-0.4-0.2-7.2-1-7.2-1-0.6-0.2-0.8 0.2-0.8 0.6v0.2c-0.2 0.6 0 1 0.4 1.4 0.8 0.6 1 0.6 1 1 0 0.2-0.4 0.4-0.6 0.4 0 0-1.6-0.2-2-0.2-0.2 0-0.4-0.4-0.4-0.8l0.6-5c0-0.2 0.2-0.4 0.6-0.4l0.6 0.4c0.6 0 1 0.2 1.4 0.2l7 1c0.6 0 1 0 1.4 0l0.6-0.2c0.4 0 0.6 0.4 0 0.4zm-93.2-43.6c-0.2 0-0.2-0.2-0.2-0.2 0-0.2 0-0.4 0.2-0.6l1.8-1.6c0-0.2 0.2-0.2 0.2-0.2 0.2 0 0.4 0 0.6 0.2l0.2 0.8c0.2 0.6 0.4 0.8 0.8 1.2l4.6 5.6c0.2 0.4 0.6 0.6 1 0.8l0.8 0.2c0.2 0.2 0.2 0.2 0.2 0.2 0 0.2 0 0.4-0.2 0.6l-1.8 1.6c-0.4 0.2-0.6 0.4-0.8 0l-0.2-0.8c-0.2-0.4-0.4-0.8-0.8-1l-4.6-5.6c-0.2-0.2-0.6-0.6-1-0.8zm-10.2 13.6c-0.4 0-0.4-0.4-0.2-0.6l1.2-2.2c0-0.4 0.4-0.4 0.6-0.2l0.4 0.6c0.2 0.4 0.6 0.6 1 0.8l6.2 3.8c0.4 0.2 0.8 0.4 1.2 0.4h1q0.3 0.3 0 0.6l-1.2 2.2c0 0.2-0.4 0.4-0.6 0.2l-0.4-0.6c-0.4-0.4-0.8-0.6-1.2-0.8l-6.2-3.6q-0.6-0.6-1.2-0.6zm-3.8 34.8c-0.4 0-0.8 0.2-1.2 0.4l-0.6 0.4c-0.4 0.2-0.6 0-0.6-0.4l-0.4-2.8c-0.2-0.2 0.2-0.6 0.4-0.6l6-1.8c0.6-0.2 0.2-0.4 0-0.4-0.4-0.2-5.8-1.4-6.4-1.6-0.4 0-0.6-0.4-0.6-0.8v-2.2c-0.2-0.4 0-0.6 0.4-0.6l0.6 0.4c0.4 0 1 0 1.4 0l7.2-0.2c0.6 0 1-0.2 1.4-0.4l0.6-0.4c0.4-0.2 0.6 0 0.6 0.4v2.4c0.2 0.4 0 0.6-0.4 0.6l-0.6-0.4c-0.4 0-1 0-1.4 0l-5 0.2c-0.4 0-0.6 0.2 0.2 0.4 0.8 0.2 6.8 1.6 7 1.6 0.2 0 0.6 0.2 0.6 0.4 0 0.4 0 0.4-0.6 0.6-0.6 0.2-6.4 2.4-6.8 2.4-0.4 0.2-0.4 0.4 0 0.4l5-0.8c0.4 0 0.8-0.2 1.2-0.4l0.6-0.4c0.4-0.2 0.6 0 0.6 0.4l0.2 2c0 0.4 0 0.6-0.4 0.6l-0.6-0.2c-0.6 0-1 0-1.4 0zm79.6 39.6c0.2 0 0.2 0.2 0.2 0.2 0.2 0.2 0 0.6-0.2 0.6l-2.2 1.2h-0.2c-0.4 0-0.6-0.2-0.6-0.4v-0.8q-0.3-0.6-0.6-1.2c0-0.4-3.2-5.8-3.2-5.8-0.6-1.2-1-3.4 0.6-4.4 1-0.8 2.4-0.8 3.2 0.2 0.4 0.6 0.4 1.4-0.2 1.8-0.4 0.2-1 0-1.4-0.4-0.4-0.4-0.6-0.6-0.8-0.4-0.2 0.2 0 0.6 0.4 1.4l3.6 6.2c0.2 0.4 0.4 0.8 0.8 1zm28.8-51.2c0 0.6 0 1.2-0.2 1.8-0.2 0.2-0.2 0.4-0.2 0.8 0 0.4-0.4 0.6-0.8 0.6-1 0-1.8 0-2 0-0.4 0-0.8-0.2-0.8-0.6 0-0.2 0-0.4 0.6-0.6 0.4 0 1.8-0.4 1.8-1.8-0.2-1.6-2.8-2.2-5.4-2.2-2.8 0-4.4 0.8-4.4 2.2 0 1 0.6 1.2 2 1.2 0.4 0 1-0.2 1.2-0.6 0.2-0.2 0.4-0.4 0.6-0.4 0.2 0 0.4 0.2 0.4 0.6q0 0.9 0 1.8c0 0.8-0.8 0.6-1.2 0.6-0.2 0-1 0-1.4 0-0.4 0-0.6 0-1 0.2q-0.3 0-0.6 0c-0.4 0-0.6-0.4-0.8-0.6-0.4-0.8-0.6-1.6-0.6-2.6-0.2-2.4 2.2-4.8 6-5q1.8-0.3 3.6 0.6c1.6 0.6 2.8 2 3.2 4zm-13.8 38.4c0.2 0.2 0.2 0.2 0.2 0.2 0 0.2 0 0.4-0.2 0.6l-1.4 1.6c-0.8 0.8-1.8 1.4-2.8 1.8-2 0.2-4-0.4-5.6-1.8-1.2-1-2.2-2.6-2.4-4.2 0-1.4 0.6-2.8 1.6-3.8l1.6-2c0.2-0.2 0.2-0.2 0.2-0.2q0.3-0.3 0.6 0l0.2 0.6c0.4 0.4 0.6 0.8 1 1l5.2 4.8c0.4 0.4 0.8 0.8 1.2 1zm-3 0.8l-5.8-5.4c-0.4-0.4-0.6-0.6-1-0.2-1.2 1.2-0.6 2.8 1.8 5.2 1.8 1.8 4.2 2.6 5 1.6q0.6-0.6 0-1.2zm-92.2-51.4c-0.2 0-0.4-0.4-0.2-0.6l0.6-2.2c0.4-1.2 1-2 1.8-2.8 1.6-1.2 3.8-1.4 5.8-0.8 1.6 0.6 3 1.6 3.8 3 0.6 1.2 0.8 2.8 0.2 4l-0.8 2.6c0 0.2-0.2 0.4-0.4 0.4h-0.2l-0.6-0.6q-0.6-0.6-1.2-0.6l-6.6-2.4c-0.6-0.2-1-0.2-1.6-0.2zm2.4-2.4l7.4 2.6c0.6 0.2 0.8 0.2 1-0.2 0.6-1.4-0.6-2.8-3.8-4-2.4-0.8-4.8-0.6-5.2 0.6-0.2 0.4 0 0.8 0.6 1zm70.2 63c0.6 1.6 0.6 3.4 0.2 5-0.4 1.2-1.2 2.2-2.4 2.6-1 0.4-2.4 0.2-3.4-0.4-1.4-1-2.4-2.4-2.8-4-0.6-1.6-0.6-3.4-0.2-5 0.4-1.2 1.2-2.2 2.4-2.6 1.2-0.4 2.4-0.2 3.4 0.4 1.4 1 2.4 2.4 2.8 4zm-2.2 0.8c-1.2-3.4-2.2-4.2-3.4-3.8-1.4 0.6-1.2 3-0.2 5.4 1.2 3 2.2 4.2 3.4 3.8 1.4-0.6 1.2-2.4 0.2-5.4zm-53.8-20c-0.6 1.6-1.8 3-3.2 3.8-1.4 1-3 1.4-4.8 1.4-1.2 0-2.4-0.6-3-1.6-0.8-1-0.8-2.2-0.4-3.4 0.6-1.6 1.8-3 3.2-3.8 1.4-1 3-1.6 4.8-1.4 1.2 0 2.4 0.6 3 1.6 0.6 1 0.8 2.2 0.4 3.4zm-1.6-2.6c-0.8-1.2-3-0.2-5.2 1.2-2.8 1.8-3.8 3-3 4.2 0.8 1.2 2.6 0.6 5.2-1.2 3-2 3.6-3.2 3-4.2zm48 29.6l0.4 0.6c0.2 0.4 0 0.6-0.4 0.6l-2.6 0.4c-0.4 0.2-0.6 0-0.6-0.4l0.2-0.6c0.2-0.6 0.4-1.2 0.2-1.8 0-1.2-0.4-3.4-0.4-4.2-0.4-3.2-1-4-2.2-3.8-1.2 0-1.6 0.8-1.4 3.4 0.2 2.8 0.6 4.8 0.6 5.2 0 0.4 0.2 0.8 0.4 1.2l0.4 0.6c0.2 0.4 0 0.6-0.4 0.6l-1.8 0.2c-0.4 0.2-0.6 0-0.6-0.4l0.2-0.6c0.2-0.4 0.2-1 0-1.6-0.2-1-0.4-2.2-0.6-4.8-0.4-3.4 0.6-4.8 3-5 2.4-0.2 4 1.2 4.2 4.6l0.6 4.8c0 0.6 0.2 1 0.8 1zm-53.2-84.2c-1-1.4-0.8-3.2 0.2-4.6 0.2-0.4 0.8-0.6 1.2-0.8 0.4-0.2 0.4-0.4 0.6-0.8v-0.2c0.2-0.4 0.6-0.4 0.8-0.2l1.6 1.4c0.4 0.4 0.6 0.6 0.4 0.8-0.2 0.4-0.6 0.2-1.2 0-1.2-0.4-1.8-0.2-2.2 0.2-1 1 0.4 3.2 2.4 4.8 2.4 1.8 4.2 2.4 5.2 1.2 0.4-0.6 0.4-1.4 0.2-2 0-0.4 0.2-0.8 0.4-0.8 0.2 0 0.4 0.4 0.6 0.6 0.6 1 0.4 2.4-0.2 3.4-0.6 0.8-1.6 1.4-2.6 1.4-1.8 0.2-3.6-0.4-5-1.6-1-0.8-2-1.8-2.4-2.8zm82.4 2.2c0-0.6 0.4-1 1-1 0.6 0 1 0.4 1 1 0 0.6-0.4 1-1 1-0.4 0-1-0.4-1-1zm-10.2 67.8c0.6 0 1 0.4 1 0.8 0 0.4-0.4 1-0.8 1 0 0 0 0-0.2 0-0.6 0-1-0.4-1-1 0-0.2 0.4-0.6 1-0.8zm9.8-45.2c0.2 2 0.4 4.2 0.4 6.2 0 21.6-17.8 39.4-39.4 39.4-21.6 0-39.4-17.8-39.4-39.4 0-21.6 17.8-39.4 39.4-39.4 2 0 4.2 0 6.2 0.4 16.8 2.8 30 16 32.8 32.8zm-87 17.4c0.6 0 1 0.4 1 1 0 0.4-0.4 0.8-0.8 1-0.6 0-1-0.4-1-1 0-0.6 0.4-1 0.8-1zm20 25.4l-4.6 5.4c-0.4 0.4-0.6 0.8-0.8 1.2l-0.2 0.8c-0.2 0.2-0.2 0.2-0.2 0.2q-0.3 0.3-0.6 0l-2-1.6c-0.2-0.2-0.2-0.2-0.2-0.2 0-0.2 0-0.4 0.2-0.6l0.6-0.2c0.4-0.2 0.8-0.4 1-0.8 0.4-0.4 4.6-5.4 4.8-5.6 0.2 0 0.2-0.2 0.2-0.2 0.2-0.2 0.2-0.6-0.2-0.8l-0.4-0.4c-0.4-0.4-0.6-0.6-1.2-0.4-0.6 0.2-0.8 0.4-1.2 0.2q-0.3-0.3 0-0.6c0 0 1.2-1.4 1.4-1.6 0.4-0.2 0.8-0.2 1 0l4 3.4c0.2 0.2 0.2 0.2 0.2 0.2q0.3 0.3 0 0.6l-0.6 0.2c-0.2 0.2-0.4 0.4-1.2 0.8zm9.4 4.4l-8 7.6c-0.4 0.4-0.6 0.6-0.8 0.4-0.2-0.2-0.2-0.4-0.2-0.8 0-0.4 2-10.2 2.2-10.6 0-0.2 0-0.6 0-0.8 0-0.4 0-0.6 0-0.8 0.2 0 0.2-0.2 0.2-0.2q0.3-0.3 0.6 0l1.8 1.2c0.4 0.2 0.6 0.2 0.4 0.6l-0.8 0.4c-0.2 0.2-0.2 0.4-0.4 1-0.2 0.2 0 0.4 0.2 0.6 0.4 0.4 1 0.8 1.6 1.2q0.3 0.3 0.6 0c0.4-0.4 0.8-0.8 0.8-1l0.2-0.8c0.2-0.2 0.4-0.2 0.8 0l1.6 0.8h0.2c0.2 0.2 0.4 0.4 0.2 0.6zm-4.2 1.2l-1.2-0.8c0 0-0.2 0-0.2 0.2l-1 3.4c0 0 0 0 0.2 0l2.4-2.4c0.2-0.2 0-0.2-0.2-0.4zm75.4-25.4c0.4 0.4 0.6 0.6 0.6 0.8 0 0.4-0.2 0.4-0.6 0.4h-11c-0.2 0-0.6 0-0.8 0.2-0.2 0.2-0.4 0.2-0.6 0.2-0.2 0-0.4-0.2-0.4-0.4v-0.2l0.8-2.2c0.2-0.4 0.2-0.6 0.6-0.6 0.4 0 0.4 0.4 0.6 0.6 0.4 0.2 0.6 0.2 1.2 0.2 0.2 0 0.6-0.2 0.6-0.4 0 0 0.6-1.6 0.8-1.8 0-0.2 0-0.4-0.2-0.6-0.6-0.4-0.8-0.6-1.2-0.6h-0.8c-0.2-0.2-0.4-0.4-0.2-0.8l0.4-1.6c0-0.2 0.2-0.6 0.6-0.4l0.8 0.8zm-3.8-0.8l-3-2-0.2 0.2-0.6 1.4c0 0.2 0 0.2 0.2 0.2zm-49.2 28l-0.4 0.6c-0.2 0.4-0.4 0.8-0.4 1.2l-0.8 7.2c0 0.6 0 1 0 1.4l0.2 0.6c0 0.4-0.2 0.4-0.6 0.4l-3.4-0.2c-0.2 0-0.2 0-0.2 0-1.8-0.4-3.2-2.2-2.8-4 0.4-2 1.6-2.4 2-2.4 0.4-0.2 0.2-0.4 0.2-0.6l-1-3.6c0-0.4-0.2-1-0.6-1.2-0.4-0.2-0.4-0.4-0.4-0.6 0 0 0-0.2 0.4-0.2 0.4 0 1.2 0.2 1.6 0.2 0.4 0 0.6 0.2 0.8 0.4 0.2 0.2 1.4 4 1.6 4.6 0.4 0.6 0.6 0.6 0.6 0.2l0.2-2.4c0-0.6 0-1 0-1.4l-0.2-0.6c0-0.4 0.2-0.4 0.6-0.4l2.4 0.2c0.4 0.2 0.6 0.4 0.2 0.6zm-3.4 6.2c0-0.4 0-0.6-0.4-0.6-0.4 0-1.6 0.2-1.8 1.8 0 0.2 0 0.2 0 0.4 0 0.8 0.8 1.6 1.6 1.6 0.2 0 0.4 0 0.4-0.4 0-0.4 0.2-2.8 0.2-2.8zm41.8-46.4c0.2-1.2 0.2-2.6 0.2-3.8 0-21-17.2-38.2-38.2-38.2-21 0-38.2 17.2-38.2 38.2 0 21 17.2 38.2 38.2 38.2 1.4 0 2.6 0 4-0.2 17.8-2 32.2-16.2 34-34.2zm-74.4 28.8c0.6 0 1 0.4 1 0.8 0 0.6-0.4 1-0.8 1 0 0 0 0-0.2 0-0.6 0-1-0.4-1-1 0-0.4 0.4-0.8 1-0.8zm65-65.4l5-8q0.3-0.6 0.6-1.2c0-0.4 0-0.6 0-0.8 0-0.2 0-0.2 0-0.2q0.3-0.3 0.6 0l1.8 1.6c0.2 0.2 0.2 0.2 0.2 0.2q0.3 0.3 0 0.6l-0.6 0.4c-0.4 0.2-0.6 0.4-0.8 0.8l-2.2 3.6c-0.2 0.2 0 0.2 0.2 0.2l3-1.4c0.4-0.6 0.8-1.4 1.2-2 0.2-0.4 0.2-0.6 0.2-0.8 0.2-0.2 0.2-0.2 0.2-0.2q0.3-0.3 0.6 0l1.4 1.6c0.2 0.2 0.2 0.2 0.2 0.2 0 0.2 0 0.4-0.2 0.6l-0.6 0.2c-0.2 0.2-0.6 0.4-0.8 0.8l-2.8 3.4c-0.2 0.2 0 0.4 0.2 0.2 1.2-0.8 3.8-2.2 4-2.4 0.2-0.4 0.6-0.6 0.6-0.8 0-0.2 0-0.4 0.2-0.6 0.2-0.2 0.2-0.2 0.2-0.2q0.3-0.3 0.6 0l1 1.2c0.2 0 0.2 0.2 0.2 0.2 0 0.2 0 0.4-0.2 0.6l-0.8 0.2-9.6 5.8c-0.2 0-1.2 0-0.6-1l2.8-4c0-0.2 0-0.2-0.2-0.2l-4.8 2.2c-0.4 0.2-1.2-0.2-0.8-0.8zm-6-6.8l4-6q0.3-0.6 0.6-1.2v-0.8c0-0.4 0.4-0.4 0.6-0.2l4.6 3c0.2 0.2 0.2 0.2 0.2 0.4v0.2l-0.8 1.2c-0.2 0.4-0.4 0.4-0.6 0.4-0.2-0.2-0.2-0.4-0.2-0.6 0-0.6-0.2-1-0.6-1.4-0.6-0.4-1.4-0.8-1.6-0.4-0.4 0.4-1.6 2.4-1.6 2.4-0.2 0.2 0 0.6 0.2 0.6 0.4 0.2 0.8 0.6 1 0.4 0.2-0.2 0.6-0.4 0.8-0.2 0.2 0.2 0 0.4-0.2 0.8l-0.8 1.2c-0.2 0.4-0.6 0.8-0.8 0.6-0.4-0.2-0.2-0.6-0.2-0.8 0-0.2-0.4-0.6-0.8-0.8q-0.3-0.3-0.6 0c-0.4 0.4-1.8 2.6-1.8 2.6-0.4 0.4-0.2 0.8 0.2 1l0.8 0.6c0.4 0.2 1 0.4 1.4 0.2 0.6-0.2 1.2-0.8 1.6-0.6 0.2 0 0.2 0.4 0 0.6 0 0-1 1.4-1.2 1.6-0.4 0.2-0.8 0.2-1 0l-4.8-3.2c0-0.2-0.2-0.2-0.2-0.2q-0.3-0.3 0-0.6l0.6-0.4c0.4-0.2 0.6-0.6 1.2-0.4zm-78.2 34.4l0.8-5.8c0.2-0.2 0.4-0.4 0.6-0.4l1.4 0.2c0.4 0 0.6 0.2 0.6 0.4 0 0.2-0.2 0.2-0.4 0.4-0.4 0.2-0.8 0.6-1 1.2 0 0.6-0.2 1.8 0.2 1.8 0.6 0 3 0.4 3 0.4 0.2 0 0.4-0.2 0.4-0.4 0.2-0.4 0.2-0.8 0-1 0 0-0.4-0.2-0.4-0.6 0-0.2 0.4-0.2 0.8-0.2l1.6 0.2c0.4 0 0.8 0 0.8 0.4 0 0.4-0.4 0.6-0.6 0.6-0.2 0.2-0.4 0.6-0.4 1-0.2 0.2 0 0.4 0.2 0.4 0.4 0.2 3 0.4 3 0.4 0.6 0.2 0.8-0.2 0.8-0.6l0.2-0.8c0.2-0.6 0.2-1-0.2-1.4-0.4-0.6-1.2-0.8-1.2-1.2 0-0.4 0.2-0.4 0.6-0.4 0 0 1.6 0.4 2 0.4 0.2 0 0.4 0.4 0.4 0.8l-0.8 5.4c0 0.2-0.2 0.4-0.6 0.4l-0.6-0.4c-0.6-0.2-1-0.2-1.4-0.2l-7.2-1c-0.6 0-1 0-1.4 0l-0.6 0.2c-0.2 0-0.4-0.2-0.6-0.2zm33-45.2v-0.2c0-0.2 0.2-0.4 0.4-0.4l5.4-2c0.2 0 0.6 0.2 0.6 0.4l0.4 1.2c0.2 0.6 0.2 0.8 0 0.8-0.2 0-0.4 0-0.6-0.2-0.4-0.2-0.8-0.4-1.4-0.2-0.6 0.2-1.6 0.8-1.4 1.2 0.4 1 0.6 2 1 2.8 0 0.2 0.2 0.2 0.4 0.2 0.4-0.2 0.8-0.4 0.8-0.6 0-0.2 0-0.8 0.4-0.8 0.2-0.2 0.4 0.2 0.6 0.6l0.6 1.4c0.2 0.2 0.2 0.6 0 0.8-0.4 0-0.6-0.4-0.8-0.4-0.2 0-0.6 0-1 0.2 0 0-0.2 0.2-0.2 0.4 0.2 0.6 1 3 1 3 0.2 0.6 0.6 0.6 1 0.4l0.8-0.2c0.6-0.2 0.8-0.4 1-0.8 0.2-0.6 0-1.4 0.4-1.6 0.4 0 0.4 0 0.6 0.4 0.2 0.6 0.4 1.4 0.6 2 0 0.4-0.2 0.8-0.6 0.8l-5.2 1.8h-0.2c-0.2 0-0.4-0.2-0.4-0.4v-0.8c0-0.6-0.2-1-0.4-1.4l-2.4-6.8q-0.3-0.6-0.6-1.2zm13.8-1v-0.8l0.6 0.2c4 1.4 5 0.8 5.4 0.6 0.2 0 0.2-0.2 0.2-0.4-0.4-1-0.8-2-1.2-2.8l-0.4-0.6h0.6c1-0.2 2-0.2 3-0.2h0.6c1 0 2.2 0.2 3.2 0.2h1.2l-0.4 0.6c-0.4 0.8-0.8 1.6-1 2.4 0 0.4 0.2 0.6 0.4 0.8 0.4 0.2 1.6 0.8 5.2-0.6l0.6-0.2v0.6c-0.2 2-0.4 4-1 6l-0.2 0.8-0.6-0.6c-1-1-2.4-1.6-3.8-1.8-0.6 0-0.8 0.2-0.8 0.2-0.4 0.6 0.2 2.2 0.8 3.4l0.4 0.8h-0.8c-1-0.2-1.8-0.2-2.8-0.2-0.6 0-3.6 0-4.2 0l0.4-0.8c0.6-1.2 1-2.8 0.6-3.4 0 0-0.2-0.2-0.8-0.2-1.4 0.2-2.8 0.8-3.8 1.8l-0.6 0.6-0.2-0.8c-0.4-2-0.8-4-0.6-5.6zm0.6 0.2c0.2 1.6 0.4 3 0.8 4.4 1-0.8 2.4-1.4 3.8-1.6 0.6-0.2 1.2 0 1.6 0.6 0.8 1 0.2 2.6-0.2 3.6 0.6 0 4 0 4.6 0-0.8-1-0.8-2.4-0.4-3.6 0.4-0.4 1-0.8 1.6-0.6 1.4 0.2 2.6 0.6 3.8 1.6 0.4-1.6 0.6-3 0.6-4.4-2.6 1-4.4 1-5.4 0.2-0.4-0.4-0.6-1-0.6-1.6 0.2-0.8 0.4-1.6 0.8-2.2-1-0.2-2-0.2-3-0.2h-0.6c-0.8 0.2-1.6 0.2-2.4 0.2 0.4 0.8 0.8 1.6 1 2.4 0.2 0.6 0 1-0.4 1.4-0.8 0.8-2.8 0.8-5.6-0.2zm20.4 9.6h-0.2q-0.3-0.3 0-0.6l0.6-0.4q0.3-0.6 0.6-1.2l2.6-6.8c0.2-0.4 0.4-0.8 0.4-1.2l-0.2-0.8v-0.2c0.2-0.2 0.4-0.4 0.6-0.2l1.6 0.6c0.6 0.2 0.6 0.6 0.6 1.4l0.2 5.8c0 0.2 0.2 0.2 0.4 0l1.6-3.6c0.2-0.4 0.4-0.8 0.4-1.2 0-0.4 0-0.6 0-0.8 0-0.4 0.4-0.4 0.6-0.2l1.8 0.8c0.2 0 0.4 0.4 0.2 0.6l-0.6 0.4c-0.4 0.4-0.6 0.8-0.8 1.2l-3.4 8c-0.4 1-0.6 0.8-1.2 0.6-0.4-0.2-0.8-0.2-0.8-0.6l-0.4-7.8c0-0.2-0.2-0.4-0.2-0.2l-1.8 4.6c-0.2 0.4-0.4 0.8-0.4 1.2v0.8c0 0.2-0.4 0.4-0.6 0.2zm37.8 24.4q0.6-0.3 1.2-0.6l0.6-0.6c0.4 0 0.6 0 0.6 0.4l0.6 1.6c0 0.4-0.2 0.6-0.8 1.2l-4.6 3.8c-0.2 0-0.2 0.2 0.2 0.2l3.8-1c0.4 0 0.8-0.2 1.2-0.4l0.6-0.4h0.2c0.2 0 0.4 0.2 0.4 0.4l0.4 1.8c0 0.4 0 0.6-0.4 0.6l-0.8-0.2c-0.6-0.2-1-0.2-1.4 0l-8.4 2.2c-1 0.2-1 0-1.2-0.6-0.2-0.4-0.2-0.8 0-1l6-5c0.2-0.2 0.2-0.4 0-0.4l-4.8 1.2c-0.4 0-0.8 0.2-1.2 0.4l-0.6 0.4c-0.4 0.2-0.6 0-0.6-0.4l-0.6-1.8c0-0.4 0-0.6 0.4-0.6l0.8 0.2c0.6 0 1 0 1.4-0.2zm-0.8 42.2q0.3 0.3 0 0.6l-0.8 1.4c-0.2 0.4-0.6 0.4-1.4 0.4l-5.8-0.6c-0.4-0.2-0.4 0-0.2 0.2l3.4 2q0.6 0.3 1.2 0.6h0.8c0.2 0 0.2 0.4 0 0.6l-1.2 1.6c0 0.4-0.4 0.4-0.6 0.2l-0.4-0.6c-0.2-0.2-0.6-0.6-1-0.8l-7.6-4.6c-0.8-0.4-0.6-0.6-0.2-1.2 0.2-0.4 0.4-0.6 0.8-0.6l7.8 0.8c0.2 0 0.4 0 0.2-0.2l-4.2-2.6q-0.6-0.6-1.2-0.6h-0.8c-0.2 0-0.4-0.2-0.4-0.4l0.2-0.2 0.8-1.6c0.2-0.2 0.2-0.2 0.2-0.2q0.3-0.3 0.6 0l0.4 0.6c0.2 0.4 0.6 0.6 1 0.8l6.4 3.8q0.6 0.6 1.2 0.6c0.2 0 0.8 0 0.8 0zm-58.6 17.4h0.2c0.2 0.2 0.4 0.4 0.2 0.6l-0.6 0.4q-0.3 0.6-0.6 1.2l-2.4 7c-0.2 0.6-0.2 1-0.2 1.4l0.2 0.8c0 0.4-0.2 0.6-0.6 0.4l-1.6-0.4c-0.4 0-0.4-0.4-0.6-1.2l-0.8-5.8c0-0.2-0.2-0.4-0.4 0l-1.2 3.6c-0.2 0.4-0.4 0.8-0.4 1.2 0 0.4 0 0.6 0 0.8 0 0.4-0.4 0.4-0.6 0.2l-1.8-0.8c-0.2 0-0.4-0.2-0.2-0.6l0.6-0.4q0.3-0.6 0.6-1.2l2.8-8.4c0.4-1 0.6-0.8 1.2-0.6 0.4 0.2 0.8 0.2 0.8 0.6l1 7.8c0 0.2 0.2 0.4 0.2 0.2l1.6-4.8c0-0.4 0.2-0.8 0.2-1.2l-0.2-0.8v-0.2c0.2-0.2 0.4-0.4 0.6-0.2zm-23.6-86.6c-0.2-0.4 0-0.6 0.2-0.8l1.4-1c0.4-0.2 0.8 0 1.4 0.4l5 3.2c0.2 0.2 0.4 0 0.2-0.2l-2-3.4c-0.2-0.4-0.4-0.6-0.8-1l-0.6-0.4v-0.2c-0.2-0.2 0-0.6 0.2-0.6l1.6-1h0.2c0.4 0 0.6 0.2 0.6 0.4v0.8c0 0.4 0.2 0.8 0.4 1.2l4.4 7.4c0.6 0.8 0.4 0.8-0.2 1.2-0.4 0.2-0.6 0.4-1 0.2l-6.4-4.2c-0.2 0-0.4 0-0.4 0.2l2.6 4.2c0.2 0.4 0.4 0.8 0.8 1l0.6 0.4c0.2 0.2 0.2 0.2 0.2 0.4 0 0.2 0 0.4-0.2 0.4l-1.6 1.2h-0.2c-0.4 0.2-0.6 0-0.6-0.2v-0.8q-0.3-0.6-0.6-1.2l-3.8-6.2c-0.2-0.4-0.4-0.8-0.8-1z"
     id="path8"
     style="fill:#fcec52;fill-opacity:1" />
  <path
     fill-rule="evenodd"
     class="b"
     d="m181.4 52.3l0.4-0.8 2.4-1 0.6-0.6 0.2-2.4 1-17.6-0.2-0.6h-5l-0.8 0.8-1.4 3.6-1.2 0.4 0.2-4-0.2-2.4 4 0.2h10.4l5.4-0.4-0.2 2-0.2 4.6-1.2-0.4-1-3.8-0.4-0.6h-5.2l-0.4 0.6-0.8 17.2 0.2 2.8 0.4 0.6 2.2 1 0.4 0.8zm31-2c-1 1.4-2.6 2.4-4.2 2.4h-0.8l0.6-12.6v-0.6c0-0.6 0-1.4-0.2-2l-1-0.2-4.6 2.6-0.4 9.8c0 1 0 1.8 0.2 2.8h-3l1.2-22.8-1.6-3.6 4.4-0.8 0.2 0.4-0.6 7.8-0.2 4.8 0.2 0.2c2.6-3.2 4.2-4.2 6.2-4.2 1-0.2 1.8 0.6 2 1.4 0 0.2 0 0.2 0 0.4l-0.6 13.2 0.2 0.2 2.4-0.2c-0.2 0.2-0.4 0.6-0.4 1zm7 2.8c-2.4 0-3.8-2.4-3.8-6.2 0-3.2 0.8-6.4 2-9.4 0.6-1.8 2.4-2.8 4.2-2.8 2.4 0 3.6 1 3.6 3.2 0 1-0.2 2-0.8 2.8-1.6 2-3.8 3.4-6.2 4.4q0 0.9 0 1.2c0 2.6 0.8 4 2.6 4 0.2 0 0.6-0.2 1-0.2l3.8-0.8 0.2 0.2c-1.8 1.8-4.2 3-6.6 3.6zm1.8-16.4h-1.6c-0.6 0.8-0.8 2-1 3-0.2 1.2-0.4 2.4-0.4 3.6 3.2-2 4.4-3.4 4.4-5.2 0-0.8-0.2-1.2-1.4-1.4zm61.2-10.6l-0.8 25.6-2.2 1.8-22.8-27.4 0.4 19.2c0 3.8 1.6 5.4 6.4 5.6v1.4h-16.4v-1.4c4.6-0.4 5.8-1.6 6-5.6l0.8-16.6c0-5.4-1-7-5.8-8.6v-1.4h9.2l21.8 26.2-0.6-19c-0.2-3.8-1.4-5.2-5.8-5.8v-1.4h15.6v1.4c-4.6 0.8-5.6 2-5.8 6zm41 26.2h-28v-1.4c4.4-0.4 5.6-1.6 5.6-5.4v-19.4c0-4.2-0.8-5.4-4.6-6v-1.4h25.6l1 7.6-1.4 0.4c-2.4-4.6-4-5.6-8.8-5.8l-6.2-0.2v13l4.8-0.2c3.6-0.2 4.4-1 5.4-5h1.4v12.2h-1.4c-1-3.8-2.2-4.8-5.4-4.8l-4.8-0.2v9.4c0 4.2 0.8 4.8 6.4 4.8 5.4 0 7.4-1.4 10.6-6.6l1.4 0.4zm54.4-26.4l-8.8 23.2q-0.6 2.4-2.4 4.2l-9-25.8-9.4 22.2c-0.4 1.4-1.2 2.6-2 3.6l-10.6-29.8c-0.6-1.8-1.6-2.4-4.2-3.2v-1.4h12.4v1.4c-1.6 0.4-2.6 1.2-2.6 2 0 0.6 0.2 1.4 0.4 2l6.4 19.4 6.8-16.4c0.4-1.2 0.8-2.2 0.8-3.4 0-1.8-1-2.8-4-3.4v-1.4h13.2v1.4c-2.4 0.4-3.2 1.2-3.2 2.6 0 0.6 0.2 1.2 0.4 1.8l7 19.2 4.8-15.4c0.6-1.6 1-3.4 1.2-5.2 0-1.4-0.8-2.6-3.6-3v-1.4h12.8v1.4c-3.2 0.2-5.6 2.4-6.4 5.4zm57.4 26.4h-28v-1.4c4.4-0.4 5.6-1.6 5.6-5.4v-19.4c0-4.2-0.8-5.4-4.6-6v-1.4h25.6l1 7.6-1.4 0.4c-2.4-4.6-4-5.6-8.8-5.8l-6.2-0.2v13l4.8-0.2c3.6-0.2 4.4-1 5.4-5h1.4v12.2h-1.4c-1-3.8-2.2-4.8-5.4-4.8l-4.8-0.2v9.4c0 4.2 0.8 4.8 6.4 4.8 5.4 0 7.4-1.4 10.6-6.6l1.4 0.4zm46.8-26.2l-0.8 25.6-2.2 1.8-22.8-27.4 0.4 19.2c0 3.8 1.6 5.4 6.4 5.6v1.4h-16.4v-1.4c4.6-0.4 5.8-1.6 6-5.6l0.8-16.6c0-5.4-1-7-5.8-8.6v-1.4h9.2l21.8 26.2-0.6-18.8c-0.2-3.8-1.4-5.2-5.8-5.8v-1.4h15.6v1.4c-4.6 0.6-5.8 1.8-5.8 5.8zm46 16.4v3.4l0.8 5.2c-0.6 0-1.2-0.2-1.8-0.2-1 0-0.2 0-5.6 1.2-2.6 0.6-5.2 1-7.8 1-6 0-9.6-1-13.2-4-4-3.2-6.2-8-6.2-13.2 0-10.6 7-17.8 20-17.8 4.2 0.2 8.4 0.8 12.6 2.2l0.4 7.8-1.2 0.8c-4-6.8-6.8-8.6-12.8-8.6-7.6 0-12.8 6-12.8 15 0 8.8 5.8 15 14.2 15 5 0 7.8-2 7.8-5.8v-1.8c0-3.6-1.4-5-5.8-5.8v-1.6h16v1.4c-3.4 1.4-4.6 2.6-4.6 5.8zm39.6 9.8h-27.6v-1.4c4.6-0.4 5.8-1.6 5.8-5.4v-18.6c0-4.4-0.6-5.6-4.2-6.8v-1.4h15.4v1.4c-4.6 0.4-5.8 1.6-5.8 5.4v19.4c0 3.6 1.8 5.2 6.4 5.2 4.8 0 7.4-2.4 9.6-9.2l1.4 0.4zm31.8 0v-1.4c1.8-0.4 2.8-1.2 2.8-2.2-0.2-0.8-0.4-1.4-0.6-2l-2.2-5.6h-13.4l-1.4 4c-0.4 0.8-0.6 1.6-0.6 2.6 0 1 0.4 1.8 1.2 2.2 1 0.6 2.2 1 3.4 1v1.4h-13.2v-1.4c3.4-1 4-1.6 5.6-5.4l10.8-27h4.2l11.6 29.4c0.6 1.4 1.4 2.2 3.6 3v1.4zm-7.2-29.4l-5.6 15.8h11.4zm60.8 3.2l-0.8 25.6-2.2 1.8-22.8-27.4 0.4 19.2c0 3.8 1.6 5.4 6.4 5.6v1.4h-16.4v-1.4c4.6-0.4 5.8-1.6 6-5.6l0.8-16.6c0-5.4-1-7-5.8-8.6v-1.4h9.2l21.8 26.2-0.6-19c-0.2-3.8-1.4-5.2-5.8-5.8v-1.4h15.6v1.4c-4.6 0.8-5.6 2-5.8 6zm31 26.4c-2.2 0-5-0.2-8.6-0.4h-10v-1.4c4.8-0.4 6-1.6 6-6v-18.4c0-4.2-0.8-5.2-4.6-5.6v-1.4l5-0.2c3.8-0.2 6.6-0.4 8.8-0.4 4.4-0.2 9 0.6 13 2.6 5.6 2.6 9.2 8.2 9.2 14.4 0 10.2-7.6 16.8-18.8 16.8zm9-25.8c-1.4-1.2-3-2.4-4.8-3.2-3.4-1.6-5.8-2-11.6-2.2v23.4c0 3.8 2 5.6 5.8 5.6h0.6c7.6 0 14-6.4 14-14.2 0-3.4-1.4-6.8-4-9.4zm-515.6 95.6c7.2-3.4 10.2-8.2 10.2-14l-0.2-24c0-3.8-1.2-5-5.8-5.4v-1.4h17v1.6c-4.2 0.4-5.2 1.6-5.4 5.2l-0.4 22.2c-0.2 10-5.6 15.6-14.6 16.6zm46.4-10.6c-10.8 0-18.6-7.2-18.6-17.2 0-10.4 7.2-17.6 18.6-17.6 11 0 18.8 7.4 18.8 17.6 0 10.2-7.6 17.4-18.8 17.2zm-0.8-32.4c-6.8 0-11.6 6-11.6 14.4 0 8.8 5.8 15.6 13.4 15.6 6.6 0 11.6-5.6 11.6-14 0-9-5.4-15.8-13.4-16zm60 5.6l-0.4 12.2c-0.4 8-1.4 9-3.8 11.4-2.2 2.4-6.2 3.2-10.6 3.2-3.2 0-6.2-0.6-9-2.2-1.2-0.8-2.4-1.8-3.4-2.8-1.6-2-2-4.2-2-8.6v-12.8c0-4.2-0.8-5.4-4.2-6.6v-1.4h15.6v1.4c-4.6 0.6-6 1.8-6 6v12.8c0 4 0.8 6.4 3.4 8.4 2 1.8 4.6 2.6 7.2 2.6 2.6 0 5.2-1 7-2.6 1.8-1.6 2.4-4 2.4-7.8v-0.8l-0.4-12.6c-0.2-4.2-1.2-5.2-5.4-6v-1.4h14.2v1.4c-3.8 1.2-4.6 2.2-4.6 6.2zm43.2 26.6c-3.4 0-6.6-1.4-8.8-3.8-3.2-3.2-5.6-6.8-7.6-10.8-1 0.2-1.8 0.2-2.4 0.2-0.6 0-1.4-0.2-2.6-0.2v7.2c0 3.6 1.2 4.8 5.4 5.4v1.4h-16.4v-1.4c4.2-0.4 5.4-1.6 5.4-5.4v-18.8c0-4.2-1-5.6-5-6.6v-1.4l9.2 0.6c2.4-0.6 5-0.8 7.4-0.8 6.2 0 10 3 10 8 0 1.8-0.6 3.6-1.4 5.2q-1.8 3.3-4.8 5.4c2.8 4.2 6 8 9.6 11.6 1.8 1.6 3.4 2.2 7.4 2.8v1c-1.8 0.6-3.4 0.8-5.4 0.4zm-12.8-29.4c-2-1.6-3-2.2-8.6-2.2v14c1.2 0.6 2.6 1 4 1 1.2 0.2 2.4 0 3.4-0.4 2.2-1.4 3.6-3.8 3.6-6.6 0.2-2.2-0.8-4.2-2.4-5.8zm58.2 2.6l-0.8 25.6-2.2 1.8-22.8-27.4 0.4 19.2c0 3.8 1.6 5.4 6.4 5.6v1.4h-16.6v-1.4c4.6-0.4 5.8-1.6 6-5.6l0.8-16.6c0-5.4-1-7-5.8-8.6v-1.4h9.2l21.8 26.2-0.6-19c-0.2-3.8-1.4-5.2-5.8-5.8v-1.4h15.6v1.4c-4.4 1-5.6 2.2-5.6 6zm45 26.4h-11.6v-1.4c1.8-0.4 2.8-1.2 2.8-2.2-0.2-0.8-0.4-1.4-0.6-2l-2.2-5.6h-13.4l-1.4 4c-0.4 1-0.6 1.8-0.6 2.8 0 0.8 0.4 1.6 1 2 1 0.6 2.2 1 3.4 1v1.4h-13.2v-1.4c3.4-1 4-1.6 5.6-5.4l10.8-27h4.2l11.6 29.4c0.6 1.4 1.4 2.2 3.6 3zm-18.8-29.4l-5.6 15.8h11.4zm53.8 29.4h-27.6v-1.4c4.4-0.4 5.8-1.6 5.8-5.4v-18.6c0-4.4-0.6-5.6-4-6.8v-1.4h15.4v1.4c-4.6 0.4-5.8 1.6-5.8 5.4v19.4c0 3.6 1.8 5.2 6.4 5.2 5 0 7.4-2.4 9.6-9.2l1.4 0.4zm28.6 0.4c-3.8 0-5.4-2.4-5.4-7.8 0-2 0.2-4.2 0.8-6.2 1.2-4.8 3.8-7 7.8-7 3.8 0 5.6 2 5.6 7.8-0.2 8.8-3 13.2-8.8 13.2zm1.8-18.4h-2l-0.6 1.2c-1 2.8-1.4 5.6-1.4 8.6-0.2 1.8 0.2 3.4 1 5 0.4 0.6 1.2 0.8 2.8 0.8h2c0.6-1.2 1.2-2.6 1.4-4 0.4-1.8 0.6-3.8 0.6-5.8 0-4.4-0.8-5.6-3.8-5.8zm27-8.8c-0.8-0.4-1.8-0.8-2.6-1.2l-4-1.6c-1.8 0.6-2.4 2-2.8 6.6l-0.2 4h4.4l-0.2 2.4h-4.4l-0.8 16.8c-0.2 4-0.6 5.6-1.8 7.2-1.4 1.4-3.4 2.2-5.4 2-2.2 0-4.4-0.4-6.2-1.4l1.2-3c0.8 0.6 1.8 1 2.8 1.4l3.6 1.4c2.2-0.6 3-2.2 3-7.4l0.4-16.8h-3.8l0.2-2.4h3.8l0.2-5.2c-0.2-3.6 2.6-6.8 6.2-7 0.4 0 0.6 0 1 0 2.4 0 4.8 0.4 6.8 1.4zm52.6 26.8v-1.4c2.4-0.6 3.2-1.4 3.2-3.6v-0.4l-2-21.6-12.2 28.6-12.2-28-1.8 16.8c-0.2 1.2-0.2 2.2-0.2 3.4 0 3.2 1.2 4.2 5 5v1.4h-14.2v-1.4c3.8-0.8 5-2 5.4-5.2l2.8-17.4c0.4-2.4 0.6-4.2 0.6-5 0-2.2-1.4-3.2-4.6-3.2v-1.4h10l10.6 24.2 10.4-24.2h10v1.4c-3.4 0.2-4.6 1-4.6 3.2 0 0.4 0 0.8 0 1.4l2.2 22.8c0.2 2.4 1 3 3.6 3.4v1.4zm48 0h-28v-1.4c4.4-0.4 5.6-1.6 5.6-5.4v-19.4c0-4.2-0.8-5.4-4.6-6v-1.4h25.6l1 7.6-1.4 0.4c-2.4-4.6-4-5.6-8.8-5.8l-6.2-0.2v13l4.8-0.2c3.6-0.2 4.6-1 5.4-5h1.4v12.2h-1.4c-1-3.8-2.2-4.8-5.4-4.8l-4.8-0.2v9.4c0 4.2 0.8 4.8 6.4 4.8 5.4 0 7.4-1.4 10.6-6.6l1.4 0.4zm29.2 0.4c-2.2 0-5-0.2-8.6-0.4h-10v-1.4c4.8-0.4 6-1.6 6-6v-18.6c0-4.2-0.8-5.2-4.6-5.6v-1.4l5-0.2c3.8-0.2 6.6-0.4 8.8-0.4 4.6-0.2 9.2 0.6 13.2 2.6 5.6 2.6 9.2 8.2 9.2 14.4 0 10.2-7.6 17-19 17zm9.4-26c-1.4-1.2-3-2.4-4.8-3.2-3.4-1.6-5.8-2-11.6-2.2v23.4c0 3.8 2 5.6 5.8 5.6h0.4c7.6 0 14-6.2 14-14.2 0-3.6-1.4-7-3.8-9.4zm18.4 25.6v-1.4c4.6-0.4 6-1.6 6-5.4v-19.8c0-3.8-1.2-5-5.4-5.6v-1.4h16.8v1.4c-4.6 0.4-6 1.6-6 5.6v19.8c0 3.8 1.4 5.2 6 5.4v1.4zm55.8-0.8c-3.4 1-6.8 1.6-10.4 1.4-4.4 0.4-8.6-1-12.2-3.6-4.2-3.4-6.6-8.4-6.6-13.8 0-10.2 7.2-17.4 19-17.4 3.8 0 7.6 0.8 11 2.6v7.8l-1.2 0.4c-1-2.4-2.4-4.6-4-6.4-1.8-1.4-4.2-2.2-6.6-2-7.4 0-12 5.8-12 14.4 0 9 6 15.6 12.4 15.6 4.4 0 8.6-2.6 11.8-8.6l1.4 0.4zm11.6 0.8v-1.4c4.6-0.4 6-1.6 6-5.4v-19.8c0-3.8-1.2-5-5.4-5.6v-1.4h16.8v1.4c-4.6 0.4-6 1.6-6 5.6v19.8c0 3.8 1.4 5.2 6 5.4v1.4zm62-26.4l-0.8 25.6-2.2 1.8-22.8-27.4 0.4 19.2c0 4 1.6 5.4 6.4 5.6v1.4h-16.4v-1.4c4.6-0.4 5.8-1.6 6-5.6l0.8-16.6c0-5.4-1-7-5.8-8.6v-1.4h9.2l21.8 26.2-0.6-19c-0.2-4-1.4-5.2-5.8-5.8v-1.4h15.6v1.4c-4.6 1-5.6 2.2-5.8 6zm39.8 26.4h-28v-1.4c4.4-0.4 5.6-1.6 5.6-5.4v-19.4c0-4.2-0.8-5.4-4.6-6v-1.4h25.6l1 7.6-1.4 0.4c-2.4-4.6-4-5.6-8.8-5.8l-6.2-0.2v13l4.8-0.2c3.6-0.2 4.6-1 5.4-5h1.4v12.2h-1.4c-1-3.8-2.2-4.8-5.4-4.8l-4.8-0.2v9.4c0 4.2 0.8 4.8 6.4 4.8 5.4 0 7.4-1.4 10.6-6.6l1.4 0.4z"
     id="path10"
     style="fill:#fcec52;fill-opacity:1" />
</svg>
