<?xml version="1.0" encoding="UTF-8" standalone="no"?>
<svg
   version="1.2"
   viewBox="0 0 1169 164"
   width="1169"
   height="164"
   id="svg38"
   sodipodi:docname="NY-times-reivew.svg"
   inkscape:version="1.2.2 (732a01da63, 2022-12-09)"
   xmlns:inkscape="http://www.inkscape.org/namespaces/inkscape"
   xmlns:sodipodi="http://sodipodi.sourceforge.net/DTD/sodipodi-0.dtd"
   xmlns="http://www.w3.org/2000/svg"
   xmlns:svg="http://www.w3.org/2000/svg">
  <defs
     id="defs42" />
  <sodipodi:namedview
     id="namedview40"
     pagecolor="#ffffff"
     bordercolor="#000000"
     borderopacity="0.25"
     inkscape:showpageshadow="2"
     inkscape:pageopacity="0.0"
     inkscape:pagecheckerboard="0"
     inkscape:deskcolor="#d1d1d1"
     showgrid="false"
     inkscape:zoom="1.0128315"
     inkscape:cx="172.28927"
     inkscape:cy="-57.758868"
     inkscape:window-width="1280"
     inkscape:window-height="945"
     inkscape:window-x="-9"
     inkscape:window-y="-9"
     inkscape:window-maximized="1"
     inkscape:current-layer="svg38" />
  <style
     id="style2" />
  <path
     fill-rule="evenodd"
     d="m73.1 0.2c3.3 0.3 8.4 1.9 12.2 5.3 4.2 4 5.1 10 3.6 15.5-1.2 4.9-2.7 7.5-7.7 10.9-5 3.4-11.1 3.1-11.1 3.1v21.2l10.3 8.4-10.3 8.3v28.9c0 0 10.3-5.9 16.7-19.2 0 0 0.3-0.7 0.9-2.1 0.6 3.6 0.3 10.8-3.8 20-3 7-8.5 13.7-15.4 17.5-12.3 6.8-21.5 7.4-31.3 5.4-11.6-2.4-22.1-8.9-29.2-20.2-5-7.9-7.3-17.2-7.1-27.2 0.4-19.5 15-36.4 31.8-42.7 2-0.8 2.9-1.3 5.8-1.5-1.4 0.9-2.9 2-4.8 3.3-5.4 3.6-10.1 10.6-12.1 16.1l32.7-14.6v45.6l-26.3 13.2c3 4.2 12.1 10.5 19.8 11.3 13.3 1.5 21.1-4.3 21.1-4.3v-29.5l-10.3-8.3 10.3-8.4v-21.2c-5.6-0.7-12.4-2.5-16.4-3.5-5.9-1.4-25.4-6.9-28.4-7.4-3.1-0.4-6.9-0.3-9.2 1.8-2.2 2-3.7 5.6-2.7 8.9 0.6 1.9 1.8 2.9 2.8 4 0 0-1.1-0.1-3.2-1.3-3.6-2.2-6.4-6.6-6.8-11.9-0.4-7 2.5-13.3 8.2-17.5 5-3.2 10.7-5.3 17.3-4.3 9.6 1.3 22.5 6.8 34 9.5 4.5 1.1 7.9 1.5 11-0.4 1.5-1 4.1-3.7 2-7.3-2.5-4.3-7.2-4.2-11.2-4.9 3.5-0.7 4.2-0.7 6.8-0.5zm-38.8 90.7v-44.1l-13.2 5.9c0 0-3.4 7.6-2.8 18.6 0.4 8.5 5.2 18.8 8.9 23.1z"
     id="path4"
     style="fill:#fcec52;fill-opacity:1" />
  <path
     fill-rule="evenodd"
     d="m214.3 70.3l-29.1 21.5v5.1l14.5 13.5 17.6-13.8 0.8 0.9-31.9 25.3-18.4-16.6-5.9 4.7-0.8-0.9 6-4.8v-42.1c0 0 9-4.4 15.8-8.3 6.7-4 16.7-10.1 16.7-10.1zm-29.2-16.2v36.1l14.9-10.8z"
     id="path6"
     style="fill:#fcec52;fill-opacity:1" />
  <path
     d="m115.9 138.6c4.2 1 11.5 1.6 20.5-2.9 9.8-4.9 14.8-15.4 14.7-26.2l0.5-15.2v-33.3l6.3-4.8-0.8-1-6.2 4.7-14.3-15.9-18.4 15.8v-53.7l-23 17.8c1 0.6 4.3 1.2 4.4 5.8v75.2l-9.7 7.2 0.6 1 4.7-3.5 13.1 12.2 20.6-16.4-0.7-0.9-4.9 3.8-5.1-5.1v-41.9l6-5.1 9 11.1c0 0 0 27.1 0 36.2-0.1 9.6-0.1 21.5-5.1 27.3-5.1 5.8-7.1 6.3-12.2 7.8z"
     id="path8"
     style="fill:#fcec52;fill-opacity:1" />
  <path
     d="m258.9 134.8c-8.3-0.9-11.7-5.9-11.6-9.9 0-2.5 2.3-7.4 7.3-8.1 5-0.7 10.1 1.7 14.5 6.7l19-21-0.9-0.8-5.1 5.7c-5.2-5.9-12.6-9.6-19.9-10.7v-64l49.4 90c0 0 0.4 1 2.5 1 1.7 0 1.3-1.4 1.3-1.4v-90.6c4-0.1 10.1-2.3 13.1-5.4 9.5-9.8 5.6-20.4 4.6-21.5-0.6 4.7-4.2 9.4-10.2 9.4-7.8 0-12.6-5.8-12.6-5.8l-19 21.7 0.9 0.8 5.5-6.2c6.6 6.1 11.5 6.7 16.5 7v52.6l-36.7-66.6c-3.3-5.5-8.3-10.3-16.2-10.4-9.1 0-15.7 8-16.4 14.9-0.9 7.8 0.1 9.6 0.1 9.6 0 0 1.3-8.7 6.7-8.6 4.8 0.1 7.3 4.5 9.3 7.8v19.3c-5 0.4-18 0.9-18.8 14.4 0 5 3.1 10.3 5.8 12.1 3.5 2.3 6.2 2.2 6.2 2.2 0 0-4.2-2.2-2.9-6.6 1.1-4 9.4-4.6 9.7-3v27.2c-4 0-16.7 0.4-22.4 11.3-3.5 6.6-3.3 13.9 0.4 19.1 3 4.2 9.2 9.6 19.9 7.8z"
     id="path10"
     style="fill:#fcec52;fill-opacity:1" />
  <path
     fill-rule="evenodd"
     d="m377.9 70.3l-29.1 21.5v5.1l14.5 13.5 17.6-13.8 0.8 0.9-31.9 25.3-18.4-16.6-5.9 4.7-0.8-0.9 6-4.8v-42.1c0 0 9-4.4 15.8-8.3 6.7-4 16.7-10.1 16.7-10.1zm-29.2-16.2v36.1l14.9-10.8z"
     id="path12"
     style="fill:#fcec52;fill-opacity:1" />
  <path
     d="m407.8 123.1l-15.6-13-6.9 5-0.7-1 7-5.1v-36.4c0.3-15-13.7-11.2-13-27.1 0.4-7 7.1-12.3 10.5-14.1 3.7-1.8 7.6-1.8 7.6-1.8 0 0-6.4 4-4.8 9.8 2.4 8.9 17.6 9.6 17.9 21.5v41.3l11.2 8.9 2.9-2.3v-44.7l-6-6 15.5-13.7 14.3 12.6-5.5 5.9v39.5l13.4 11 2.3-1.5v-47.6l-6-5.7 15.6-14.3 14.6 12.1 5.8-5.2 0.8 0.9-13.1 11.6v38.8l-33.6 20.7-17.2-13.6z"
     id="path14"
     style="fill:#fcec52;fill-opacity:1" />
  <path
     fill-rule="evenodd"
     d="m1108.9 70.3l-29.2 21.5v5.1l14.6 13.5 17.6-13.8 0.8 0.9-32 25.3-18.4-16.6-5.8 4.7-0.8-0.9 6-4.8v-42.1c0 0 9-4.4 15.7-8.3 6.7-4 16.7-10.1 16.7-10.1zm-29.1-16.2v36.1l14.8-10.8z"
     id="path16"
     style="fill:#fcec52;fill-opacity:1" />
  <path
     d="m944.2 62.3l0.8 0.9 6-5.2 8.9 10.1v34.7l-4.3 4 13.9 15.7 14.3-14.1-5.9-6v-42l3.5-2.9 9.9 11.6v34.6l-3.7 3.7 13.1 14.7 14-14-5.1-5.4-0.2-42.2 3.8-3 10.3 11.3v34.4l-3.4 3.4 14.5 15.8 19.4-17.9-0.8-0.9-4.7 4.3-7.3-8v-39.3l7-5.3-0.7-1-7 5.3-13.2-14.8-18.9 15-13.2-14.5-18.3 14.3-13.3-14.2z"
     id="path18"
     style="fill:#fcec52;fill-opacity:1" />
  <path
     d="m904.6 61.2l0.8 0.9 5.1-4.4 8 9.4v39.7l-5.6 4.9 0.7 0.9 5.9-5 12.8 14.8 18.6-16.5-0.8-1-5.5 4.8-7.6-8.8v-38.8l6.4-5.6-0.8-0.9-6.1 5.3-13.5-15.7z"
     id="path20"
     style="fill:#fcec52;fill-opacity:1" />
  <path
     d="m910 28.3l13.9-12.7 11.4 12.5-14 12.8z"
     id="path22"
     style="fill:#fcec52;fill-opacity:1" />
  <path
     fill-rule="evenodd"
     d="m891.2 0.2c3.3 0.3 8.4 1.9 12.3 5.3 4.1 4 5 10 3.6 15.5-1.3 4.9-2.7 7.5-7.7 10.9-5.1 3.4-11.2 3.1-11.2 3.1v21.2l10.3 8.4-10.3 8.3v28.9c0 0 10.4-5.9 16.8-19.2 0 0 0.2-0.7 0.8-2.1 0.6 3.6 0.3 10.8-3.7 20-3.1 7-8.6 13.7-15.5 17.5-12.3 6.8-21.4 7.4-31.3 5.4-11.5-2.4-22-8.9-29.2-20.2-5-7.9-7.2-17.2-7-27.2 0.4-19.5 14.9-36.4 31.7-42.7 2.1-0.8 2.9-1.3 5.8-1.5-1.4 0.9-2.9 2-4.8 3.3-5.4 3.6-10 10.6-12 16.1l32.6-14.6v45.6l-26.3 13.2c3 4.2 12.1 10.5 19.9 11.3 13.2 1.5 21-4.3 21-4.3v-29.5l-10.3-8.3 10.3-8.4v-21.2c-5.6-0.7-12.4-2.5-16.4-3.5-5.8-1.4-25.3-6.9-28.4-7.4-3-0.4-6.8-0.3-9.1 1.8-2.3 2-3.7 5.6-2.7 8.9 0.5 1.9 1.8 2.9 2.7 4 0 0-1.1-0.1-3.1-1.3-3.7-2.2-6.5-6.6-6.8-11.9-0.5-7 2.4-13.3 8.2-17.5 5-3.2 10.6-5.3 17.2-4.3 9.6 1.3 22.5 6.8 34 9.5 4.5 1.1 7.9 1.5 11.1-0.4 1.4-1 4-3.7 1.9-7.3-2.5-4.3-7.1-4.2-11.1-4.9 3.4-0.7 4.2-0.7 6.7-0.5zm-38.8 90.7v-44.1l-13.2 5.9c0 0-3.4 7.6-2.8 18.6 0.5 8.5 5.3 18.8 9 23.1z"
     id="path24"
     style="fill:#fcec52;fill-opacity:1" />
  <path
     fill-rule="evenodd"
     d="m1129.7 128.2c-2.1 0.7-11.3-1.6-13.5-11.1-2.2-9.3 4.3-15.6 14-25.5l-11.5-10.5v-20.1c0 0 8.4-4.2 15.1-8.3 6.6-4.2 13.4-8.7 13.4-8.7 0 0 4.9 6.3 10.5 5.8 8.7-0.8 8.3-7.7 8.1-9.3 1.5 2.6 5.5 10.6-9.9 28.3l12.5 10.1v26.1c0 0-14.5 7.5-28.3 17.6 0 0-7.6-9.6-14.3-5.1-4.5 3.1-2.4 8.4 3.9 10.7zm-10.8-20.1c0 0 6.6-10.9 17.9-8.5 10.9 2.2 14.7 13.7 14.7 13.7v-26.5l-7.6-6.6c-8.4 8.4-23.2 20.5-25 27.9zm16.8-55.3v20.9l6.9 6c0 0 15.1-12 20.6-23.2 0 0-6.8 9.2-15.9 6.4-7.6-2.4-11.6-10.1-11.6-10.1z"
     id="path26"
     style="fill:#fcec52;fill-opacity:1" />
  <path
     fill-rule="evenodd"
     d="m660 62l5.6-5.2 0.8 1-5.5 5.1v41.4c0 0-10.4 5.5-17.7 9.6-7.2 4.1-15 9-15 9l-19.1-16.1-5.1 4.4-0.8-1 5.3-4.6v-44.6h0.1c0 0 9-4.1 16.6-8.4 6.8-3.8 14.4-8.2 14.4-8.2zm-33.3 36.5l16.2 14.6v-44.7l-16.2-15z"
     id="path28"
     style="fill:#fcec52;fill-opacity:1" />
  <path
     d="m697.6 57.8l12.1-12.4c0 0 1.7 1.5 3.3 2.3 0.9 0.4 4.5 2.3 7.9 0.4 1.8-1 2.1-1.2 4.1-3.1 0.4 9.6-4.2 16.4-10 19.2-2.4 1.2-9.3 3.4-16.5-5.4v44.6l7.7 6.8 6.4-5.3 0.7 0.9-20.1 16.8-15.3-13.9-5.5 5.1-0.9-0.9 8.4-7.6 0.1-38.5-6.4-8.5-5.6 4.9-0.8-0.9 19.5-17.5z"
     id="path30"
     style="fill:#fcec52;fill-opacity:1" />
  <path
     d="m748.8 76.4l22.5-32.7c0 0 2.9 3.5 8.1 4.9 7 1.8 13.1-4.9 13.1-4.9-1.1 8.7-5.6 18.6-14.7 20.1-8.1 1.4-15.6-4.9-15.6-4.9l-1.4 2.3 31.2 47.1 6.2-5.5 0.8 0.9-21.4 18.7z"
     id="path32"
     style="fill:#fcec52;fill-opacity:1" />
  <path
     d="m730.2 32.8c0-7.1-2.8-11.4-6.6-11.1l24.5-17.2v97.4l6.5 6.8 4.9-4.2 0.7 0.9-19.7 17.2-13.4-12.5-5.3 4.7-0.9-0.9 9.3-8.2z"
     id="path34"
     style="fill:#fcec52;fill-opacity:1" />
  <path
     fill-rule="evenodd"
     d="m525.4 31.2c0-6.6-2.7-10.3-7-10.4-6.2-0.1-7.7 8.7-7.7 8.7 0 0-1.1-6.8 4.5-12.9 3.2-3.5 9.2-8.3 18.5-6.1 9.5 2.4 12.3 9.8 12.3 16.4v90.6c0 0 3.6 0.5 6.1 1 2.9 0.6 5.6 1.4 5.6 1.4v-109.3h1.2v14.7l19.7-15.8 14.4 12.8 6.7-5.8 0.8 0.9-7 6.1v84.2c-0.4 5.5-1.3 11.1-6.5 14.3-11.5 6.9-25.5-1-38-2.8-9.2-1.4-23.7-3.1-27.3 5.3-1.2 2.8-1.1 7.1 3 9.9 8.5 5.6 45.9-9.4 58.7-3.4 11.7 5.4 11.7 14 9.9 20-3 11.1-17.1 13-17.1 13 0 0 6.9-4 4.9-10.6-1-3.3-3.2-4.2-10.6-3.4-16 1.8-35.2 9.6-48.1 4.2-6.6-2.8-11.3-11.1-10.9-19.2 0.3-11.8 13.9-16.4 13.9-16.4v-43.5c-0.4-1.7-7.6-1.2-9.2 2-2.4 4.8 3 7 3 7 0 0-4.5 0.7-8.2-3.7-1.9-2.1-5.7-9.5-0.7-16.3 4.1-5.6 8.9-6.6 15.1-7.3zm47.5 0.4l-9.4-8.3-4.6 3.6v31.3c0 0 2.8 3.5 7.1 3.5 4.2 0 6.9-3.4 6.9-3.4zm-14 88.6c0 0 5.7 1.6 9.9-1.8 4.6-3.9 4.1-9.2 4.1-9.2v-33.8c0 0-2.7-3.4-6.9-3.4-4.3 0-7.1 3.5-7.1 3.5zm14-60c0 0-2.7 3.1-7 3.1-4.2 0-7-3.1-7-3.1v13.3c0 0 2.8-3.1 7-3.1 4.3 0 7 3 7 3z"
     id="path36"
     style="fill:#fcec52;fill-opacity:1" />
</svg>
