<svg version="1.2" xmlns="http://www.w3.org/2000/svg" viewBox="0 0 402 451" width="402" height="451"><defs><clipPath clipPathUnits="userSpaceOnUse" id="cp1"><path d="m401.96 249.38c0 110.99-89.97 200.97-200.96 200.97-110.99 0-200.96-89.98-200.96-200.97 0-110.99 89.97-311.9 200.96-311.9 110.99 0 200.96 200.91 200.96 311.9z"/></clipPath></defs><style>.a{fill:#22b573}.b{fill:#301b16}.c{fill:#99613c}.d{mix-blend-mode:multiply;fill:#d9cbca}.e{mix-blend-mode:multiply;fill:#e7dbd6}.f{fill:none;stroke:#301b16;stroke-miterlimit:10;stroke-width:3.7}.g{fill:#fcfcfc}.h{mix-blend-mode:multiply;fill:#e8e8e8}.i{fill:#e8e8e8}</style><path class="a" d="m402 249.4c0 111-90 200.9-201 200.9-111 0-201-89.9-201-200.9 0-111 90-201 201-201 111 0 201 90 201 201z"/><g clip-path="url(#cp1)"><path class="b" d="m95.8 122.9q0 0 0 0c0 0 0-0.1 0 0z"/><path class="b" d="m304.5 93.1c0.4-0.7 0.7-1.6 0.6-2.6 0-0.9-0.3-1.8-0.7-2.5 0.4-0.8 0.6-1.7 0.5-2.7 0-0.9-0.4-1.8-0.9-2.5q0.6-1.2 0.5-2.6c-0.1-1-0.5-1.9-1-2.6 0.3-0.8 0.4-1.7 0.2-2.7-0.1-0.9-0.5-1.7-1.1-2.4q0.5-1.3 0.2-2.7c-0.2-0.9-0.7-1.7-1.3-2.4 0.2-0.8 0.3-1.8 0-2.7-0.3-0.9-0.7-1.7-1.4-2.3 0.2-0.8 0.2-1.8-0.1-2.7-0.3-0.9-0.9-1.6-1.5-2.2 0.1-0.9 0-1.8-0.3-2.7-0.4-0.8-0.9-1.6-1.6-2.1 0.1-0.9 0-1.8-0.4-2.7-0.4-0.9-1-1.6-1.7-2.1 0-0.9-0.2-1.9-0.7-2.7-0.4-0.9-1.2-1.6-2-2 0-1-0.3-1.9-0.9-2.7q-0.9-1.2-2.2-1.8c-0.1-0.8-0.5-1.7-1.1-2.5-0.7-0.7-1.4-1.2-2.3-1.5-0.2-0.9-0.6-1.8-1.3-2.5q-1.1-1-2.4-1.3c-0.3-0.9-0.8-1.6-1.5-2.3q-1.1-1-2.4-1.2-0.5-1.3-1.6-2.2-1.2-0.9-2.5-1-0.6-1.3-1.8-2.1c-0.7-0.6-1.6-0.8-2.5-0.9-0.4-0.8-1-1.5-1.8-2-0.8-0.5-1.7-0.7-2.6-0.8-0.4-0.7-1.1-1.4-1.9-1.9-0.9-0.4-1.8-0.6-2.6-0.6-0.5-0.8-1.2-1.4-2-1.8-0.9-0.4-1.8-0.6-2.7-0.5-0.5-0.7-1.2-1.3-2-1.7-0.9-0.4-1.8-0.5-2.7-0.4-0.5-0.7-1.2-1.3-2.1-1.6-0.9-0.3-1.8-0.4-2.7-0.3q-0.9-1-2.2-1.5c-0.9-0.3-1.8-0.3-2.6-0.2-0.6-0.6-1.4-1.1-2.3-1.4q-1.4-0.4-2.7 0c-0.6-0.7-1.4-1.1-2.3-1.4-0.9-0.2-1.8-0.2-2.7 0.1-0.6-0.6-1.4-1-2.4-1.2-0.9-0.2-1.7-0.1-2.6 0.1-0.6-0.5-1.5-0.9-2.4-1.1q0 0 0 0-1.4-0.3-2.7 0.3c-0.7-0.6-1.4-1-2.4-1.1-0.9-0.1-1.8 0-2.6 0.4-0.7-0.6-1.6-0.9-2.5-1-1-0.1-1.9 0.1-2.7 0.4-0.6-0.5-1.5-0.8-2.4-0.8-1-0.1-1.9 0.1-2.7 0.5-0.7-0.5-1.6-0.7-2.5-0.8-0.9 0-1.8 0.2-2.6 0.7q-1.1-0.7-2.5-0.7c-1 0-1.9 0.2-2.6 0.7-0.8-0.4-1.7-0.7-2.6-0.6q-1.4 0.1-2.5 0.8-1.2-0.6-2.7-0.5c-0.9 0.1-1.8 0.4-2.4 0.9-0.8-0.3-1.7-0.5-2.7-0.4-0.9 0.1-1.8 0.5-2.5 1q-1.2-0.5-2.6-0.3c-0.9 0.1-1.7 0.5-2.4 1.1-0.8-0.3-1.8-0.4-2.7-0.2q-1.4 0.3-2.4 1.2c-0.8-0.3-1.7-0.4-2.6-0.1-0.9 0.1-1.7 0.6-2.4 1.2-0.8-0.2-1.7-0.3-2.7 0-0.9 0.2-1.7 0.7-2.3 1.4-0.8-0.2-1.7-0.2-2.6 0.1-0.9 0.2-1.7 0.8-2.3 1.4-0.8-0.1-1.7-0.1-2.6 0.2-0.9 0.3-1.6 0.9-2.2 1.6-0.8-0.2-1.8-0.1-2.6 0.3-0.9 0.3-1.6 0.9-2.2 1.6-0.9-0.1-1.8 0.1-2.6 0.4-0.9 0.4-1.6 1-2 1.7-0.9 0-1.8 0.1-2.7 0.6-0.8 0.4-1.5 1-2 1.8-0.9 0-1.8 0.2-2.5 0.7-0.9 0.4-1.5 1.1-2 1.9-0.8 0-1.7 0.3-2.5 0.8-0.9 0.5-1.5 1.2-1.9 1.9-0.8 0.1-1.7 0.4-2.5 1-0.7 0.5-1.3 1.3-1.7 2.1-0.9 0.1-1.7 0.4-2.5 1.1-0.7 0.6-1.3 1.3-1.6 2.2-0.9 0.1-1.7 0.6-2.4 1.2-0.7 0.6-1.2 1.4-1.4 2.3q-1.4 0.3-2.4 1.4c-0.7 0.7-1.1 1.6-1.3 2.4-0.9 0.3-1.7 0.9-2.3 1.6-0.6 0.8-0.9 1.6-1 2.6-0.9 0.3-1.6 0.9-2.2 1.8-0.6 0.8-0.8 1.7-0.9 2.7-0.8 0.4-1.5 1.1-1.9 1.9-0.5 0.9-0.7 1.9-0.6 2.9-0.8 0.5-1.4 1.3-1.8 2.2q-0.5 1.4-0.2 2.9-1 0.8-1.4 2.1c-0.3 1-0.3 2-0.1 2.8-0.6 0.7-1.1 1.5-1.3 2.5-0.2 0.9-0.1 1.8 0.2 2.7-0.6 0.6-1 1.5-1.2 2.4-0.1 1 0 1.9 0.3 2.7-0.6 0.7-0.9 1.5-1 2.4-0.2 0.9 0 1.9 0.3 2.7-0.5 0.7-0.8 1.5-0.9 2.4-0.1 1 0.1 1.9 0.5 2.7-0.5 0.6-0.9 1.5-0.9 2.4-0.1 0.9 0.1 1.8 0.5 2.6-0.5 0.7-0.8 1.6-0.8 2.5q-0.1 1.4 0.6 2.5c-0.5 0.8-0.8 1.6-0.8 2.6 0 0.9 0.2 1.8 0.6 2.5q-0.6 1.1-0.7 2.5c0 1 0.2 1.8 0.7 2.6-0.5 0.7-0.7 1.6-0.7 2.5 0 0.9 0.3 1.8 0.7 2.5-0.4 0.8-0.7 1.6-0.6 2.6 0 0.9 0.3 1.8 0.7 2.5-0.4 0.8-0.6 1.6-0.5 2.6 0 0.9 0.3 1.7 0.8 2.4-0.4 0.8-0.6 1.7-0.5 2.6q0.1 1.4 0.8 2.6-0.5 1.1-0.4 2.6 0.2 1.4 1 2.5c-0.3 0.8-0.4 1.7-0.3 2.6q0 0.1 0 0.1c0.1 0.9 0.5 1.7 1 2.3-0.3 0.8-0.4 1.7-0.2 2.6q0.2 1.3 1 2.4-0.4 1.2-0.2 2.5c0.1 0.9 0.5 1.7 1.1 2.4-0.3 0.8-0.4 1.7-0.3 2.6 0.2 0.9 0.6 1.7 1.1 2.4-0.2 0.8-0.3 1.7-0.2 2.6 0.2 0.8 0.6 1.6 1.1 2.3-0.2 0.8-0.3 1.7-0.1 2.6q0.3 1.4 1.2 2.4c-0.3 0.7-0.4 1.6-0.2 2.5q0.3 1.4 1.2 2.4c-0.2 0.8-0.3 1.7 0 2.6 0.2 0.9 0.6 1.7 1.2 2.3-0.2 0.8-0.2 1.7 0 2.6q0.4 1.4 1.3 2.3-0.4 1.3 0 2.7c0.3 0.8 0.8 1.6 1.4 2.2-0.2 0.8-0.2 1.7 0.1 2.6 0.3 0.9 0.8 1.7 1.5 2.3-0.2 0.8-0.2 1.8 0.1 2.6q0 0 0 0c0.4 0.9 0.9 1.6 1.5 2.2q-0.2 1.3 0.3 2.7c0.4 0.9 0.9 1.6 1.6 2.1-0.1 0.9 0.1 1.8 0.5 2.6 0.3 0.9 1 1.6 1.7 2.1-0.1 0.9 0.1 1.8 0.5 2.7h0.1c0.4 0.9 1.1 1.5 1.8 2q0 1.4 0.8 2.6c0.5 0.9 1.2 1.5 2 1.9 0 0.9 0.3 1.8 0.9 2.6 0.6 0.8 1.4 1.4 2.3 1.7 0.1 0.9 0.5 1.7 1.1 2.5q0.9 1 2.2 1.5c0.1 0.8 0.6 1.7 1.2 2.4q1 1 2.3 1.3 0.3 1.3 1.3 2.4c0.7 0.6 1.5 1.1 2.4 1.3 0.2 0.8 0.7 1.6 1.4 2.3q1 0.9 2.4 1.2c0.2 0.8 0.8 1.5 1.5 2.1 0.7 0.6 1.6 1 2.4 1.2 0.4 0.8 0.9 1.5 1.7 2.1q1.1 0.9 2.4 1c0.4 0.8 0.9 1.5 1.7 2.1 0.8 0.5 1.7 0.8 2.5 0.9q0.6 1.2 1.8 2c0.8 0.5 1.7 0.7 2.6 0.7 0.4 0.8 1 1.5 1.8 2 0.9 0.5 1.8 0.7 2.6 0.7 0.5 0.7 1.1 1.4 1.9 1.8 0.9 0.5 1.8 0.6 2.7 0.6 0.5 0.7 1.1 1.3 2 1.7q1.3 0.6 2.7 0.5c0.5 0.7 1.2 1.3 2 1.7 0.9 0.3 1.8 0.4 2.7 0.3 0.5 0.7 1.3 1.3 2.2 1.6 0.9 0.3 1.8 0.4 2.7 0.2 0.5 0.7 1.3 1.2 2.2 1.5 0.9 0.3 1.8 0.3 2.7 0.1 0.6 0.7 1.4 1.2 2.3 1.4 0.9 0.2 1.8 0.2 2.7 0 0.6 0.5 1.5 1 2.4 1.2 1 0.2 1.9 0.1 2.8-0.2 0.7 0.5 1.5 0.9 2.4 1.1 1 0.1 2-0.1 2.8-0.5 0.8 0.6 1.8 0.9 2.8 0.9q0.1 0 0.1 0c1 0 2-0.3 2.7-0.8 0.9 0.4 1.9 0.6 2.9 0.5 1-0.1 1.8-0.5 2.6-1.1 0.8 0.3 1.8 0.4 2.7 0.2 0.9-0.2 1.8-0.7 2.4-1.3 0.9 0.2 1.8 0.2 2.8 0 0.9-0.2 1.7-0.8 2.3-1.4q1.3 0.3 2.6-0.2 1.5-0.5 2.3-1.5c0.8 0.1 1.8 0 2.7-0.3 0.8-0.4 1.5-1 2.1-1.7 0.8 0.1 1.8 0 2.6-0.4 0.9-0.4 1.6-1 2.1-1.7 0.9 0 1.8-0.1 2.6-0.6 0.8-0.4 1.5-1 2-1.8 0.8 0.1 1.7-0.1 2.6-0.6 0.8-0.5 1.4-1.1 1.9-1.9 0.8 0 1.7-0.3 2.5-0.8 0.8-0.5 1.4-1.2 1.8-2 0.9 0 1.8-0.3 2.6-0.8 0.7-0.5 1.3-1.3 1.7-2 0.9-0.1 1.7-0.4 2.5-1 0.7-0.5 1.3-1.3 1.6-2.1 0.9-0.1 1.7-0.4 2.5-1 0.7-0.6 1.2-1.4 1.6-2.2 0.8-0.2 1.7-0.5 2.4-1.1q1-1 1.4-2.3c0.9-0.2 1.7-0.6 2.4-1.2 0.7-0.7 1.1-1.5 1.4-2.3q1.3-0.3 2.3-1.4c0.7-0.6 1-1.4 1.3-2.3 0.8-0.2 1.6-0.7 2.2-1.4 0.7-0.7 1.1-1.5 1.2-2.4q1.3-0.4 2.3-1.5-0.1 0-0.1 0c0.1 0 0.1 0 0.1-0.1 0 0 0 0 0.1 0 0.6-0.8 1-1.8 1.1-2.7 0.9-0.3 1.6-1 2.1-1.8q0.9-1.3 0.8-2.7 1.2-0.7 2-2c0.4-0.8 0.6-1.7 0.5-2.6 0.8-0.5 1.4-1.2 1.8-2.1 0.4-0.9 0.5-1.8 0.4-2.7 0.7-0.5 1.3-1.2 1.6-2.1q0.6-1.3 0.3-2.6c0.7-0.6 1.3-1.3 1.6-2.2 0.3-0.9 0.4-1.8 0.2-2.7q1-0.9 1.5-2.1c0.3-0.9 0.3-1.8 0.1-2.7 0.6-0.6 1.1-1.3 1.4-2.2 0.3-0.9 0.3-1.8 0.1-2.7 0.6-0.5 1.1-1.3 1.3-2.2 0.3-0.9 0.3-1.8 0.1-2.6 0.6-0.7 1-1.4 1.3-2.3 0.2-0.9 0.2-1.8-0.1-2.6 0.6-0.6 1-1.4 1.3-2.3 0.2-0.9 0.1-1.8-0.1-2.7 0.6-0.6 1-1.4 1.2-2.2q0.3-1.4-0.1-2.7c0.6-0.6 1-1.4 1.2-2.3 0.2-0.9 0.1-1.8-0.2-2.6q0.9-1 1.2-2.3c0.2-0.9 0.1-1.8-0.2-2.6 0.6-0.7 1-1.5 1.2-2.4 0.1-0.9 0.1-1.8-0.2-2.6 0.5-0.6 0.9-1.4 1.1-2.3 0.1-0.9 0-1.8-0.3-2.6 0.6-0.7 1-1.5 1.1-2.4 0.2-0.9 0.1-1.8-0.2-2.6 0.5-0.6 0.9-1.5 1-2.4 0.2-0.9 0-1.8-0.3-2.6 0.6-0.6 0.9-1.5 1.1-2.3 0.1-0.9 0-1.8-0.4-2.6q0.8-1.1 1.1-2.4c0.1-1-0.1-1.8-0.4-2.6 0.5-0.7 0.8-1.5 0.9-2.4 0.2-0.9 0-1.8-0.3-2.6 0.5-0.7 0.8-1.6 0.9-2.4q0.2-1.5-0.4-2.7c0.5-0.7 0.8-1.6 0.9-2.5q0 0 0 0c0-0.9-0.2-1.8-0.6-2.6 0.5-0.8 0.8-1.6 0.8-2.6q0.1-1.4-0.6-2.6z"/><path class="c" d="m118.2 146.9c0 0 3.1-23.7-17.5-18-15.9 4.4 0.2 48.5 10.7 52.3 8.9 3.3 10.8-3.5 10.8-3.5z"/><path class="c" d="m280.8 147.6c0 0-3-23.8 17.6-17.9 15.8 4.5-0.6 48.5-11.1 52.2-8.9 3.2-10.9-3.6-10.9-3.6z"/><path class="c" d="m317.6 472l11.7-177.1c0 0-43.1-19.1-67.9-25.1-23.3-5.7-50.6-5.2-53.4-5.1-2.9-0.1-30.2-0.8-53.6 4.7-24.8 5.8-67.3 24.6-67.3 24.6 0 0 8.2 112.8 16.1 178z"/><path class="c" d="m200.4 309.3c0 0 57.9-39.2 54.5-41.1-20.1-11.2-18.8-42.1-18.8-42.1l-72.8-4.1c0 0 4.4 44.5-17.2 49.9-1.6 0.4 54.3 37.4 54.3 37.4z"/><path class="d" d="m162.2 248.6c3 1 6 2.6 8.8 5 9.6 8.2 31.8 20.5 45.2 16.4 9.8-3.1 17.2-11.7 24.1-19.6-4.7-11.9-4.2-24.3-4.2-24.3l-72.8-4.1c0 0 1.3 13.5-1.1 26.6z"/><path class="c" d="m282.8 158.3c-3.6 26.1-4.7 41.1-19.8 59.5-10.6 12.8-33.6 32-50.4 39.8-4.7 2.2-19.9 2.5-24.6 0.6-18.4-7.1-44.3-25.9-53.3-40.9-12-20-15.2-36-18.6-59.7-4.2-28.4-4.6-18.4-4.5-45.2 0.2-54.6 21.5-93.9 82.7-93.7 61.3 0.2 92.4 34.7 93.1 90.7 0.4 30.8-0.6 20.3-4.6 48.9z"/><path class="c" d="m166.1 212.3c-2.6 8.6 9.7 25.7 11.3 26.8 5 3.3 10.1 6.1 14.5 7.8 1.3 0.5 4.9-17.5 7.6-17.5 3.6 0 6.6 17.9 8.3 17.1 3.4-1.6 7.2-3.9 11-6.6 1.8-1.2 15-22.1 14-30.5-0.9-8.4-18.3-1.4-35.4-1.4-11.2 0-28.8-4.3-31.3 4.3z"/><path class="e" d="m132.9 104.3c26.8-14.1 29.3 14.4 69.9 12.4 17.9-0.8 40.5-20.6 52.2-20.6 27.1 0.1 15.9 41.1 20.1 62.9 1.1 5.9 6-5.8 7.6 0.2q0.1-0.4 0.1-0.9c4-28.6 5-18.1 4.6-48.9-0.7-56-30.1-94.2-91.4-94.4-61.2-0.3-84.2 42.8-84.4 97.4-0.1 25.6 7 23.4 10.6 47.3 5.3-11-1.7-48.9 10.7-55.4z"/><path class="b" d="m132 98.4c11.5-11.5 31 11.8 71.4 11.8 39.4 0 47.3-24.7 67-11.8 17.1 11.2 3.9 64.3 3.9 64.3 0 0 8.5-3.9 8.5-4.4 4-28.6 8.5-17.4 8.1-48.1-0.7-56-33.6-95-94.9-95.2-61.2-0.3-87.2 42.8-87.4 97.4-0.1 26.8 4.5 24.6 8.7 53.1 0 0.4 9.1-2.8 9.1-2.8 0 0-17.4-41.3 5.6-64.3z"/><path class="c" d="m88.7 472l10.6-88.5c0 0 30.1-102-12.2-89.5-26.2 7.7-43.9 126.6-54.1 178z"/><path class="c" d="m328.4 472h55.8c-9.9-51.2-27-169.2-53-177.1-42.1-12.8-12.9 89.5-12.9 89.5z"/><path class="d" d="m199.4 185.9l-7.4-5.9 7.5-17.3z"/><path class="d" d="m180.1 217.9l-5.5-5 9.2 2.4 32.1-0.2 9-2.8-7 5.6z"/><path class="f" d="m181.9 173.6c-7.5 5.8-30.7 6.1-39.8 0-9.1-6.2-19.9-30-10.3-38 9.5-8 50.1-7.8 56.7 0 6.6 7.8 0.8 32.1-6.6 38z"/><path class="f" d="m219.2 173.6c7.4 5.8 30.6 6.1 39.7 0 9.2-6.2 19.9-30 10.4-38-9.5-8-50.1-7.8-56.8 0-6.6 7.8-0.8 32.1 6.7 38z"/><path class="f" d="m191.4 142.9h18.2"/><path class="g" d="m317.5 472l11.8-177.3c0 0-43.1-19.1-67.9-25.1-1.5 33.2-30.9 51.8-56.6 51.8-25.7 0-52.3-22-52.1-53.2-24.8 5.9-65.5 25.5-65.5 25.5 0 0 8.1 113 16 178.3z"/><path class="h" d="m317.5 472l4.2-99.3q-0.3 0.1-0.6 0.3c-18 9.8-16.7 81.3-17.4 99z"/><path class="h" d="m110.1 472c-5.7-22.6-10.3-96.5-12.4-100.7 1.8 13.8 3.6 85.3 5.5 100.7z"/><path class="g" d="m88.6 472l10.7-88.7c0 0 30.1-102.1-12.1-89.6-26.3 7.8-44 126.8-54.3 178.3z"/><path class="h" d="m88.6 472l10.7-88.7c0 0 4.5-15.3 7.6-33.3-11.2 17.6-21.4 33.8-26.4 56-1 4.3-7.6 61.8-8.8 66z"/><path class="g" d="m328.5 472h55.7c-9.9-51.3-27-169.4-53-177.3-42.1-12.8-12.9 89.4-12.9 89.4z"/><path class="h" d="m328.5 472h19.9c-1.3-5.6-2.9-67.7-4.6-73.1-5.5-16.6-18.1-24.7-30.4-35.2 2.5 11.9 4.9 20.4 4.9 20.4z"/><path class="i" d="m254.1 265.4c0 0-9.1 46.2-49.2 45.2-40.3-1.1-46.6-49.7-46.6-49.7l-5.6 7.3c0 0-3.2 59.4 53 58.2 56.2-1.2 55.7-56.8 55.7-56.8z"/></g></svg>