<svg version="1.2" xmlns="http://www.w3.org/2000/svg" viewBox="0 0 402 430" width="402" height="430"><defs><clipPath clipPathUnits="userSpaceOnUse" id="cp1"><path d="m401.96 228.38c0 110.99-89.97 200.97-200.96 200.97-110.99 0-200.96-89.98-200.96-200.97 0-110.99 89.97-311.9 200.96-311.9 110.99 0 200.96 200.91 200.96 311.9z"/></clipPath></defs><style>.a{fill:#1e1741}.b{fill:#44b9d8}.c{fill:#fdd0b1}.d{fill:#f0b295}.e{fill:#edc19e}.f{fill:#e57e22}.g{fill:#ec8042}.h{fill:#ffc13c}.i{fill:#e3f7fe}.j{fill:#ffbd38}.k{fill:#e5980e}.l{mix-blend-mode:soft-light;fill:#44b9d8}.m{fill:#e09d73}.n{fill:none;stroke:#301b16;stroke-miterlimit:10;stroke-width:3.7}</style><path class="a" d="m402 228.4c0 111-90 200.9-201 200.9-111 0-201-89.9-201-200.9 0-111 90-201 201-201 111 0 201 90 201 201z"/><g clip-path="url(#cp1)"><path class="b" d="m267.5 219.4l-11.3-3 2.9 9.9 1.6 6.1"/><path class="b" d="m141.6 219.4l16.3-5.7v15.3l-1.9 4.5h-3.3"/><path class="c" d="m211.3 233.5c-4.6 2.1-9.8 2.1-14.4 0-23.2-10.6-33.5-17.8-45.7-28 0 0-5.8 23.9-11.3 42.3 0 0 9.2 86.6 64.2 104.4h0.4c55-17.8 64.2-104.4 64.2-104.4-5.5-18.4-11.3-42.3-11.3-42.3-12.2 10.2-22.5 17.4-45.7 28-4.5 2.1-9.8 2.1-14.4 0"/><path class="d" d="m197.3 233.5c2.2 1 4.6 1.5 7 1.5 2.4 0 4.8-0.5 7-1.5z"/><path class="d" d="m268.7 247.8c-5.5-18.4-11.3-42.3-11.3-42.3-12.2 10.2-22.5 17.4-45.7 28-2.3 1-4.9 1.6-7.4 1.5-2.5 0.1-5-0.5-7.4-1.5-21.2-9.7-31.6-16.5-42.6-25.5l-3.5 1.9c0 0 52.6 34.6 87.5 101.2 30.9-20.9 30.4-63.3 30.4-63.3z"/><path class="e" d="m204.5 13.1c-41.8 0-75.7 35.1-75.7 78.3v12.8 44.5 29.6c0 7.7 3.2 15.1 8.8 20.2 11.4 10.5 33 28.4 59.7 40.9 4.6 2.2 9.9 2.2 14.4 0 26.7-12.5 48.4-30.4 59.8-40.9 5.6-5.1 8.7-12.5 8.7-20.2v-29.6-44.5-12.8c0-43.2-33.9-78.3-75.7-78.3z"/><path class="c" d="m204.5 13.1c-41.8 0-75.7 35.1-75.7 78.3v12.8 44.5 29.6c0 7.7 3.2 15.1 8.8 20.2 11.4 10.5 33 28.4 59.7 40.9 4.6 2.2 9.9 2.2 14.4 0 26.7-12.5 48.4-30.4 59.8-40.9 5.6-5.1 8.7-12.5 8.7-20.2v-29.6-44.5-12.8c0-43.2-33.9-78.3-75.7-78.3z"/><path class="c" d="m204.5 13.1c-41.8 0-75.7 35.1-75.7 78.3v12.8 44.5 29.6c0 7.7 3.2 15.1 8.8 20.2 11.4 10.5 33 28.4 59.7 40.9 4.6 2.2 9.9 2.2 14.4 0 26.7-12.5 48.4-30.4 59.8-40.9 5.6-5.1 8.7-12.5 8.7-20.2v-29.6-44.5-12.8c0-43.2-33.9-78.3-75.7-78.3z"/><path class="c" d="m297.5 122.1c-0.1-4.8-4.6-8.5-9.3-7.6-4.6 0.9-8 3.6-8 3.6v38.5l6.3-3.6c5-2.7 8.3-7.7 9-13.4z"/><path class="c" d="m111.6 122.1c0.1-4.8 4.5-8.5 9.2-7.6 4.6 0.9 8 3.6 8 3.6v38.5l-6.3-3.6c-4.9-2.7-8.3-7.7-8.9-13.4z"/><path class="f" d=""/><path class="g" d="m280.3 118.1c-8.9-6.7-11.5-32.2-11.5-32.2-6.4-30.2-22-41.1-31.6-42.8-3.6-0.7-12.1 0.4-13.5-3.4-2.7-7-4.5-18.5 5.6-28.6 8.2-8.2 22 2.2 33.4 14 12.2 12.8 19 30.7 18.6 49.3z"/><path class="g" d="m128.8 118.1c8.9-6.7 11.5-32.2 11.5-32.2 6.4-30.2 22.1-41.1 31.6-42.8 3.6-0.7 12.2 0.4 13.6-3.4 2.6-7 4.5-18.5-5.6-28.6-8.3-8.2-22.1 2.2-33.5 14-12.2 12.8-18.9 30.7-18.5 49.3z"/><path class="g" d="m252.1 15.4c0 0-27.5-23-59.6-12.7-32.2 10.3-46.9 2.4-53.6-1.9-6.8-4.3-18.8 39.2 42.2 49.1 61 10 59.1-27.5 78-17.6"/><path class="h" d="m257.9 244.6c-22.2 10.4-32.6 13.8-53.3 14.7-20.8-0.9-31.1-4.3-53.4-14.7-22.2-10.4-9.6-25.2-9.6-25.2 30.7 30 95.2 30 125.9 0 0 0 12.6 14.8-9.6 25.2z"/><path class="i" d="m392.8 450.5c0 0-2.8 1.4-8.4 3.5-10.1 3.9-29.5 10.5-58.9 16.5q-2.8 0.6-5.7 1.2c-29.2 5.7-67.4 10.8-115.2 12.7v-225.1c20.8-0.9 31.1-4.3 53.4-14.7q3-1.4 5.2-2.9 1.9-1.3 3.3-2.6c3.5 6.6 13.9 18 43.3 21.1 23.4 2.4 46.2 8.1 63.5 21.1 7.5 5.6 14 12.7 19 21.4q1.3 2.5 2.6 5.1c3 6.4 5.3 13.7 6.8 22q0.7 3.9 1.2 8 0 0.2 0 0.4 0.2 2.1 0.4 4.2c0.5 5.3 0.8 10.8 0.8 16.2 0.6 44.8-11.3 91.9-11.3 91.9z"/><path class="i" d="m151.2 244.6c22.3 10.4 32.6 13.8 53.4 14.7v225.1c-47.8-1.9-86-7-115.2-12.7q-2.9-0.6-5.7-1.2c-29.4-6-48.8-12.6-58.9-16.5-5.6-2.1-8.4-3.5-8.4-3.5 0 0-11.9-47.1-11.3-91.9 0-5.4 0.3-10.9 0.8-16.2q0.2-2.1 0.4-4.2 0-0.2 0-0.4 0.5-4.1 1.2-8c1.5-8.3 3.8-15.6 6.8-22q1.3-2.6 2.6-5.1c5-8.7 11.5-15.8 19-21.4 17.3-13 40.1-18.7 63.5-21.1 29.4-3.1 39.8-14.5 43.3-21.1q1.4 1.3 3.3 2.6 2.2 1.5 5.2 2.9z"/><path class="j" d="m86.4 376.8v3.5q-0.5-0.1-1-0.1-2.8-0.1-5.4-0.3c-39.9-2.4-59.9-8.7-69.4-15.7-2.6-1.8-4.3-3.7-5.5-5.6-4.3-6.5-1.5-12.8 0.8-16.2q0.2-0.3 0.4-0.6c0.9-1.3 1.6-2 1.6-2q-0.8-0.8-1.6-1.6-0.4-0.4-0.8-0.8c-5.5-5.9-7.5-11-7.5-15.3 0-8.9 8.7-14.6 13.7-17 1.9-1 3.3-1.5 3.3-1.5q-0.3-1.7-0.3-3.3c0.2-11.2 10-20.1 21.2-19q1.4 0.1 2.8 0.5l1 0.2 2.2 4.3z"/><path class="k" d="m87.5 380.3v0.1l-1.1-0.6v0.5q-0.5-0.1-1-0.1l-1.9-1.9-66.1-67.3-3.1-3.2-2.6-2.7c1.9-1 3.3-1.5 3.3-1.5q-0.3-1.7-0.3-3.3l2.2 2.4 3.4 3.7 66.1 72.6z"/><path class="k" d="m86.4 379.8v0.5q-0.5-0.1-1-0.1-2.8-0.1-5.4-0.3l-69.3-35.8-4.4-2.3c0.9-1.3 1.6-2 1.6-2q-0.8-0.8-1.6-1.6-0.4-0.4-0.8-0.8l0.8 0.4 4.6 2.4 72.6 38.1z"/><path class="b" d="m89.4 471.7q-2.9-0.6-5.7-1.2l-0.2-92.2 2.9 2z"/><path class="b" d="m104.6 353.6v-10.5c0-5.7 4.6-10.3 10.3-10.3h26.8c5.7 0 10.3 4.6 10.3 10.3v10.5c0 5.7-4.6 10.3-10.3 10.3h-26.8c-5.7 0-10.3-4.6-10.3-10.3z"/><path class="j" d="m140.2 359.4h-23.8c-4.1 0-7.4-3.3-7.4-7.3v-7.5c0-4.1 3.3-7.4 7.4-7.4h23.8c4 0 7.3 3.3 7.3 7.4v7.5c0 4-3.3 7.3-7.3 7.3z"/><path class="l" d="m146 241.7c-9.7 9.5-30.3 26.6-56.6 29-16.8 1.6-33.8 7-47.5 15.6-8.8 5.5-16.3 12.2-21.6 20.1q-1.6 2.2-2.9 4.6c-3 5.6-5 11.7-5.7 18.2-0.4 3.1-0.6 6.8-0.8 11q-0.1 1.9-0.2 3.9c-0.2 6-0.3 12.9-0.1 20.1 0.5 29.2 4.3 65.9 14.2 89.8-5.6-2.1-8.4-3.5-8.4-3.5 0 0-11.9-47.1-11.3-91.9-4.3-6.5-1.5-12.8 0.8-16.2q0.2-2.1 0.4-4.2-0.4-0.4-0.8-0.8c-5.5-5.9-7.5-11-7.5-15.3 0-8.9 8.7-14.6 13.7-17 1.9-1 3.3-1.5 3.3-1.5q-0.3-1.7-0.3-3.3c0.2-11.2 10-20.1 21.2-19 17.3-13 40.1-18.7 63.5-21.1 29.4-3.1 39.8-14.5 43.3-21.1q1.4 1.3 3.3 2.6z"/><path class="j" d="m322.8 376.8v3.5q0.5-0.1 1-0.1 2.8-0.1 5.4-0.3c39.9-2.4 59.9-8.7 69.4-15.7 2.6-1.8 4.3-3.7 5.5-5.6 4.3-6.5 1.5-12.8-0.8-16.2q-0.2-0.3-0.4-0.6c-0.9-1.3-1.6-2-1.6-2q0.8-0.8 1.6-1.6 0.4-0.4 0.8-0.8c5.5-5.9 7.5-11 7.5-15.3 0-8.9-8.7-14.6-13.7-17-1.9-1-3.3-1.5-3.3-1.5q0.3-1.7 0.3-3.3c-0.2-11.2-10-20.1-21.2-19q-1.4 0.1-2.8 0.5l-1 0.2-2.2 4.3z"/><path class="k" d="m321.7 380.3v0.1l1.1-0.6v0.5q0.5-0.1 1-0.1l1.9-1.9 66.1-67.3 3.1-3.2 2.6-2.7c-1.9-1-3.3-1.5-3.3-1.5q0.3-1.7 0.3-3.3l-2.2 2.4-3.4 3.7-66.1 72.6z"/><path class="k" d="m322.8 379.8v0.5q0.5-0.1 1-0.1 2.8-0.1 5.4-0.3l69.3-35.8 4.4-2.3c-0.9-1.3-1.6-2-1.6-2q0.8-0.8 1.6-1.6 0.4-0.4 0.8-0.8l-0.8 0.4-4.6 2.4-72.6 38.1z"/><path class="b" d="m319.8 471.7q2.9-0.6 5.7-1.2l0.2-92.2-2.9 2z"/><path class="b" d="m304.6 353.6v-10.5c0-5.7-4.6-10.3-10.3-10.3h-26.8c-5.7 0-10.3 4.6-10.3 10.3v10.5c0 5.7 4.6 10.3 10.3 10.3h26.8c5.7 0 10.3-4.6 10.3-10.3z"/><path class="j" d="m269 359.4h23.8c4.1 0 7.4-3.3 7.4-7.3v-7.5c0-4.1-3.3-7.4-7.4-7.4h-23.8c-4 0-7.3 3.3-7.3 7.4v7.5c0 4 3.3 7.3 7.3 7.3z"/><path class="l" d="m263.2 241.7c9.7 9.5 30.3 26.6 56.6 29 16.8 1.6 33.8 7 47.5 15.6 8.8 5.5 16.3 12.2 21.6 20.1q1.6 2.2 2.9 4.6c3 5.6 5 11.7 5.7 18.2 0.4 3.1 0.6 6.8 0.8 11q0.1 1.9 0.2 3.9c0.2 6 0.3 12.9 0.1 20.1-0.5 29.2-4.3 65.9-14.2 89.8 5.6-2.1 8.4-3.5 8.4-3.5 0 0 11.9-47.1 11.3-91.9 4.3-6.5 1.5-12.8-0.8-16.2q-0.2-2.1-0.4-4.2 0.4-0.4 0.8-0.8c5.5-5.9 7.5-11 7.5-15.3 0-8.9-8.7-14.6-13.7-17-1.9-1-3.3-1.5-3.3-1.5q0.3-1.7 0.3-3.3c-0.2-11.2-10-20.1-21.2-19-17.3-13-40.1-18.7-63.5-21.1-29.4-3.1-39.8-14.5-43.3-21.1q-1.4 1.3-3.3 2.6z"/><path class="m" d="m203.3 159.2l-6.8-5.4 6.9-16z"/><path class="m" d="m186.2 186l-5.1-4.6 8.5 2.2 29.4-0.2 8.3-2.6-6.4 5.2z"/><path class="n" d="m187.8 148.9c-6.8 5.4-28.1 5.7-36.5 0-8.4-5.6-18.3-27.5-9.5-34.9 8.7-7.3 46-7.1 52.1 0 6.1 7.2 0.8 29.6-6.1 34.9z"/><path class="n" d="m222.1 148.9c6.8 5.4 28.1 5.7 36.5 0 8.4-5.6 18.3-27.5 9.5-34.9-8.7-7.3-46-7.1-52.1 0-6.1 7.2-0.8 29.6 6.1 34.9z"/><path class="n" d="m196.6 120.8h16.7"/></g></svg>