<svg version="1.2" xmlns="http://www.w3.org/2000/svg" viewBox="0 0 402 465" width="402" height="465"><defs><clipPath clipPathUnits="userSpaceOnUse" id="cp1"><path d="m401.96 263.38c0 110.99-89.97 200.97-200.96 200.97-110.99 0-200.96-89.98-200.96-200.97 0-110.99 89.97-311.9 200.96-311.9 110.99 0 200.96 200.91 200.96 311.9z"/></clipPath></defs><style>.a{fill:#004b74}.b{fill:#4b0400}.c{fill:#057c41}.d{fill:#f8ba8c}.e{mix-blend-mode:multiply;fill:#e4c9a5}.f{fill:#d5e3eb}.g{fill:#22b573}.h{fill:#0e8e51}.i{fill:#fff}.j{fill:#ffbd38}</style><path class="a" d="m402 263.4c0 111-90 200.9-201 200.9-111 0-201-89.9-201-200.9 0-111 90-201 201-201 111 0 201 90 201 201z"/><g clip-path="url(#cp1)"><path class="b" d="m102.6 185.8c0 19.3 46.6 79 100.4 79 53.8 0 100-63.7 100-83 0-19.4-43.5-18.8-97.3-18.8-53.7 0-103.1 3.4-103.1 22.8z"/><path class="c" d="m158 311.4h85.2v-31.4c0 0-9-8.3-37.7-8.3-28.7 0-40.2 5.5-40.2 5.5z"/><path class="d" d="m129.9 377.6h146.2l13.2-71.3c0 0-37 2.7-51.7-13.2-14.6-16-10-40.7-10-40.7h-49.2c0 0 3.1 27.8-8.6 40.7-11.7 12.8-53.1 13.2-53.1 13.2z"/><path class="e" d="m178.4 260.7c0 0 11.1 16.5 25.4 16.5 14.4 0 23.8-16.5 23.8-16.5v-8.3h-49.2z"/><path class="d" d="m286.5 193c-17.5 49.9-43.3 74.3-81.7 74.3-38.8 0-63.2-24.9-82.3-74.3-12.9-33.5-6.3-74.3-6.3-74.3 0-47 14-97.8 88.6-97.8 74.7 0 88.6 58.8 88.6 104.4 0 0 2.3 41.5-6.9 67.7z"/><path class="d" d="m94.2 172.3c4.7 15.5 20.9 23.7 24.5 15.6 3.5-7.9 10.7-12.3 8.5-25.5-2.2-13.2-19.2-27.4-26.5-23.5-11.6 6.3-10.4 20.6-6.5 33.4z"/><path class="d" d="m312.1 170.6c-4.8 15.6-21 23.8-24.6 15.6-3.5-7.9-10.7-12.2-8.5-25.4 2.2-13.2 19.2-27.5 26.6-23.5 11.5 6.3 10.3 20.6 6.5 33.3z"/><path class="b" d="m285 163c0 0 6.5-28.9 23.3-23.8 0.6-18.2 1.6-33.1 0.2-47.3-0.4-4.7-12.2-88.5-93.4-90.2-40.2-0.9-77.4-8.1-87.5 25.7-45.7 9.6-33 96.4-29.7 113.4 16.1-10.5 23.4 22.2 23.4 22.2l5.9-0.6c0 0-12.2-15.3 2.7-29-8.3-11.8 1-48.1 8.9-51.9 15.9-7.7 17.5 6.8 64 7.7 37.6 0.7 49.5-23.1 68.9-9.6 19.1 13.3 7.4 48.2 4.4 53.8 16.9 11.1 4.5 28.6 4.5 28.6z"/><path class="f" d="m129.9 610.8h146.2l-1.5-306.1-44.2-22.4-26.3 24-29.2-20.7-42.6 17.5z"/><path class="g" d="m243.2 280l-6.8 61.1-32.3 115.9 0.6 240.7 98.7-18.7c0 0-6.5-203.3-6.7-224.2-0.3-21 5.8-54.1 5.8-54.1l1.5-94.4-42.6-7.3z"/><path class="h" d="m342.7 368.8c2.6 12.4 21.2 215.8 19.9 272.3-3.4 6.7-35.2 19.4-39 14.3-5.4-76.2-22.7-260.3-22.7-273.3 0-17.2-14.1-75.8 3.1-75.8 17.3 0 29.8 20.6 38.7 62.5z"/><path class="g" d="m160.7 280l11.5 75.7 31.9 101.3 0.6 240.7-104.7-13.7c0 0 7-208.3 7.2-229.2 0.2-21-5.9-54.1-5.9-54.1l-1.5-94.4 42.7-7.3z"/><path class="h" d="m61.2 368.8c-2.6 12.4-21.2 215.5-20 272 3.4 6.7 35.2 19.7 39.1 14.6 5.4-76.2 22.6-260.3 22.6-273.3 0-17.2 14.1-75.8-3.1-75.8-17.2 0-29.8 20.6-38.6 62.5z"/><path class="e" d="m210.7 184.7c0 0-2.6 4.3-8.1 4.3-5.5 0-9.2-1.6-10-2.5-0.8-1 5.5-12 5.5-12 0 0-3 7.7-1.6 9.6 1.3 1.9 4.9 1.9 6.6 1.9 5.5 0 7.6-1.3 7.6-1.3z"/><path class="e" d="m208.3 220.5c0 0-2.7 7.4-8.5 7.4-5.8-0.1-7.3-5.2-7.3-5.2 0 0 1.7 2 8 1.8 6.3-0.2 7.8-4 7.8-4z"/><path class="b" d="m218 221.8c9.2 1.1 18.9-3.5 18.9-3.5 0 0-13.4-17.7-32.8-17.6-22.5 0.1-35.7 17.6-35.7 17.6 0 0 9.9 4.2 17.6 3 11.3-1.9 16.8-7.2 16.8-7.2 0 0 6.7 6.7 15.2 7.7z"/><path class="h" d="m237.7 276.9c4.6 20.9-33.6 180.1-33.6 180.1l42.6-84.6-6.3-25.7 19.9 2.2 1.1-49.9c0 0-11.6-17-23.7-22.1z"/><path class="h" d="m166.1 276.9c-4.6 20.9 38 180.1 38 180.1l-47-84.6 6.3-25.7-19.9 2.2-1.1-49.9c0 0 11.6-17 23.7-22.1z"/><path class="i" d="m237.9 286.1l-15.6 38.2-18.2-18 26.3-24z"/><path class="i" d="m166.3 289.1l18.9 37 18.9-19.8-29.2-20.7z"/><path class="j" d="m212.9 337.1h-16.6l-5.3-17.1 13.1-13.7 12.3 12.2z"/><path class="j" d="m212.9 337.1h-16.6l-5.3 68.9 13.1 51 12.3-53.6z"/></g></svg>