<svg version="1.2" xmlns="http://www.w3.org/2000/svg" viewBox="0 0 402 425" width="402" height="425"><defs><clipPath clipPathUnits="userSpaceOnUse" id="cp1"><path d="m401.96 223.38c0 110.99-89.97 200.97-200.96 200.97-110.99 0-200.96-89.98-200.96-200.97 0-110.99 89.97-311.9 200.96-311.9 110.99 0 200.96 200.91 200.96 311.9z"/></clipPath></defs><style>.a{fill:#c1272d}.b{fill:#352e35}.c{fill:#f8ba8c}.d{fill:#e09d73}.e{mix-blend-mode:multiply;fill:#e7dbd6}.f{fill:#ffbd38}.g{fill:#fff}.h{fill:#cc8200}</style><path class="a" d="m402 223.4c0 111-90 200.9-201 200.9-111 0-201-89.9-201-200.9 0-111 90-201 201-201 111 0 201 90 201 201z"/><g clip-path="url(#cp1)"><path class="b" d="m272.7 199.6c-26 30.8-59 41.1-71.8 41-13.2 0-48.9-9.2-75.3-41.6-15-18.3-21.1-54.3-25-79.4-2.2-14.5-8.2-61.5 2-76.8 7.3-11 17.4-20.5 31-27.5 1.7-0.9-13.6-9.8-11.8-10.6 0.8-0.3 28.1 6.1 76.2-2.6 18.4-3.4 45.2-0.5 48.3 12 25.4-0.7 38.2 12.5 44.4 23.8 9.1 16.5 12.4 39.5 9.9 61.5-3.2 28.9-12.3 81.7-27.9 100.2z"/><path class="c" d="m117.7 140.5c0 0 3.2-24-17.6-18.2-16.1 4.4 0.2 48.9 10.7 52.8 9 3.3 11-3.6 11-3.6z"/><path class="c" d="m281.8 141.1c0 0-3-24 17.8-18 16 4.5-0.6 48.9-11.2 52.7-9 3.2-11-3.7-11-3.7z"/><path class="c" d="m204.9 385.5c0 0 54.3-120.8 50.8-122.7-20.3-11.2-19-42.5-19-42.5l-73.5-4.1c0 0 4.5 44.9-17.3 50.4-1.6 0.4 59 118.9 59 118.9z"/><path class="d" d="m162.1 243c3.1 1.1 6.1 2.7 8.9 5.1 9.7 8.3 32.1 20.7 45.6 16.6 10-3.1 17.4-11.8 24.4-19.8-4.8-12.1-4.3-24.6-4.3-24.6l-73.5-4.1c0 0 1.4 13.6-1.1 26.8z"/><path class="c" d="m283.9 151.9c-3.7 26.3-4.8 41.5-20.1 60.1-10.6 12.8-33.8 32.3-50.8 40.2-4.7 2.2-20.1 2.4-24.9 0.6-18.5-7.2-44.6-26.2-53.7-41.4-12.1-20.1-15.3-36.2-18.8-60.1-4.2-28.7-4.6-18.6-4.5-45.7 0.2-55.1 21.7-94.8 83.4-94.5 61.9 0.2 93.3 35 94 91.5 0.4 31-0.6 20.5-4.6 49.3z"/><path class="e" d="m135.1 112.4c8.3-8.6 21.4-6.4 33.1-6.7 10.9-0.3 35-4.1 43.2-13.5 7.1-8.3 20.3-20.4 32.1-20.3 27.4 0.1 31.9 51.1 36.1 73.1 1.1 5.9 2.6 1.8 4.1 7.9q0.1-0.5 0.2-1c4-28.8 5-18.3 4.6-49.3-0.7-56.5-30.4-95.1-92.2-95.3-61.8-0.2-85 43.2-85.2 98.3-0.1 25.9 7.2 17.8 10.9 41.9 5.4-11.2 3.3-25 13.1-35.1z"/><path class="b" d="m129.8 108.8c20.5-15.4 79.8-2 106.3-47.4 31.5 0.5 36.4 35.2 41.3 46.5 2.3 5.2 2.3 48.4 2.3 48.4 0 0 4.1-3.8 4.2-4.4 4-28.8 8.5-17.5 8.1-48.5-0.7-56.6-33.9-95.9-95.7-96.1-61.8-0.2-88 43.2-88.2 98.3-0.1 27.1 3.3 17 7.5 45.7 0.1 0.4 6.2-1.9 6.2-1.9 0 0 3.9-37.5 8-40.6z"/><path class="f" d="m346.1 304.5c-4.3-15.3-16.8-27.1-32.4-30.5l-50.2-10.6h-5.6l-54 56.7-58.4-57.1-51.5 11c-15.6 3.4-28.1 15.2-32.4 30.5l-9.9 78.2 0.3 0.2c41.4 28.1 88.6 43.5 136.4 46.3 5 0.2 10-5.7 15-5.7 4.9 0 9.9 6 14.9 5.7 48.3-2.6 96-18.1 137.7-46.5z"/><path class="g" d="m188.4 429.1q14.9 0.9 29.9 0.1v-0.1l39.6-165.7-54 56.7-52.7-51.5z"/><path class="h" d="m188.4 429.1l-36.7-180.6-26 33.4 17.8 13.3-14 19.3z"/><path class="h" d="m218.3 429.1l36.8-180.6 26 33.4-17.9 13.3 14 19.3z"/><path class="b" d="m138.6 104.4c0 0 17.4-1.9 34.7-6 0 0-2 1-6.1 4.1 0 0 53 5.1 68.9-41.1 24.7-71.3-59.7-3.8-59.7-3.8l-6.1 4.1"/><path class="d" d="m200.8 188l-7.1-5.7 7.1-16.6z"/><path class="d" d="m181.6 211.5l-2.7-2.6 47.8-2.6-8.6 5.2z"/></g></svg>