<svg version="1.2" xmlns="http://www.w3.org/2000/svg" viewBox="0 0 402 451" width="402" height="451"><defs><clipPath clipPathUnits="userSpaceOnUse" id="cp1"><path d="m401.96 249.38c0 110.99-89.97 200.97-200.96 200.97-110.99 0-200.96-89.98-200.96-200.97 0-110.99 89.97-311.9 200.96-311.9 110.99 0 200.96 200.91 200.96 311.9z"/></clipPath></defs><style>.a{fill:#ffbd38}.b{fill:#773a22}.c{fill:#86492c}.d{fill:#4b0400}.e{fill:#004b74}.f{fill:#fff}.g{fill:#01324f}</style><path class="a" d="m402 249.4c0 111-90 200.9-201 200.9-111 0-201-89.9-201-200.9 0-111 90-201 201-201 111 0 201 90 201 201z"/><g clip-path="url(#cp1)"><path class="b" d="m117.7 166.5c0 0 3.2-24-17.6-18.2-16.1 4.4 0.2 48.9 10.7 52.8 9 3.3 11-3.6 11-3.6z"/><path class="b" d="m281.8 167.1c0 0-3-24 17.8-18 16 4.5-0.6 48.9-11.2 52.7-9 3.2-11-3.7-11-3.7z"/><path class="c" d="m204.9 411.5c0 0 54.3-120.8 50.8-122.7-20.3-11.2-19-42.5-19-42.5l-73.5-4.1c0 0 4.5 44.9-17.3 50.4-1.6 0.4 59 118.9 59 118.9z"/><path class="b" d="m162.1 269c3.1 1.1 6.1 2.7 8.9 5.1 9.7 8.3 32.1 20.7 45.6 16.6 10-3.1 17.4-11.8 24.4-19.8-4.8-12.1-4.3-24.6-4.3-24.6l-73.5-4.1c0 0 1.4 13.6-1.1 26.8z"/><path class="c" d="m283.9 177.9c-3.7 26.3-4.8 41.5-20.1 60.1-10.6 12.8-58.7 42-64 42-4.7 0.1-56.3-27.4-65.4-42.6-12.1-20.1-15.3-36.2-18.8-60.1-4.2-28.7-4.6-18.6-4.5-45.7 0.2-55.1 21.7-94.8 83.4-94.5 61.9 0.2 93.3 35 94 91.5 0.4 31-0.6 20.5-4.6 49.3z"/><path class="b" d="m293.3 74.4c-6-17.3-31.5-36.4-48.8-43.3-12.9-6.4-27.5-8.9-42.1-8.3-14.7-0.6-29.2 1.9-42.2 8.3-17.2 6.9-42.7 26-48.8 43.3-6.6 19 0.5 68.1 4.3 93.1 2.8-0.1 5.6-0.9 8.1-2.7 8.2-6.1 8.4-19.1 1.4-25.9-0.7-0.6-0.7-2 0.1-2.6 6.2-4.9 2.1-9.1 1.9-15-0.2-3.8 1.2-7.5 2.1-11.2 0.1-0.6 0.7-1.2 1.3-1.2 7.3-1.1 12.4-6.1 12-13.7 0-1 1-1.9 2-1.8 7.8 0.7 11.2-3.3 15.5-8.3 0.1-0.1 0.2-0.2 0.3-0.2 0.9-1.3 3.5-0.9 3.5 1.1-0.6 23.4 33.5 11.6 41.3-0.5 1.1-1.7 3.5-0.8 3.6 1 0.3 8.6 13.6-1.1 16.2-2.8 1.3-0.7 3 0.4 2.9 1.7-0.6 8.5 8.2 8.8 13 4.1 1.3-1.2 3.1-0.1 3.2 1.4 0.9 12.6 17.7 3.1 22.6-1.4 1.6-1.4 4.3 0.6 3 2.4-5.9 8.1-12.7 23.6 1.7 26.9 1.2 0.3 1.7 1.8 1.1 2.8-3.1 4.5-5.3 7.7-5 13.4 0.3 6.3 3.1 7 7.4 11.1 1.8 1.7 3.2 3 4 5.4 0.9 2.7 0.2 5.6-0.2 8.3-1 6.5 3.8 10.6 9.8 11.2 3.7-23.6 11.8-76.6 4.8-96.6z"/><path class="d" d="m300.5 98.1c3.2-5.5 4.8-13.9-1.5-16.1 3.6-6.8 3.4-16-4.7-18 2.5-7.8-2.3-15.3-10.9-16.3-0.6-6.3-5-11-11.2-12.2 1.1-8.3-6.3-14-14.2-11.7-2.1-6.9-10.5-5.9-16.7-3-1.8-8.2-11.2-11.8-18.1-7-2.9-8.2-11.7-13.6-20.7-12.9-10.1 0.8-17.4 8.4-20.9 17.1-5.4-4.8-13.3-4.3-17.7 1.8-4.7-4.2-11.4-3.6-14.9 2-3.8-2.1-8.2-1.7-12.1 1-5.4 3.8-6.6 10.4-7.2 16.5-11.3-0.9-20.2 7.5-19.4 18.6-13.7-1.1-18.5 15.1-16.5 26.4 1 5.3 5.2 12.4 1.5 17.2-1.6 1.9-3.5 2.4-4.4 5-1.3 3.9 0.3 7.2 3.2 9.3-5.5 3.3-9.6 8.3-7.6 15.3 2.4 8.4 10.7 11.9 18.6 14.1-2.9 3.7-1.6 8.7 0.8 13.1-2.7 0.8-4.9 2.8-4.9 6.1 0.1 6.1 10.7 9.7 16 12.1q0.1 0.4 0.1 0.7c0.7 0.6 1.3 1 2 1.3 8.5 3.6 8.8-3.1 8.2-7.3-0.4-3.8-2-7.7-4.7-10.4-0.8-0.8-0.5-2 0.4-2.6 6.9-4.3 3.8-13.9-1-18.3-0.7-0.7-0.5-1.7 0.1-2.4 4.2-4.7 7-13.1 1.6-18-0.5-0.5-0.6-1.4-0.2-2 3.4-4.9 5.6-10.2 2.2-15.9-0.9-1.6 1-2.9 2.4-2.2 11.4 5.9 14.6-13.3 14.8-20.7 0-1.2 1.5-2 2.6-1.3 5.8 4 11.3 3.8 16.4-1.5 0.8-0.8 2.1-0.4 2.7 0.4 10.7 17.1 29.9 5.5 39.7-6.1 1-1.1 2.6-0.9 3.1 0.5 3.3 9.2 14.4 7 20.2 1.9 1-0.8 2.5-0.4 2.8 0.8 2.1 8.1 9 7.6 15.4 5.4 1.3-0.4 2.2 1 2 2.1-1.9 10.5 8.8 12.4 16.5 10.6 1.5-0.4 2.4 1.2 1.8 2.5-5.5 11-3.6 21.3 10.4 22.7 1.2 0.2 2.2 1.5 1.4 2.6-4.7 6.7-0.9 12-0.7 19.1 0.2 6.7-2 13.2-1.1 20 0.7 5.4 3 11.4 7.5 14.9q-0.1 0.7-0.1 1.2c-0.2 3 4.6 3.1 4.8 0.1 7.2-3.8 6.6-13.1 3.8-20.2 6.5-4.4 7.1-12.2 2.2-17.8q-0.1-0.6-0.3-1.1c7.7-2.3 11-10.1 7.2-17.8 6.6-4.5 6.9-14.6-0.7-19.6z"/><path class="e" d="m346.1 330.5c-4.3-15.3-16.8-27.1-32.4-30.5l-50.2-10.6h-5.6l-54 56.7-58.4-57.1-51.5 11c-15.6 3.4-28.1 15.2-32.4 30.5l-9.9 78.2 0.3 0.2c41.4 28.1 88.6 43.5 136.4 46.3 5 0.2 10-5.7 15-5.7 4.9 0 9.9 6 14.9 5.7 48.3-2.6 96-18.1 137.7-46.5z"/><path class="f" d="m188.4 455.1q14.9 0.9 29.9 0.1v-0.1l39.6-165.7-54 56.7-52.7-51.5z"/><path class="g" d="m188.4 455.1l-36.7-180.6-26 33.4 17.8 13.3-14 19.3z"/><path class="g" d="m218.3 455.1l36.8-180.6 26 33.4-17.9 13.3 14 19.3z"/><path class="b" d="m199.4 201l-7.1-5.6 7.1-16.6z"/><path class="b" d="m180.1 224.5l-2.6-2.6 47.8-2.6-8.6 5.2z"/></g></svg>