<svg version="1.2" xmlns="http://www.w3.org/2000/svg" viewBox="0 0 403 459" width="403" height="459"><defs><clipPath clipPathUnits="userSpaceOnUse" id="cp1"><path d="m402.36 257.94c0 110.99-89.98 200.96-200.97 200.96-110.99 0-200.96-89.97-200.96-200.96 0-110.99 89.97-311.9 200.96-311.9 110.99 0 200.97 200.91 200.97 311.9z"/></clipPath></defs><style>.a{fill:#22b573}.b{fill:#d15415}.c{fill:#e53341}.d{fill:#f8ba8c}.e{fill:#da9c73}.f{fill:#ec8042}.g{fill:#c1272d}.h{fill:#bf0f2c}.i{fill:#e63a3a}.j{fill:#fff}.k{fill:#503949}</style><path class="a" d="m402.4 257.9c0 111-90 201-201 201-111 0-201-90-201-201 0-111 90-200.9 201-200.9 111 0 201 89.9 201 200.9z"/><g clip-path="url(#cp1)"><path class="b" d="m148.4 313.4c17.4 33 74.5 45.9 112.5-9.9 38.1-55.8 37.4-154.8 37.4-154.8l-174.1-9.1c0 0-19.4 91.4 24.2 173.8z"/><path class="c" d="m160.2 303.5h81l-1.7-32.5c0 0-7.7-7.3-35-7.3-27.3 0-37.3 7.3-37.3 7.3z"/><path class="d" d="m133.4 366.5h139.2l12.6-67.9-58.8-12.6v-38.6h-46.8v38.6l-58.8 12.6z"/><path class="e" d="m179.6 255.2c0 0 10.5 15.8 24.2 15.8 13.6 0 22.6-15.8 22.6-15.8v-7.8h-46.8z"/><path class="d" d="m282.4 190.8c-7.9 25.2-44.5 70.7-77.6 70.7-29.9 0-69.1-37.8-78.4-70.7-9.3-32.9-6-70.7-6-70.7 0-44.8 13.3-93 84.4-93 71 0 84.3 55.9 84.3 99.3 0 0 1.3 39.2-6.7 64.4z"/><path class="d" d="m99.4 171.1c4.5 14.8 20 22.6 23.4 14.8 3.3-7.5 10.2-11.6 8.1-24.2-2.1-12.6-18.3-26.1-25.3-22.3-10.9 5.9-9.8 19.5-6.2 31.7z"/><path class="d" d="m306.8 169.5c-4.5 14.8-20 22.6-23.4 14.9-3.3-7.5-10.2-11.7-8.1-24.2 2.1-12.6 18.3-26.2 25.3-22.4 10.9 6 9.9 19.6 6.2 31.7z"/><path class="f" d="m272.1 173c13.3-6.7 11.8-35.2 28.5-35.2 16.1-57.4-24.9-129.3-53-117.6-10.2-19.6-36.5-22.2-64.3-18.7-67.2 8.4-91.6 57.1-91.6 137.2 0 74.5 33.9 157.4 33.9 157.4l19-4c3.1-0.7-30.5-89.3-3.3-161.6 13.8-36.7 71.8-12.1 98.7-62.1 8 25.5 16.5 34.9 30.5 53.8 13.9 18.9 6.6 43.1 1.6 50.8z"/><path class="c" d="m327.5 358.1c2.5 11.8 13.8 162.5 12.6 216.3-3.2 6.3-27.1 15.1-30.8 10.3-5.1-72.6-21.5-201.6-21.5-213.9 0-16.4-13.4-72.2 3-72.2 16.3 0 28.3 19.6 36.7 59.5z"/><path class="g" d="m284.1 371.3l3-72.1-32.2-6.9-15.4-21.3c0 0-1.2 41-34.8 41-33.7 0-37.5-41-37.5-41l-22.6 21.1-32.2 6.9 2.9 72.1c0 0 17.4 54.8 18.1 71.6-10.4 35.7-21.9 114.2-21.9 114.2 0 0 38.2 18.1 90.2 18.1 52 0 92.2-17.5 92.2-17.5 0 0-11.4-83.3-21.9-119 0.7-16.8 12.1-67.2 12.1-67.2z"/><path class="c" d="m75.6 358.5c-2.5 11.8-13.7 162.4-12.6 216.2 3.3 6.4 27.1 15.1 30.8 10.3 5.1-72.5 21.5-201.5 21.5-213.9 0-16.4 13.5-72.1-2.9-72.1-16.4 0-28.4 19.6-36.8 59.5z"/><path class="e" d="m210.3 182.9c0 0-2.4 4.1-7.7 4.1-5.2 0-8.7-1.5-9.5-2.4-0.7-0.9 5.2-11.4 5.2-11.4 0 0-2.8 7.4-1.5 9.2 1.2 1.8 4.6 1.8 6.3 1.8 5.2 0 7.2-1.3 7.2-1.3z"/><path class="h" d="m228.7 209.2c0 12-10.8 21.8-24.2 21.8-13.4 0-24.2-9.8-24.2-21.8z"/><path class="i" d="m185.6 222.7c4.4 5 11.2 8.3 18.9 8.3 7.7 0 14.5-3.3 18.9-8.3 0 0-8.3-2.6-18.9-2.6-10.6 0-18.9 2.6-18.9 2.6z"/><path class="j" d="m225.3 214.7q0.7-2.6 0.7-5.5h-43q0 2.7 0.7 5.3c0.2 0.9 2 2.8 3.8 2.8 8.5 0 32.7 0 34.4 0 1.9 0 3.1-1.7 3.4-2.6z"/><path fill-rule="evenodd" class="k" d="m199.4 136.2c0 8-3.4 34-44.9 34-20.4 0-28.9-23.6-28.9-34 0-7.4 6.9-13.1 36.9-13.1 28.9 0 36.9 5.4 36.9 13.1zm-8 2.3c0-6-6.3-10.3-28.9-10.3-23.4 0-28.8 4.5-28.8 10.3 0 8.1 6.6 26.5 22.5 26.5 32.5 0 35.2-20.3 35.2-26.5z"/><path fill-rule="evenodd" class="k" d="m247.3 123.1c30 0 36.9 5.7 36.9 13.1 0 10.4-8.4 34-28.8 34-41.5 0-45-26-45-34 0-7.7 8.1-13.1 36.9-13.1zm6.3 41.9c16 0 22.6-18.4 22.6-26.5 0-5.8-5.4-10.3-28.9-10.3-22.5 0-28.8 4.3-28.8 10.3 0 6.2 2.7 26.5 35.1 26.5z"/><path class="k" d="m198.8 142.7c3.8-3.6 9.6-4 12.4 0.4 2.7 4.4 3.3-10.2 3.3-10.2h-19.5c0 0-0.1 13.5 3.8 9.8z"/></g></svg>