<?xml version="1.0" encoding="UTF-8" standalone="no"?>
<!-- Created with Inkscape (http://www.inkscape.org/) -->

<svg
   version="1.1"
   id="svg182"
   width="1921.3333"
   height="933.33331"
   viewBox="0 0 1921.3333 933.33331"
   sodipodi:docname="sky-no-clouds.svg"
   inkscape:version="1.2.2 (732a01da63, 2022-12-09)"
   xmlns:inkscape="http://www.inkscape.org/namespaces/inkscape"
   xmlns:sodipodi="http://sodipodi.sourceforge.net/DTD/sodipodi-0.dtd"
   xmlns="http://www.w3.org/2000/svg"
   xmlns:svg="http://www.w3.org/2000/svg">
  <defs
     id="defs186" />
  <sodipodi:namedview
     id="namedview184"
     pagecolor="#ffffff"
     bordercolor="#000000"
     borderopacity="0.25"
     inkscape:showpageshadow="2"
     inkscape:pageopacity="0.0"
     inkscape:pagecheckerboard="0"
     inkscape:deskcolor="#d1d1d1"
     showgrid="false"
     inkscape:zoom="0.24032308"
     inkscape:cx="692.81735"
     inkscape:cy="626.2403"
     inkscape:window-width="1280"
     inkscape:window-height="945"
     inkscape:window-x="-9"
     inkscape:window-y="-9"
     inkscape:window-maximized="1"
     inkscape:current-layer="g188" />
  <g
     inkscape:groupmode="layer"
     inkscape:label="Image"
     id="g188">
    <g
       id="g2022">
      <rect
         style="fill:#ffffff;fill-opacity:1;stroke:#ffffff;stroke-width:0;stroke-linejoin:round;stroke-dashoffset:4707.14;paint-order:markers fill stroke"
         id="rect2018"
         width="1921.333"
         height="933.33301"
         x="5e-07"
         y="5e-07" />
      <path
         style="fill:#36366e;fill-opacity:1;stroke-width:1.33333"
         d="M 0,466.66665 V 0 H 960.66664 1921.3332 V 466.66665 933.33334 H 960.66664 0 Z m 437.33334,184 -3.33334,-3.33333 -3.33333,3.33333 -3.33333,3.33333 3.33333,3.33334 3.33333,3.33333 3.33334,-3.33333 3.33333,-3.33334 z m 1321.33316,-78.66666 -3.3333,-3.33334 -3.3333,3.33334 -3.3334,3.33333 3.3334,3.33333 3.3333,3.33334 3.3333,-3.33334 3.3334,-3.33333 z m -538.6666,-33.33334 -3.3334,-3.33333 -3.3333,3.33333 -3.3333,3.33334 3.3333,3.33333 3.3333,3.33333 3.3334,-3.33333 3.3333,-3.33333 z m 665.3333,-2.66666 -3.3333,-3.33334 -3.3334,3.33334 -3.3333,3.33333 3.3333,3.33333 3.3334,3.33334 3.3333,-3.33334 3.3333,-3.33333 z M 127.35617,489.55357 c 2.01857,-1.58781 4.6392,-2.9104 5.82364,-2.9391 1.18444,-0.0287 0.30263,-0.85807 -1.95956,-1.84303 -4.58638,-1.99691 -9.85911,-7.98343 -9.93911,-11.2846 -0.0287,-1.18444 -0.85806,-0.30263 -1.84302,1.95956 -1.99691,4.58637 -7.98343,9.85911 -11.2846,9.93911 -1.18444,0.0287 -0.30263,0.85806 1.95956,1.84302 4.58638,1.99691 9.85911,7.98343 9.93911,11.2846 0.0287,1.18444 0.85806,0.30263 1.84302,-1.95956 0.98497,-2.2622 3.4424,-5.4122 5.46096,-7 z M 1776.6893,452.22024 c 2.0187,-1.58781 4.6392,-2.9104 5.8238,-2.9391 1.1844,-0.0287 0.3025,-0.85807 -1.9596,-1.84303 -4.5864,-1.99691 -9.8591,-7.98343 -9.9391,-11.2846 -0.029,-1.18444 -0.8581,-0.30263 -1.8431,1.95956 -1.9969,4.58637 -7.9834,9.85911 -11.2846,9.93911 -1.1844,0.0287 -0.3026,0.85806 1.9596,1.84302 4.5864,1.99691 9.859,7.98343 9.939,11.2846 0.029,1.18444 0.8582,0.30263 1.8431,-1.95956 0.9849,-2.2622 3.4424,-5.4122 5.4609,-7 z M 108,358.66666 l -3.33334,-3.33334 -3.33333,3.33334 -3.333332,3.33333 3.333332,3.33333 3.33333,3.33334 3.33334,-3.33334 3.33333,-3.33333 z m 1107.3561,-7.77975 c 2.0185,-1.58781 4.6392,-2.88785 5.8236,-2.88899 1.1844,-0.001 0.066,-1.05114 -2.4866,-2.33333 -2.552,-1.2822 -5.8633,-4.16408 -7.3583,-6.4042 l -2.7182,-4.07293 -2.6486,4.07293 c -1.4568,2.24012 -4.7455,5.122 -7.3084,6.4042 -2.9581,1.47995 -3.759,2.33201 -2.1931,2.33333 3.1712,0.003 11.5174,8.31275 11.5856,11.5354 0.035,1.63716 0.6544,1.08348 1.843,-1.64641 0.985,-2.2622 3.4424,-5.4122 5.461,-7 z m 677.9771,-52.22025 -3.3333,-3.33333 -3.3334,3.33333 -3.3333,3.33333 3.3333,3.33334 3.3334,3.33333 3.3333,-3.33333 3.3333,-3.33334 z m -810.6667,-18.66667 -3.3333,-3.33333 -3.3333,3.33333 -3.3334,3.33334 3.3334,3.33333 3.3333,3.33333 3.3333,-3.33333 3.3334,-3.33333 z m 770.5334,-25.05733 3.891,-2.36631 -3.851,-2.21018 c -2.118,-1.21562 -4.9339,-3.99079 -6.2574,-6.16707 l -2.4062,-3.95685 -2.2488,3.91826 c -1.2368,2.15506 -4.012,4.93024 -6.1671,6.16707 l -3.9183,2.24877 3.9568,2.40632 c 2.1763,1.32347 4.9515,4.13928 6.1671,6.25736 l 2.2103,3.85104 2.3662,-3.89105 c 1.3015,-2.14009 4.1174,-4.95591 6.2574,-6.25736 z m -905.19986,-12.276 -3.3334,-3.33333 -3.3333,3.33333 -3.3333,3.33333 3.3333,3.33334 3.3333,3.33333 3.3334,-3.33333 3.3333,-3.33334 z m 225.33316,-17.33333 -3.3333,-3.33334 -3.3334,3.33334 -3.3333,3.33333 3.3333,3.33333 3.3334,3.33334 3.3333,-3.33334 3.3333,-3.33333 z m -191.99985,-9.33335 -3.3333,-3.33333 -3.3334,3.33333 -3.3333,3.33335 3.3333,3.33333 3.3334,3.33333 3.3333,-3.33333 3.3333,-3.33333 z M 529.33333,173.33332 526,169.99999 l -3.33333,3.33333 -3.33334,3.33333 3.33334,3.33334 3.33333,3.33333 3.33333,-3.33333 3.33334,-3.33334 z m 263.86669,-6.39067 3.89106,-2.3663 -3.85104,-2.21019 c -2.11808,-1.21561 -4.9339,-3.99079 -6.25736,-6.16707 l -2.40632,-3.95685 -2.24878,3.91827 c -1.23682,2.15505 -4.01201,4.93024 -6.16706,6.16706 l -3.91827,2.24878 3.95685,2.40632 c 2.17628,1.32346 4.95146,4.13928 6.16707,6.25736 l 2.21019,3.85104 2.3663,-3.89106 c 1.30146,-2.14009 4.11727,-4.9559 6.25736,-6.25736 z m 929.46648,-1.60933 -3.3333,-3.33333 -3.3333,3.33333 -3.3334,3.33333 3.3334,3.33334 3.3333,3.33333 3.3333,-3.33333 3.3334,-3.33334 z"
         id="path300" />
    </g>
  </g>
</svg>
