<svg version="1.2" xmlns="http://www.w3.org/2000/svg" viewBox="0 0 215 283" width="215" height="283"><style>.a{fill:#8399be}.b{fill:none;stroke:#fff;stroke-miterlimit:10;stroke-width:6}.c{fill:#fbeb53}.d{fill:#a3acd3}.e{fill:#2d3c77}</style><path class="a" d="m214.5 176.2c0 58.9-47.9 106.8-106.8 106.8-59 0-106.8-47.9-106.8-106.8 0-11.7 7.4-22.2 19.4-31 19.7-14.3 51.5-23.5 87.4-23.5 35.8 0 67.7 9.1 87.4 23.5 12 8.8 19.4 19.3 19.4 31z"/><path class="b" d="m107.7 233c-55.6 0-100.7-25-100.7-55.7 0-30.7 45.1-55.6 100.7-55.6 55.6 0 100.7 24.9 100.7 55.6 0 30.7-45.1 55.7-100.7 55.7z"/><path class="c" d="m157.3 150.3c4.5 5.6 6.9 11.9 6.9 18.5 0 8.7-4.3 17.1-12.2 23.7-10 8.3-26.1 13.9-44.3 13.9-18.2 0-34.3-5.6-44.3-13.9-7.9-6.6-12.2-15-12.2-23.7 0-6.6 2.4-12.9 6.9-18.5 14.9 4.7 31.8 7.2 49.6 7.2 17.8 0 34.6-2.5 49.6-7.2z"/><path class="d" d="m0.9 107.6c0-58.9 47.8-106.8 106.8-106.8 58.9 0 106.8 47.9 106.8 106.8 0 11.7-7.4 22.3-19.4 31-19.7 14.4-51.6 23.6-87.4 23.6-35.9 0-67.7-9.2-87.4-23.6-12-8.7-19.4-19.3-19.4-31z"/><path class="d" d="m69.8 259.3c-2.1 3.8-10 3.3-17.5-1-7.5-4.4-11.8-10.9-9.7-14.7 2.2-3.7 10-3.3 17.6 1.1 7.5 4.3 11.8 10.9 9.6 14.6z"/><path class="e" d="m170.2 55.6c-4.4 7.7-20.6 6.8-36.1-2.2-15.5-8.9-24.5-22.5-20-30.2 4.5-7.8 20.7-6.8 36.2 2.1 15.5 9 24.4 22.5 19.9 30.3z"/><path class="e" d="m110.9 58.8c-2 3.4-7.8 3.9-12.9 0.9-5.1-2.9-7.6-8.1-5.6-11.5 2-3.5 7.7-3.9 12.8-1 5.1 3 7.6 8.2 5.7 11.6z"/><path class="e" d="m138.6 80.4c-1.1 1.9-4.4 2.1-7.4 0.5-2.9-1.7-4.4-4.7-3.3-6.7 1.2-1.9 4.5-2.1 7.4-0.4 3 1.7 4.4 4.6 3.3 6.6z"/></svg>