<svg version="1.2" xmlns="http://www.w3.org/2000/svg" viewBox="0 0 328 294" width="328" height="294"><style>.a{fill:#8399be}.b{fill:none;stroke:#8399be;stroke-miterlimit:10;stroke-width:6}.c{fill:#fbeb53}.d{fill:#a3acd3}.e{fill:none;stroke:#fff;stroke-miterlimit:10;stroke-width:8}.f{fill:#2d3c77}</style><path class="a" d="m316.8 183.3c0 52.2-42.3 94.5-94.4 94.5-52.2 0-94.5-42.3-94.5-94.5 0-52.1 42.3-94.4 94.5-94.4 52.1 0 94.4 42.3 94.4 94.4z"/><path class="b" d="m113.6 75.1c0 29.9-24.3 54.2-54.3 54.2-29.9 0-54.2-24.3-54.2-54.2 0-30 24.3-54.3 54.2-54.3 30 0 54.3 24.3 54.3 54.3z"/><path class="c" d="m90.8 283.7c-18.4 0-47.9-7.3-70.2-20.2-16.1-9.4-21.7-15.1-19.8-20.2 1.5-4 6.5-5.4 17-4.8 6.2 0.4 12.1 1.5 12.4 1.5l-1.2 6.9c-8.8-1.5-17.8-2-21.1-1.1 1.2 1.5 4.8 5 16.2 11.6 14.2 8.3 32.5 14.7 50 17.7 16.2 2.7 25.5 1.4 27.5-0.1-0.6-1-3.7-5.1-19.8-12.2l2.9-6.4c10.9 4.8 23.5 11.3 24 18.4 0.1 1.4-0.2 4.2-3.5 6.2-2.9 1.8-8 2.7-14.4 2.7z"/><path class="b" d="m83.3 268.6c-4.4 16-21 25.4-37 21-16-4.5-25.4-21-21-37 4.4-16 21-25.4 37-21 16 4.4 25.4 21 21 37z"/><path class="c" d="m108.7 274.8c-0.4-5.6-8.5-10.9-17.2-15.2-0.5 2.4-1.1 4.7-1.8 7 9.3 4.8 11.4 7.6 11.9 8.4-2 1.5-11.3 2.8-27.5 0.1-17.5-3-35.8-9.4-50-17.7-11.4-6.6-15-10.1-16.2-11.6 2.4-0.6 8-0.6 14.3 0.1-0.5-2 0.5-4.3 2.3-5.3 0.3-0.2 0.5-0.4 0.6-0.4q0.3-0.3 0.7-0.6 0-0.1 0.1-0.2c-2.2-0.3-5.1-0.7-8.1-0.9-10.5-0.6-15.5 0.8-17 4.8-1.9 5.1 3.7 10.8 19.8 20.2 22.3 12.9 51.8 20.2 70.2 20.2 6.4 0 11.5-0.9 14.4-2.7 3.3-2 3.6-4.8 3.5-6.2z"/><path class="a" d="m282.9 97.2c-0.3 4.6-0.2 9.1-0.5 13.6q0 0.6-0.2 1.1c20.2 17 33.1 42.5 33.1 70.9 0 51.2-41.6 92.8-92.7 92.8-51.2 0-92.8-41.6-92.8-92.8 0-28.3 12.8-53.7 32.9-70.7q0-0.2 0-0.3c1.4-5.1 1.3-10.5 1.2-15.7-27.8 18.8-46.1 50.7-46.1 86.7 0 57.8 47 104.8 104.8 104.8 57.7 0 104.7-47 104.7-104.8 0-35.3-17.6-66.6-44.4-85.6z"/><path class="d" d="m63.8 264.7c0 0.8-0.7 1.4-1.5 1.4-0.8 0-1.4-0.6-1.4-1.4 0-0.8 0.6-1.5 1.4-1.5 0.8 0 1.5 0.7 1.5 1.5z"/><path class="d" d="m64.3 241.1c-0.3 1.4-2.8 2-5.5 1.4-2.8-0.6-4.8-2.2-4.5-3.6 0.3-1.4 2.8-2 5.6-1.4 2.8 0.6 4.7 2.2 4.4 3.6z"/><path class="d" d="m72.7 260.8c1 1.3 1.1 2.8 0.2 3.5-0.8 0.6-2.3 0.1-3.3-1.2-0.9-1.2-1-2.8-0.2-3.4 0.9-0.6 2.4-0.1 3.3 1.1z"/><path class="d" d="m57.2 108.4c-2.3 4.1-10.2 4-17.5-0.2-7.4-4.3-11.4-11-9-15.1 2.4-4.1 10.2-4 17.6 0.2 7.3 4.2 11.3 11 8.9 15.1z"/><path class="d" d="m89.3 76.5c-3.4 2.6-8.4 1.8-11.1-1.8-2.7-3.6-2.1-8.5 1.3-11.1 3.4-2.6 8.3-1.8 11 1.8 2.7 3.5 2.2 8.5-1.2 11.1z"/><path class="d" d="m28.4 63.5c-1.7 1.3-4.1 0.9-5.5-0.9-1.3-1.7-1.1-4.2 0.6-5.5 1.7-1.3 4.2-0.9 5.6 0.9 1.3 1.7 1 4.2-0.7 5.5z"/><path class="d" d="m39.4 53.5c-1.7 1.3-4.1 0.9-5.5-0.9-1.3-1.7-1.1-4.2 0.6-5.5 1.7-1.3 4.2-0.9 5.6 0.9 1.3 1.7 1 4.2-0.7 5.5z"/><path class="d" d="m42.4 66.5c-1.7 1.3-4.1 0.9-5.5-0.9-1.3-1.7-1.1-4.2 0.6-5.5 1.7-1.3 4.2-0.9 5.6 0.9 1.3 1.7 1 4.2-0.7 5.5z"/><path class="a" d="m164.2 111.1h118c0 0 3.3 15.2-12.8 21-16.1 5.7-71.9 4.5-71.9 4.5l-20.2-3.3-8.1-7.4-5-5.3z"/><path fill-rule="evenodd" class="c" d="m182.4 115.4c-0.9 0-1.6-0.7-1.6-1.5v-3.3c0.1-2.1 1.9-3.7 4-3.7h4.7v-0.8c0-1.7 1.1-3.2 2.7-3.7v-30.6c-1.6-0.6-2.7-2.1-2.7-3.8v-1.9h-6.1c-0.6 0-1.3-0.2-1.8-0.7-0.5-0.5-0.8-1.2-0.8-1.9v-3.2q0-0.3 0.1-0.6c-0.1-0.6 0.2-1.2 0.7-1.6l40.8-25.5c0.5-0.3 1.1-0.3 1.6 0l40.7 25.5c0.5 0.4 0.8 1 0.7 1.6q0.1 0.3 0.1 0.6v3.2c0 0.7-0.3 1.4-0.7 1.9-0.5 0.5-1.2 0.7-1.9 0.7h-6.1v1.9c0 1.7-1.1 3.2-2.6 3.8v30.6c1.6 0.5 2.6 2 2.7 3.7v0.8h4.7c2.1 0 3.9 1.6 4 3.7v3.2c0 0.9-0.7 1.6-1.6 1.6zm58.4-8.5v-0.8c0-1.7 1.1-3.2 2.7-3.7v-30.6c-1.6-0.6-2.7-2.1-2.7-3.8v-1.9h-9.6v1.9c0 1.7-1 3.2-2.6 3.8v30.6c1.6 0.5 2.6 2 2.6 3.7v0.8zm-25.6 0v-0.8c0-1.7 1.1-3.2 2.7-3.8v-30.5c-1.6-0.6-2.7-2.1-2.7-3.8v-1.9h-9.6v1.9c0 1.7-1 3.2-2.6 3.8v30.5c1.6 0.6 2.6 2.1 2.7 3.8v0.8zm-26.9-49.3h69.8l-34.9-21.8z"/><path class="c" d="m223.2 54.5c2.7 0 5.1-1.7 6.2-4.2 1-2.5 0.5-5.4-1.5-7.3-1.9-1.9-4.8-2.5-7.3-1.5-2.5 1.1-4.1 3.5-4.1 6.2 0 3.7 3 6.7 6.7 6.8z"/><path class="e" d="m223.2 136.6c-32.6 0-59-0.9-59-25.5v-48c0-32.6 26.4-59 59-59 32.6 0 59 26.4 59 59v48c0 26.2-26.4 25.5-59 25.5z"/><path class="a" d="m132.1 135.4l-16.5 1.3c0 0-11.2 13.5-5.5 30.2 3.5 6.6 9.8 17.9 9.8 17.9"/><path class="a" d="m243.9 281l15.1 9.7c0 0 20.2-2.2 29.6-15.7 0-13 0-17.2 0-17.2z"/><path class="f" d="m112.3 152.2c-1.6 7.2-1 13.4 1.5 13.9 2.5 0.6 5.8-4.7 7.4-11.9 1.6-7.1 0.9-13.3-1.6-13.9-2.4-0.6-5.7 4.8-7.3 11.9z"/><path class="d" d="m168.5 234.1c4.5 5.8 9.7 9.3 11.7 7.7 2-1.5 0.1-7.5-4.4-13.3-4.4-5.8-9.6-9.3-11.6-7.8-2 1.6-0.1 7.5 4.3 13.4z"/><path class="d" d="m275 165.2c4.9 5.4 11.4 7.5 14.4 4.7 3.1-2.8 1.5-9.4-3.4-14.8-5-5.4-11.5-7.5-14.5-4.7-3 2.8-1.5 9.4 3.5 14.8z"/><path class="d" d="m166.7 202.7c3 3.9 7.3 5.6 9.5 3.9 2.3-1.8 1.8-6.3-1.1-10.2-3-3.9-7.3-5.7-9.6-3.9-2.3 1.7-1.7 6.3 1.2 10.2z"/><path class="d" d="m274.8 235.5c-4.2 2.4-6.4 6.4-5 8.9 1.4 2.5 6 2.6 10.3 0.1 4.2-2.4 6.5-6.4 5-8.9-1.4-2.5-6-2.6-10.3-0.1z"/><path class="d" d="m274.2 224.4c-2.1 1.3-3.3 3.3-2.5 4.5 0.7 1.3 3 1.3 5.1 0 2.1-1.2 3.2-3.2 2.5-4.4-0.7-1.3-3-1.3-5.1-0.1z"/><path class="d" d="m256.5 233.5c-1.8 1.1-2.8 2.8-2.2 3.8 0.6 1.1 2.6 1.1 4.4 0.1 1.8-1.1 2.7-2.8 2.1-3.8-0.6-1.1-2.5-1.1-4.3-0.1z"/><path class="f" d="m267.4 272.4c-6.6 3.1-10.8 8.1-9.4 11.1 1.4 3 7.9 2.9 14.5-0.3 6.6-3.1 10.8-8.1 9.4-11.1-1.4-3-7.9-2.9-14.5 0.3z"/></svg>