<svg version="1.2" xmlns="http://www.w3.org/2000/svg" viewBox="0 0 299 202" width="299" height="202"><style>.a{fill:#fff}.b{fill:#8399be}.c{fill:#a3acd3}.d{fill:#fbeb53}.e{fill:#2d3c77}</style><path class="a" d="m174.5 152.1v5.3h-25.4c-6.3-1-9.3-5.1-9.3-13.7v-25.9c0-10.2-3.9-15.3-11.1-17.1 7.2-1.8 11.1-6.9 11.1-17.1v-25.8c0-8.6 3-12.8 9.3-13.7h6.5q0.1 0 0.2 0h18.7v5.7l7.8-4.5 7.9-4.5-7.9-4.5-7.8-4.6v5.5l-27 0.4c-9.6 1.6-14.8 8.4-14.8 20.2v25.8c0 10.3-12.8 13.7-12.8 13.7h-18.3v6.9h18.3c0 0 12.8 3.3 12.8 13.6v25.9c0 11.7 5.2 18.6 14.8 20.2l27 0.5v5.8l7.8-4.5 7.9-4.5-7.9-4.5z"/><path class="b" d="m291.1 40.7c0 22.3-18.1 40.4-40.4 40.4-22.3 0-40.3-18.1-40.3-40.4 0-22.3 18-40.3 40.3-40.3 22.3 0 40.4 18 40.4 40.3z"/><path class="a" d="m246.8 60.6l-20.2-16.5 5.3-6.5 13.7 11.1 22.7-27.9 6.6 5.4z"/><path class="c" d="m250.7 118.9l23.9 41.3 23.9 41.4h-47.8-47.8l23.9-41.4z"/><path class="a" d="m257.2 176.3l13.3-13.2c0.2-0.3 0.2-0.8 0-1.1q0 0 0 0l-5.5-5.4c-0.3-0.3-0.7-0.3-1 0q0 0 0 0l-13.3 13.3-13.3-13.3c-0.3-0.3-0.7-0.3-1 0q0 0 0 0l-5.5 5.4c-0.2 0.3-0.2 0.8 0 1.1q0 0 0 0l13.3 13.2-13.3 13.3c-0.2 0.3-0.2 0.8 0 1.1q0 0 0 0l5.5 5.4c0.3 0.3 0.7 0.3 1 0q0 0 0 0l13.3-13.3 13.3 13.3c0.3 0.3 0.7 0.3 1 0q0 0 0 0l5.5-5.4c0.2-0.3 0.2-0.8 0-1.1q0 0 0 0z"/><path class="d" d="m65.1 141.3h-49c-8.7 0-15.8-7.1-15.8-15.8v-49c0-8.8 7.1-15.9 15.8-15.9h49c8.8 0 15.9 7.1 15.9 15.9v49c0 8.7-7.1 15.8-15.9 15.8z"/><path class="e" d="m35.3 113q0-2.4 0.5-4.7 0.5-2.2 1.5-4.2 1-1.8 2.1-2.9 1.2-1.1 2.6-2.2 1.5-1.1 3.2-3 1.5-1.6 1.9-3.1 0.5-1.6 0.5-3.4 0-1.1-0.3-2.1-0.2-1-0.9-1.8-0.9-1.3-2.5-1.8-1.5-0.6-3.3-0.6-1.4 0-2.7 0.4-1.3 0.4-2.2 1.1-1.1 0.9-1.6 2.1-0.5 1.2-0.4 2.7h-8.9q0.3-3.5 1.9-6.5 1.5-3 4.1-4.8 2-1.4 4.5-2.2 2.5-0.7 5-0.7 3.9 0 7.3 1.2 3.4 1.2 5.7 3.9 1.5 1.8 2.4 4.1 0.8 2.4 0.8 4.8 0 3.6-1.6 6.6-1.5 3-3.9 5.5-1.1 1.2-2.1 2.1-1.1 0.9-1.9 1.7-0.9 0.9-1.4 1.8-1 1.7-1.2 2.8-0.2 1.2-0.2 3.2zm0.1 13.7v-9.3h8.9v9.3z"/></svg>