<?xml version="1.0" encoding="UTF-8" standalone="no"?>
<svg
   version="1.2"
   viewBox="0 0 354 294"
   width="354"
   height="294"
   id="svg221"
   sodipodi:docname="stats-concise-hypos.svg"
   inkscape:version="1.2.2 (732a01da63, 2022-12-09)"
   xmlns:inkscape="http://www.inkscape.org/namespaces/inkscape"
   xmlns:sodipodi="http://sodipodi.sourceforge.net/DTD/sodipodi-0.dtd"
   xmlns="http://www.w3.org/2000/svg"
   xmlns:svg="http://www.w3.org/2000/svg">
  <defs
     id="defs225" />
  <sodipodi:namedview
     id="namedview223"
     pagecolor="#ffffff"
     bordercolor="#000000"
     borderopacity="0.25"
     inkscape:showpageshadow="2"
     inkscape:pageopacity="0.0"
     inkscape:pagecheckerboard="0"
     inkscape:deskcolor="#d1d1d1"
     showgrid="false"
     inkscape:zoom="0.80272109"
     inkscape:cx="21.800847"
     inkscape:cy="147.62288"
     inkscape:window-width="1280"
     inkscape:window-height="945"
     inkscape:window-x="-9"
     inkscape:window-y="-9"
     inkscape:window-maximized="1"
     inkscape:current-layer="svg221" />
  <style
     id="style205">.a{fill:#fff}.b{fill:#8399be}.c{fill:#a3acd3}.d{fill:#fbeb53}.e{fill:#2d3c77}</style>
  <g
     id="g1316"
     transform="translate(27.600001,46)">
    <path
       class="a"
       d="m 174.5,152.1 v 5.3 h -25.4 c -6.3,-1 -9.3,-5.1 -9.3,-13.7 v -25.9 c 0,-10.2 -3.9,-15.3 -11.1,-17.1 7.2,-1.8 11.1,-6.9 11.1,-17.1 V 57.8 c 0,-8.6 3,-12.8 9.3,-13.7 h 6.5 q 0.1,0 0.2,0 h 18.7 v 5.7 l 7.8,-4.5 7.9,-4.5 -7.9,-4.5 -7.8,-4.6 v 5.5 l -27,0.4 c -9.6,1.6 -14.8,8.4 -14.8,20.2 v 25.8 c 0,10.3 -12.8,13.7 -12.8,13.7 h -18.3 v 6.9 h 18.3 c 0,0 12.8,3.3 12.8,13.6 v 25.9 c 0,11.7 5.2,18.6 14.8,20.2 l 27,0.5 v 5.8 l 7.8,-4.5 7.9,-4.5 -7.9,-4.5 z"
       id="path207" />
    <path
       class="b"
       d="m 291.1,40.7 c 0,22.3 -18.1,40.4 -40.4,40.4 -22.3,0 -40.3,-18.1 -40.3,-40.4 0,-22.3 18,-40.3 40.3,-40.3 22.3,0 40.4,18 40.4,40.3 z"
       id="path209" />
    <path
       class="a"
       d="m 246.8,60.6 -20.2,-16.5 5.3,-6.5 13.7,11.1 22.7,-27.9 6.6,5.4 z"
       id="path211" />
    <path
       class="c"
       d="m 250.7,118.9 23.9,41.3 23.9,41.4 h -47.8 -47.8 l 23.9,-41.4 z"
       id="path213" />
    <path
       class="a"
       d="m 257.2,176.3 13.3,-13.2 c 0.2,-0.3 0.2,-0.8 0,-1.1 q 0,0 0,0 l -5.5,-5.4 c -0.3,-0.3 -0.7,-0.3 -1,0 q 0,0 0,0 l -13.3,13.3 -13.3,-13.3 c -0.3,-0.3 -0.7,-0.3 -1,0 q 0,0 0,0 l -5.5,5.4 c -0.2,0.3 -0.2,0.8 0,1.1 q 0,0 0,0 l 13.3,13.2 -13.3,13.3 c -0.2,0.3 -0.2,0.8 0,1.1 q 0,0 0,0 l 5.5,5.4 c 0.3,0.3 0.7,0.3 1,0 q 0,0 0,0 l 13.3,-13.3 13.3,13.3 c 0.3,0.3 0.7,0.3 1,0 q 0,0 0,0 l 5.5,-5.4 c 0.2,-0.3 0.2,-0.8 0,-1.1 q 0,0 0,0 z"
       id="path215" />
    <path
       class="d"
       d="m 65.1,141.3 h -49 c -8.7,0 -15.8,-7.1 -15.8,-15.8 v -49 c 0,-8.8 7.1,-15.9 15.8,-15.9 h 49 c 8.8,0 15.9,7.1 15.9,15.9 v 49 c 0,8.7 -7.1,15.8 -15.9,15.8 z"
       id="path217" />
    <path
       class="e"
       d="m 35.3,113 q 0,-2.4 0.5,-4.7 0.5,-2.2 1.5,-4.2 1,-1.8 2.1,-2.9 1.2,-1.1 2.6,-2.2 1.5,-1.1 3.2,-3 1.5,-1.6 1.9,-3.1 0.5,-1.6 0.5,-3.4 0,-1.1 -0.3,-2.1 -0.2,-1 -0.9,-1.8 -0.9,-1.3 -2.5,-1.8 -1.5,-0.6 -3.3,-0.6 -1.4,0 -2.7,0.4 -1.3,0.4 -2.2,1.1 -1.1,0.9 -1.6,2.1 -0.5,1.2 -0.4,2.7 h -8.9 q 0.3,-3.5 1.9,-6.5 1.5,-3 4.1,-4.8 2,-1.4 4.5,-2.2 2.5,-0.7 5,-0.7 3.9,0 7.3,1.2 3.4,1.2 5.7,3.9 1.5,1.8 2.4,4.1 0.8,2.4 0.8,4.8 0,3.6 -1.6,6.6 -1.5,3 -3.9,5.5 -1.1,1.2 -2.1,2.1 -1.1,0.9 -1.9,1.7 -0.9,0.9 -1.4,1.8 -1,1.7 -1.2,2.8 -0.2,1.2 -0.2,3.2 z m 0.1,13.7 v -9.3 h 8.9 v 9.3 z"
       id="path219" />
  </g>
</svg>
