<svg version="1.2" xmlns="http://www.w3.org/2000/svg" viewBox="0 0 354 259" width="354" height="259"><style>.a{fill:#a3acd3}.b{fill:#fbeb53}.c{fill:#fff}.d{fill:#2d3c77}</style><path class="a" d="m307.9 180.9v56.6h-60.7v-150.2h-21v150.2h-166.4v-107.8h-21.1v128.9h8.6 12.5 248.1 21.1v-77.7z"/><path class="a" d="m307.9 0.8h-248.1-12.5-8.6v50.8h21.1v-29.7h71.6v166.8h21.1v-166.8h155.4v97.3h21.1v-118.4z"/><path class="b" d="m27.6 96.4v-14.4l-27.6 7.2z"/><path class="c" d="m18.1 67.6c-0.8 0.4-1.3 1.3-1.3 2.2q0 0.4 0.1 0.9l4.7 11.8v13.4l-4.7 11.9q-0.1 0.4-0.1 0.9c0 0.9 0.5 1.7 1.3 2.1 5.4 2.6 10.3 3.1 14.5 1.4 3.2-1.3 5.9-3.8 7.5-6.9 4.8 1 9.7 0.9 14.4-0.1 8-1.8 14.5-6.8 19.4-14.8 0.5-0.8 0.5-1.8-0.1-2.6-10.3-14.7-23.4-16.5-33.7-14.7-1.6-3.1-4.3-5.5-7.5-6.9-4.2-1.6-9.1-1.1-14.5 1.4z"/><path class="d" d="m40.7 89.2c0 2.9 1.8 5.6 4.5 6.7 2.6 1.1 5.7 0.5 7.8-1.6 2-2 2.7-5.1 1.5-7.8-1.1-2.7-3.7-4.5-6.6-4.5-4 0-7.2 3.3-7.2 7.2z"/><path class="b" d="m105.1 89.2c0 5.1-4.1 9.2-9.2 9.2-5.1 0-9.2-4.1-9.2-9.2 0-5 4.1-9.2 9.2-9.2 5.1 0 9.2 4.2 9.2 9.2z"/><path class="b" d="m105.1 120.2c0 5.1-4.1 9.2-9.2 9.2-5.1 0-9.2-4.1-9.2-9.2 0-5 4.1-9.2 9.2-9.2 5.1 0 9.2 4.2 9.2 9.2z"/><path class="b" d="m105.1 151.2c0 5.1-4.1 9.2-9.2 9.2-5.1 0-9.2-4.1-9.2-9.2 0-5 4.1-9.2 9.2-9.2 5.1 0 9.2 4.2 9.2 9.2z"/><path class="b" d="m105.1 182.2c0 5.1-4.1 9.2-9.2 9.2-5.1 0-9.2-4.1-9.2-9.2 0-5 4.1-9.2 9.2-9.2 5.1 0 9.2 4.2 9.2 9.2z"/><path class="b" d="m105.1 213.2c0 5.1-4.1 9.2-9.2 9.2-5.1 0-9.2-4.1-9.2-9.2 0-5 4.1-9.2 9.2-9.2 5.1 0 9.2 4.2 9.2 9.2z"/><path class="b" d="m136.1 213.2c0 5.1-4.1 9.2-9.2 9.2-5.1 0-9.2-4.1-9.2-9.2 0-5 4.1-9.2 9.2-9.2 5.1 0 9.2 4.2 9.2 9.2z"/><path class="b" d="m167.1 213.2c0 5.1-4.1 9.2-9.2 9.2-5.1 0-9.2-4.1-9.2-9.2 0-5 4.1-9.2 9.2-9.2 5.1 0 9.2 4.2 9.2 9.2z"/><path class="b" d="m198.1 213.2c0 5.1-4.1 9.2-9.2 9.2-5.1 0-9.2-4.1-9.2-9.2 0-5 4.1-9.2 9.2-9.2 5.1 0 9.2 4.2 9.2 9.2z"/><path class="b" d="m198.1 182.2c0 5.1-4.1 9.2-9.2 9.2-5.1 0-9.2-4.1-9.2-9.2 0-5 4.1-9.2 9.2-9.2 5.1 0 9.2 4.2 9.2 9.2z"/><path class="b" d="m198.1 151.2c0 5.1-4.1 9.2-9.2 9.2-5.1 0-9.2-4.1-9.2-9.2 0-5 4.1-9.2 9.2-9.2 5.1 0 9.2 4.2 9.2 9.2z"/><path class="b" d="m198.1 120.2c0 5.1-4.1 9.2-9.2 9.2-5.1 0-9.2-4.1-9.2-9.2 0-5 4.1-9.2 9.2-9.2 5.1 0 9.2 4.2 9.2 9.2z"/><path class="b" d="m198.1 89.2c0 5.1-4.1 9.2-9.2 9.2-5.1 0-9.2-4.1-9.2-9.2 0-5 4.1-9.2 9.2-9.2 5.1 0 9.2 4.2 9.2 9.2z"/><path class="b" d="m198.1 58.2c0 5.1-4.1 9.2-9.2 9.2-5.1 0-9.2-4.1-9.2-9.2 0-5 4.1-9.2 9.2-9.2 5.1 0 9.2 4.2 9.2 9.2z"/><path class="b" d="m229.1 58.2c0 5.1-4.1 9.2-9.2 9.2-5.1 0-9.2-4.1-9.2-9.2 0-5 4.1-9.2 9.2-9.2 5.1 0 9.2 4.2 9.2 9.2z"/><path class="b" d="m260.1 58.2c0 5.1-4.1 9.2-9.2 9.2-5.1 0-9.2-4.1-9.2-9.2 0-5 4.1-9.2 9.2-9.2 5.1 0 9.2 4.2 9.2 9.2z"/><path class="b" d="m291.1 58.2c0 5.1-4.1 9.2-9.2 9.2-5.1 0-9.2-4.1-9.2-9.2 0-5 4.1-9.2 9.2-9.2 5.1 0 9.2 4.2 9.2 9.2z"/><path class="b" d="m291.1 89.2c0 5.1-4.1 9.2-9.2 9.2-5.1 0-9.2-4.1-9.2-9.2 0-5 4.1-9.2 9.2-9.2 5.1 0 9.2 4.2 9.2 9.2z"/><path class="b" d="m291.1 120.2c0 5.1-4.1 9.2-9.2 9.2-5.1 0-9.2-4.1-9.2-9.2 0-5 4.1-9.2 9.2-9.2 5.1 0 9.2 4.2 9.2 9.2z"/><path class="b" d="m291.1 151.2c0 5.1-4.1 9.2-9.2 9.2-5.1 0-9.2-4.1-9.2-9.2 0-5 4.1-9.2 9.2-9.2 5.1 0 9.2 4.2 9.2 9.2z"/><path class="b" d="m322.1 151.2c0 5.1-4.1 9.2-9.2 9.2-5.1 0-9.2-4.1-9.2-9.2 0-5 4.1-9.2 9.2-9.2 5.1 0 9.2 4.2 9.2 9.2z"/><path class="b" d="m353.1 151.2c0 5.1-4.1 9.2-9.2 9.2-5.1 0-9.2-4.1-9.2-9.2 0-5 4.1-9.2 9.2-9.2 5.1 0 9.2 4.2 9.2 9.2z"/></svg>