<svg version="1.2" xmlns="http://www.w3.org/2000/svg" viewBox="0 0 259 264" width="259" height="264"><style>.a{fill:none;stroke:#a3acd3;stroke-miterlimit:10;stroke-width:17}.b{fill:#8399be}.c{fill:#a3acd3}.d{fill:#fbeb53}</style><path class="a" d="m247.6 86.9c8.2 18.3-4 41.5-27.2 51.8-23.1 10.3-48.5 3.9-56.7-14.3-8.1-18.2 4.1-41.4 27.2-51.7 23.2-10.4 48.6-4 56.7 14.2z"/><path class="a" d="m11.7 86.9c-8.1 18.3 4.1 41.5 27.2 51.8 23.2 10.3 48.6 3.9 56.7-14.3 8.2-18.2-4-41.4-27.2-51.7-23.1-10.4-48.5-4-56.7 14.2z"/><path class="b" d="m198 242.8c-8.1-20.6-35.6-35.7-68.3-35.7-32.7 0-60.2 15.1-68.4 35.7z"/><path class="b" d="m155.1 224.4h-50.1v-50.2h50.1z"/><path class="c" d="m157.9 175.6h-56.4c-20.1 0-36.4-16.3-36.4-36.4l-20-96.4c0-20.1 16.3-36.4 36.4-36.4h96.4c20.1 0 36.4 16.3 36.4 36.4l-20 96.4c0 20.1-16.3 36.4-36.4 36.4z"/><path class="b" d="m225.6 36.9h-191.8c-7.3 0-13.3-5.9-13.3-13.3v-10.2c0-7.3 6-13.2 13.3-13.2h191.8c7.3 0 13.3 5.9 13.3 13.2v10.2c0 7.4-6 13.3-13.3 13.3z"/><path class="d" d="m174.8 80.1l-21.2 20.5 5.1 29.1c0.1 0.8-0.2 1.5-0.8 2-0.7 0.4-1.4 0.5-2.1 0.1l-26.1-13.9-26.1 13.9c-0.7 0.4-1.5 0.3-2.1-0.1-0.6-0.5-0.9-1.2-0.8-2l5.1-29.1-21.2-20.5c-0.6-0.5-0.8-1.3-0.5-2.1 0.2-0.7 0.8-1.2 1.6-1.3l29.2-4.1 13-26.6c0.3-0.7 1-1.1 1.8-1.1 0.8 0 1.5 0.4 1.8 1.1l12.9 26.6 29.3 4.1c0.8 0.1 1.4 0.6 1.6 1.3 0.2 0.8 0.1 1.6-0.5 2.1z"/><path class="c" d="m212 263.2h-166.4v-20.4h166.4z"/></svg>