<?xml version="1.0" encoding="UTF-8" standalone="no"?>
<svg
   version="1.2"
   viewBox="0 0 354 294"
   width="354"
   height="294"
   id="svg362"
   sodipodi:docname="stats-core-topics.svg"
   inkscape:version="1.2.2 (732a01da63, 2022-12-09)"
   xmlns:inkscape="http://www.inkscape.org/namespaces/inkscape"
   xmlns:sodipodi="http://sodipodi.sourceforge.net/DTD/sodipodi-0.dtd"
   xmlns="http://www.w3.org/2000/svg"
   xmlns:svg="http://www.w3.org/2000/svg">
  <defs
     id="defs366" />
  <sodipodi:namedview
     id="namedview364"
     pagecolor="#ffffff"
     bordercolor="#000000"
     borderopacity="0.25"
     inkscape:showpageshadow="2"
     inkscape:pageopacity="0.0"
     inkscape:pagecheckerboard="0"
     inkscape:deskcolor="#d1d1d1"
     showgrid="false"
     inkscape:zoom="0.80272109"
     inkscape:cx="21.800847"
     inkscape:cy="147.62288"
     inkscape:window-width="1280"
     inkscape:window-height="945"
     inkscape:window-x="-9"
     inkscape:window-y="-9"
     inkscape:window-maximized="1"
     inkscape:current-layer="svg362" />
  <style
     id="style344">.a{fill:#8399be}.b{fill:none;stroke:#fff;stroke-miterlimit:10;stroke-width:6}.c{fill:#fbeb53}.d{fill:#a3acd3}.e{fill:#2d3c77}</style>
  <g
     id="g1281"
     transform="translate(69.3,5.1000005)">
    <path
       class="a"
       d="M 214.5,176.2 C 214.5,235.1 166.6,283 107.7,283 48.7,283 0.9,235.1 0.9,176.2 c 0,-11.7 7.4,-22.2 19.4,-31 19.7,-14.3 51.5,-23.5 87.4,-23.5 35.8,0 67.7,9.1 87.4,23.5 12,8.8 19.4,19.3 19.4,31 z"
       id="path346" />
    <path
       class="b"
       d="M 107.7,233 C 52.1,233 7,208 7,177.3 c 0,-30.7 45.1,-55.6 100.7,-55.6 55.6,0 100.7,24.9 100.7,55.6 0,30.7 -45.1,55.7 -100.7,55.7 z"
       id="path348" />
    <path
       class="c"
       d="m 157.3,150.3 c 4.5,5.6 6.9,11.9 6.9,18.5 0,8.7 -4.3,17.1 -12.2,23.7 -10,8.3 -26.1,13.9 -44.3,13.9 -18.2,0 -34.3,-5.6 -44.3,-13.9 -7.9,-6.6 -12.2,-15 -12.2,-23.7 0,-6.6 2.4,-12.9 6.9,-18.5 14.9,4.7 31.8,7.2 49.6,7.2 17.8,0 34.6,-2.5 49.6,-7.2 z"
       id="path350" />
    <path
       class="d"
       d="M 0.9,107.6 C 0.9,48.7 48.7,0.8 107.7,0.8 c 58.9,0 106.8,47.9 106.8,106.8 0,11.7 -7.4,22.3 -19.4,31 -19.7,14.4 -51.6,23.6 -87.4,23.6 C 71.8,162.2 40,153 20.3,138.6 8.3,129.9 0.9,119.3 0.9,107.6 Z"
       id="path352" />
    <path
       class="d"
       d="m 69.8,259.3 c -2.1,3.8 -10,3.3 -17.5,-1 -7.5,-4.4 -11.8,-10.9 -9.7,-14.7 2.2,-3.7 10,-3.3 17.6,1.1 7.5,4.3 11.8,10.9 9.6,14.6 z"
       id="path354" />
    <path
       class="e"
       d="m 170.2,55.6 c -4.4,7.7 -20.6,6.8 -36.1,-2.2 -15.5,-8.9 -24.5,-22.5 -20,-30.2 4.5,-7.8 20.7,-6.8 36.2,2.1 15.5,9 24.4,22.5 19.9,30.3 z"
       id="path356" />
    <path
       class="e"
       d="m 110.9,58.8 c -2,3.4 -7.8,3.9 -12.9,0.9 -5.1,-2.9 -7.6,-8.1 -5.6,-11.5 2,-3.5 7.7,-3.9 12.8,-1 5.1,3 7.6,8.2 5.7,11.6 z"
       id="path358" />
    <path
       class="e"
       d="m 138.6,80.4 c -1.1,1.9 -4.4,2.1 -7.4,0.5 -2.9,-1.7 -4.4,-4.7 -3.3,-6.7 1.2,-1.9 4.5,-2.1 7.4,-0.4 3,1.7 4.4,4.6 3.3,6.6 z"
       id="path360" />
  </g>
</svg>
