<?xml version="1.0" encoding="UTF-8" standalone="no"?>
<svg
   version="1.2"
   viewBox="0 0 354 294"
   width="354"
   height="294"
   id="svg720"
   sodipodi:docname="stats-simplified-rules.svg"
   inkscape:version="1.2.2 (732a01da63, 2022-12-09)"
   xmlns:inkscape="http://www.inkscape.org/namespaces/inkscape"
   xmlns:sodipodi="http://sodipodi.sourceforge.net/DTD/sodipodi-0.dtd"
   xmlns="http://www.w3.org/2000/svg"
   xmlns:svg="http://www.w3.org/2000/svg">
  <defs
     id="defs724" />
  <sodipodi:namedview
     id="namedview722"
     pagecolor="#ffffff"
     bordercolor="#000000"
     borderopacity="0.25"
     inkscape:showpageshadow="2"
     inkscape:pageopacity="0.0"
     inkscape:pagecheckerboard="0"
     inkscape:deskcolor="#d1d1d1"
     showgrid="false"
     inkscape:zoom="0.80272109"
     inkscape:cx="21.800847"
     inkscape:cy="147.62288"
     inkscape:window-width="1280"
     inkscape:window-height="945"
     inkscape:window-x="-9"
     inkscape:window-y="-9"
     inkscape:window-maximized="1"
     inkscape:current-layer="svg720" />
  <style
     id="style666">.a{fill:#a3acd3}.b{fill:#fbeb53}.c{fill:#fff}.d{fill:#2d3c77}</style>
  <g
     id="g1120"
     transform="translate(0.4500005,17.3)">
    <path
       class="a"
       d="m 307.9,180.9 v 56.6 H 247.2 V 87.3 h -21 V 237.5 H 59.8 V 129.7 H 38.7 v 128.9 h 8.6 12.5 248.1 21.1 v -77.7 z"
       id="path668" />
    <path
       class="a"
       d="M 307.9,0.8 H 59.8 47.3 38.7 V 51.6 H 59.8 V 21.9 h 71.6 v 166.8 h 21.1 V 21.9 h 155.4 v 97.3 H 329 V 0.8 Z"
       id="path670" />
    <path
       class="b"
       d="M 27.6,96.4 V 82 L 0,89.2 Z"
       id="path672" />
    <path
       class="c"
       d="m 18.1,67.6 c -0.8,0.4 -1.3,1.3 -1.3,2.2 q 0,0.4 0.1,0.9 l 4.7,11.8 v 13.4 l -4.7,11.9 q -0.1,0.4 -0.1,0.9 c 0,0.9 0.5,1.7 1.3,2.1 5.4,2.6 10.3,3.1 14.5,1.4 3.2,-1.3 5.9,-3.8 7.5,-6.9 4.8,1 9.7,0.9 14.4,-0.1 8,-1.8 14.5,-6.8 19.4,-14.8 0.5,-0.8 0.5,-1.8 -0.1,-2.6 C 63.5,73.1 50.4,71.3 40.1,73.1 38.5,70 35.8,67.6 32.6,66.2 28.4,64.6 23.5,65.1 18.1,67.6 Z"
       id="path674" />
    <path
       class="d"
       d="m 40.7,89.2 c 0,2.9 1.8,5.6 4.5,6.7 2.6,1.1 5.7,0.5 7.8,-1.6 2,-2 2.7,-5.1 1.5,-7.8 -1.1,-2.7 -3.7,-4.5 -6.6,-4.5 -4,0 -7.2,3.3 -7.2,7.2 z"
       id="path676" />
    <path
       class="b"
       d="m 105.1,89.2 c 0,5.1 -4.1,9.2 -9.2,9.2 -5.1,0 -9.2,-4.1 -9.2,-9.2 0,-5 4.1,-9.2 9.2,-9.2 5.1,0 9.2,4.2 9.2,9.2 z"
       id="path678" />
    <path
       class="b"
       d="m 105.1,120.2 c 0,5.1 -4.1,9.2 -9.2,9.2 -5.1,0 -9.2,-4.1 -9.2,-9.2 0,-5 4.1,-9.2 9.2,-9.2 5.1,0 9.2,4.2 9.2,9.2 z"
       id="path680" />
    <path
       class="b"
       d="m 105.1,151.2 c 0,5.1 -4.1,9.2 -9.2,9.2 -5.1,0 -9.2,-4.1 -9.2,-9.2 0,-5 4.1,-9.2 9.2,-9.2 5.1,0 9.2,4.2 9.2,9.2 z"
       id="path682" />
    <path
       class="b"
       d="m 105.1,182.2 c 0,5.1 -4.1,9.2 -9.2,9.2 -5.1,0 -9.2,-4.1 -9.2,-9.2 0,-5 4.1,-9.2 9.2,-9.2 5.1,0 9.2,4.2 9.2,9.2 z"
       id="path684" />
    <path
       class="b"
       d="m 105.1,213.2 c 0,5.1 -4.1,9.2 -9.2,9.2 -5.1,0 -9.2,-4.1 -9.2,-9.2 0,-5 4.1,-9.2 9.2,-9.2 5.1,0 9.2,4.2 9.2,9.2 z"
       id="path686" />
    <path
       class="b"
       d="m 136.1,213.2 c 0,5.1 -4.1,9.2 -9.2,9.2 -5.1,0 -9.2,-4.1 -9.2,-9.2 0,-5 4.1,-9.2 9.2,-9.2 5.1,0 9.2,4.2 9.2,9.2 z"
       id="path688" />
    <path
       class="b"
       d="m 167.1,213.2 c 0,5.1 -4.1,9.2 -9.2,9.2 -5.1,0 -9.2,-4.1 -9.2,-9.2 0,-5 4.1,-9.2 9.2,-9.2 5.1,0 9.2,4.2 9.2,9.2 z"
       id="path690" />
    <path
       class="b"
       d="m 198.1,213.2 c 0,5.1 -4.1,9.2 -9.2,9.2 -5.1,0 -9.2,-4.1 -9.2,-9.2 0,-5 4.1,-9.2 9.2,-9.2 5.1,0 9.2,4.2 9.2,9.2 z"
       id="path692" />
    <path
       class="b"
       d="m 198.1,182.2 c 0,5.1 -4.1,9.2 -9.2,9.2 -5.1,0 -9.2,-4.1 -9.2,-9.2 0,-5 4.1,-9.2 9.2,-9.2 5.1,0 9.2,4.2 9.2,9.2 z"
       id="path694" />
    <path
       class="b"
       d="m 198.1,151.2 c 0,5.1 -4.1,9.2 -9.2,9.2 -5.1,0 -9.2,-4.1 -9.2,-9.2 0,-5 4.1,-9.2 9.2,-9.2 5.1,0 9.2,4.2 9.2,9.2 z"
       id="path696" />
    <path
       class="b"
       d="m 198.1,120.2 c 0,5.1 -4.1,9.2 -9.2,9.2 -5.1,0 -9.2,-4.1 -9.2,-9.2 0,-5 4.1,-9.2 9.2,-9.2 5.1,0 9.2,4.2 9.2,9.2 z"
       id="path698" />
    <path
       class="b"
       d="m 198.1,89.2 c 0,5.1 -4.1,9.2 -9.2,9.2 -5.1,0 -9.2,-4.1 -9.2,-9.2 0,-5 4.1,-9.2 9.2,-9.2 5.1,0 9.2,4.2 9.2,9.2 z"
       id="path700" />
    <path
       class="b"
       d="m 198.1,58.2 c 0,5.1 -4.1,9.2 -9.2,9.2 -5.1,0 -9.2,-4.1 -9.2,-9.2 0,-5 4.1,-9.2 9.2,-9.2 5.1,0 9.2,4.2 9.2,9.2 z"
       id="path702" />
    <path
       class="b"
       d="m 229.1,58.2 c 0,5.1 -4.1,9.2 -9.2,9.2 -5.1,0 -9.2,-4.1 -9.2,-9.2 0,-5 4.1,-9.2 9.2,-9.2 5.1,0 9.2,4.2 9.2,9.2 z"
       id="path704" />
    <path
       class="b"
       d="m 260.1,58.2 c 0,5.1 -4.1,9.2 -9.2,9.2 -5.1,0 -9.2,-4.1 -9.2,-9.2 0,-5 4.1,-9.2 9.2,-9.2 5.1,0 9.2,4.2 9.2,9.2 z"
       id="path706" />
    <path
       class="b"
       d="m 291.1,58.2 c 0,5.1 -4.1,9.2 -9.2,9.2 -5.1,0 -9.2,-4.1 -9.2,-9.2 0,-5 4.1,-9.2 9.2,-9.2 5.1,0 9.2,4.2 9.2,9.2 z"
       id="path708" />
    <path
       class="b"
       d="m 291.1,89.2 c 0,5.1 -4.1,9.2 -9.2,9.2 -5.1,0 -9.2,-4.1 -9.2,-9.2 0,-5 4.1,-9.2 9.2,-9.2 5.1,0 9.2,4.2 9.2,9.2 z"
       id="path710" />
    <path
       class="b"
       d="m 291.1,120.2 c 0,5.1 -4.1,9.2 -9.2,9.2 -5.1,0 -9.2,-4.1 -9.2,-9.2 0,-5 4.1,-9.2 9.2,-9.2 5.1,0 9.2,4.2 9.2,9.2 z"
       id="path712" />
    <path
       class="b"
       d="m 291.1,151.2 c 0,5.1 -4.1,9.2 -9.2,9.2 -5.1,0 -9.2,-4.1 -9.2,-9.2 0,-5 4.1,-9.2 9.2,-9.2 5.1,0 9.2,4.2 9.2,9.2 z"
       id="path714" />
    <path
       class="b"
       d="m 322.1,151.2 c 0,5.1 -4.1,9.2 -9.2,9.2 -5.1,0 -9.2,-4.1 -9.2,-9.2 0,-5 4.1,-9.2 9.2,-9.2 5.1,0 9.2,4.2 9.2,9.2 z"
       id="path716" />
    <path
       class="b"
       d="m 353.1,151.2 c 0,5.1 -4.1,9.2 -9.2,9.2 -5.1,0 -9.2,-4.1 -9.2,-9.2 0,-5 4.1,-9.2 9.2,-9.2 5.1,0 9.2,4.2 9.2,9.2 z"
       id="path718" />
  </g>
</svg>
