<?xml version="1.0" encoding="UTF-8" standalone="no"?>
<svg
   version="1.2"
   viewBox="0 0 354 294"
   width="354"
   height="294"
   id="svg543"
   sodipodi:docname="stats-law-schools.svg"
   inkscape:version="1.2.2 (732a01da63, 2022-12-09)"
   xmlns:inkscape="http://www.inkscape.org/namespaces/inkscape"
   xmlns:sodipodi="http://sodipodi.sourceforge.net/DTD/sodipodi-0.dtd"
   xmlns="http://www.w3.org/2000/svg"
   xmlns:svg="http://www.w3.org/2000/svg">
  <defs
     id="defs547" />
  <sodipodi:namedview
     id="namedview545"
     pagecolor="#ffffff"
     bordercolor="#000000"
     borderopacity="0.25"
     inkscape:showpageshadow="2"
     inkscape:pageopacity="0.0"
     inkscape:pagecheckerboard="0"
     inkscape:deskcolor="#d1d1d1"
     showgrid="false"
     inkscape:zoom="0.80272109"
     inkscape:cx="40.487288"
     inkscape:cy="117.72458"
     inkscape:window-width="1280"
     inkscape:window-height="945"
     inkscape:window-x="-9"
     inkscape:window-y="-9"
     inkscape:window-maximized="1"
     inkscape:current-layer="svg543" />
  <style
     id="style485">.a{fill:#8399be}.b{fill:none;stroke:#8399be;stroke-miterlimit:10;stroke-width:6}.c{fill:#fbeb53}.d{fill:#a3acd3}.e{fill:none;stroke:#fff;stroke-miterlimit:10;stroke-width:8}.f{fill:#2d3c77}</style>
  <g
     id="g1225"
     transform="translate(13.127562,0.11045979)">
    <path
       class="a"
       d="m 316.8,183.3 c 0,52.2 -42.3,94.5 -94.4,94.5 -52.2,0 -94.5,-42.3 -94.5,-94.5 0,-52.1 42.3,-94.4 94.5,-94.4 52.1,0 94.4,42.3 94.4,94.4 z"
       id="path487" />
    <path
       class="b"
       d="m 113.6,75.1 c 0,29.9 -24.3,54.2 -54.3,54.2 -29.9,0 -54.2,-24.3 -54.2,-54.2 0,-30 24.3,-54.3 54.2,-54.3 30,0 54.3,24.3 54.3,54.3 z"
       id="path489" />
    <path
       class="c"
       d="m 90.8,283.7 c -18.4,0 -47.9,-7.3 -70.2,-20.2 -16.1,-9.4 -21.7,-15.1 -19.8,-20.2 1.5,-4 6.5,-5.4 17,-4.8 6.2,0.4 12.1,1.5 12.4,1.5 l -1.2,6.9 c -8.8,-1.5 -17.8,-2 -21.1,-1.1 1.2,1.5 4.8,5 16.2,11.6 14.2,8.3 32.5,14.7 50,17.7 16.2,2.7 25.5,1.4 27.5,-0.1 -0.6,-1 -3.7,-5.1 -19.8,-12.2 l 2.9,-6.4 c 10.9,4.8 23.5,11.3 24,18.4 0.1,1.4 -0.2,4.2 -3.5,6.2 -2.9,1.8 -8,2.7 -14.4,2.7 z"
       id="path491" />
    <path
       class="b"
       d="m 83.3,268.6 c -4.4,16 -21,25.4 -37,21 -16,-4.5 -25.4,-21 -21,-37 4.4,-16 21,-25.4 37,-21 16,4.4 25.4,21 21,37 z"
       id="path493" />
    <path
       class="c"
       d="m 108.7,274.8 c -0.4,-5.6 -8.5,-10.9 -17.2,-15.2 -0.5,2.4 -1.1,4.7 -1.8,7 9.3,4.8 11.4,7.6 11.9,8.4 -2,1.5 -11.3,2.8 -27.5,0.1 -17.5,-3 -35.8,-9.4 -50,-17.7 -11.4,-6.6 -15,-10.1 -16.2,-11.6 2.4,-0.6 8,-0.6 14.3,0.1 -0.5,-2 0.5,-4.3 2.3,-5.3 0.3,-0.2 0.5,-0.4 0.6,-0.4 q 0.3,-0.3 0.7,-0.6 0,-0.1 0.1,-0.2 c -2.2,-0.3 -5.1,-0.7 -8.1,-0.9 -10.5,-0.6 -15.5,0.8 -17,4.8 -1.9,5.1 3.7,10.8 19.8,20.2 22.3,12.9 51.8,20.2 70.2,20.2 6.4,0 11.5,-0.9 14.4,-2.7 3.3,-2 3.6,-4.8 3.5,-6.2 z"
       id="path495" />
    <path
       class="a"
       d="m 282.9,97.2 c -0.3,4.6 -0.2,9.1 -0.5,13.6 q 0,0.6 -0.2,1.1 c 20.2,17 33.1,42.5 33.1,70.9 0,51.2 -41.6,92.8 -92.7,92.8 -51.2,0 -92.8,-41.6 -92.8,-92.8 0,-28.3 12.8,-53.7 32.9,-70.7 q 0,-0.2 0,-0.3 c 1.4,-5.1 1.3,-10.5 1.2,-15.7 -27.8,18.8 -46.1,50.7 -46.1,86.7 0,57.8 47,104.8 104.8,104.8 57.7,0 104.7,-47 104.7,-104.8 0,-35.3 -17.6,-66.6 -44.4,-85.6 z"
       id="path497" />
    <path
       class="d"
       d="m 63.8,264.7 c 0,0.8 -0.7,1.4 -1.5,1.4 -0.8,0 -1.4,-0.6 -1.4,-1.4 0,-0.8 0.6,-1.5 1.4,-1.5 0.8,0 1.5,0.7 1.5,1.5 z"
       id="path499" />
    <path
       class="d"
       d="m 64.3,241.1 c -0.3,1.4 -2.8,2 -5.5,1.4 -2.8,-0.6 -4.8,-2.2 -4.5,-3.6 0.3,-1.4 2.8,-2 5.6,-1.4 2.8,0.6 4.7,2.2 4.4,3.6 z"
       id="path501" />
    <path
       class="d"
       d="m 72.7,260.8 c 1,1.3 1.1,2.8 0.2,3.5 -0.8,0.6 -2.3,0.1 -3.3,-1.2 -0.9,-1.2 -1,-2.8 -0.2,-3.4 0.9,-0.6 2.4,-0.1 3.3,1.1 z"
       id="path503" />
    <path
       class="d"
       d="m 57.2,108.4 c -2.3,4.1 -10.2,4 -17.5,-0.2 -7.4,-4.3 -11.4,-11 -9,-15.1 2.4,-4.1 10.2,-4 17.6,0.2 7.3,4.2 11.3,11 8.9,15.1 z"
       id="path505" />
    <path
       class="d"
       d="m 89.3,76.5 c -3.4,2.6 -8.4,1.8 -11.1,-1.8 -2.7,-3.6 -2.1,-8.5 1.3,-11.1 3.4,-2.6 8.3,-1.8 11,1.8 2.7,3.5 2.2,8.5 -1.2,11.1 z"
       id="path507" />
    <path
       class="d"
       d="m 28.4,63.5 c -1.7,1.3 -4.1,0.9 -5.5,-0.9 -1.3,-1.7 -1.1,-4.2 0.6,-5.5 1.7,-1.3 4.2,-0.9 5.6,0.9 1.3,1.7 1,4.2 -0.7,5.5 z"
       id="path509" />
    <path
       class="d"
       d="m 39.4,53.5 c -1.7,1.3 -4.1,0.9 -5.5,-0.9 -1.3,-1.7 -1.1,-4.2 0.6,-5.5 1.7,-1.3 4.2,-0.9 5.6,0.9 1.3,1.7 1,4.2 -0.7,5.5 z"
       id="path511" />
    <path
       class="d"
       d="m 42.4,66.5 c -1.7,1.3 -4.1,0.9 -5.5,-0.9 -1.3,-1.7 -1.1,-4.2 0.6,-5.5 1.7,-1.3 4.2,-0.9 5.6,0.9 1.3,1.7 1,4.2 -0.7,5.5 z"
       id="path513" />
    <path
       class="a"
       d="m 164.2,111.1 h 118 c 0,0 3.3,15.2 -12.8,21 -16.1,5.7 -71.9,4.5 -71.9,4.5 l -20.2,-3.3 -8.1,-7.4 -5,-5.3 z"
       id="path515" />
    <path
       fill-rule="evenodd"
       class="c"
       d="m 182.4,115.4 c -0.9,0 -1.6,-0.7 -1.6,-1.5 v -3.3 c 0.1,-2.1 1.9,-3.7 4,-3.7 h 4.7 v -0.8 c 0,-1.7 1.1,-3.2 2.7,-3.7 V 71.8 c -1.6,-0.6 -2.7,-2.1 -2.7,-3.8 v -1.9 h -6.1 c -0.6,0 -1.3,-0.2 -1.8,-0.7 -0.5,-0.5 -0.8,-1.2 -0.8,-1.9 v -3.2 q 0,-0.3 0.1,-0.6 c -0.1,-0.6 0.2,-1.2 0.7,-1.6 l 40.8,-25.5 c 0.5,-0.3 1.1,-0.3 1.6,0 l 40.7,25.5 c 0.5,0.4 0.8,1 0.7,1.6 q 0.1,0.3 0.1,0.6 v 3.2 c 0,0.7 -0.3,1.4 -0.7,1.9 -0.5,0.5 -1.2,0.7 -1.9,0.7 h -6.1 V 68 c 0,1.7 -1.1,3.2 -2.6,3.8 v 30.6 c 1.6,0.5 2.6,2 2.7,3.7 v 0.8 h 4.7 c 2.1,0 3.9,1.6 4,3.7 v 3.2 c 0,0.9 -0.7,1.6 -1.6,1.6 z m 58.4,-8.5 v -0.8 c 0,-1.7 1.1,-3.2 2.7,-3.7 V 71.8 c -1.6,-0.6 -2.7,-2.1 -2.7,-3.8 v -1.9 h -9.6 V 68 c 0,1.7 -1,3.2 -2.6,3.8 v 30.6 c 1.6,0.5 2.6,2 2.6,3.7 v 0.8 z m -25.6,0 v -0.8 c 0,-1.7 1.1,-3.2 2.7,-3.8 V 71.8 c -1.6,-0.6 -2.7,-2.1 -2.7,-3.8 v -1.9 h -9.6 V 68 c 0,1.7 -1,3.2 -2.6,3.8 v 30.5 c 1.6,0.6 2.6,2.1 2.7,3.8 v 0.8 z M 188.3,57.6 h 69.8 L 223.2,35.8 Z"
       id="path517" />
    <path
       class="c"
       d="m 223.2,54.5 c 2.7,0 5.1,-1.7 6.2,-4.2 1,-2.5 0.5,-5.4 -1.5,-7.3 -1.9,-1.9 -4.8,-2.5 -7.3,-1.5 -2.5,1.1 -4.1,3.5 -4.1,6.2 0,3.7 3,6.7 6.7,6.8 z"
       id="path519" />
    <path
       class="e"
       d="m 223.2,136.6 c -32.6,0 -59,-0.9 -59,-25.5 v -48 c 0,-32.6 26.4,-59 59,-59 32.6,0 59,26.4 59,59 v 48 c 0,26.2 -26.4,25.5 -59,25.5 z"
       id="path521" />
    <path
       class="a"
       d="m 132.1,135.4 -16.5,1.3 c 0,0 -11.2,13.5 -5.5,30.2 3.5,6.6 9.8,17.9 9.8,17.9"
       id="path523" />
    <path
       class="a"
       d="m 243.9,281 15.1,9.7 c 0,0 20.2,-2.2 29.6,-15.7 0,-13 0,-17.2 0,-17.2 z"
       id="path525" />
    <path
       class="f"
       d="m 112.3,152.2 c -1.6,7.2 -1,13.4 1.5,13.9 2.5,0.6 5.8,-4.7 7.4,-11.9 1.6,-7.1 0.9,-13.3 -1.6,-13.9 -2.4,-0.6 -5.7,4.8 -7.3,11.9 z"
       id="path527" />
    <path
       class="d"
       d="m 168.5,234.1 c 4.5,5.8 9.7,9.3 11.7,7.7 2,-1.5 0.1,-7.5 -4.4,-13.3 -4.4,-5.8 -9.6,-9.3 -11.6,-7.8 -2,1.6 -0.1,7.5 4.3,13.4 z"
       id="path529" />
    <path
       class="d"
       d="m 275,165.2 c 4.9,5.4 11.4,7.5 14.4,4.7 3.1,-2.8 1.5,-9.4 -3.4,-14.8 -5,-5.4 -11.5,-7.5 -14.5,-4.7 -3,2.8 -1.5,9.4 3.5,14.8 z"
       id="path531" />
    <path
       class="d"
       d="m 166.7,202.7 c 3,3.9 7.3,5.6 9.5,3.9 2.3,-1.8 1.8,-6.3 -1.1,-10.2 -3,-3.9 -7.3,-5.7 -9.6,-3.9 -2.3,1.7 -1.7,6.3 1.2,10.2 z"
       id="path533" />
    <path
       class="d"
       d="m 274.8,235.5 c -4.2,2.4 -6.4,6.4 -5,8.9 1.4,2.5 6,2.6 10.3,0.1 4.2,-2.4 6.5,-6.4 5,-8.9 -1.4,-2.5 -6,-2.6 -10.3,-0.1 z"
       id="path535" />
    <path
       class="d"
       d="m 274.2,224.4 c -2.1,1.3 -3.3,3.3 -2.5,4.5 0.7,1.3 3,1.3 5.1,0 2.1,-1.2 3.2,-3.2 2.5,-4.4 -0.7,-1.3 -3,-1.3 -5.1,-0.1 z"
       id="path537" />
    <path
       class="d"
       d="m 256.5,233.5 c -1.8,1.1 -2.8,2.8 -2.2,3.8 0.6,1.1 2.6,1.1 4.4,0.1 1.8,-1.1 2.7,-2.8 2.1,-3.8 -0.6,-1.1 -2.5,-1.1 -4.3,-0.1 z"
       id="path539" />
    <path
       class="f"
       d="m 267.4,272.4 c -6.6,3.1 -10.8,8.1 -9.4,11.1 1.4,3 7.9,2.9 14.5,-0.3 6.6,-3.1 10.8,-8.1 9.4,-11.1 -1.4,-3 -7.9,-2.9 -14.5,0.3 z"
       id="path541" />
  </g>
</svg>
