<?xml version="1.0" encoding="UTF-8" standalone="no"?>
<svg
   version="1.2"
   viewBox="0 0 354 294"
   width="354"
   height="294"
   id="svg26"
   sodipodi:docname="stats-students.svg"
   inkscape:version="1.2.2 (732a01da63, 2022-12-09)"
   xmlns:inkscape="http://www.inkscape.org/namespaces/inkscape"
   xmlns:sodipodi="http://sodipodi.sourceforge.net/DTD/sodipodi-0.dtd"
   xmlns="http://www.w3.org/2000/svg"
   xmlns:svg="http://www.w3.org/2000/svg">
  <defs
     id="defs30" />
  <sodipodi:namedview
     id="namedview28"
     pagecolor="#ffffff"
     bordercolor="#000000"
     borderopacity="0.25"
     inkscape:showpageshadow="2"
     inkscape:pageopacity="0.0"
     inkscape:pagecheckerboard="0"
     inkscape:deskcolor="#d1d1d1"
     showgrid="false"
     inkscape:zoom="0.80546075"
     inkscape:cx="101.18432"
     inkscape:cy="166.98517"
     inkscape:window-width="1280"
     inkscape:window-height="945"
     inkscape:window-x="-9"
     inkscape:window-y="-9"
     inkscape:window-maximized="1"
     inkscape:current-layer="svg26" />
  <style
     id="style2">.a{fill:none;stroke:#fff;stroke-miterlimit:10;stroke-width:12}.b{fill:#fff}.c{fill:#8399be}.d{fill:#fbeb53}.e{fill:none;stroke:#a3acd3;stroke-linecap:round;stroke-miterlimit:10;stroke-width:7}.f{fill:#2d3c77}</style>
  <g
     id="g1341"
     transform="translate(23.15,-0.24999948)">
    <path
       class="a"
       d="m 288.3,154.8 c 0,59.7 -50,108 -111.6,108 C 115,262.8 65,214.5 65,154.8 c 0,-59.6 50,-108 111.7,-108 61.6,0 111.6,48.4 111.6,108 z"
       id="path4" />
    <path
       class="b"
       d="m 262.9,242.9 h -18.4 c -5.2,5.4 -11.3,9.3 -18,12 h 36.4 c 4.4,0 8,3.6 8,8 V 273 c 0,4.4 -3.6,8 -8,8 H 90.4 c -4.4,0 -8,-3.6 -8,-8 v -10.1 c 0,-4.4 3.6,-8 8,-8 h 39.4 c -2.7,-0.8 -5.2,-1.9 -7.4,-3.5 -3,-2.2 -4.6,-5.3 -6,-8.5 h -26 c -11,0 -20,9 -20,20 V 273 c 0,11 9,20 20,20 h 172.5 c 11,0 20,-9 20,-20 v -10.1 c 0,-11 -9,-20 -20,-20 z"
       id="path6" />
    <path
       class="c"
       d="m 266.5,173 c 0,34.9 -39.8,63.2 -88.8,63.2 -49.1,0 -88.9,-28.3 -88.9,-63.2 0,-34.9 39.8,-63.2 88.9,-63.2 49,0 88.8,28.3 88.8,63.2 z"
       id="path8" />
    <path
       class="d"
       d="m 30.8,86.1 -13.4,132.2 10.9,-5 6.3,9.9 2.3,-143.3 c 0,0 -4.6,-8.4 -6.1,6.2 z"
       id="path10" />
    <path
       class="e"
       d="m 149.5,123 c 13.5,-4.5 52.6,-5.4 78.6,12.3 36,24.3 25.8,53.7 25.8,53.7"
       id="path12" />
    <path
       class="b"
       d="m 70.4,157.9 c 0,17.5 -5.4,31.6 -12,31.6 -6.7,0 -12,-14.1 -12,-31.6 0,-17.5 5.3,-31.6 12,-31.6 6.6,0 12,14.1 12,31.6 z"
       id="path14" />
    <path
       class="b"
       d="m 307.7,157.9 c 0,17.5 -5.3,31.6 -12,31.6 -6.6,0 -12,-14.1 -12,-31.6 0,-17.5 5.4,-31.6 12,-31.6 6.7,0 12,14.1 12,31.6 z"
       id="path16" />
    <path
       class="f"
       d="m 154.3,192.9 c 0,3.4 -2.8,6.1 -6.1,6.1 -3.4,0 -6.1,-2.7 -6.1,-6.1 0,-3.3 2.7,-6.1 6.1,-6.1 3.3,0 6.1,2.8 6.1,6.1 z"
       id="path18" />
    <path
       class="f"
       d="m 213.2,192.9 c 0,3.4 -2.7,6.1 -6.1,6.1 -3.3,0 -6.1,-2.7 -6.1,-6.1 0,-3.3 2.8,-6.1 6.1,-6.1 3.4,0 6.1,2.8 6.1,6.1 z"
       id="path20" />
    <path
       class="f"
       d="m 168.6,195.5 c 0,0 -0.1,11.5 8.8,11.5 9.3,0 9.3,-11.5 9.3,-11.5 z"
       id="path22" />
    <path
       class="d"
       d="M 124.9,0.5 0,81.3 36.8,84.7 125.2,44.6 c -0.7,-0.9 -1.2,-1.9 -1.2,-2.9 0,-3 3.7,-5.5 8.4,-5.5 4.6,0 8.3,2.5 8.3,5.5 0,3 -3.7,5.5 -8.3,5.5 -3,0 -5.6,-1 -7.1,-2.6 L 48.4,85.7 152,95.1 273.6,3 Z"
       id="path24" />
  </g>
</svg>
