<svg version="1.2" xmlns="http://www.w3.org/2000/svg" viewBox="0 0 308 293" width="308" height="293"><style>.a{fill:none;stroke:#fff;stroke-miterlimit:10;stroke-width:12}.b{fill:#fff}.c{fill:#8399be}.d{fill:#fbeb53}.e{fill:none;stroke:#a3acd3;stroke-linecap:round;stroke-miterlimit:10;stroke-width:7}.f{fill:#2d3c77}</style><path class="a" d="m288.3 154.8c0 59.7-50 108-111.6 108-61.7 0-111.7-48.3-111.7-108 0-59.6 50-108 111.7-108 61.6 0 111.6 48.4 111.6 108z"/><path class="b" d="m262.9 242.9h-18.4c-5.2 5.4-11.3 9.3-18 12h36.4c4.4 0 8 3.6 8 8v10.1c0 4.4-3.6 8-8 8h-172.5c-4.4 0-8-3.6-8-8v-10.1c0-4.4 3.6-8 8-8h39.4c-2.7-0.8-5.2-1.9-7.4-3.5-3-2.2-4.6-5.3-6-8.5h-26c-11 0-20 9-20 20v10.1c0 11 9 20 20 20h172.5c11 0 20-9 20-20v-10.1c0-11-9-20-20-20z"/><path class="c" d="m266.5 173c0 34.9-39.8 63.2-88.8 63.2-49.1 0-88.9-28.3-88.9-63.2 0-34.9 39.8-63.2 88.9-63.2 49 0 88.8 28.3 88.8 63.2z"/><path class="d" d="m30.8 86.1l-13.4 132.2 10.9-5 6.3 9.9 2.3-143.3c0 0-4.6-8.4-6.1 6.2z"/><path class="e" d="m149.5 123c13.5-4.5 52.6-5.4 78.6 12.3 36 24.3 25.8 53.7 25.8 53.7"/><path class="b" d="m70.4 157.9c0 17.5-5.4 31.6-12 31.6-6.7 0-12-14.1-12-31.6 0-17.5 5.3-31.6 12-31.6 6.6 0 12 14.1 12 31.6z"/><path class="b" d="m307.7 157.9c0 17.5-5.3 31.6-12 31.6-6.6 0-12-14.1-12-31.6 0-17.5 5.4-31.6 12-31.6 6.7 0 12 14.1 12 31.6z"/><path class="f" d="m154.3 192.9c0 3.4-2.8 6.1-6.1 6.1-3.4 0-6.1-2.7-6.1-6.1 0-3.3 2.7-6.1 6.1-6.1 3.3 0 6.1 2.8 6.1 6.1z"/><path class="f" d="m213.2 192.9c0 3.4-2.7 6.1-6.1 6.1-3.3 0-6.1-2.7-6.1-6.1 0-3.3 2.8-6.1 6.1-6.1 3.4 0 6.1 2.8 6.1 6.1z"/><path class="f" d="m168.6 195.5c0 0-0.1 11.5 8.8 11.5 9.3 0 9.3-11.5 9.3-11.5z"/><path class="d" d="m124.9 0.5l-124.9 80.8 36.8 3.4 88.4-40.1c-0.7-0.9-1.2-1.9-1.2-2.9 0-3 3.7-5.5 8.4-5.5 4.6 0 8.3 2.5 8.3 5.5 0 3-3.7 5.5-8.3 5.5-3 0-5.6-1-7.1-2.6l-76.9 41.1 103.6 9.4 121.6-92.1z"/></svg>